<svg class="gridItem__media" xmlns="http://www.w3.org/2000/svg" width="1600" height="1200" fill="none"><path d="M253.6 535.1l188.5-334.8c10.8-19.2 32-30.1 53.9-27.8l719.8 75.3c19.9 2.1 37.2 14.8 45 33.2l108.7 254.4c4 9.3 5.3 19.5 3.9 29.5l-68.8 480.9H295l-48.2-478.1c-1.1-11.3 1.3-22.7 6.8-32.6z" fill="#F0F0F0"/><path d="M1145.8 342.6H449.1c-8.9 0-16.1-7.2-16.1-16.1 0-8.9 7.2-16.1 16.1-16.1h696.7c8.9 0 16.1 7.2 16.1 16.1 0 8.9-7.2 16.1-16.1 16.1z" fill="#fff"/><path d="M1006.6 342.6H449.1c-8.9 0-16.1-7.2-16.1-16.1 0-8.9 7.2-16.1 16.1-16.1h557.5c8.9 0 16.1 7.2 16.1 16.1 0 8.8-7.2 16.1-16.1 16.1zm-566.2 92.7v424.4c0 5.5 4.4 9.9 9.9 9.9h614.5c5.5 0 9.9-4.4 9.9-9.9V435.3c0-5.5-4.4-9.9-9.9-9.9H450.3c-5.5 0-9.9 4.4-9.9 9.9z" class="change-color-in-svg" fill="#44a7ef"/><path opacity=".3" d="M440.4 435.3v424.4c0 5.5 4.4 9.9 9.9 9.9h614.5c5.5 0 9.9-4.4 9.9-9.9V435.3c0-5.5-4.4-9.9-9.9-9.9H450.3c-5.5 0-9.9 4.4-9.9 9.9z" fill="#fff"/><path d="M432.9 435.3v424.4c0 5.5 4.4 9.9 9.9 9.9h614.5c5.5 0 9.9-4.4 9.9-9.9V435.3c0-5.5-4.4-9.9-9.9-9.9H442.8c-5.4 0-9.9 4.4-9.9 9.9z" class="change-color-in-svg" fill="#44a7ef"/><path opacity=".7" d="M432.9 435.3v424.4c0 5.5 4.4 9.9 9.9 9.9h614.5c5.5 0 9.9-4.4 9.9-9.9V435.3c0-5.5-4.4-9.9-9.9-9.9H442.8c-5.4 0-9.9 4.4-9.9 9.9z" fill="#fff"/><path d="M456.5 449.3c3.4 0 6.1-2.7 6.1-6.1 0-3.4-2.7-6.1-6.1-6.1-3.4 0-6.1 2.7-6.1 6.1-.1 3.4 2.7 6.1 6.1 6.1z" class="change-color-in-svg" fill="#44a7ef"/><path d="M478.5 449.3c3.4 0 6.1-2.7 6.1-6.1 0-3.4-2.7-6.1-6.1-6.1-3.4 0-6.1 2.7-6.1 6.1 0 3.4 2.8 6.1 6.1 6.1z" fill="#61656D"/><path d="M500.6 449.3c3.4 0 6.1-2.7 6.1-6.1 0-3.4-2.7-6.1-6.1-6.1-3.4 0-6.1 2.7-6.1 6.1 0 3.4 2.7 6.1 6.1 6.1z" fill="#21252B"/><path d="M968.7 505.1h-434c-2.6 0-4.8-2.1-4.8-4.8v-19.1c0-2.6 2.1-4.8 4.8-4.8h434c2.6 0 4.8 2.1 4.8 4.8v19.1c0 2.6-2.2 4.8-4.8 4.8z" fill="#fff"/><path d="M959.7 486.7c-2.1-2.1-5.5-2.1-7.7 0-2.1 2.1-2.1 5.6 0 7.7 1.9 1.9 5 2.1 7.1.5l3 3 1-1-3-3c1.6-2.2 1.5-5.2-.4-7.2zm-1.1 6.7c-1.5 1.5-4 1.5-5.6 0-1.5-1.5-1.5-4 0-5.6 1.5-1.5 4-1.5 5.6 0 1.6 1.5 1.6 4 0 5.6zm65.5-7.4H1008v1.6h16.1V486zm0 5.6H1008v1.6h16.1v-1.6zm0 5.7H1008v1.6h16.1v-1.6zm28.1-37.3H447.9v1.5h604.3V460z" class="change-color-in-svg" fill="#44a7ef"/><path opacity=".5" d="M1052.2 460H447.9v1.5h604.3V460z" fill="#fff"/><path d="M480 505.1h-18.5c-2.8 0-5.1-2.3-5.1-5.1v-18.5c0-2.8 2.3-5.1 5.1-5.1H480c2.8 0 5.1 2.3 5.1 5.1V500c0 2.8-2.3 5.1-5.1 5.1z" class="change-color-in-svg" fill="#44a7ef"/><path d="M466.4 485.5v10.7c0 .5.6.9 1.1.6l8.8-5.3c.4-.3.4-.9 0-1.2l-8.8-5.3c-.5-.4-1.1 0-1.1.5z" fill="#fff"/><path d="M760.4 724.9H461.9c-3 0-5.4-2.4-5.4-5.4v-190c0-3 2.4-5.4 5.4-5.4h298.5c3 0 5.4 2.4 5.4 5.4v190c0 3-2.4 5.4-5.4 5.4z" class="change-color-in-svg" fill="#44a7ef"/><path opacity=".5" d="M760.4 724.9H461.9c-3 0-5.4-2.4-5.4-5.4v-190c0-3 2.4-5.4 5.4-5.4h298.5c3 0 5.4 2.4 5.4 5.4v190c0 3-2.4 5.4-5.4 5.4z" fill="#fff"/><path opacity=".8" d="M881.1 587.9h-94c-1.2 0-2.2-1-2.2-2.2v-59.5c0-1.2 1-2.2 2.2-2.2h94c1.2 0 2.2 1 2.2 2.2v59.5c-.1 1.3-1.1 2.2-2.2 2.2zm0 79h-94c-1.2 0-2.2-1-2.2-2.2v-59.5c0-1.2 1-2.2 2.2-2.2h94c1.2 0 2.2 1 2.2 2.2v59.5c-.1 1.2-1.1 2.2-2.2 2.2zm0 78.9h-94c-1.2 0-2.2-1-2.2-2.2v-59.5c0-1.2 1-2.2 2.2-2.2h94c1.2 0 2.2 1 2.2 2.2v59.5c-.1 1.2-1.1 2.2-2.2 2.2zm0 78.9h-94c-1.2 0-2.2-1-2.2-2.2V763c0-1.2 1-2.2 2.2-2.2h94c1.2 0 2.2 1 2.2 2.2v59.5c-.1 1.3-1.1 2.2-2.2 2.2zm155-295H901.5c-1.6 0-2.8-1.3-2.8-2.8 0-1.5 1.3-2.8 2.8-2.8h134.6c1.6 0 2.8 1.3 2.8 2.8 0 1.6-1.3 2.8-2.8 2.8zm0 20.4H901.5c-1.6 0-2.8-1.3-2.8-2.8 0-1.6 1.3-2.8 2.8-2.8h134.6c1.6 0 2.8 1.3 2.8 2.8 0 1.5-1.3 2.8-2.8 2.8zm-60 20.399h-74.6c-1.6 0-2.8-1.3-2.8-2.8 0-1.5 1.3-2.8 2.8-2.8h74.6c1.6 0 2.8 1.3 2.8 2.8 0 1.5-1.2 2.8-2.8 2.8zm60 38.201H901.5c-1.6 0-2.8-1.3-2.8-2.8 0-1.6 1.3-2.8 2.8-2.8h134.6c1.6 0 2.8 1.3 2.8 2.8 0 1.5-1.3 2.8-2.8 2.8zm0 20.299H901.5c-1.6 0-2.8-1.3-2.8-2.8 0-1.6 1.3-2.8 2.8-2.8h134.6c1.6 0 2.8 1.3 2.8 2.8 0 1.6-1.3 2.8-2.8 2.8zm-60 20.401h-74.6c-1.6 0-2.8-1.3-2.8-2.8 0-1.5 1.3-2.8 2.8-2.8h74.6c1.6 0 2.8 1.3 2.8 2.8 0 1.5-1.2 2.8-2.8 2.8zm60 38.2H901.5c-1.6 0-2.8-1.3-2.8-2.8 0-1.6 1.3-2.8 2.8-2.8h134.6c1.6 0 2.8 1.3 2.8 2.8 0 1.5-1.3 2.8-2.8 2.8zm0 20.4H901.5c-1.6 0-2.8-1.3-2.8-2.8 0-1.5 1.3-2.8 2.8-2.8h134.6c1.6 0 2.8 1.3 2.8 2.8 0 1.5-1.3 2.8-2.8 2.8zm-60 20.3h-74.6c-1.6 0-2.8-1.3-2.8-2.8 0-1.6 1.3-2.8 2.8-2.8h74.6c1.6 0 2.8 1.3 2.8 2.8 0 1.6-1.2 2.8-2.8 2.8zm60 38.2H901.5c-1.6 0-2.8-1.3-2.8-2.8 0-1.6 1.3-2.8 2.8-2.8h134.6c1.6 0 2.8 1.3 2.8 2.8 0 1.6-1.3 2.8-2.8 2.8zm0 20.401H901.5c-1.6 0-2.8-1.3-2.8-2.8 0-1.5 1.3-2.8 2.8-2.8h134.6c1.6 0 2.8 1.3 2.8 2.8 0 1.5-1.3 2.8-2.8 2.8zm-60 20.399h-74.6c-1.6 0-2.8-1.3-2.8-2.8 0-1.5 1.3-2.8 2.8-2.8h74.6c1.6 0 2.8 1.3 2.8 2.8 0 1.5-1.2 2.8-2.8 2.8zm-254.9-8.9H501.1c-1.5 0-2.7-1.2-2.7-2.7v-.3c0-1.5 1.2-2.7 2.7-2.7h220.1c1.5 0 2.7 1.2 2.7 2.7v.3c-.1 1.5-1.2 2.7-2.7 2.7zm0 20.401H501.1c-1.5 0-2.7-1.2-2.7-2.7v-.3c0-1.5 1.2-2.7 2.7-2.7h220.1c1.5 0 2.7 1.2 2.7 2.7v.3c-.1 1.5-1.2 2.7-2.7 2.7zM624.7 839.2H501.1c-1.5 0-2.7-1.2-2.7-2.7v-.3c0-1.5 1.2-2.7 2.7-2.7h123.6c1.5 0 2.7 1.2 2.7 2.7v.3c0 1.5-1.2 2.7-2.7 2.7zm411.4 6.3H901.5c-1.6 0-2.8-1.3-2.8-2.8 0-1.5 1.3-2.8 2.8-2.8h134.6c1.6 0 2.8 1.3 2.8 2.8 0 1.5-1.3 2.8-2.8 2.8zm0 20.3H901.5c-1.6 0-2.8-1.3-2.8-2.8 0-1.5 1.3-2.8 2.8-2.8h134.6c1.6 0 2.8 1.3 2.8 2.8 0 1.5-1.3 2.8-2.8 2.8zm-152.9 3.7V842c0-1.2-1-2.2-2.2-2.2h-94c-1.2 0-2.2 1-2.2 2.2v27.5h98.4z" fill="#fff"/><path d="M491 708v9l7.5-4.5-7.5-4.5zm19.8 9l7.5-4.5-7.5-4.5v9zm7.5-9v9h1.9v-9h-1.9zm-40.1 9l-7.5-4.5 7.5-4.5v9z" fill="#fff"/><path d="M470.8 708v9h-1.9v-9h1.9zm285.9-10H465.6v1.2h291.1V698z" fill="#fff"/><path d="M636.2 697.4H465.6v2.5h170.6v-2.5z" class="change-color-in-svg" fill="#44a7ef"/><path d="M636.7 702.8c2.3 0 4.2-1.9 4.2-4.2 0-2.3-1.9-4.2-4.2-4.2-2.3 0-4.2 1.9-4.2 4.2.1 2.3 1.9 4.2 4.2 4.2z" class="change-color-in-svg" fill="#44a7ef"/><path d="M620.4 638.8h-18.5c-2.8 0-5.1-2.3-5.1-5.1v-18.5c0-2.8 2.3-5.1 5.1-5.1h18.5c2.8 0 5.1 2.3 5.1 5.1v18.5c0 2.8-2.3 5.1-5.1 5.1z" fill="#fff"/><path d="M606.7 619.3V630c0 .5.6.9 1.1.6l8.8-5.3c.5-.3.5-.9 0-1.2l-8.8-5.3c-.5-.4-1.1-.1-1.1.5zm231.1-57.4h-7.5c-1.1 0-2.1-.9-2.1-2.1v-7.5c0-1.1.9-2.1 2.1-2.1h7.5c1.1 0 2.1.9 2.1 2.1v7.5c0 1.1-.9 2.1-2.1 2.1z" class="change-color-in-svg" fill="#44a7ef"/><path opacity=".5" d="M837.8 561.9h-7.5c-1.1 0-2.1-.9-2.1-2.1v-7.5c0-1.1.9-2.1 2.1-2.1h7.5c1.1 0 2.1.9 2.1 2.1v7.5c0 1.1-.9 2.1-2.1 2.1z" fill="#fff"/><path opacity=".8" d="M832.3 553.9v4.4c0 .2.2.4.4.2l3.6-2.2c.2-.1.2-.4 0-.5l-3.6-2.2c-.2-.1-.4.1-.4.3z" fill="#fff"/><path d="M837.8 640.8h-7.5c-1.1 0-2.1-.9-2.1-2.1v-7.5c0-1.1.9-2.1 2.1-2.1h7.5c1.1 0 2.1.9 2.1 2.1v7.5c0 1.2-.9 2.1-2.1 2.1z" class="change-color-in-svg" fill="#44a7ef"/><path opacity=".5" d="M837.8 640.8h-7.5c-1.1 0-2.1-.9-2.1-2.1v-7.5c0-1.1.9-2.1 2.1-2.1h7.5c1.1 0 2.1.9 2.1 2.1v7.5c0 1.2-.9 2.1-2.1 2.1z" fill="#fff"/><path opacity=".8" d="M832.3 632.8v4.4c0 .2.2.4.4.2l3.6-2.2c.2-.1.2-.4 0-.5l-3.6-2.2c-.2 0-.4.1-.4.3z" fill="#fff"/><path d="M837.8 719.7h-7.5c-1.1 0-2.1-.9-2.1-2.1v-7.5c0-1.1.9-2.1 2.1-2.1h7.5c1.1 0 2.1.9 2.1 2.1v7.5c0 1.2-.9 2.1-2.1 2.1z" class="change-color-in-svg" fill="#44a7ef"/><path opacity=".5" d="M837.8 719.7h-7.5c-1.1 0-2.1-.9-2.1-2.1v-7.5c0-1.1.9-2.1 2.1-2.1h7.5c1.1 0 2.1.9 2.1 2.1v7.5c0 1.2-.9 2.1-2.1 2.1z" fill="#fff"/><path opacity=".8" d="M832.3 711.8v4.4c0 .2.2.4.4.2l3.6-2.2c.2-.1.2-.4 0-.5l-3.6-2.2c-.2-.1-.4 0-.4.3z" fill="#fff"/><path d="M837.8 798.7h-7.5c-1.1 0-2.1-.9-2.1-2.1V789c0-1.1.9-2.1 2.1-2.1h7.5c1.1 0 2.1.9 2.1 2.1v7.5c0 1.2-.9 2.2-2.1 2.2z" class="change-color-in-svg" fill="#44a7ef"/><path opacity=".5" d="M837.8 798.7h-7.5c-1.1 0-2.1-.9-2.1-2.1V789c0-1.1.9-2.1 2.1-2.1h7.5c1.1 0 2.1.9 2.1 2.1v7.5c0 1.2-.9 2.2-2.1 2.2z" fill="#fff"/><path opacity=".8" d="M832.3 790.7v4.4c0 .2.2.4.4.2l3.6-2.2c.2-.1.2-.4 0-.5l-3.6-2.2c-.2-.1-.4.1-.4.3z" fill="#fff"/><path d="M732.4 709.8h1.6v-3.1h3.1v-1.6h-4.7v4.7zm10-4.7v1.6h3.1v3.1h1.6v-4.7h-4.7zm3.1 12.6h-3.1v1.6h4.7v-4.7h-1.6v3.1zm-11.5-3.1h-1.6v4.7h4.7v-1.6H734v-3.1zm-10.4-9.5H698v14.1h25.6v-14.1z" fill="#fff"/><path d="M673 765.5H501.2c-1.5 0-2.8-1.2-2.8-2.8v-5.1c0-1.5 1.2-2.8 2.8-2.8H673c1.5 0 2.8 1.2 2.8 2.8v5.1c0 1.5-1.3 2.8-2.8 2.8z" class="change-color-in-svg" fill="#44a7ef"/><path opacity=".5" d="M673 765.5H501.2c-1.5 0-2.8-1.2-2.8-2.8v-5.1c0-1.5 1.2-2.8 2.8-2.8H673c1.5 0 2.8 1.2 2.8 2.8v5.1c0 1.5-1.3 2.8-2.8 2.8z" fill="#fff"/><path d="M480 774.5h-18.5c-2.8 0-5.1-2.3-5.1-5.1v-18.5c0-2.8 2.3-5.1 5.1-5.1H480c2.8 0 5.1 2.3 5.1 5.1v18.5c0 2.8-2.3 5.1-5.1 5.1z" fill="#fff"/><path d="M479.8 764.4h-17.6v4.4h17.6v-4.4zm-4.1-11.7h-9.4v9h9.4v-9z" class="change-color-in-svg" fill="#44a7ef"/><path opacity=".5" d="M475.7 752.7h-9.4v9h9.4v-9z" fill="#fff"/><path opacity=".7" d="M764.9 769.3h-21.8c-.8 0-1.4-.6-1.4-1.4v-16.4c0-.8.6-1.4 1.4-1.4h21.8c.8 0 1.4.6 1.4 1.4V768c-.1.7-.7 1.3-1.4 1.3z" fill="#fff"/><path d="M754.8 763.8c-.5.4-1.2.4-1.7 0-3.6-2.6-5.2-6.2-3-7.8 1.3-1 3-.1 3.6 1 .1.2.4.2.5 0 .6-1.1 2.3-1.9 3.6-1 2.2 1.5.6 5.2-3 7.8z" class="change-color-in-svg" fill="#44a7ef"/><path d="M1321.5 1046.5H274.4c-.4 0-.8-.3-.8-.8s.4-.8.8-.8h1047.2c.4 0 .8.3.8.8s-.4.8-.9.8z" fill="#ABAFB4"/><path d="M1008.6 375.2c28.4 0 51.4-23 51.4-51.4s-23-51.4-51.4-51.4-51.4 23-51.4 51.4c-.1 28.4 23 51.4 51.4 51.4z" fill="#FFCE00"/><path d="M1027.4 318.7c-.6.3-1.3.2-1.8-.2-8.2-7.1-11.3-16.4-5.7-19.6 3.2-1.8 6.8.6 8 3.2.2.4.8.5 1.1.1 1.8-2.3 5.9-3.7 8.5-1.2 4.8 4.5-.5 12.8-10.1 17.7zm-37.7 0c.6.3 1.3.2 1.8-.2 8.2-7.1 11.3-16.4 5.7-19.6-3.2-1.8-6.8.6-8 3.2-.2.4-.8.5-1.1.1-1.8-2.3-5.9-3.7-8.5-1.2-4.8 4.5.5 12.8 10.1 17.7z" fill="#FF274B"/><path d="M1015.4 360.7h-13.2c-13.8 0-25-11.2-25-25h63.2c0 13.8-11.2 25-25 25z" fill="#7E1817"/><path d="M977.2 335.7c0 2.3.3 4.5.9 6.6h38.4c8.5 0 13.1 10.1 7.4 16.5l-.6.6c9.9-3.3 17.1-12.7 17.1-23.7h-63.2z" fill="#21252B"/><path d="M1026.7 341.6h-36.8c-3.2 0-5.9-2.6-5.9-5.9h48.5c.1 3.2-2.6 5.9-5.8 5.9z" fill="#fff"/><path d="M1008.3 362.1c11 0 19.9-3.3 19.9-7.4 0-4.1-8.9-7.4-19.9-7.4-11 0-19.8 3.3-19.8 7.4 0 4.1 8.8 7.4 19.8 7.4z" fill="#FA5956"/><path d="M406.8 883.2s-2.5-26.5 17.5-42.8c20.1-16.3 51.1-10.7 51.1-10.7s-10.3 55.2-68.6 53.5z" class="change-color-in-svg" fill="#44a7ef"/><path opacity=".3" d="M406.8 883.2s-2.5-26.5 17.5-42.8c20.1-16.3 51.1-10.7 51.1-10.7s-10.3 55.2-68.6 53.5z" fill="#000"/><path d="M406.8 883.2s22.2-41.2 68.6-53.4c0-.1-67.5-12.2-68.6 53.4zm.5-41s-10.8-3.4-15.1-21.7c-4.3-18.3 4.9-38.3 4.9-38.3s16.1 12.9 17.4 33.5c1.3 20.5-7.2 26.5-7.2 26.5zm-39.9 77.3s-12 2.3-24.6-12.2c-12.6-14.5-12.9-37.4-12.9-37.4s21.5 3.8 32.3 21.8c10.7 18 5.2 27.8 5.2 27.8z" class="change-color-in-svg" fill="#44a7ef"/><path d="M381.8 975.7l-3.5-194 3.5-13.5 3.2 207.5h-3.2zm-8.2 0l-7.6-89-3.1 2.1 7.7 88 3-1.1zm30.4.5l3.3-151.5 3.3 2.2-2.9 147.8-3.7 1.5z" fill="#21252B"/><path d="M404 927.3s-16-10.1-23.2-31.8c-7.2-21.7-6.5-35.2-6.5-35.2s26 11.6 33 30.8c7 19.2-3.3 36.2-3.3 36.2zm-24.7-136.8s-5.7-13.2-.3-28.6c5.4-15.4 31.8-24.2 31.8-24.2s-10.2 36-31.5 52.8z" class="change-color-in-svg" fill="#44a7ef"/><path d="M379.3 790.5s-.7-17.3 7-31 24.6-21.8 24.6-21.8-47 11.6-31.6 52.8zm-5 69.8s24.8 21.1 31.9 67.1c.1.1 22.8-38.5-31.9-67.1z" class="change-color-in-svg" fill="#44a7ef"/><path opacity=".3" d="M407.3 842.2s-10.8-3.4-15.1-21.7c-4.3-18.3 4.9-38.3 4.9-38.3s16.1 12.9 17.4 33.5c1.3 20.5-7.2 26.5-7.2 26.5zm-39.9 77.3s-12 2.3-24.6-12.2c-12.6-14.5-12.9-37.4-12.9-37.4s21.5 3.8 32.3 21.8c10.7 18 5.2 27.8 5.2 27.8zm36.6 7.8s-16-10.1-23.2-31.8c-7.2-21.7-6.5-35.2-6.5-35.2s26 11.6 33 30.8c7 19.2-3.3 36.2-3.3 36.2zm-24.7-136.8s-5.7-13.2-.3-28.6c5.4-15.4 31.8-24.2 31.8-24.2s-10.2 36-31.5 52.8z" fill="#000"/><path d="M370.4 964.2s-6.9-22.9 7.9-40.8c14.8-18 43.2-18.5 43.2-18.5s.6 50.4-51.1 59.3z" class="change-color-in-svg" fill="#44a7ef"/><path opacity=".3" d="M370.4 964.2s-6.9-22.9 7.9-40.8c14.8-18 43.2-18.5 43.2-18.5s.6 50.4-51.1 59.3z" fill="#000"/><path d="M370.4 964.2s4.1-30.3 51-59.3c0 0-62.4.6-51 59.3zm39.9-122.6s-10-10.3-10.3-26.6c-.3-16.3 21.3-33.9 21.3-33.9s3.1 37.3-11 60.5z" class="change-color-in-svg" fill="#44a7ef"/><path d="M410.3 841.6s-13.7-35.4 11-60.5c0 0-43 28.2-11 60.5z" class="change-color-in-svg" fill="#44a7ef"/><path opacity=".3" d="M410.3 841.6s-5.7-9.9-6-26.2c-.3-16.3 17-34.3 17-34.3s3.1 37.3-11 60.5z" fill="#000"/><path d="M383.8 857s-11.3-.9-19.5-17.8c-8.2-16.9-3.6-38.5-3.6-38.5s18.5 9.1 24.3 28.8c5.8 19.8-1.2 27.5-1.2 27.5z" class="change-color-in-svg" fill="#44a7ef"/><path opacity=".3" d="M383.8 857s-11.3-.9-19.5-17.8c-8.2-16.9-3.6-38.5-3.6-38.5s18.5 9.1 24.3 28.8c5.8 19.8-1.2 27.5-1.2 27.5z" fill="#000"/><path d="M365 906.9s-11.1-9.2-13.2-25.3c-2.1-16.2 17.4-36 17.4-36s7.2 36.7-4.2 61.3z" class="change-color-in-svg" fill="#44a7ef"/><path opacity=".3" d="M365 906.9s-11.1-9.2-13.2-25.3c-2.1-16.2 17.4-36 17.4-36s7.2 36.7-4.2 61.3z" fill="#000"/><path d="M365 906.9s-14-28.3 4.2-61.4c0 0-36.7 30.4-4.2 61.4z" class="change-color-in-svg" fill="#44a7ef"/><path d="M340.1 974.3s1.9 52.2 17.1 71.6h66.7c15.2-19.4 17.1-71.6 17.1-71.6H340.1z" fill="#83878E"/><path d="M358.1 974.701c4.6 4.1 10.1 8.299 16 10.099 6.6 2 13.4.001 20-.899 7.4-1.1 14.8.999 22-1.301 4.4-1.4 11.3-3.199 12.8-8.199.2-.6-.8-.901-1-.301-1 3.4-4.6 4.7-7.6 5.9-2.8 1.1-5.6 2.2-8.5 2.6-6.1.9-12.3-.5-18.5.5-6.4 1-13.1 2.9-19.5.7-5.9-1.9-10.4-6.299-15.6-9.399 0 0-.2.2-.1.3zm-11.2 48.099c5.7.9 8.7 5.7 12.9 9.1 3.2 2.6 7 3.8 11.1 4.3 10 1.1 25.5-2.6 30 9.7.2.5 1 .3.8-.2-3.3-10.7-16.4-10.1-25.3-10.1-6.9 0-12.9-1-18-5.9-3.4-3.2-6.5-6.8-11.4-7.1-.1.1-.2.2-.1.2zm0-48.4c7.2 5.8 10.3 14.2 15.6 21.5 5 7 12.3 11 20.8 12.3 4.8.7 9.6.2 14.5.5 6.1.4 10.2 3.3 14.6 7.3 2.9 2.7 6.1 5.6 10.2 6.4 4.7 1 8.2-2.4 12.6-3.3.6-.1.4-1.1-.3-1-2.1.4-3.8 1.3-5.7 2.2-3.4 1.5-6.4 1.6-9.7-.2-4-2.1-6.9-5.7-10.4-8.4-7.8-5.9-16.9-3.1-25.9-4.5-9.8-1.6-17-6.9-22.2-15.2-4-6.3-7.3-13.7-13.9-17.8-.2 0-.3.1-.2.2z" fill="#61656D"/><path d="M342.8 1002h95.6l1.1-8.8h-97.9l1.2 8.8z" fill="#61656D"/><path d="M1143.6 907l7.6 89.5c.5 2.9 1.9 6.9 3.7 9.2 2 2.6 8.5 7.8 8.5 7.8l9.7 27.2-6.7-3.1-15.3.5-17.1-18.4s-2.1-18.7-3.4-24.2l-11.9-88.4 24.9-.1z" fill="#F99A9A"/><path opacity=".2" d="M1168 1026.3c-5.3-4.5-16.4-13.9-17.9-15.9-1.8-2.3-3.2-6.3-3.7-9.2l-4.2-27.7 1.5-66.6 7.6 89.5c.5 2.9 1.9 6.9 3.7 9.2 2 2.6 8.5 7.8 8.5 7.8l4.5 12.9z" fill="#000"/><path d="M1046.1 980.8c.9 5.2 1.1 21.4 1.1 21.4-1.5 6.4-5.6 10.5-7 12.4l-4.9 16.6c.2 4.6 21.2 8.3 25.8 8.3h1.4c5.2 0 10.9-4.6 10.2-9.8l-2.4-12.5c-1.3-6.3-1.6-12.8-1.2-19.2l4.9-121.2-29.6 62.1 1.7 41.9z" fill="#F99A9A"/><path opacity=".15" d="M1070.2 1017.2c-1.3-6.3-1.6-12.8-1.2-19.2l6.6-121.2-7.9 2.1-6.5 119.1c-.3 6.4 0 12.9 1.2 19.2l2.4 12.5c.5 4.1-1.9 7.9-5.5 9.2 1.1.4 2.3.6 3.3.6h1.4c5.2 0 9.2-4.6 8.5-9.8l-2.3-12.5z" fill="#000"/><path d="M1149.9 973.4l.7-327.5-63 11.3c-.1-3.1-.2-5.9-.4-8.1-1.6-18.1-28.3-22.5-48.3-14.4-12 4.9-21.7 21.8-21.7 21.8 8.8 111.2 28.7 317.4 28.7 317.4h24.9c3.8-41.3 13.6-178 16.3-266 .1-2.7 4-2.8 4.3-.2l35.7 266.2 22.8-.5z" class="change-color-in-svg" fill="#44a7ef"/><path d="M1069.6 1013.9s1 1.2.8 5.4c0 0 4 4.9 2.4 18.3 0 0-30.8 4.5-50.1 3.5-19.2-1-23.8-3.1-23.8-3.1s-.6-6 4.7-7.1c5.3-1.1 14.4-1 14.4-1s11.8-5.3 21.5-16.3c0 0 3.7-.4.7 7.1l2.3 3.4c-.1-.1 19.9-1.2 27.1-10.2z" fill="#21252B"/><path d="M1042.4 1024l-14.5 9.7 12.2-13.1 2.3 3.4z" class="change-color-in-svg" fill="#44a7ef"/><path d="M998.9 1037.9c.1 4 3.3 7.1 7.3 7l44.6-.7c0 .7.6 1.2 1.2 1.2l19.7-.3c.6 0 1.2-.5 1.2-1.2l-.1-6.3-73.9.3z" fill="#3F4249"/><path d="M1134 1013.9s-1 1.2-.8 5.4c0 0-4 4.9-2.4 18.3 0 0 30.9 4.5 50.1 3.5 19.2-1 23.8-3.1 23.8-3.1s.6-6-4.7-7.1c-5.3-1.1-14.4-1-14.4-1s-11.8-5.3-21.5-16.3c0 0-3.7-.4-.7 7.1l-2.3 3.4c0-.1-20-1.2-27.1-10.2z" fill="#21252B"/><path d="M1161.1 1024l14.5 9.7-12.2-13.1-2.3 3.4z" class="change-color-in-svg" fill="#44a7ef"/><path d="M1204.7 1037.9c-.1 4-3.3 7.1-7.3 7l-44.6-.7c0 .7-.6 1.2-1.2 1.2l-19.7-.3c-.7 0-1.2-.5-1.2-1.2l.1-6.3 73.9.3z" fill="#3F4249"/><path opacity=".2" fill-rule="evenodd" clip-rule="evenodd" d="M1150.6 645.9l-.7 327.5-7.8.1-14.8-293.1 19-33.8 4.3-.7zm-61.9 59.9c-.9.2-1.7.9-1.7 2-2.8 87.9-12.5 224.7-16.3 266h-8.1l13.6-257.9c.3-5.7 5-10.1 10.7-10.1h1.8z" fill="#000"/><path d="M1013.9 445.1c-.7 5.6 3.4 10.8 9.1 11.5 5.6.6 10.8-3.4 11.5-9.1.2-1.9-.1-3.9-.8-5.5 2.2-.6 4.2 0 5.1.3-.5 1-.8 2.1-1 3.3-.6 5.6 3.4 10.8 9.1 11.5 5.7.7 10.8-3.4 11.5-9.1.7-5.6-3.4-10.8-9.1-11.5-4-.5-7.8 1.4-9.8 4.5-1.1-.5-3.5-1.2-6.4-.4-1.6-2.5-4.3-4.3-7.5-4.8-5.9-.4-11.1 3.7-11.7 9.3zm24.9.7c.6-4.9 5-8.5 9.9-7.8 4.9.7 8.5 5 7.8 9.9-.6 4.9-5 8.5-9.9 7.8-4.7-.5-8.3-5-7.8-9.9zm-23.6-.5c.6-4.9 5-8.5 9.9-7.8 4.9.7 8.5 5 7.8 9.9-.6 4.9-5 8.5-9.9 7.8-4.8-.6-8.4-5-7.8-9.9z" fill="#fff"/><path d="M1070.2 450.4l-.4 38.4c0 3.1 2 5.9 5 6.8l4.3 1.4-10.3 5.7c-10.3 5.8-22.6 6.4-33.2 1.8-1.9-.8-3.8-1.8-5.6-3l-10.6-6.9 5-1.2c2.8-.6 4.9-3 5.3-5.8l6.8-45.5 33.7 8.3z" fill="#F99A9A"/><path d="M1041.8 480.5l1.8.2c13.1 1 24.5-8.7 25.5-21.7l2.7-33.1c.4-4.4-2.9-8.1-7.2-8.5l-31-2.6c-5.7-.4-10.6 3.8-11.1 9.4L1020 455c-.9 13 8.8 24.5 21.8 25.5z" fill="#F99A9A"/><path opacity=".15" d="M1070.1 460.5l-3.6-.1 3.5 7.8.1-7.7zm-38.9 16.6c3.6 2.2 7.8 3.2 12.1 3.4h2.9c.3 0 .8 0 1.1-.1h.2c.5-.1 1.1-.1 1.7-.2.2 0 .4-.1.6-.1 3.7-.6 6.5-1.9 8.4-2.9.3-.2.8-.1 1 .2.2.3.1.8-.2 1-2.4 1.4-6 2.9-10.9 3.4-2.6 1.9-7 4.2-12.5 4.2-1.8 0-3.6-.2-5.3-.7l.9-8.2z" fill="#000"/><path d="M1079.1 497.1c-.7 18.3-14.7 32.5-31.2 31.8-16.5-.6-29.3-16-28.6-34.2l5.7-1.4 54.1 3.8z" fill="#906363"/><path d="M1046 356.9c0 1.4 2.1 4.6 3 5.6l6.7 9.2c1.9 2.1 4.3 3.6 7 4.4l3.6.9 23.4 65.1 30.8 44.1 2.1-48.5-44.9-79.7-6-13.9c-1-1.3-2.6-2-4.3-1.9l-2 .2-1.2-1.7c-.7-1-1.9-1.5-3.1-1.4l-1.2.1-2.7-3.7c-.9-1.2-2.4-1.8-3.9-1.4l-9.9 2.5s-1.5 3.5 3.8 3.6c2.6.1 4.4-.5 4.4-.5l4.4 8.4s3.8 9-.5 10c-3.9.9-7.1-3-8.3-4.1.1 0-1.2-1.1-1.2 2.7z" fill="#F99A9A"/><path opacity=".3" d="M1069 348.5c-.2 0-.5-.2-.5-.4-.2-1.8-1.6-2.1-1.7-2.1-.1 0-.3-.1-.3-.3l-1.5-3c-.1-.2 0-.6.2-.7.2-.1.5 0 .7.2l1.4 2.9c.8.3 2 1.1 2.2 2.9 0 .2-.2.5-.5.5zm-17.2-8.5l-.7-1.7-.7 2.1 1.4-.4zm13 7.6c-.2 0-.5-.2-.5-.5-.3-2.5-2.3-3-2.4-3-.2 0-.3-.1-.3-.3l-2.1-4.1c-.1-.2 0-.5.2-.7.2-.2.5 0 .7.2l2 3.9c1 .3 2.6 1.4 2.9 3.8 0 .4-.1.6-.5.7 0 0 .1 0 0 0z" fill="#000"/><path d="M1139.5 488.3s0-24.6-16.9-50.6l-26.6 12.8 23.9 49.7 19.6-11.9z" fill="#3F4249"/><path d="M1016 546.2l-45.2-57.8 29.6-24.7 34.6 26.1 104.5-1.5s0 11.4-3.7 29.2c-3.4 16.5-8.5 59.8 3.7 91.2 18.2 32.9 12.6 71.3 12.6 71.3-30.3 11.1-54.5 3.2-72.1-4.6-33.9-15-65.7-8.1-65.7-8.1s14.1-78.4 12.8-88.5c-1.2-2.3-7.2-8.4-9.5-15.1-2.9-8.2-1.6-17.5-1.6-17.5z" fill="#3F4249"/><path d="M1047.7 393.5c-12 3.1-23 12.9-25.9 28.6-2.9 15.7-1.8 22.7 3.8 36 5.7 13.3 12.2 22.2 9.7 36.2-2.4 14 2.1 22 12.3 31.9 14.6 14.2 51.3 17.6 69.7 0 17.1-16.5 3.2-40 3.2-40s12.7-11.6 9.8-24.2c-2.9-12.7-7.7-15.6-18.5-21.4-10.8-5.8-16.8-18.3-19.9-26.2-3.2-7.9-16.5-28.1-44.2-20.9z" fill="#21252B"/><path d="M975.6 340.6c.5 1.3-.1 5.1-.6 6.4l-2.7 11.1c-1 2.6-2.6 5-4.8 6.7l-3 2.2 3.2 69.1 32.8 27.6-29.6 24.7-25.6-32c-6.1-7.7-8.9-17.5-7.8-27.2l9.2-75.4.2-15.2c.5-1.6 1.7-2.8 3.3-3.4l1.9-.6.4-2c.3-1.2 1.1-2.1 2.3-2.5l1.2-.4 1-4.5c.3-1.5 1.6-2.6 3.1-2.8l10-1.5s2.7 2.6-2.1 4.8c-2.4 1.1-4.2 1.2-4.2 1.2l-.9 9.4s-.1 9.7 4.3 9c3.9-.6 5.4-5.5 6.1-7 0 .2.8-1.2 2.3 2.3z" fill="#F99A9A"/><path opacity=".3" d="M950.5 341.5c-.2 0-.4-.2-.5-.4-.4-1.8.4-3 1.1-3.5l.4-3.2c0-.3.3-.5.6-.4.3 0 .5.3.4.6l-.4 3.4c0 .1-.1.3-.2.4-.1 0-1.2.8-.8 2.5.1.3-.1.5-.4.6h-.2zm13.2-14.4l.2-1.8 1.3 1.5s-.5.1-.6.1c-.3.1-.9.2-.9.2zm-9.6 12.1c-.2 0-.4-.1-.5-.4-.6-2.3.6-3.9 1.5-4.5l.5-4.3c0-.3.3-.5.6-.4.3 0 .5.3.4.6l-.6 4.6c0 .2-.1.3-.2.4-.1 0-1.8 1.2-1.2 3.6.1.3-.1.5-.4.6 0-.3-.1-.2-.1-.2z" fill="#000"/><path opacity=".2" d="M1027.1 578.8l4.9 5.8c.7.8.8 1.9.3 2.8l-7 13.7c.1 0 2.5-18.2 1.8-22.3zm112.4-90.5s-8 27.1-13 35.5c-5 8.4-27.6 47.4-10.4 77.3 16.7 29.1 2.3 59.3-25.5 78.9 16.1 6.1 37 8.9 61.6-.1 0 0 5.6-38.3-12.6-71.3-12.1-31.4-7-74.6-3.7-91.2 3.6-17.7 3.6-29.1 3.6-29.1z" fill="#000"/><path opacity=".15" d="M1117 440.5l5.6-2.7-44.9-79.7-6-13.9 7.3 23.8 38 72.5zm-149.4-4.4v4.7c0 1.7.7 3.4 1.9 4.6l23.8 24.2 7.1-5.9-32.8-27.6z" fill="#000"/><path opacity=".2" d="M993.4 469.6l30.8 28.2 10.6 1.3.3-9.2-34.6-26.1-7.1 5.8z" fill="#000"/><path d="M1305.1 474.3h-99.3v126.5h99.3V474.3z" fill="#fff"/><path d="M1291.8 487H1219v101h72.8V487z" fill="#DDD"/><path d="M1305.1 600.8h2.9V474.3h-2.9v126.5z" fill="#DADDDF"/><path d="M1267.5 533.8c8.7 0 15.8-7.1 15.8-15.8 0-8.7-7.1-15.8-15.8-15.8-8.7 0-15.8 7.1-15.8 15.8 0 8.7 7.1 15.8 15.8 15.8z" class="change-color-in-svg" fill="#44a7ef"/><path opacity=".2" d="M1267.5 518h-34.1v55h34.1v-55z" fill="#000"/></svg>