<svg height="640" viewBox="0 0 480 480" width="640" xmlns="http://www.w3.org/2000/svg"><path d="M472 56v224c-.027 8.824-7.176 15.973-16 16H232c-8.824-.027-15.973-7.176-16-16V56zm0 0" fill="#5aaae7"/><path d="M366.559 296a23.915 23.915 0 00-17.282-15.41 23.924 23.924 0 00-22.238 6.45 22.678 22.678 0 00-5.598 8.96 22.2 22.2 0 00-1.441 8c0 13.254 10.746 24 24 24s24-10.746 24-24a22.2 22.2 0 00-1.441-8zM400 208c0 13.254-10.746 24-24 24s-24-10.746-24-24 10.746-24 24-24 24 10.746 24 24zM344 88c13.254 0 24 10.746 24 24s-10.746 24-24 24-24-10.746-24-24 10.746-24 24-24zm0 0" fill="#ffd422"/><path d="M270.64 185.36c10.801 10.788 12.477 27.702 4.005 40.402-8.477 12.699-24.739 17.644-38.844 11.812-14.11-5.836-22.133-20.82-19.164-35.793 2.965-14.976 16.097-25.77 31.363-25.781a32.209 32.209 0 0122.64 9.36zm0 0" fill="#ff5023"/><path d="M192 472H8v-83.36c.031-21.636 14.5-40.59 35.36-46.32l41.761-11.36L120 360l34.879-29.04 41.762 11.36c20.859 5.73 35.328 24.684 35.359 46.32V472zm0 0" fill="#00ccb3"/><path d="M154.879 330.96L120 360l-34.879-29.04L96 328v-22.48a47.681 47.681 0 0048 0V328zm0 0" fill="#ffce8c"/><path d="M139.441 229.84A24.107 24.107 0 00162.72 248H168v16a47.876 47.876 0 01-24 41.52 47.681 47.681 0 01-48 0 46.101 46.101 0 01-9.922-7.598A47.57 47.57 0 0172 264v-16h8a63.67 63.67 0 0040-14.078 66.396 66.396 0 0011.2-11.524L136 216zm0 0" fill="#ffdaaa"/><path d="M120 233.922A63.67 63.67 0 0180 248h-8a29.27 29.27 0 01-8-1.04c-14.133-3.624-24.012-16.37-24-30.96v-40a8 8 0 018-8h72c30.93 0 56 25.07 56 56v24h-13.281a24.107 24.107 0 01-23.278-18.16L136 216l-4.8 6.398a66.396 66.396 0 01-11.2 11.524zm0 0" fill="#57565c"/><path d="M232 8h224c8.824.027 15.973 7.176 16 16v32H216V24c.027-8.824 7.176-15.973 16-16zm0 0" fill="#ff6243"/><path d="M344 272a31.56 31.56 0 00-16.152 4.535l-46.512-46.512A39.67 39.67 0 00287.199 216h57.946c4.027 15.602 19.03 25.777 35.015 23.746s27.97-15.633 27.97-31.746-11.984-29.715-27.969-31.746-30.988 8.144-35.015 23.746H287.2a39.727 39.727 0 00-5.855-14.023l46.511-46.512A31.618 31.618 0 00344 144c17.672 0 32-14.328 32-32s-14.328-32-32-32-32 14.328-32 32a31.56 31.56 0 004.535 16.152l-46.512 46.512c-16.699-11.074-39.015-8.082-52.21 6.996-13.196 15.082-13.196 37.598 0 52.68 13.195 15.078 35.511 18.07 52.21 6.996l46.512 46.512A31.56 31.56 0 00312 304c0 17.672 14.328 32 32 32s32-14.328 32-32-14.328-32-32-32zm32-80c8.836 0 16 7.164 16 16s-7.164 16-16 16-16-7.164-16-16 7.164-16 16-16zm-32-96c8.836 0 16 7.164 16 16s-7.164 16-16 16-16-7.164-16-16 7.164-16 16-16zm-96 136c-13.254 0-24-10.746-24-24s10.746-24 24-24 24 10.746 24 24-10.746 24-24 24zm96 88c-8.836 0-16-7.164-16-16s7.164-16 16-16 16 7.164 16 16-7.164 16-16 16zm0 0"/><path d="M456 0H232c-13.254 0-24 10.746-24 24v136h16V64h240v216a8 8 0 01-8 8h-64v16h64c13.254 0 24-10.746 24-24V24c0-13.254-10.746-24-24-24zM224 48V24a8 8 0 018-8h224a8 8 0 018 8v24zm8 256h64v-16h-64a8 8 0 01-8-8v-24h-16v24c0 13.254 10.746 24 24 24zm104 88h-80v16h88a8 8 0 008-8v-48h-16zm-80 32h16v16h-16zm32 0h16v16h-16zm80-72h16v16h-16zm0 32h16v16h-16zm-48 40h16v16h-16zM64 80v16h76.688l-10.344 10.344 11.312 11.312 24-24a8.004 8.004 0 000-11.312l-24-24-11.312 11.312L140.688 80zm0 0"/><path d="M240 24h16v16h-16zm32 0h16v16h-16zm32 0h16v16h-16zM32 80h16v16H32zM0 80h16v16H0zm56-48h48v16H56zm-32 0h16v16H24zm174.742 302.602L152 321.887v-12A55.924 55.924 0 00176 264v-8a8 8 0 008-8v-24c-.04-35.328-28.672-63.96-64-64H48c-8.836 0-16 7.164-16 16v40c-.05 18.188 12.227 34.102 29.832 38.664.711.2 1.45.29 2.168.441V264a55.94 55.94 0 0024 45.887v12l-46.77 12.722C16.93 341.336.074 363.422 0 388.641V472a8 8 0 008 8h224a8 8 0 008-8v-83.36c-.078-25.226-16.941-47.316-41.258-54.038zM48 216v-40h72c26.5.027 47.973 21.5 48 48v16h-5.281a16.05 16.05 0 01-15.52-12.09l-3.43-13.84a8 8 0 00-6.183-5.91 7.998 7.998 0 00-7.984 3.04l-4.801 6.402a58.876 58.876 0 01-9.856 10.132A55.852 55.852 0 0180 240h-8c-2.04.02-4.07-.25-6.031-.8A23.892 23.892 0 0148 216zm32 48v-8a71.92 71.92 0 0045.031-15.855 75.458 75.458 0 007.145-6.586A32.002 32.002 0 00160 255.777V264c0 22.09-17.91 40-40 40s-40-17.91-40-40zm40 56a55.654 55.654 0 0016-2.398V328a7.915 7.915 0 002.793 5.945L120 349.602l-18.793-15.649A7.911 7.911 0 00104 328v-10.398A55.654 55.654 0 00120 320zm104 144h-24v-72h-16v72H56v-72H40v72H16v-75.36c.059-18.015 12.102-33.792 29.465-38.6l37.734-10.263 31.68 26.399a7.998 7.998 0 0010.242 0l31.68-26.399 37.71 10.254c17.372 4.805 29.423 20.586 29.489 38.61zm0 0"/></svg>