<svg xmlns="http://www.w3.org/2000/svg" viewBox="0 0 512 512"><path d="M317.623 50.993l22.428-37.38c2.553-4.254 1.175-9.772-3.079-12.324a8.964 8.964 0 00-12.324 3.079L300.976 43.82c-14.091-5.012-29.187-7.884-44.976-7.884s-30.885 2.871-44.976 7.884L187.352 4.367c-2.553-4.263-8.07-5.631-12.324-3.079s-5.631 8.07-3.079 12.324l22.428 37.38c-43.355 22.416-73.112 67.595-73.112 119.679a8.98 8.98 0 008.982 8.982h251.505a8.98 8.98 0 008.982-8.982c.001-52.083-29.756-97.262-73.111-119.678z" fill="#314e55"/><path d="M139.572 161.689C144.173 101.48 194.637 53.901 256 53.901s111.827 47.578 116.428 107.788H139.572z" fill="#5ecb66"/><path d="M318.677 102.072h-11.844a5.92 5.92 0 00-5.922 5.922v11.844a5.92 5.92 0 005.922 5.922h11.844a5.92 5.92 0 005.922-5.922v-11.844a5.92 5.92 0 00-5.922-5.922zm-113.511 0h-11.844a5.92 5.92 0 00-5.922 5.922v11.844a5.92 5.92 0 005.922 5.922h11.844a5.92 5.92 0 005.922-5.922v-11.844a5.92 5.92 0 00-5.922-5.922zm176.587 86.564H130.247a8.98 8.98 0 00-8.982 8.982V378.8c0 23.921 19.482 43.377 43.425 43.377h10.469v53.946c0 19.78 16.118 35.877 35.929 35.877s35.929-16.096 35.929-35.877v-53.947h17.965v53.947c0 19.78 16.118 35.877 35.929 35.877s35.929-16.096 35.929-35.877v-53.947h10.469c23.943 0 43.425-19.456 43.425-43.377v-181.18a8.979 8.979 0 00-8.981-8.983z" fill="#314e55"/><path d="M372.77 378.8c0 14.009-11.421 25.412-25.46 25.412h-19.451a8.98 8.98 0 00-8.982 8.982v62.929c0 9.877-8.057 17.912-17.965 17.912s-17.965-8.035-17.965-17.912v-62.929a8.98 8.98 0 00-8.982-8.982h-35.929a8.98 8.98 0 00-8.982 8.982v62.929c0 9.877-8.057 17.912-17.965 17.912s-17.965-8.035-17.965-17.912v-62.929a8.98 8.98 0 00-8.982-8.982H164.69c-14.039 0-25.46-11.403-25.46-25.412V206.601h233.54V378.8z" fill="#5ecb66"/><path d="M431.155 188.636c-17.333 0-31.438 14.123-31.438 31.473v125.683c0 17.351 14.105 31.473 31.438 31.473s31.438-14.123 31.438-31.473V220.109c.001-17.35-14.104-31.473-31.438-31.473z" fill="#314e55"/><path d="M444.629 345.792c0 7.447-6.044 13.509-13.473 13.509s-13.473-6.061-13.473-13.509V220.109c0-7.447 6.044-13.509 13.473-13.509s13.473 6.061 13.473 13.509v125.683z" fill="#5ecb66"/><path d="M80.845 188.636c-17.333 0-31.438 14.123-31.438 31.473v125.683c0 17.351 14.105 31.473 31.438 31.473s31.438-14.123 31.438-31.473V220.109c0-17.35-14.105-31.473-31.438-31.473z" fill="#314e55"/><path d="M94.318 345.792c0 7.447-6.044 13.509-13.473 13.509-7.43 0-13.473-6.061-13.473-13.509V220.109c0-7.447 6.044-13.509 13.473-13.509 7.43 0 13.473 6.061 13.473 13.509v125.683z" fill="#5ecb66"/></svg>