<svg class="gridItem__media" xmlns="http://www.w3.org/2000/svg" width="1600" height="1200" fill="none"><path d="M1342.1 1043.4l34.9-351a56.141 56.141 0 00-2.4-22.3l-124-385a55.119 55.119 0 00-45.2-37.7L520.199 157a55.003 55.003 0 00-50.2 20.3l-235.4 296.2a54.708 54.708 0 00-11.8 37.5l32 531.6 1087.301.8z" fill="#F4F4F4"/><path d="M360 870.8h-83.9a2.598 2.598 0 110-5.2H360a2.57 2.57 0 011.844.755 2.586 2.586 0 01.756 1.845 2.651 2.651 0 01-2.6 2.6zm-3.501.001l13.9 171.199h-2.8l-20.9-171.199h9.8zm-77.397 0l-14 171.199h2.8l20.9-171.199h-9.7z" fill="#61656D"/><path d="M279.099 870.801l-.4 3.3h4.8L266.699 1042h1.2l20.9-171.199h-9.7zm81.2 65.6h-2.5l-11.1-65.6h9.8l13.9 171.199h-1.4l-8.7-105.599zm-48.498-65.6l2.2 171.199h2.8l4.8-171.199h-9.8z" fill="#3F4249"/><path d="M331.301 823.3s6.1-48.7 20.1-75.3M321 739.6s9.5 39.2 8 66.3" stroke="#868A91" stroke-width=".55" stroke-miterlimit="10"/><path d="M350.102 750.4s.1-26.3 23.1-27.8c0-.1 1.9 23-23.1 27.8zm-55.1-5.699s-6.2-25-33.4-17.9c0 0 5.2 18.3 33.4 17.9zM324.501 755s8.1-21.3-10.7-32.4c0-.1-8.3 20.9 10.7 32.4z" class="change-color-in-svg" fill="#0c5adb"/><path d="M295 744.699s25 28.6 25 78.6m18.998-82.498c-5.5 22-7.9 26.8-11.1 82.5m-53.597-113c11 5 45.7 41.4 39.9 112.1m-4.203-.001s7.2-49-23.1-65.3m45.403 58.8a33.628 33.628 0 0111-14.3m-8.301-.9s17.1-15.1 25.7-17.6" stroke="#868A91" stroke-width=".55" stroke-miterlimit="10"/><path d="M300.5 769.501s-6.7-25.7-33.5-19.7c0 0 4.6 21.9 33.5 19.7z" class="change-color-in-svg" fill="#0c5adb"/><path opacity=".4" d="M300.5 769.501s-6.7-25.7-33.5-19.7c0 0 4.6 21.9 33.5 19.7z" fill="#fff"/><path d="M314.202 795.9s-4.6-18.3-29.1-12.2c.1-.1 8.1 18.2 29.1 12.2zm16.696-11.899s2.3-28.7 32.2-32.2c-.1 0 1.4 28.1-32.2 32.2z" class="change-color-in-svg" fill="#0c5adb"/><path d="M324.002 696.6s-1.2 106.1-1.4 126.7" stroke="#868A91" stroke-width=".55" stroke-miterlimit="10"/><path d="M328.398 776.4s-25.5 1.3-25.5-26.9c0 0 24.7.3 25.5 26.9z" class="change-color-in-svg" fill="#0c5adb"/><path opacity=".4" d="M328.398 776.4s-25.5 1.3-25.5-26.9c0 0 24.7.3 25.5 26.9z" fill="#fff"/><path d="M352.602 787.299s6.9-19.4 28.9-14.5c-.1 0-3.7 16.4-28.9 14.5z" class="change-color-in-svg" fill="#0c5adb"/><path opacity=".4" d="M352.602 787.299s6.9-19.4 28.9-14.5c-.1 0-3.7 16.4-28.9 14.5z" fill="#fff"/><path d="M342.399 822.801h-45.2v5.7h45.2v-5.7z" fill="#868A91"/><path d="M336.698 865.5h-33.8l-2.5-37.1h38.8l-2.5 37.1z" fill="#868A91"/><path d="M336.698 865.5h-33.8l-2.5-37.1h38.8l-2.5 37.1z" fill="#868A91"/><path d="M342.398 822.801h-7.3v5.6h-34.7l.1 1.6h27.8l.1 35.5h8.3l2.5-37.1h3.2v-5.6z" fill="#61656D"/><path d="M323.701 718.5s-12.5-18.9 3.8-37c-.1 0 10.7 18.4-3.8 37z" class="change-color-in-svg" fill="#0c5adb"/><path opacity=".4" d="M323.701 718.5s-12.5-18.9 3.8-37c-.1 0 10.7 18.4-3.8 37z" fill="#fff"/><path d="M334.998 756.499s-13.7-29.3 10.8-47.3c0 0 16.9 26.5-10.8 47.3z" class="change-color-in-svg" fill="#0c5adb"/><path opacity=".4" d="M334.998 756.499s-13.7-29.3 10.8-47.3c0 0 16.9 26.5-10.8 47.3z" fill="#fff"/><path d="M338.301 806.599s3.3-12.8 20.8-10.1c0 0-2.9 13-20.8 10.1zm-23.803 5.802s-3.8-24.7 18.8-27.6c0 0 5.4 21.5-18.8 27.6z" class="change-color-in-svg" fill="#0c5adb"/><path opacity=".4" d="M314.498 812.401s-3.8-24.7 18.8-27.6c0 0 5.4 21.5-18.8 27.6z" fill="#fff"/><path d="M268.102 706.5s13.6-1.4 16.2 11.7a15.664 15.664 0 01-16.2-11.7z" class="change-color-in-svg" fill="#0c5adb"/><path opacity=".3" d="M268.102 706.5s13.6-1.4 16.2 11.7a15.664 15.664 0 01-16.2-11.7z" fill="#fff"/><path d="M301.299 705.1s-16.9 17.6-.4 36.8c0 0 16.7-18.8.4-36.8z" class="change-color-in-svg" fill="#0c5adb"/><path opacity=".4" d="M301.299 705.1s-16.9 17.6-.4 36.8c0 0 16.7-18.8.4-36.8z" fill="#fff"/><path d="M1269 768.4h68.9c.9 0 1.77-.359 2.4-.996.64-.638 1-1.503 1-2.404 0-.902-.36-1.767-1-2.405a3.382 3.382 0 00-2.4-.995H1269v6.8z" fill="#B2B6BB"/><path d="M1329 765h-69.5v214.1h69.5V765z" fill="#B2B6BB"/><path d="M1261.6 765H961.699v214.1H1261.6V765z" fill="#DADDDF"/><path d="M1250.8 962.801H971.602v-168l279.198.2v167.8zm-277.598-1.5H1249.3v-164.7H973.202v164.7z" fill="#B2B6BB"/><path d="M953.798 768.4H1269.1a3.4 3.4 0 002.4-.996c.64-.638 1-1.503 1-2.404 0-.902-.36-1.767-1-2.405a3.4 3.4 0 00-2.4-.995H953.798c-.901 0-1.766.358-2.404.995a3.404 3.404 0 002.404 5.805z" fill="#DADDDF"/><path d="M971.66 879.289h279.2v-1.6h-279.2v1.6zm137.14-53.888a5.28 5.28 0 002.94-.893 5.263 5.263 0 001.96-2.379c.4-.968.5-2.034.3-3.062a5.35 5.35 0 00-1.45-2.714 5.304 5.304 0 00-2.72-1.45 5.297 5.297 0 00-6.33 5.198c0 1.405.56 2.753 1.55 3.747 1 .994 2.34 1.553 3.75 1.553z" fill="#B2B6BB"/><path opacity=".15" d="M1110.8 820.099c0-1.105-.35-2.181-1-3.078a5.243 5.243 0 00-2.6-1.922 4.666 4.666 0 011.7-.3c1.4 0 2.75.559 3.75 1.552a5.315 5.315 0 011.55 3.748c0 1.406-.56 2.754-1.55 3.748a5.325 5.325 0 01-3.75 1.552 4.645 4.645 0 01-1.7-.3 5.428 5.428 0 003.6-5z" fill="#000"/><path d="M1108.8 908c1.05 0 2.07-.31 2.94-.893a5.255 5.255 0 001.96-2.378c.4-.969.5-2.034.3-3.063a5.347 5.347 0 00-1.45-2.713 5.313 5.313 0 00-5.78-1.149 5.332 5.332 0 00-2.38 1.952 5.313 5.313 0 00.66 6.692c1 .994 2.34 1.552 3.75 1.552z" fill="#B2B6BB"/><path opacity=".15" d="M1110.8 902.701c0-1.105-.35-2.182-1-3.079a5.247 5.247 0 00-2.6-1.921 4.645 4.645 0 011.7-.3c1.4 0 2.75.558 3.75 1.552a5.315 5.315 0 011.55 3.748c0 1.405-.56 2.753-1.55 3.747a5.326 5.326 0 01-3.75 1.553 4.687 4.687 0 01-1.7-.3 5.196 5.196 0 002.61-1.914c.65-.898 1-1.979.99-3.086z" fill="#000"/><path d="M1272.5 775.6l-10.9-7.2H961.699v3.3l310.801 3.9z" fill="#B2B6BB"/><path d="M1315.3 979.199l5.4 59.201c.1.51.09 1.03-.03 1.53s-.35.97-.68 1.37c-.32.4-.73.73-1.2.95-.46.23-.97.34-1.49.35a3.447 3.447 0 01-3.3-2.3l-15.5-61.101h16.8z" fill="#DADDDF"/><path d="M1313.3 1013.6l-6.5-1.6-8.4-32.9h16.9l5.4 59.2a3.55 3.55 0 01-2 3.9l-5.4-28.6z" fill="#B2B6BB"/><path d="M1254.8 979.199l5.4 59.201c.1.51.09 1.03-.03 1.53s-.35.97-.68 1.37c-.32.4-.73.73-1.2.95-.46.23-.97.34-1.49.35a3.447 3.447 0 01-3.3-2.3l-15.5-61.101h16.8z" fill="#DADDDF"/><path d="M1249.2 985.699l-9.6-1.8-1.6-4.7h16.9l5.4 59.201c.15.78.04 1.59-.33 2.29-.36.71-.95 1.28-1.67 1.61l-9.1-56.601z" fill="#B2B6BB"/><path d="M1034.3 979.199l-5.4 59.201c-.1.51-.09 1.03.03 1.53s.35.97.68 1.37c.32.4.73.73 1.2.95.46.23.97.34 1.49.35a3.447 3.447 0 003.3-2.3l15.5-61.101h-16.8z" fill="#DADDDF"/><path d="M1037.2 1010.7l-5.7-1.4 2.7-30.101h16.9l-15.5 61.101a3.447 3.447 0 01-3.3 2.3h-.2l5.1-31.9z" fill="#B2B6BB"/><path d="M972.1 979.199l-5.4 59.201a3.479 3.479 0 00.709 2.9c.325.4.734.73 1.2.95.465.23.974.34 1.491.35a3.461 3.461 0 003.3-2.3l15.5-61.101h-16.8z" fill="#DADDDF"/><path d="M978.7 984.3l-7.4-1.4.8-3.8H989l-15.5 61.1a3.455 3.455 0 01-3.3 2.3h-.2l8.7-58.2z" fill="#B2B6BB"/><path d="M623.852 226.27v117.1h149.15v-117.1h-149.15z" fill="#fff"/><path d="M638.852 241.869v85.9h119.15v-85.9h-119.15z" fill="#DDD"/><path d="M776.298 226.301h-3.4v117h3.4v-117z" fill="#DADDDF"/><path d="M700.6 289.2a18.6 18.6 0 100-37.2 18.6 18.6 0 000 37.2z" class="change-color-in-svg" fill="#0c5adb"/><path opacity=".2" d="M651.699 320.2l30.3-19.4-30-19.3-.3 38.7zm52.992-45.309v40.2h40.2v-40.2h-40.2z" fill="#000"/><path d="M996.702 1041.1h-424.9a14.764 14.764 0 01-10.389-4.31 14.723 14.723 0 01-4.311-10.39V424.7a14.718 14.718 0 0114.7-14.7h424.9a14.726 14.726 0 0110.388 4.311 14.68 14.68 0 014.31 10.389v601.6c.01 1.94-.37 3.86-1.1 5.65-.74 1.79-1.82 3.42-3.18 4.79a14.722 14.722 0 01-10.418 4.36z" class="change-color-in-svg" fill="#0c5adb"/><path opacity=".5" d="M996.702 1041.1h-424.9a14.764 14.764 0 01-10.389-4.31 14.723 14.723 0 01-4.311-10.39V424.7a14.718 14.718 0 0114.7-14.7h424.9a14.726 14.726 0 0110.388 4.311 14.68 14.68 0 014.31 10.389v601.6c.01 1.94-.37 3.86-1.1 5.65-.74 1.79-1.82 3.42-3.18 4.79a14.722 14.722 0 01-10.418 4.36z" fill="#fff"/><path d="M983.901 1041.1h-424.9a14.764 14.764 0 01-10.389-4.31 14.727 14.727 0 01-4.311-10.39V424.7a14.723 14.723 0 0114.7-14.7h424.9a14.719 14.719 0 0114.7 14.7v601.6c.006 1.94-.369 3.86-1.104 5.65a14.698 14.698 0 01-3.181 4.79 14.719 14.719 0 01-4.774 3.22 14.763 14.763 0 01-5.641 1.14z" class="change-color-in-svg" fill="#0c5adb"/><path opacity=".7" d="M983.901 1041.1h-424.9a14.764 14.764 0 01-10.389-4.31 14.727 14.727 0 01-4.311-10.39V424.7a14.723 14.723 0 0114.7-14.7h424.9a14.719 14.719 0 0114.7 14.7v601.6c.006 1.94-.369 3.86-1.104 5.65a14.698 14.698 0 01-3.181 4.79 14.719 14.719 0 01-4.774 3.22 14.763 14.763 0 01-5.641 1.14z" fill="#fff"/><path d="M918.501 518h-136.4a7.8 7.8 0 110-15.6h136.4a7.8 7.8 0 010 15.6zm3.6 37.001h-143.7a4.098 4.098 0 01-2.899-6.999 4.098 4.098 0 012.899-1.201h143.7a4.1 4.1 0 010 8.2zm-58.8 33.799h-84.9a4.098 4.098 0 01-2.899-6.999 4.098 4.098 0 012.899-1.201h84.9a4.05 4.05 0 012.911 1.189 4.072 4.072 0 011.189 2.911 4.117 4.117 0 01-4.1 4.1zm55.2 134.2h-136.4a7.8 7.8 0 110-15.6h136.4a7.8 7.8 0 010 15.6zm3.6 37.101h-143.7a4.098 4.098 0 01-4.1-4.1 4.1 4.1 0 014.1-4.1h143.7a4.05 4.05 0 012.911 1.188 4.072 4.072 0 011.189 2.912 4.12 4.12 0 01-4.1 4.1zm-58.8 33.798h-84.9a4.102 4.102 0 01-4.1-4.1 4.1 4.1 0 014.1-4.1h84.9a4.07 4.07 0 013.799 2.525c.204.5.306 1.035.301 1.575a4.19 4.19 0 01-4.1 4.1z" fill="#fff"/><path d="M1246.5 907.199l33.7 38.2-24 18.6-28.2-25.8 18.5-31z" fill="#FC9D9D"/><path d="M1275.7 939.1l21.5 16.5a6.08 6.08 0 012.27 3.536 6.08 6.08 0 01-.57 4.164l-41.3 76.3a3.77 3.77 0 01-2.02 1.75c-.87.32-1.83.3-2.68-.05a7.673 7.673 0 01-4.2-3.78 7.71 7.71 0 01-.5-5.62l.5-1.8a96.03 96.03 0 003.7-25.5l.6-40.3c.02-1.21.44-2.379 1.21-3.321a5.427 5.427 0 012.99-1.879 19.025 19.025 0 009.97-5.853 19.073 19.073 0 004.73-10.547l.2-2c.03-.402.17-.789.4-1.118.24-.33.55-.59.92-.754a2.243 2.243 0 012.28.272z" fill="#3F4249"/><path d="M1265.3 927.999l-106.1-126.2 1.3-112.2 1.2-64.3-61.5-.1 6.7 188.9c.03 3.995.87 7.943 2.46 11.604 1.6 3.661 3.93 6.96 6.84 9.696l126.1 115.6 23-23z" class="change-color-in-svg" fill="#0c5adb"/><path opacity=".2" d="M1265.3 928.001l-106.1-126.2 2.2-176.4-61.2-.1 6.7 188.9c.03 3.995.87 7.942 2.46 11.604a29.577 29.577 0 006.84 9.696l126.1 115.6 23-23.1z" fill="#fff"/><path d="M1226 984.699l-31 .6 1.6 23.901 28.6 2.6.8-27.101z" fill="#FC9D9D"/><path d="M1210.9 997.301a15.337 15.337 0 00-10.64 4.309 15.355 15.355 0 00-4.66 10.49l-.1 3.8a23.55 23.55 0 01-.7 4.5l-4.3 15.7c-.17.63-.19 1.29-.06 1.94.12.64.4 1.24.79 1.76.4.52.9.95 1.49 1.24.58.29 1.22.45 1.88.46h35.2c.69.01 1.38-.15 1.99-.47.62-.33 1.14-.8 1.53-1.37.39-.58.63-1.24.69-1.93.07-.69-.04-1.39-.31-2.03l-6.1-15.1c-.82-2.11-1.29-4.34-1.4-6.6l-.1-1.8c-.06-3.98-1.69-7.78-4.54-10.57a15.107 15.107 0 00-10.66-4.329z" fill="#3F4249"/><path d="M1224.7 625.4l1.8 370.3h-31.2l-28.1-307.6a3.3 3.3 0 10-6.6.1l-.8 28.4-7.5-91.2h72.4z" class="change-color-in-svg" fill="#0c5adb"/><path opacity=".2" d="M1224.7 625.4l1.8 370.3h-31.2l-28.1-307.6a3.3 3.3 0 10-6.6.1l-.8 28.4-7.5-91.2h72.4z" fill="#fff"/><path opacity=".4" d="M1102.2 636.7h122.6l-.1-11.3h-124.5l2 11.3z" fill="#000"/><path d="M1189.73 637.61h4v-12.2h-4v12.2zm-54.73 0h4v-12.2h-4v12.2z" fill="#3F4249"/><path opacity=".5" d="M1217.4 1012.9c.11-.01.23-.04.33-.09.1-.05.19-.12.27-.21.09-.16.12-.35.08-.54a.722.722 0 00-.28-.46c-.1 0-6.9-4.5-13.7 0-.08.05-.15.12-.2.2-.05.08-.09.17-.11.26a.66.66 0 000 .28c.02.09.06.18.11.26.05.08.12.15.2.2.08.05.16.09.26.11.09.02.19.02.28 0 .09-.02.18-.06.26-.11 6-4 12.1 0 12.1 0 .12.07.26.1.4.1zm0 4c.11-.01.23-.04.33-.09.1-.05.19-.12.27-.21.09-.16.12-.35.08-.54a.722.722 0 00-.28-.46c-.1 0-6.9-4.5-13.7 0-.08.05-.15.12-.2.2-.05.08-.09.17-.11.26a.66.66 0 000 .28c.02.09.06.18.11.26.05.08.12.15.2.2.08.05.16.09.26.11.09.02.19.02.28 0 .09-.02.18-.06.26-.11 6-4 12.1 0 12.1 0 .12.07.26.1.4.1zm0 4.1c.11-.01.23-.04.33-.09.1-.05.19-.12.27-.21.09-.16.12-.35.08-.54a.722.722 0 00-.28-.46c-.1 0-6.9-4.5-13.7 0-.08.05-.15.12-.2.2-.05.08-.09.16-.11.26a.66.66 0 000 .28c.02.09.06.18.11.26.05.08.12.15.2.2.08.05.16.09.26.11.09.01.19.01.28 0 .09-.02.18-.06.26-.11 6-4 12.1 0 12.1 0 .2 0 .3.1.4.1zm42.8-46.6a.898.898 0 00.44-.198.91.91 0 00.26-.402c.1-.4-.2-.7-.6-.8l-7.3-1c-.4-.1-.7.2-.8.6-.1.4.2.7.6.8l7.3 1h.1zm-.2 5a.898.898 0 00.44-.198.91.91 0 00.26-.402c.1-.4-.2-.7-.6-.8l-7.3-1c-.4-.1-.7.2-.8.6-.1.4.2.7.6.8l7.3 1h.1zm0 5.4a.898.898 0 00.44-.198.905.905 0 00.26-.402c.1-.4-.2-.7-.6-.8l-7.3-1c-.4-.1-.7.2-.8.6-.1.4.2.7.6.8l7.3 1h.1zm38.9-21.5l-41.3 76.3a3.77 3.77 0 01-2.02 1.75c-.87.32-1.83.3-2.68-.05-.36-.11-.7-.27-1-.5l45.3-85.2a6.01 6.01 0 012.29 3.531 6.04 6.04 0 01-.59 4.169zm-69 78.2h-35.2c-.64-.01-1.27-.16-1.84-.43-.58-.28-1.08-.69-1.48-1.18-.4-.5-.69-1.08-.84-1.7-.15-.62-.17-1.26-.04-1.89h43.5a4.26 4.26 0 01-.81 3.58c-.4.49-.9.9-1.46 1.18-.57.28-1.2.43-1.83.44z" fill="#000"/><path opacity=".2" d="M1185.1 898.8l1.5 1.7-6.8-74.2-1.5-1.7 6.8 74.2z" fill="#000"/><path d="M1125.1 625.6c9.1-119.6 19.1-192.9 19.1-192.9l.9-.3s17.3 23.1 39.7 5.1l3-3.7 2.6.7h-.1s1.1 100.4 11.2 191l-76.4.1z" fill="#fff"/><path d="M1271.3 523.5l-40.9 9.6-3.7-12.5-1.6 160.6h-23.9a8.63 8.63 0 01-5.85-2.27 8.626 8.626 0 01-2.75-5.63c-10.6-126.2-2.3-238.7-2.3-238.7l17.4 4.5 32 8.2a26.178 26.178 0 0119.2 19.9l12.4 56.3z" fill="#21252B"/><path d="M1144 389.7l.3 46.6c.01 1.003.32 1.981.9 2.8l.4.6c11.5 11.5 29.6 10.6 43-.5a5.105 5.105 0 001.5-2.066c.31-.805.42-1.677.3-2.534l-7.2-48.1-39.2 3.2z" fill="#FC9D9D"/><path d="M1187.3 369.9s8 52.5-21 54.6c-28.3 2.1-29.1-51-29.1-51l-.8-15.2 36.4-6.4 9.2 4.7 5.3 13.3z" fill="#FC9D9D"/><path opacity=".15" d="M1188 420.099l-2.1-14.4c-2.6 9.3-8.1 17-17.6 18.6h.1l-2.1.3c-7.6.6-13.8-2.9-18.6-10.4a.642.642 0 00-.41-.286.638.638 0 00-.77.495.65.65 0 00.08.491c5 7.9 11.7 11.6 19.8 11a20.92 20.92 0 005-.9 22.832 22.832 0 0016.6-4.9z" fill="#000"/><path d="M1180.5 358.1s9.2-6.1 13.6 4.3c3.6 8.8-2.5 18.4-2.5 18.4l-5.3-.5c-2.2-.1-3.8-1.1-4-3.3l-1.8-18.9z" fill="#21252B"/><path d="M1187.1 351.8c.8 10-7.8 12.6-11.3 12.9l-28.6 2.4a4.265 4.265 0 00-2.88 1.448 4.245 4.245 0 00-1.02 3.052l.5 9.1c.04.59-.15 1.173-.52 1.635a2.4 2.4 0 01-1.48.865l-1.8.2-2 2.5c-11.2-2.7-15.9-34.5 4.7-41a8.72 8.72 0 005.1-4.3c3-6.2 15.3-7.8 21.5-.9.59.72 1.34 1.287 2.19 1.652.86.366 1.79.52 2.71.448 7.6-.2 12.4 4.5 12.9 10z" fill="#21252B"/><path d="M1140 386.599a4.674 4.674 0 00-2.85-3.862 4.69 4.69 0 00-2.47-.323c-.83.117-1.62.457-2.28.985l-.1.1c-4.9 4.2-1.8 17.7 9.1 16.4l-1.4-13.3zm54-7.099c-.03 0-.05-.01-.07-.029a.096.096 0 01-.03-.071 4.672 4.672 0 00-4.79.055 4.638 4.638 0 00-1.69 1.817 4.652 4.652 0 00-.52 2.428l.6 12.8c10.8-.4 11.9-13.5 6.5-17z" fill="#FC9D9D"/><path d="M1141.4 388.3c.1.6-.5 1.2-1.2 1.3a1.35 1.35 0 01-.94-.213 1.328 1.328 0 01-.56-.787l-1.2-8.6 3.5.1.4 8.2zm47.7-3.6c.1.6-.5 1.2-1.2 1.3-.33.048-.67-.028-.94-.213a1.323 1.323 0 01-.56-.787l-1.2-8.6 3.5.1.4 8.2z" fill="#21252B"/><path d="M1175.9 366.001a6.6 6.6 0 01-1.5 0 .587.587 0 01-.42-.176.575.575 0 01-.18-.424c0-.159.06-.312.18-.425a.586.586 0 01.42-.175c.1 0 5.8.3 8.2-3.5a.584.584 0 01.8-.2c.13.079.23.208.27.358a.62.62 0 01-.07.442c-1.8 3.2-5.6 3.9-7.7 4.1z" fill="#FC9D9D"/><path d="M1154.5 394c.49 0 .98-.147 1.39-.421.41-.275.73-.665.92-1.122.19-.457.24-.96.14-1.445-.09-.485-.33-.93-.68-1.28-.35-.349-.8-.588-1.28-.684a2.523 2.523 0 00-1.45.142c-.45.19-.84.51-1.12.921-.27.411-.42.895-.42 1.389a2.494 2.494 0 002.5 2.5z" fill="#21252B"/><path d="M1153.3 391.801c.1 0 .2-.03.28-.084a.525.525 0 00.18-.225.478.478 0 00.03-.289.51.51 0 00-.39-.393.501.501 0 00-.29.029.473.473 0 00-.22.184.468.468 0 00-.09.278c0 .132.05.26.15.353a.49.49 0 00.35.147z" fill="#fff"/><path d="M1173.8 392.6a2.506 2.506 0 002.31-1.544c.19-.457.24-.959.14-1.444a2.442 2.442 0 00-.68-1.28 2.514 2.514 0 00-2.73-.542c-.45.189-.84.51-1.12.921-.27.411-.42.894-.42 1.389 0 .663.26 1.299.73 1.767.47.469 1.11.733 1.77.733z" fill="#21252B"/><path d="M1172.6 390.301c.1 0 .2-.03.28-.084a.461.461 0 00.18-.225.478.478 0 00.03-.289.494.494 0 00-.13-.256.505.505 0 00-.55-.108.473.473 0 00-.22.184.468.468 0 00-.09.278c0 .132.05.26.15.353a.49.49 0 00.35.147z" fill="#fff"/><path opacity=".3" d="M1165.4 403.4l2-.2c.2-.013.38-.105.51-.255.14-.15.2-.346.19-.545a.746.746 0 00-.26-.516.74.74 0 00-.54-.184l-2 .2c-.2.016-.4-.007-.59-.069a1.553 1.553 0 01-.51-.292 1.54 1.54 0 01-.36-.468 1.603 1.603 0 01-.14-.571c-.03-.199-.01-.402.05-.594.06-.192.16-.37.29-.521.13-.151.29-.273.48-.356.18-.084.38-.128.58-.129.2-.013.38-.105.51-.255.14-.15.2-.346.19-.545a.746.746 0 00-.26-.516.74.74 0 00-.54-.184c-.4.026-.78.129-1.14.303-.35.175-.67.418-.93.715-.26.298-.46.644-.58 1.018-.13.374-.18.77-.15 1.164.02.394.13.78.3 1.134a3.058 3.058 0 001.73 1.516c.38.126.77.177 1.17.15z" fill="#000"/><path d="M1180.8 383.401l-10.9.6-1.5.1-9.6.5h-.1l-12.3.7c-.47.024-.94.142-1.37.346-.42.205-.81.492-1.12.845-.32.354-.56.766-.72 1.214-.15.447-.22.922-.19 1.395l.2 2.8c.03 1.321.33 2.622.88 3.826a9.785 9.785 0 002.29 3.182 9.994 9.994 0 003.36 2.034c1.25.447 2.57.639 3.89.565a9.811 9.811 0 003.79-.994 9.759 9.759 0 003.11-2.395 9.68 9.68 0 001.93-3.418c.41-1.257.56-2.584.45-3.9l-.2-2.8a3.171 3.171 0 00-.9-2.1l3.8-.2c-.45.64-.67 1.419-.6 2.2l.2 2.8c.03 1.321.33 2.622.88 3.826a9.785 9.785 0 002.29 3.182 9.994 9.994 0 003.36 2.034c1.25.447 2.57.639 3.89.565a9.811 9.811 0 003.79-.994 9.773 9.773 0 003.11-2.395 9.68 9.68 0 001.93-3.418c.41-1.257.56-2.583.45-3.9l-.2-2.8a3.71 3.71 0 00-.36-1.387c-.21-.433-.51-.82-.87-1.136a3.682 3.682 0 00-1.25-.709c-.46-.15-.94-.208-1.42-.168zm-19.5 4.7l.2 2.8a8.368 8.368 0 01-7.9 8.8 8.36 8.36 0 01-8.8-7.9l-.2-2.8c-.02-.582.18-1.15.58-1.58.39-.431.94-.689 1.52-.72l12.3-.7h.1c.56.016 1.1.239 1.5.627.41.388.66.913.7 1.473zm22.1 1.5a8.368 8.368 0 01-7.9 8.8 8.36 8.36 0 01-8.8-7.9l-.2-2.8c-.02-.582.18-1.15.58-1.58.39-.431.94-.689 1.52-.72l1.5-.1 10.9-.6a2.222 2.222 0 012.3 2.1l.1 2.8z" fill="#21252B"/><path d="M1159.2 407.4l12.3-.9c.07-.001.15.014.22.045s.13.077.17.135c.05.058.09.125.1.198.02.073.02.149.01.222a6.97 6.97 0 01-2.28 3.534 6.99 6.99 0 01-3.89 1.593 7.014 7.014 0 01-4.1-.922 6.968 6.968 0 01-2.83-3.105v-.1a.338.338 0 01-.08-.211.432.432 0 01.38-.489z" fill="#fff"/><path opacity=".3" d="M1137.3 393.501a.769.769 0 01-.8-.6l-.2-1.5c-.2-1.6-.6-2.8-1.4-3.4a1.553 1.553 0 00-.56-.324 1.56 1.56 0 00-.64-.076.704.704 0 01-.76-.316.557.557 0 01-.1-.275.718.718 0 01.01-.292.822.822 0 01.14-.259.655.655 0 01.23-.183c.09-.045.18-.07.28-.075.82-.098 1.64.117 2.3.6 1.1.8 1.7 2.3 2 4.4l.2 1.5a.764.764 0 01-.19.54.763.763 0 01-.51.26zm53.3-3.901c.09.003.18-.013.27-.047a.603.603 0 00.23-.151.574.574 0 00.15-.23.638.638 0 00.05-.272v-1.6c-.1-1.6.2-2.9.9-3.5.5-.5 1.1-.6 1.1-.5.19 0 .36-.073.49-.205a.67.67 0 00.21-.495.672.672 0 00-.21-.495.68.68 0 00-.49-.205 3.22 3.22 0 00-2.2 1c-1 1-1.4 2.5-1.3 4.6v1.5c0 .3.3.6.8.6zm57.3 78.4l12.6 58.1 10.9-2.6-11.3-51.7c-2.2-14-8.9-20.6-18.7-24.2l-12.4-3.2c11.4 5.1 16.5 13.2 18.9 23.6zm-21.2 52.6l-1.6 160.6h-12.6l1.7-190.7c.02-.334.15-.653.37-.9.23-.248.53-.409.86-.457.34-.047.67.023.96.197.29.175.5.444.61.76l9.7 30.5z" fill="#000"/><path d="M1189.6 430l7.1 6.1 9.5 34.7-16.6-7.9.7-27.9-.7-5z" fill="#21252B"/><path opacity=".3" d="M1198 436.4l-1.4-.4 9.6 34.8-16.6-7.9-.2 7.3 18.2 1.9-9.6-35.7z" fill="#000"/><path opacity=".15" d="M1152 625.599h-13.6l5.8-188.9s13 94.6 7.8 188.9z" fill="#000"/><path opacity=".15" d="M1151.7 625.4h-43.9l1.1 55.7h29.7c2.58.003 5.07-.96 6.98-2.699 1.9-1.74 3.09-4.13 3.32-6.701 1.2-14.4 2.1-30 2.8-46.3z" fill="#000"/><path d="M953.099 588.7L1053 577.9a27.033 27.033 0 0012.48-4.704c3.7-2.585 6.7-6.056 8.72-10.096l20.4-41-23.6-52.2-33.9 74.4-86.901 24.1 2.9 20.3z" fill="#FC9D9D"/><path opacity=".15" d="M1083.1 524l-20.4 41a27.254 27.254 0 01-15.4 13.5l5.7-.6c4.49-.502 8.78-2.12 12.48-4.705a27.017 27.017 0 008.72-10.095l20.4-41-11.5 1.9z" fill="#000"/><path d="M1131.2 681.101h-29.7l-3.5-173.4-13.9 18.9-15.3-54.5c2.5-9 4.4-13.5 9.4-18.1 3.3-2.92 7.19-5.102 11.4-6.4l54.6-14.8s5.1 146.7-2.7 238.9a10.278 10.278 0 01-3.31 6.719 10.25 10.25 0 01-6.99 2.681z" fill="#21252B"/><path d="M1048.9 517.1l36.9 22.9 17.2-32.9-26.7-45.7-4.7 2.4-22.7 53.3zm95.3-88.2l-6.3 5.6-9.5 34.8 16.6-7.9-.8-32.5z" fill="#21252B"/><path opacity=".3" d="M1136.6 434.9l1.4-.4-9.6 34.8 16.6-7.9.2 7.3-18.2 1.9 9.6-35.7z" fill="#000"/><path d="M1279.6 561.3l-8.2-37.9-40.9 9.6 8.2 24-68.4 15.2-3.8.8c-1.3.3-2.4.4-3.3-.5l-1.5-1.5a14.383 14.383 0 00-4.6-2.4 16.31 16.31 0 01-9.5-7.6l-3.3-5.8a.484.484 0 00-.14-.181.546.546 0 00-.66-.019l-.5.2a4.918 4.918 0 00-2.63 2.431 4.951 4.951 0 00-.27 3.569l2.5 8c.14.412.11.86-.08 1.251-.18.392-.51.696-.92.849l-16.1 6.6c-3.4 1.3-2.2 5.9.9 5.2 1.7-.4 2-.5 2-.5l-3.2 1.6c-3.6 1.7-1.9 6.6 1.2 5.9 3.1-.7 7.1-1.8 7.1-1.8l-4 1.6c-.61.367-1.07.939-1.3 1.615-.23.676-.21 1.41.06 2.072.26.662.76 1.208 1.39 1.541.63.332 1.36.429 2.05.272 2.3-.6 6-1.7 6-1.7l-2.4 1.2c-3.1 1-2 5.8.9 5.2 2.5-.5 26.2-6.3 38.4-8.5l90.6-9.8a17.015 17.015 0 006.6-2.312 17.147 17.147 0 005.11-4.772 16.999 16.999 0 002.75-6.425c.47-2.309.45-4.69-.06-6.991z" fill="#FC9D9D"/><path opacity=".2" d="M1179.8 826.4l-20.6-24.5 1.4-113.7a3.237 3.237 0 013.2-3.1c-3.84.036-7.5 1.575-10.21 4.287a14.663 14.663 0 00-4.29 10.213l-1.1 108.1 33.4 38.3-1.8-19.6zm46.2 54.899l.1 15.6 32.8 37.6 6.4-6.5-39.3-46.7z" fill="#000"/><path opacity=".15" d="M1265 581.8l-90.6 9.8c-12.2 2.2-35.9 8-38.4 8.5a2.51 2.51 0 01-1.97-.617 2.652 2.652 0 01-.62-.851 2.61 2.61 0 01-.21-1.032 1.997 1.997 0 002.5.6c1-.3 15.5-5.6 24.7-9.1a82.442 82.442 0 0115.3-4.1c19.8-3.3 71.2-12 85-15.1 4-.9 8.4-3.9 7.4-9.2l-7.7-34.7 10.9-2.6 8.2 37.8a16.937 16.937 0 01-14.5 20.6z" fill="#000"/><path d="M1170.2 572.3l3.5 19.4 6.1-.6-3.5-20.2-6.1 1.4z" fill="#001B34"/><path d="M1175.3 588.501a6.09 6.09 0 003.39-1.028c1-.671 1.78-1.623 2.24-2.738.47-1.114.59-2.341.35-3.524a6.015 6.015 0 00-1.67-3.124 6.088 6.088 0 00-3.12-1.669 6.126 6.126 0 00-3.53.347 6.107 6.107 0 00-2.73 2.247 6.103 6.103 0 00-1.03 3.389c0 1.618.64 3.169 1.79 4.313a6.082 6.082 0 004.31 1.787z" class="change-color-in-svg" fill="#0c5adb"/><path d="M1175.3 587.501c1.01 0 1.99-.299 2.83-.86.84-.56 1.5-1.357 1.88-2.289.39-.931.49-1.957.29-2.946-.2-.99-.68-1.898-1.39-2.611a5.146 5.146 0 00-2.62-1.396 5.074 5.074 0 00-2.94.29 5.106 5.106 0 00-1.66 8.318 5.122 5.122 0 003.61 1.494z" fill="#fff"/><path d="M1178.7 582.901l-3.5-.2-2.5-1.8c-.1-.1-.2-.3-.1-.4.1-.1.3-.2.4-.1l2.4 1.7 3.3.2a.26.26 0 01.22.077c.03.029.05.064.07.103.01.038.01.079.01.12 0 .078-.04.151-.09.207a.337.337 0 01-.21.093z" fill="#001B34"/><path opacity=".3" d="M1098.2 516.199l-.6-17.3a1.015 1.015 0 00-1.56-1.048.998.998 0 00-.44.648l-18 36.5 8.1 5 12.5-23.8z" fill="#000"/><path opacity=".2" d="M1212.6 681.1l2.5 314.6h11.5l-1.5-314.6h-12.5z" fill="#000"/><path d="M1226.5 986.9l.1 8.8h-31.3l-.8-8.8h32z" class="change-color-in-svg" fill="#0c5adb"/><path opacity=".2" d="M1215.1 986.9v8.8h11.5l-.1-8.8h-11.4z" fill="#000"/><path d="M1260 921.1l7 6.88-24.75 24.75-7.6-6.32L1260 921.1z" class="change-color-in-svg" fill="#0c5adb"/><path opacity=".2" d="M1251 930.109l7 7 9-9.11-7-6.88-9 8.99z" fill="#000"/><path d="M667.199 695.9h-10.8v1.1a54.77 54.77 0 000 107.4v1.1h10.8a54.8 54.8 0 100-109.6z" class="change-color-in-svg" fill="#0c5adb"/><path d="M656.501 805.4a54.7 54.7 0 100-109.401 54.7 54.7 0 000 109.401z" class="change-color-in-svg" fill="#0c5adb"/><path opacity=".4" d="M656.501 805.4a54.7 54.7 0 100-109.401 54.7 54.7 0 000 109.401z" fill="#fff"/><path d="M646.299 773.6l-18.5-18.5a2.547 2.547 0 010-3.6l4.8-4.8a2.531 2.531 0 011.8-.748 2.535 2.535 0 011.8.748l11.9 11.9 28.6-28.6a2.525 2.525 0 012.775-.556c.309.129.589.318.825.556l4.8 4.8a2.535 2.535 0 01.748 1.8 2.529 2.529 0 01-.748 1.8l-35.2 35.2a2.74 2.74 0 01-3.6 0z" fill="#fff"/><path d="M871.199 969.8h-183.5a7 7 0 01-7-7v-47.9a7 7 0 017-7h183.6a7 7 0 017 7v47.9a7.11 7.11 0 01-7.1 7z" class="change-color-in-svg" fill="#0c5adb"/><path opacity=".5" d="M871.199 969.8h-183.5a7 7 0 01-7-7v-47.9a7 7 0 017-7h183.6a7 7 0 017 7v47.9a7.11 7.11 0 01-7.1 7z" fill="#fff"/><path d="M864.299 969.8h-183.6a7 7 0 01-7-7v-47.9a7 7 0 017-7h183.6a7 7 0 017 7v47.9a6.999 6.999 0 01-7 7z" fill="#fff"/><path d="M943.302 458.7l-17.5-17.5-17.5 17.5c-.278.32-.65.543-1.063.637a1.994 1.994 0 01-2.165-.928 1.992 1.992 0 01-.272-1.209v-46.8h42.1v46.8a2.124 2.124 0 01-1.305 1.939 2.116 2.116 0 01-2.295-.439z" fill="#3F4249"/><path d="M996.298 373.6l-38.9 61.2 64.002 7.9-25.102-69.1z" fill="#B2B6BB"/><path d="M917.902 933.901l-21.3-2.7 60.8-496.4 21.3 2.6-60.8 496.5zm42.597 5.199l-21.3-2.6 60.7-496.4 21.501 2.6-60.901 496.4z" class="change-color-in-svg" fill="#0c5adb"/><path d="M939.198 936.5l-21.3-2.6 60.8-496.5 21.2 2.7-60.7 496.4z" class="change-color-in-svg" fill="#0c5adb"/><path opacity=".3" d="M939.198 936.5l-21.3-2.6 60.8-496.5 21.2 2.7-60.7 496.4z" fill="#000"/><path d="M986 389.8l10.3-16.2 6.6 18.3-16.9-2.1z" fill="#21252B"/><path d="M936.101 557.299a4.8 4.8 0 014.8 4.8v6.5l15.8 1.6a2.482 2.482 0 012.2 2.4 2.396 2.396 0 01-2.2 2.4l-15.2 1a.463.463 0 00-.4.5.664.664 0 00.4.5l15 1a2.61 2.61 0 01-.1 5.2l-15.1.5 14.7-.5a2.861 2.861 0 01.3 5.7l-15 1.4 11.2-1a2.42 2.42 0 012.6 2.4 2.445 2.445 0 01-2 2.4l-9.5 1.9a7.085 7.085 0 01-6.7-2.3 24.238 24.238 0 01-3.1-27.4l1.7-8.4a.581.581 0 01.6-.6z" fill="#FC9D9D"/><path opacity=".15" d="M954.931 582.34l-13.9.46.05 1.4 13.89-.46-.04-1.4zm-1.662 6.131l-11.16.93.11 1.39 11.17-.93-.12-1.39z" fill="#000"/><path opacity=".2" d="M940.898 568.5V562l-3.8 4a1.286 1.286 0 00.19 1.977c.21.143.457.22.71.223l2.9.3z" fill="#000"/><path d="M938.401 1041.2l-45.2-5.6a9.428 9.428 0 01-6.265-3.56 9.446 9.446 0 01-1.935-6.94l11.6-93.901 63.9 7.9-11.6 93.901a9.433 9.433 0 01-1.152 3.49 9.34 9.34 0 01-2.4 2.78 9.28 9.28 0 01-3.283 1.66 9.443 9.443 0 01-3.665.27z" fill="#3F4249"/><path opacity=".4" d="M940.901 936.699l-11.6 93.901a9.42 9.42 0 01-3.559 6.26 9.426 9.426 0 01-6.941 1.94l19.6 2.4a9.451 9.451 0 006.931-1.95 9.485 9.485 0 003.569-6.25l11.6-93.901-19.6-2.4z" fill="#000"/><path d="M960.512 939.179l-63.92-7.89-2.08 16.87 63.92 7.89 2.08-16.87z" fill="#B2B6BB"/><path d="M254.798 1043.4H1369.7c.1 0 .21-.04.28-.12.08-.07.12-.17.12-.28 0-.11-.04-.21-.12-.28a.378.378 0 00-.28-.12H254.798a.381.381 0 00-.282.12.38.38 0 00-.118.28c0 .11.043.21.118.28.075.08.176.12.282.12z" fill="#B1B5BA"/><path d="M685.699 495.399l-10.1-3.7-.4 1a54.744 54.744 0 00-36.155 6.989 54.744 54.744 0 00-23.843 65.132 54.747 54.747 0 0023.098 28.679l-.4 1 10.1 3.7a54.75 54.75 0 0037.7-102.8z" class="change-color-in-svg" fill="#0c5adb"/><path d="M656.802 597.8a54.702 54.702 0 0053.649-65.371 54.702 54.702 0 00-99.131-19.718 54.702 54.702 0 0045.482 85.089z" class="change-color-in-svg" fill="#0c5adb"/><path opacity=".4" d="M662.232 597.53a54.697 54.697 0 0046.934-38.617 54.7 54.7 0 10-46.934 38.617z" fill="#fff"/><path d="M642.661 564.631l-15.44-21.07a2.615 2.615 0 01.51-3.57l5.51-4.06a2.612 2.612 0 013.57.5l9.94 13.51 32.65-23.87a2.602 2.602 0 013.57.51l4.06 5.51a2.589 2.589 0 01-.51 3.56l-40.19 29.47a2.512 2.512 0 01-1.942.558 2.52 2.52 0 01-1.728-1.048z" fill="#fff"/><path d="M389.199 391s-16.4 6.4-13.1 28.3c1.3 8.2-6.7 9.2-11.1 12.7-11.4 9-6 29.1 0 29.5l73.7 39.5s28.8-39.5 19.1-58.7c-4.3-8.5-3.2-9.6-.3-17.8 4.5-12.5-4-18.5-4-18.5l-4.5-1-16.5-37-31.5 21.5-4.8.2-7 1.3z" fill="#21252B"/><path d="M383.799 990a24.468 24.468 0 011.1 9.2l.1 25.9a26.374 26.374 0 01-3.7 12.8l-.5.9a7.376 7.376 0 01-6.4 3.7h-7.4a7.347 7.347 0 01-4.567-1.56 7.383 7.383 0 01-2.633-4.04 27.16 27.16 0 01-.4-11.7l6.3-27.8a28.006 28.006 0 012.3-7.5h15.8v.1z" class="change-color-in-svg" fill="#0c5adb"/><path d="M484.398 929.1l4.6 49.5c.3 5.8 1.8 9.4 3.5 11.8l18 36.6-5 6.9-19.6-9.8-17.4-31.5c0-5.4-.5-8.6-1.5-15.8l-8.6-53.4 26 5.7z" fill="#956363"/><path opacity=".15" d="M489.501 995.2c-2-2.9-4.5-9.9-5.1-13.1l-6-18.4a2.998 2.998 0 00-2.5-2.5l-11.9-1.6-.2-2.6h23.2l2 21.6c.4 3.7 1.3 8.6 3.5 11.8l18 36.6-3.1 5.1-17.9-36.9z" fill="#000"/><path d="M520.799 1033.3l-10.3-6.2a21.34 21.34 0 01-10.881-1.08 21.243 21.243 0 01-8.919-6.32l-22.3-27.001a49.424 49.424 0 00-4.1 27.601l3.2 22.4h2.6l.7-23c.012-.37.135-.72.353-1.02.218-.29.521-.51.868-.63s.722-.13 1.076-.04c.353.1.668.31.903.59l13.6 16.6a20.695 20.695 0 007.065 5.51 20.778 20.778 0 008.735 1.99h21.2c.382.01.76-.08 1.099-.26a2.268 2.268 0 001.2-1.83c.028-.38-.04-.76-.199-1.11a11.215 11.215 0 00-5.9-6.2z" class="change-color-in-svg" fill="#0c5adb"/><path d="M384.9 978.3a202.647 202.647 0 00-1.4 28.1l.2 11.2a9.136 9.136 0 01-2.78 6.23 9.147 9.147 0 01-6.32 2.57H373a9.01 9.01 0 01-3.79-.81 9.022 9.022 0 01-3.105-2.32 9.094 9.094 0 01-1.85-3.4A9.078 9.078 0 01364 1016l2.6-13.3a82.67 82.67 0 001.4-20.5l-2.5-45.2 23.3.4-3.9 40.9z" fill="#956363"/><path d="M471.301 613.5l3.3 39.9 3 33.4c1.6 17.8 2.6 35.6 3.1 53.5l7.8 216.8h-25.5l-43.7-286a3.889 3.889 0 00-3.9-3.3 3.849 3.849 0 00-3.9 3.6l-23 285.6-23.1-.2-11.5-206.1a505.683 505.683 0 019.9-131.1l1.3-6.1h106.2z" fill="#3F4249"/><path opacity=".15" d="M386.798 957s-2.8 29-3 32.9v.1c-.3 5.5-.5 10.9-.4 16.4l.2 11.2a9.144 9.144 0 01-2.634 6.1 9.14 9.14 0 01-6.066 2.7c4.3-3.3 3.9-8.7 4-12.7l.7-49.1a3.332 3.332 0 00-2.7-3.3l-10.4-1.9-.1-2.3 20.4-.1z" fill="#000"/><path opacity=".2" d="M415.201 667.699a4.27 4.27 0 00-2.7 1 3.556 3.556 0 00-1.2 2.6l-22.8 285.7h-8.7l17-269.3c1.8-17.77 7.2-20 18.4-20zm56.898-44.398l2.5 30.1 1.8 20.8c2.3 26.2 3.8 52.466 4.5 78.8l7.5 204.1h-11.4l-14.7-284.2-2.6-49.3h11.5l.5-.1.4-.2z" fill="#000"/><path d="M473.1 467.699l31 62.2 68.7-2.1-1.6 17.2-68.6 13.5a20.212 20.212 0 01-20.1-8.2l-23.5-32.8" class="change-color-in-svg" fill="#0c5adb"/><path d="M598.101 520.6l11.1-1.5 13.3 3.8a1.602 1.602 0 011.109.946 1.603 1.603 0 01-.109 1.454 2.005 2.005 0 01-2.1.7l-12.8-2.4-7.9 2.6 7.9-2.6 11.1 3.2a1.347 1.347 0 01.91.732c.086.183.13.383.129.585-.002.202-.05.401-.139.583a1.701 1.701 0 01-1.9.7l-11.2-2.2-11.5 3.6 11.5-3.6 7.9 3.2a.861.861 0 01.3 1.4c-.16.179-.365.311-.594.382-.229.07-.474.076-.706.018l-9.2-2.3-10.9 2.7 3.8-12z" fill="#956363"/><path opacity=".15" d="M598.101 520.6l11.1-1.5 13.3 3.8a1.602 1.602 0 011.109.946 1.603 1.603 0 01-.109 1.454 2.005 2.005 0 01-2.1.7l-12.8-2.4-7.9 2.6 7.9-2.6 11.1 3.2a1.347 1.347 0 01.91.732c.086.183.13.383.129.585-.002.202-.05.401-.139.583a1.701 1.701 0 01-1.9.7l-11.2-2.2-11.5 3.6 11.5-3.6 7.9 3.2a.861.861 0 01.3 1.4c-.16.179-.365.311-.594.382-.229.07-.474.076-.706.018l-9.2-2.3-10.9 2.7 3.8-12z" fill="#000"/><path d="M598.801 517.1l-16.4 9.5a5.865 5.865 0 01-3.1.9l-6.4.3-1.6 17.2 5.3-1.1a6.15 6.15 0 012.7 0l1.4.3a21.609 21.609 0 0016.2-2h.1a5.677 5.677 0 012.2-.7c2.8-.3 9.8-1 9.8-1a.676.676 0 00.7-.7 3.859 3.859 0 00-3.6-3.6l-4.9-.7c-2.6-.4-4.1-2.8-2.9-4.8l4.9-8.6a2.486 2.486 0 011.5-1.1l17.4-4.5a1.319 1.319 0 001.1-1.5 1.749 1.749 0 00-2-1.3c-4.4.6-17.9 2.5-21.1 3a1.998 1.998 0 00-1.3.4z" fill="#956363"/><path opacity=".15" d="M504.102 529.8l-5.5.2a3.003 3.003 0 01-2.9-2l-9.1-33.4 17.5 35.2z" fill="#000"/><path d="M362.8 456.501l30.4-6.2 49.5.5 18.2 4.9c11.3 3.6 17 13.5 16.9 25.4l-1.7 8.6 4.8 16.3c2.7 10.5-.8 16.6-8.2 25.1-2.3 2.7-3.5 3.8-4.4 8.9 0 0-4.4 16.7-5.2 23.6a313.17 313.17 0 00-2 47.4l-93.5-.2c-4.3 0-6.2-4.6-4.1-8.4 0 0 6.4-12.7 7.5-23.4 3.9-34.9-6.1-76.4-6.1-76.4l-19.6-21.7c-.6-11.3 6.8-21.9 17.5-24.4z" class="change-color-in-svg" fill="#0c5adb"/><path d="M426.699 576.6l11.2-2.2 2.5 2.5-2.9 3.5-10.8-3.8z" fill="#956363"/><path opacity=".15" d="M575.499 540.599a7.414 7.414 0 013.9.2c3.3 1.1 10.7 3 17.7 1.2-.1 0-.2.1-.3.1h-.1a20.666 20.666 0 01-16.2 2l-1.4-.3a6.15 6.15 0 00-2.7 0l-26.2 5.2 24.9-4.9.4-3.5zm-146.801 55.2l-15.6-3.3-45.4-3.8-.5.2c-2.2 6.3-3.1 8.5-4.8 12.6l6.7.2c10.356.202 20.713-.3 31-1.5 9.542-1.1 19.184-.999 28.7.3v-4.7h-.1z" fill="#000"/><path d="M461.201 621.599l-1-10.2-94.3-.2-2.6 10.4h97.9z" fill="#21252B"/><path opacity=".6" d="M417.901 576.401l-3.9-1.1-6.7 16.6 4.5.4 6.1-15.9zm-21.503-117.002l-12-7.3 7-1.4 49.5.5 4.8 1.3-11.9 7.1a36.147 36.147 0 01-37.4-.2z" fill="#000"/><path d="M400.101 412.301l-2.5 32.1a6.091 6.091 0 01-4.5 5.7l-3.8 1 8.7 5.4a32.233 32.233 0 0033.6.3l9.4-5.6-4.8-1.3a6.01 6.01 0 01-3.01-1.915 6.01 6.01 0 01-1.39-3.285l-1.6-36.4-30.1 4z" fill="#956363"/><path d="M420.601 437.201l-1.6-.2a20.57 20.57 0 01-18.9-22l2.2-28.7a6.821 6.821 0 017.3-6.3l26.8 2.1a8.91 8.91 0 018.2 9.5l-2.1 26.7a20.401 20.401 0 01-2.118 7.698 20.436 20.436 0 01-11.856 10.233 20.441 20.441 0 01-7.926.969z" fill="#956363"/><path d="M422.2 408.4a2.198 2.198 0 002.033-1.358 2.203 2.203 0 00-1.604-3 2.203 2.203 0 00-2.258.936A2.198 2.198 0 00420 406.2a2.195 2.195 0 001.357 2.035c.267.11.554.166.843.165z" fill="#21252B"/><path d="M423.398 407.301a.5.5 0 100-.998.5.5 0 000 .998z" fill="#fff"/><path d="M439.302 410a2.198 2.198 0 002.157-2.63 2.201 2.201 0 00-3.987-.793c-.241.362-.37.787-.37 1.223a2.175 2.175 0 00.641 1.558 2.192 2.192 0 001.559.642z" fill="#21252B"/><path d="M440.301 408.9a.502.502 0 00.49-.597.498.498 0 00-.393-.393.5.5 0 00-.597.49.5.5 0 00.5.5z" fill="#fff"/><path opacity=".3" d="M429.799 419.7l-3-.1c-.4 0-.6-.3-.6-.7 0-.4.3-.6.7-.6l3 .1a1.344 1.344 0 00.973-.356 1.337 1.337 0 00.427-.944 1.291 1.291 0 00-1.3-1.4c-.4 0-.6-.3-.6-.7 0-.4.3-.6.7-.6a2.607 2.607 0 012.368 1.769c.113.331.158.682.132 1.031a2.748 2.748 0 01-2.8 2.5z" fill="#000"/><path d="M453.602 405.999c-3-2.6-1.3-6.8-1.3-6.8v.1c5.5-22.9-9.1-37.5-22.3-40.2-7.5-1.5-27.6-.6-33.9 22.3-.9 3.3-1.2 6.9-7 9.6 0 0 3.5 12 4.4 16.4.4 1.9 4.6-5.2 6.3-5.9.2-.1 1.4 2.1 2.2 3.5a1.23 1.23 0 002.2 0l.2-.3a32.02 32.02 0 002.6-10.1c9.7-2.3 9.7-12.1 9.7-12.1 8.6 20 27.7 15 27.7 15l-1 10.7a25.453 25.453 0 004.3-4.5l3.1 2.8 2.8-.5z" fill="#21252B"/><path d="M401.5 416.299s-9.8.4-11.5-9.3c-1.7-9.7 10.301-11.1 11.701-1.3l.899 10.7-1.1-.1z" fill="#956363"/><path opacity=".3" d="M393.199 401.999a3.937 3.937 0 013-.7 3.671 3.671 0 012.3 2 8.01 8.01 0 011 3.8v1.1c0 .8-1.3 1-1.3.1v-1.1a7.246 7.246 0 00-.8-3.2 2.545 2.545 0 00-1.5-1.4 2.723 2.723 0 00-2 .5.661.661 0 01-.492.087.64.64 0 01-.408-.287c-.2-.4-.1-.8.2-.9z" fill="#000"/><path d="M440.701 401.399a9.145 9.145 0 00-7.1 3 8.107 8.107 0 00-5.5-.6 8.833 8.833 0 00-15.645-.777 8.831 8.831 0 0014.003 10.564 8.828 8.828 0 002.441-5.787 10.283 10.283 0 00-.4-3 6.596 6.596 0 014.4.5 8.922 8.922 0 008.647 13.828 8.92 8.92 0 007.654-8.428 8.867 8.867 0 00-2.309-6.424 8.869 8.869 0 00-6.191-2.876zm-21 13.9a7.757 7.757 0 01-7.187-9.607 7.761 7.761 0 016.366-5.816 7.76 7.76 0 018.92 8.023 7.717 7.717 0 01-2.509 5.387 7.738 7.738 0 01-5.59 2.013zm20.299 2.8a7.757 7.757 0 01-7.186-9.607 7.754 7.754 0 016.366-5.816 7.764 7.764 0 017.809 3.657 7.756 7.756 0 011.112 4.366 7.736 7.736 0 01-5.104 6.952 7.72 7.72 0 01-2.997.448z" fill="#fff"/><path d="M399.002 414.7a1.897 1.897 0 001.863-2.27 1.896 1.896 0 00-1.493-1.493 1.903 1.903 0 00-1.95.808 1.897 1.897 0 00.236 2.399c.356.356.84.556 1.344.556z" class="change-color-in-svg" fill="#0c5adb"/><path opacity=".15" d="M399.599 414.499a2.055 2.055 0 01-1.893-1.381 2.107 2.107 0 01.293-1.919 1.89 1.89 0 00-.9 1.6 1.907 1.907 0 001.153 1.841c.236.103.49.157.747.159.388.009.771-.095 1.1-.3-.2-.1-.3 0-.5 0zm.003 1.7l3.2.3-4.2 6.3 1-6.6zm31.799 18.802l-.4.2a22.489 22.489 0 01-10.7 1.4l-2.4-.3c-.3-.1-.6-.1-.9-.2h-.2a7.388 7.388 0 01-1.4-.4c-.2-.1-.4-.1-.6-.2a21.894 21.894 0 01-6.9-3.5.57.57 0 00-.7.9 23.71 23.71 0 009 4.1 18.261 18.261 0 0014.9 4.9l.7-.1-.4-6.8z" fill="#000"/><path d="M431.1 423.3c.3 0 .4.4.3.6a6.54 6.54 0 01-6.1 2.9 6.406 6.406 0 01-5.2-4.3c-.1-.3.1-.6.4-.5l10.6 1.3z" fill="#fff"/><path opacity=".6" d="M576.999 527.6l-4.2.2-1.6 17.2 3.9-.8 1.9-16.6z" fill="#000"/><path opacity=".15" d="M471 531.599c7.3-8.5 8.5-16.9 5.7-27.4l-3-10.9-2.5-11.8v-.2a.659.659 0 01.4-.5.573.573 0 01.7.4l3.1 13.9 1.5 4.7s11.9 17 8.2 29.9c-1.4 4.7-2.2 7.8.7 11.8l5.2 7.7c4.7 4.3 11.7 3.2 11.7 3.2l68.7-11.1-.4 3.8-64.1 12.7h.1l-4.6.8a20.134 20.134 0 01-18.1-5.8 15.84 15.84 0 01-2-2.4l-12.3-17.6c.3-.4.7-.8 1-1.2z" fill="#000"/><path d="M442.101 400.999c-16.9-.2-23.5-15.4-23.6-15.6-.1-.4 0-.8.4-.9a.605.605 0 01.551-.028.617.617 0 01.349.428c.1.1 6.4 14.5 22.3 14.7a.7.7 0 110 1.4z" fill="#21252B"/><path opacity=".3" d="M417.998 474.8a404.678 404.678 0 01-71.6-6.2l1.2-2.1 1.5-2.1c8.3 1.5 63.6 11 123.2 1.6l2.2 4.4-.7.2a357.71 357.71 0 01-55.8 4.2zm19.602 69.3a449.897 449.897 0 01-68.6-5.5l-.5-4.7c.5.1 53.1 8.8 98.6 4.2l-1.1 4.6a246.48 246.48 0 01-28.4 1.4zm-.1 29.8a441.713 441.713 0 01-67.5-5.3l.1-4.7c.5.1 45.5 8.9 91 4.3l.5 4.6c-9.6 1.1-14.4 1.1-24.1 1.1zm-2.398 27.699c-36.4 0-70-5.6-70.5-5.6l1.8-4.8c.5.1 51.9 9.1 97.5 4.5l.5 4.6c-9.7.9-19.6 1.3-29.3 1.3z" fill="#fff"/><path opacity=".15" d="M372 566.801l39 7.6" stroke="#000" stroke-width="1.18" stroke-miterlimit="10" stroke-linecap="round"/><path opacity=".15" d="M426.699 576.6l11.2-2.2 2.5 2.5-2.9 3.5-10.8-3.8z" fill="#000"/><path d="M344.702 472.699l9.5.7c7.6 12.6 12.1 22.6 11.7 37.3l.7 5.8-18.4 46.5 67 12.8-7.9 16-80-5.7c-8.6-.5-14.7-9.8-11.5-18.4l28.9-95z" class="change-color-in-svg" fill="#0c5adb"/><path d="M413.899 615.701l34.4-59.4a3.331 3.331 0 013.9-1.4l48.5 16.4a3 3 0 011.7 4.4l-32.4 56.3a3.314 3.314 0 01-3.7 1.5l-50.5-13.3a3.152 3.152 0 01-1.9-4.5z" fill="#3F4249"/><path opacity=".8" d="M413.899 615.701l34.4-59.4a3.331 3.331 0 013.9-1.4l48.5 16.4a3 3 0 011.7 4.4l-32.4 56.3a3.314 3.314 0 01-3.7 1.5l-50.5-13.3a3.152 3.152 0 01-1.9-4.5z" fill="#000"/><path d="M415.6 616.201l34.4-59.4a3.333 3.333 0 013.9-1.4l48.5 16.4a2.992 2.992 0 011.919 1.787 2.996 2.996 0 01-.219 2.613l-32.4 56.3a3.307 3.307 0 01-3.7 1.5l-50.5-13.3a3.127 3.127 0 01-2.036-1.792 3.117 3.117 0 01.136-2.708z" fill="#21252B"/><path d="M465.7 585.3a2.216 2.216 0 00.7-2.2 7.418 7.418 0 014.4-.2c2.2.8 2.7 2.7 1.1 4.4a7.267 7.267 0 01-6.9 1.7 2.688 2.688 0 01-2-2.4 4.59 4.59 0 002.7-1.3z" fill="#3F4249"/><path opacity=".4" d="M498.291 578.68c1.26-.69 1.89-2 1.41-2.83-.48-.83-1.89-1-3.15-.32-1.26.68-1.88 2-1.4 2.84.48.84 1.85 1.01 3.14.31z" fill="#000"/><path d="M498.689 578.879c1.25-.7 1.88-2 1.4-2.84-.48-.84-1.89-1-3.14-.31-1.25.69-1.89 2-1.41 2.83.48.83 1.89 1.01 3.15.32z" fill="#3F4249"/><path opacity=".5" d="M498.391 578.361c.82-.45 1.22-1.29.9-1.87a1.51 1.51 0 00-2.06-.23c-.83.46-1.23 1.29-.91 1.87.25.296.604.486.989.529.385.042.772-.065 1.081-.299z" fill="#000"/><path opacity=".4" d="M498.802 577.3a.903.903 0 00-.7-1.3h.3c.8 0 1.3.6 1 1.3a2.375 2.375 0 01-2 1.3h-.3a2.1 2.1 0 001.7-1.3z" fill="#000"/><path d="M417.899 576.4l1.4.3c.326.088.664.122 1 .1l16.6-.3c1.739.007 3.464.312 5.1.9l19.1 7a1.76 1.76 0 011.1 2 1.737 1.737 0 01-2.1 1.2l-18.3-4.8 17.4 9.5a1.708 1.708 0 01.876 1.047 1.7 1.7 0 01-.176 1.353 1.913 1.913 0 01-2.3.9l-17.7-7 16 6.3a1.707 1.707 0 01.959.892 1.695 1.695 0 01.041 1.308 1.85 1.85 0 01-2.2 1.2l-16.3-4.4 14 3.8a1.366 1.366 0 011.039 1.155c.024.183.011.368-.039.545a1.386 1.386 0 01-1.137 1.122 1.388 1.388 0 01-.563-.022l-37.4-7.9-2.6-.2 6.2-16z" fill="#956363"/><path opacity=".15" d="M455.9 594.9L441 589m-2.602 4.801l14.1 3.8" stroke="#000" stroke-width="1.18" stroke-miterlimit="10" stroke-linecap="round"/><path opacity=".15" d="M453.501 599.3a1.392 1.392 0 01-1.7 1.1l-37.4-7.9-2.6-.2 1.3-3.3 40.4 10.3zm-109.299-37.001l4 .8 16.5-41.9 1.4-3.5c-1.3-6-3-13.8-4-18.6a1.156 1.156 0 00-1.063-.867 1.147 1.147 0 00-1.137.767l-18.5 58.7a3.658 3.658 0 00.395 2.912 3.66 3.66 0 002.405 1.688z" fill="#000"/><path opacity=".15" d="M410.998 574.4l-14.6-2.8m-4.698-.899l-19.7-3.9" stroke="#000" stroke-width="1.18" stroke-miterlimit="10" stroke-linecap="round"/><path opacity=".15" d="M426.699 576.6l11.2-2.2 2.5 2.5-2.9 3.5-10.8-3.8z" fill="#000"/><path d="M413.899 615.701l34.4-59.4a3.331 3.331 0 013.9-1.4l48.5 16.4a3 3 0 011.7 4.4l-32.4 56.3a3.314 3.314 0 01-3.7 1.5l-50.5-13.3a3.152 3.152 0 01-1.9-4.5z" fill="#3F4249"/><path opacity=".8" d="M413.899 615.701l34.4-59.4a3.331 3.331 0 013.9-1.4l48.5 16.4a3 3 0 011.7 4.4l-32.4 56.3a3.314 3.314 0 01-3.7 1.5l-50.5-13.3a3.152 3.152 0 01-1.9-4.5z" fill="#000"/><path d="M415.6 616.201l34.4-59.4a3.333 3.333 0 013.9-1.4l48.5 16.4a2.992 2.992 0 011.919 1.787 2.996 2.996 0 01-.219 2.613l-32.4 56.3a3.307 3.307 0 01-3.7 1.5l-50.5-13.3a3.127 3.127 0 01-2.036-1.792 3.117 3.117 0 01.136-2.708z" fill="#21252B"/><path d="M465.7 585.3a2.216 2.216 0 00.7-2.2 7.418 7.418 0 014.4-.2c2.2.8 2.7 2.7 1.1 4.4a7.267 7.267 0 01-6.9 1.7 2.688 2.688 0 01-2-2.4 4.59 4.59 0 002.7-1.3z" fill="#3F4249"/><path opacity=".4" d="M498.291 578.68c1.26-.69 1.89-2 1.41-2.83-.48-.83-1.89-1-3.15-.32-1.26.68-1.88 2-1.4 2.84.48.84 1.85 1.01 3.14.31z" fill="#000"/><path d="M498.689 578.879c1.25-.7 1.88-2 1.4-2.84-.48-.84-1.89-1-3.14-.31-1.25.69-1.89 2-1.41 2.83.48.83 1.89 1.01 3.15.32z" fill="#3F4249"/><path opacity=".5" d="M498.391 578.361c.82-.45 1.22-1.29.9-1.87a1.51 1.51 0 00-2.06-.23c-.83.46-1.23 1.29-.91 1.87.25.296.604.486.989.529.385.042.772-.065 1.081-.299z" fill="#000"/><path opacity=".4" d="M498.802 577.3a.903.903 0 00-.7-1.3h.3c.8 0 1.3.6 1 1.3a2.375 2.375 0 01-2 1.3h-.3a2.1 2.1 0 001.7-1.3z" fill="#000"/><path d="M417.899 576.4l1.4.3c.326.088.664.122 1 .1l16.6-.3c1.739.007 3.464.312 5.1.9l19.1 7a1.76 1.76 0 011.1 2 1.737 1.737 0 01-2.1 1.2l-18.3-4.8 17.4 9.5a1.708 1.708 0 01.876 1.047 1.7 1.7 0 01-.176 1.353 1.913 1.913 0 01-2.3.9l-17.7-7 16 6.3a1.707 1.707 0 01.959.892 1.695 1.695 0 01.041 1.308 1.85 1.85 0 01-2.2 1.2l-16.3-4.4 14 3.8a1.366 1.366 0 011.039 1.155c.024.183.011.368-.039.545a1.386 1.386 0 01-1.137 1.122 1.388 1.388 0 01-.563-.022l-37.4-7.9-2.6-.2 6.2-16z" fill="#956363"/><path opacity=".15" d="M455.9 594.9L441 589m-2.602 4.801l14.1 3.8" stroke="#000" stroke-width="1.18" stroke-miterlimit="10" stroke-linecap="round"/><path opacity=".15" d="M453.501 599.3a1.392 1.392 0 01-1.7 1.1l-37.4-7.9-2.6-.2 1.3-3.3 40.4 10.3zm-87.402-81.7l-1.4 3.5-8.6 21.9-5.4 13.7-1.3 3.2-.7 1.8-.5 1.3-2.9-.6-1.1-.2a3.534 3.534 0 01-2.9-3.6c0-.3.1-.6.1-1l5.6-17.6 1.4-4.4 8.8-28 1.3-4.3 1.4-4.4a1.146 1.146 0 011.137-.768 1.149 1.149 0 011.063.868c.6 2.7 1.4 6.3 2.2 10l.2.7c.5 2.8 1.1 5.5 1.6 7.9z" fill="#000"/><path opacity=".3" d="M364.399 509.799l-1.8-.4c-9.4-2.6-23.6-9.2-25.9-10.3l.7-2.2.7-2.2c2 1 16.3 7.8 25.3 10.3l1 4.8zM357.7 538.7l-1.6 4.3c-8.3-2.3-24-8.5-29.6-10.7l1.4-4.4c5.2 2 21.6 8.5 29.8 10.8zm-6.998 18.101l-1.3 3.2-.7 1.8c-1.1.2-2.2.4-3.4.7-10.5 2.3-25 6.5-30.2 8 .15-.952.384-1.889.7-2.8l.7-2.5c5.8-1.7 16.1-4.6 24.8-6.6 3.5-.8 6.8-1.4 9.4-1.8zm14.396 9.499c-3.2 5.6-8.3 15.2-11.7 21.8l-5-.4c3.1-6.1 8.3-16 11.9-22.3l4.8.9zm31.001 5.901c-2.9 5.7-6.5 13.1-8.9 18.3l-5-.4c2.3-4.9 6-12.5 9.2-18.8.1 0 0 0 4.7.9zm81.302-65.002l-1.1-4.7 10.9-6.3 2.3 4-12.1 7zm25.698 20.601l-21.7 21-2.7-3.8 22.2-21.5 2.2 4.3zm22.603 1.399v24.8l-4.6.9v-25.6l4.6-.1zm30.198-.898l-3.3 20.3-4.6 1 3.3-21.2 4.6-.1z" fill="#fff"/><path opacity=".3" d="M425.998 509.501a493.328 493.328 0 01-62.7-4.2l-.9-4.6c.7.1 70 9.6 113.4-.4l1 4.5c-15.2 3.5-33.4 4.7-50.8 4.7z" fill="#fff"/><path d="M609.601 539.699a.678.678 0 01-.199.501.68.68 0 01-.501.199l-9.8 1c-.45.004-.894.106-1.3.3v-9.5a3.618 3.618 0 003.3 3.3l4.9.7c.945.107 1.825.53 2.5 1.2a3.363 3.363 0 011.1 2.3z" fill="#956363"/></svg>