<svg width="368" height="277" fill="none" xmlns="http://www.w3.org/2000/svg"><g clip-path="url(#clip0)"><path opacity=".18" d="M87.993 59.178c-20.056 10.7-40.72 21.904-54.698 39.823-8.395 10.773-13.988 23.597-16.934 36.94-5.045 22.776-1.31 49.18 16.046 64.844 6.04 5.475 13.426 9.339 21.045 12.309a113.039 113.039 0 0049.667 7.354c13.876-1.082 27.73-4.733 41.537-2.993 16.84 2.116 31.544 11.952 47.232 18.429a123.446 123.446 0 0061.653 8.397c5.277-.64 10.62-1.665 15.261-4.254 5.509-3.076 9.593-8.101 13.937-12.694a121.489 121.489 0 0134.127-25.374c6.703-3.35 13.806-6.129 19.627-10.843 15.331-12.388 17.956-34.556 17.064-54.214-.892-19.658-5.329-41.358-21.082-53.296-3.517-2.663-7.475-4.728-10.885-7.535-11.372-9.362-14.773-25.035-22.057-37.845C283.198 9.58 246.753-2.96 213.941.585c-47.019 5.08-85.527 37.033-125.948 58.593z" fill="#0090FF"/><path d="M334.338 137.101c-.428 3.944-5.301 10.565-12.042 18.007-11.047 12.174-27.098 26.534-36.752 34.899a582.71 582.71 0 01-8.255 7.043v-74.949s11.689-14.949 20.181-15.909c8.492-.96 25.63 8.959 25.63 8.959s12.669 8.235 11.238 21.95z" fill="#0090FF"/><path d="M322.296 155.108c-11.047 12.174-27.098 26.534-36.751 34.899-.721-1.146-.865-2.705-.93-4.115-.255-7.048-.195-14.105-.13-21.157.061-6.848.121-13.692.553-20.526.409-6.366 1.189-12.875 4.107-18.558a7.124 7.124 0 011.603 2.078c3.674 6.305 5.997 13.26 8.32 20.164a4366.49 4366.49 0 013.447 10.249 24.706 24.706 0 006.797-5.498c1.765-1.953 3.34-4.064 4.961-6.134 1.134-1.447 3.345-5.567 5.111-4.018 2.861 2.492 3.094 8.194 2.912 12.616z" fill="url(#paint0_linear)"/><path d="M285.87 23.42H95.589v220.091H285.87V23.421z" fill="#0090FF"/><path d="M285.87 23.42H95.589v220.091H285.87V23.421z" fill="url(#paint1_linear)"/><path d="M259.72 34.06L95.589 48.753c.739 0 0-20.414 0-25.332H268.64v1.726c0 2.363-.94 4.63-2.613 6.3a8.929 8.929 0 01-6.307 2.613z" fill="url(#paint2_linear)"/><path d="M285.87 48.753H95.589v220.091H285.87V48.754z" fill="#0090FF"/><path d="M122.641 48.753H95.589v220.091h27.052V48.754z" fill="url(#paint3_linear)"/><path d="M139.076 89.888h-32.868v32.826h32.868V89.888zm34.694 0h-32.868v32.826h32.868V89.888zm34.699 0h-32.868v32.826h32.868V89.888zm34.693 0h-32.868v32.826h32.868V89.888zm-104.086 34.269h-32.868v32.825h32.868v-32.825zm34.694 0h-32.868v32.825h32.868v-32.825zm34.699 0h-32.868v32.825h32.868v-32.825zm34.693 0h-32.868v32.825h32.868v-32.825zm-104.086 34.268h-32.868v32.825h32.868v-32.825zm34.694 0h-32.868v32.825h32.868v-32.825zm34.699 0h-32.868v32.825h32.868v-32.825zm34.693 0h-32.868v32.825h32.868v-32.825zm-104.086 34.268h-32.868v32.826h32.868v-32.826zm34.694 0h-32.868v32.826h32.868v-32.826zm34.699 0h-32.868v32.826h32.868v-32.826zm34.693 0h-32.868v32.826h32.868v-32.826zm-104.086 34.269h-32.868v32.825h32.868v-32.825zm34.694 0h-32.868v32.825h32.868v-32.825zm34.699 0h-32.868v32.825h32.868v-32.825zm68.806-137.074h-32.868v32.826h32.868V89.888zm0-34.268h-32.868v32.825h32.868V55.62zm-34.113 0h-32.868v32.825h32.868V55.62zm34.113 68.537h-32.868v32.825h32.868v-32.825zm0 34.268h-32.868v32.825h32.868v-32.825zm0 34.268h-32.868v32.826h32.868v-32.826z" fill="#fff"/><path d="M110.329 14.522V32.32c0 .96 1.222 1.74 2.722 1.74 1.506 0 2.723-.78 2.723-1.74V14.522c0-.96-1.217-1.74-2.723-1.74-1.5 0-2.722.78-2.722 1.74zm26.025 0V32.32c0 .96 1.218 1.74 2.723 1.74s2.722-.78 2.722-1.74V14.522c0-.96-1.217-1.74-2.722-1.74s-2.723.78-2.723 1.74zm26.025 0V32.32c0 .96 1.217 1.74 2.722 1.74s2.723-.78 2.723-1.74V14.522c0-.96-1.218-1.74-2.723-1.74s-2.722.78-2.722 1.74zm26.025 0V32.32c0 .96 1.217 1.74 2.723 1.74 1.5 0 2.722-.78 2.722-1.74V14.522c0-.96-1.222-1.74-2.722-1.74-1.506 0-2.723.78-2.723 1.74zm26.021 0V32.32c0 .96 1.222 1.74 2.727 1.74 1.5 0 2.722-.78 2.722-1.74V14.522c0-.96-1.222-1.74-2.722-1.74-1.505 0-2.727.78-2.727 1.74zm26.024 0V32.32c0 .96 1.222 1.74 2.723 1.74 1.505 0 2.727-.78 2.727-1.74V14.522c0-.96-1.222-1.74-2.727-1.74-1.501 0-2.723.78-2.723 1.74zm25.468 0V32.32c0 .96 1.222 1.74 2.722 1.74 1.506 0 2.723-.78 2.723-1.74V14.522c0-.96-1.217-1.74-2.723-1.74-1.5 0-2.722.78-2.722 1.74zm24.288 8.898h-4.33v245.424h4.33V23.421z" fill="#0090FF"/><path d="M290.205 23.42h-4.33v245.424h4.33V23.421z" fill="url(#paint4_linear)"/><path d="M217.885 60.431a2.606 2.606 0 01-1.61 2.416 2.618 2.618 0 01-3.57-1.897 2.609 2.609 0 011.108-2.684 2.616 2.616 0 014.072 2.165z" fill="url(#paint5_linear)"/><path d="M217.885 94.704a2.606 2.606 0 01-1.61 2.416 2.62 2.62 0 01-3.57-1.897 2.608 2.608 0 011.108-2.683 2.616 2.616 0 014.072 2.164z" fill="url(#paint6_linear)"/><path d="M224.273 94.704a2.614 2.614 0 01-4.462 1.855 2.615 2.615 0 01-.572-2.846 2.611 2.611 0 012.414-1.616 2.621 2.621 0 012.62 2.607z" fill="url(#paint7_linear)"/><path d="M230.698 94.704a2.614 2.614 0 01-4.462 1.855 2.615 2.615 0 01-.572-2.846 2.615 2.615 0 015.034.991z" fill="url(#paint8_linear)"/><path d="M217.885 163.733a2.614 2.614 0 01-5.18.509 2.607 2.607 0 011.112-2.681 2.614 2.614 0 014.064 2.167l.004.005z" fill="url(#paint9_linear)"/><path d="M111.728 166.34a2.609 2.609 0 002.611-2.607 2.61 2.61 0 00-2.611-2.608 2.61 2.61 0 00-2.611 2.608 2.609 2.609 0 002.611 2.607z" fill="#FF2235"/><path d="M224.273 163.733a2.607 2.607 0 01-1.615 2.413 2.622 2.622 0 01-2.85-.566 2.614 2.614 0 01-.567-2.847 2.614 2.614 0 015.027.995l.005.005z" fill="url(#paint10_linear)"/><path d="M230.698 163.733a2.615 2.615 0 11-5.032-1 2.614 2.614 0 015.027.995l.005.005z" fill="url(#paint11_linear)"/><path d="M334.026 93.581c-.729 2.979.247 7.108-1.138 9.841-2.323 4.593-9.115 7.642-10.118 12.685-.06.292-7.619 3.93-11.517 2.686-2.039-.645-3.075-2.631-1.505-7.122.493-1.392 3.252-1.911 3.995-3.206l-.153-.116c-3.772-2.844-4.181-8.87-3.4-12.893.78-4.023 2.569-7.888 4.487-11.562 1.478-2.83 4.813-4.366 8.009-4.315 4.019.07 8.26 1.675 10.351 5.104 1.598 2.612 1.714 5.92.989 8.898z" fill="url(#paint12_linear)"/><path d="M315.463 71.914c-2.058 1.086-4.246 2.367-6.551 2.019a3.11 3.11 0 001.31 2.876l-1.43.32a.406.406 0 00-.298.167.369.369 0 00-.018.162.368.368 0 00.051.154 4.7 4.7 0 001.668 2.027c-.256.548-1.18.427-1.496.928a1.109 1.109 0 000 .928 5.16 5.16 0 001.579 2.213c-.855.928-.32 2.645.86 3.067a2.475 2.475 0 003.001-1.573 2.473 2.473 0 01-.353 1.536c3.897.612 8.065 1.188 11.651-.464-.168.37-.26.772-.269 1.178a5.62 5.62 0 002.675.167c.186 1.911.015 3.84-.506 5.689-.32 1.15-.78 2.264-.985 3.438a4.639 4.639 0 00.59 3.47c.618-.056 1.055-.636 1.292-1.206a6.259 6.259 0 01.766-1.68c.929-1.085 2.862-.686 3.61.515.748 1.202.464 2.816-.251 4.027a6.133 6.133 0 01-4.014 2.784c.135 1.295.274 2.589.409 3.879 2.448-2.32 5.189-4.31 7.391-6.848 2.202-2.538 3.87-5.786 3.587-9.136-.172-2.064-1.073-4.027-1.143-6.1-.033-.929.107-1.88.07-2.817a7.64 7.64 0 00-5.041-6.741c-1.185-.404-2.49-.52-3.54-1.202-1.305-.844-1.984-2.417-3.28-3.28-1.393-.928-3.558-1.309-5.18-1.768-2.109-.585-4.302.302-6.155 1.271z" fill="#3F3D56"/><path d="M286.237 115.815a1.377 1.377 0 00-.641.927.925.925 0 00.748.826c.397.07.805.051 1.194-.055l2.36-.464a8.095 8.095 0 00-3.062 3.015.868.868 0 00.042.952c.316.399.85.241 1.277.074l2.049-.817-1.394 1.35c-.433.39-.811.836-1.124 1.327a2.7 2.7 0 00-.297.738.643.643 0 00.464.77.55.55 0 00.326 0 6.314 6.314 0 002.323-1.225 15.473 15.473 0 01-1.678 1.981 3.326 3.326 0 00-.966 2.32.467.467 0 00.088.26.416.416 0 00.256.121c.757.125 1.445-.427 2.016-.928l2.105-1.907c.339-.277.637-.601.887-.96a1.36 1.36 0 00.228-.701.929.929 0 00-1.422-.701c.06-.403.218-.779.316-1.173.12-.389.094-.808-.074-1.179a.808.808 0 00-1.022-.385 4.524 4.524 0 00.464-1.545 1.49 1.49 0 00-.683-1.392 1.18 1.18 0 01-.344-.218c-.185-.227-.037-.552.042-.835a1.341 1.341 0 00-.045-1.033 1.344 1.344 0 00-.763-.698 1.402 1.402 0 00-.585-.074c-1.199.125-2.198.877-3.085 1.629z" fill="url(#paint13_linear)"/><path d="M324.354 133.246c5.343-4.714 11.958-1.142 9.635 5.59-5.022 14.564-15.535 47.932-25.518 47.932-13.008 0-18.267-23.035-18.267-23.035l6.007-12.142s8.497 18.619 12.775 13.58c4.279-5.039 6.806-24.126 15.122-31.707l.246-.218z" fill="#0090FF"/><path d="M294.242 150.788a29.09 29.09 0 01-.056-3.248 24.453 24.453 0 00-4.023-13.292 1.918 1.918 0 00-.33 1.345l.07 12.323a14.259 14.259 0 01-.205 3.053c-.158.733-.427 1.434-.636 2.157a12.632 12.632 0 00-.465 4.64c.04.839.267 1.659.665 2.399a2.669 2.669 0 002.007 1.355c.274 0 1.393-2.32 1.556-2.636.499-.928.963-1.863 1.394-2.807.32-.714 1.003-1.767.882-2.57-.134-.9-.748-1.731-.859-2.719z" fill="url(#paint14_linear)"/><path d="M319.067 111.611c-1.124 1.262-2.239 2.529-3.363 3.795a13.278 13.278 0 01-3.029 2.784 6.133 6.133 0 01-1.422.612c-2.039-.644-3.075-2.63-1.505-7.121.493-1.392 3.252-1.912 3.995-3.206l-.153-.116a7.126 7.126 0 001.677.547c1.208.181 4.181-.756 4.548 1.03.13.617-.306 1.197-.748 1.675z" fill="url(#paint15_linear)"/><path d="M183.986 208.784l4.683 7.265a1.46 1.46 0 002.012.436c.115-.077.22-.169.311-.273l12.896-14.847a1.446 1.446 0 00-1.091-2.399h-.107a1.456 1.456 0 00-1.115.52l-10.091 12.063a1.452 1.452 0 01-2.034.19 1.46 1.46 0 01-.288-.325l-2.746-4.175a1.454 1.454 0 00-1.431-.636 1.437 1.437 0 00-1.07.818 1.451 1.451 0 00.071 1.344v.019zm-56.384 36.741l5.895 5.795a1.463 1.463 0 01-.213 2.261 1.472 1.472 0 01-.818.249h-.251c-.39 0-.764-.154-1.041-.427l-5.737-5.735a1.472 1.472 0 00-2.077 0l-5.737 5.735a1.467 1.467 0 01-1.036.427h-.256a1.472 1.472 0 01-1.358-.91 1.463 1.463 0 01.327-1.6l5.9-5.795a1.454 1.454 0 000-2.06l-5.956-5.948a1.463 1.463 0 01.223-2.253 1.46 1.46 0 011.84.17l6.039 5.948a1.471 1.471 0 002.058 0l6.04-5.948a1.458 1.458 0 011.026-.418c.291 0 .574.086.816.246a1.47 1.47 0 01.225 2.255l-5.956 5.948a1.455 1.455 0 00.028 2.06h.019zm-52.576-18.22h1.44l.72 32.505-.72-5.354h-1.44v-27.151z" fill="#0090FF"/><path d="M76.466 239.155v.037c0 1.016-.362 2.032-.747 3.247-2.537.733-4.228 1.323-6.718-1.248-2.49-2.57-5.06-7.539-4.246-10.049 2.536-.733 7.48 1.935 9.974 4.505 1.291 1.313 1.728 2.413 1.737 3.508zm7.429 2.055c-2.285 2.213-3.893 1.916-5.988 1.248v11.998h-1.44v-27.151h1.44v8.634c.135-.148.279-.297.437-.464 2.573-2.487 7.549-5.057 10.062-4.24.739 2.547-1.937 7.483-4.51 9.975z" fill="#0090FF"/><path d="M83.895 241.21c-2.285 2.213-3.893 1.916-5.988 1.248v11.998h-1.44v-27.151h1.44v8.634c.135-.148.279-.297.437-.464 2.573-2.487 7.549-5.057 10.062-4.24.739 2.547-1.937 7.483-4.51 9.975z" fill="url(#paint16_linear)"/><path d="M76.467 220.749h-6.43c0 4.561 2.876 8.259 6.425 8.259l1.514-4.051-1.51-4.208z" fill="#0090FF"/><path d="M76.578 222.331l-.111.079v-.464l.111.385zm-12.282-10.884c-.813 2.51 1.756 7.483 4.25 10.049 2.495 2.566 4.182 1.986 6.713 1.248.814-2.51 1.506-4.222-.989-6.792-2.495-2.571-7.438-5.238-9.974-4.505z" fill="#0090FF"/><path d="M83.435 221.529a9.659 9.659 0 01-.627.561c-.497 3.925-3.15 6.918-6.341 6.918v-6.598l.111-.079-.111-.39v.464a2.953 2.953 0 01-.465.27c-2.285-1.323-4.134-5.531-3.986-9.108.149-3.577 1.951-8.866 4.33-10.017 2.286 1.322 3.777 6.727 3.642 10.309v.265c2.634-1.805 6.04-3.188 7.977-2.561.72 2.542-1.96 7.474-4.53 9.966z" fill="#0090FF"/><path d="M83.435 221.529a9.659 9.659 0 01-.627.561c-.497 3.925-3.15 6.918-6.341 6.918v-6.598l.111-.079-.111-.39v.464a2.953 2.953 0 01-.465.27c-2.285-1.323-4.134-5.531-3.986-9.108.149-3.577 1.951-8.866 4.33-10.017 2.286 1.322 3.777 6.727 3.642 10.309v.265c2.634-1.805 6.04-3.188 7.977-2.561.72 2.542-1.96 7.474-4.53 9.966z" fill="url(#paint17_linear)"/><path d="M76.578 222.331l-.111.079v-.464l.111.385zM63.76 250.313l2.268 18.299h10.485l4.283-10.412-4.283-8.398-12.752.511z" fill="#0090FF"/><path d="M89.27 250.313l-2.266 18.299h-10.49v-18.81l12.757.511z" fill="#0090FF"/><path d="M81.187 249.928l-.116.055-3.559 1.763-.97.492H62.376a1.612 1.612 0 01-1.612-1.61v-4.092a1.444 1.444 0 011.43-1.457h.135l14.211.028 4.646 4.821z" fill="#0090FF"/><path d="M81.187 249.928l-.116.055-3.559 1.763-.97.492H62.376a1.612 1.612 0 01-1.612-1.61v-4.092a1.444 1.444 0 011.43-1.457h.135l14.211.028 4.646 4.821z" fill="url(#paint18_linear)"/><path d="M90.655 252.238H76.514v-7.312h14.141a1.613 1.613 0 011.612 1.61v4.092a1.61 1.61 0 01-1.612 1.61z" fill="#0090FF"/><path d="M76.518 252.238v16.374h-10.49l-2.03-16.374h12.52z" fill="url(#paint19_linear)"/><path d="M89.034 252.238l-2.03 16.374H76.519v-16.374h12.515z" fill="url(#paint20_linear)"/><path d="M92.267 246.722v4.092a1.608 1.608 0 01-1.612 1.61H76.54v-7.312h14.137a1.613 1.613 0 011.589 1.61z" fill="url(#paint21_linear)"/><path opacity=".18" d="M67.25 268.635l-26.647 5.103a1.643 1.643 0 00-1.532 1.103 1.633 1.633 0 001.792 2.145h301.053a1.63 1.63 0 001.313-2.678 1.638 1.638 0 00-1.086-.57l-38.842-4.881h-.223l-235.488-.231a1.602 1.602 0 00-.34.009z" fill="#1D2741"/></g><defs><linearGradient id="paint0_linear" x1="310.441" y1="131.51" x2="231.17" y2="280.867" gradientUnits="userSpaceOnUse"><stop stop-opacity="0"/><stop offset=".91" stop-opacity=".8"/><stop offset="1"/></linearGradient><linearGradient id="paint1_linear" x1="77311.8" y1="22162.3" x2="72473.4" y2="79600.3" gradientUnits="userSpaceOnUse"><stop stop-opacity="0"/><stop offset=".91" stop-opacity=".8"/><stop offset="1"/></linearGradient><linearGradient id="paint2_linear" x1="180.409" y1="9.725" x2="182.499" y2="42.119" gradientUnits="userSpaceOnUse"><stop offset=".01"/><stop offset=".1" stop-opacity=".77"/><stop offset=".99" stop-opacity="0"/></linearGradient><linearGradient id="paint3_linear" x1="8402.34" y1="112726" x2="-7046.45" y2="112732" gradientUnits="userSpaceOnUse"><stop stop-opacity="0"/><stop offset=".91" stop-opacity=".8"/><stop offset="1"/></linearGradient><linearGradient id="paint4_linear" x1="3362.31" y1="72693.1" x2="1339.59" y2="72698.6" gradientUnits="userSpaceOnUse"><stop stop-opacity="0"/><stop offset=".91" stop-opacity=".8"/><stop offset="1"/></linearGradient><linearGradient id="paint5_linear" x1="215.126" y1="58.241" x2="215.997" y2="71.478" gradientUnits="userSpaceOnUse"><stop stop-color="#183866"/><stop offset="1" stop-color="#1A7FC1"/></linearGradient><linearGradient id="paint6_linear" x1="2474.07" y1="2021.93" x2="2483.88" y2="2171.03" gradientUnits="userSpaceOnUse"><stop stop-color="#183866"/><stop offset="1" stop-color="#1A7FC1"/></linearGradient><linearGradient id="paint7_linear" x1="2552.39" y1="2021.93" x2="2562.15" y2="2171.03" gradientUnits="userSpaceOnUse"><stop stop-color="#183866"/><stop offset="1" stop-color="#1A7FC1"/></linearGradient><linearGradient id="paint8_linear" x1="2631.15" y1="2021.93" x2="2640.9" y2="2171.03" gradientUnits="userSpaceOnUse"><stop stop-color="#183866"/><stop offset="1" stop-color="#1A7FC1"/></linearGradient><linearGradient id="paint9_linear" x1="2474.02" y1="2868.16" x2="2483.83" y2="3017.26" gradientUnits="userSpaceOnUse"><stop stop-color="#183866"/><stop offset="1" stop-color="#1A7FC1"/></linearGradient><linearGradient id="paint10_linear" x1="2552.38" y1="2868.16" x2="2562.14" y2="3017.26" gradientUnits="userSpaceOnUse"><stop stop-color="#183866"/><stop offset="1" stop-color="#1A7FC1"/></linearGradient><linearGradient id="paint11_linear" x1="2631.15" y1="2868.16" x2="2640.9" y2="3017.26" gradientUnits="userSpaceOnUse"><stop stop-color="#183866"/><stop offset="1" stop-color="#1A7FC1"/></linearGradient><linearGradient id="paint12_linear" x1="340.953" y1="108.015" x2="297.842" y2="91.182" gradientUnits="userSpaceOnUse"><stop stop-color="#ECC4D7"/><stop offset=".16" stop-color="#EDCBD5"/><stop offset=".42" stop-color="#EFD4D1"/><stop offset=".7" stop-color="#F2EAC9"/></linearGradient><linearGradient id="paint13_linear" x1="285.596" y1="121.057" x2="293.461" y2="121.057" gradientUnits="userSpaceOnUse"><stop stop-color="#ECC4D7"/><stop offset=".42" stop-color="#EFD4D1"/><stop offset="1" stop-color="#F2EAC9"/></linearGradient><linearGradient id="paint14_linear" x1="4164.1" y1="13463" x2="4256.86" y2="13463" gradientUnits="userSpaceOnUse"><stop stop-color="#ECC4D7"/><stop offset=".42" stop-color="#EFD4D1"/><stop offset="1" stop-color="#F2EAC9"/></linearGradient><linearGradient id="paint15_linear" x1="7242.48" y1="4482.02" x2="6842.81" y2="4969.71" gradientUnits="userSpaceOnUse"><stop stop-color="#ECC4D7"/><stop offset=".42" stop-color="#EFD4D1"/><stop offset="1" stop-color="#F2EAC9"/></linearGradient><linearGradient id="paint16_linear" x1="79.514" y1="255.635" x2="82.387" y2="230.812" gradientUnits="userSpaceOnUse"><stop offset=".1" stop-opacity=".77"/><stop offset=".99" stop-opacity="0"/></linearGradient><linearGradient id="paint17_linear" x1="2705.87" y1="3536.21" x2="2191.43" y2="3567.86" gradientUnits="userSpaceOnUse"><stop offset=".1" stop-opacity=".77"/><stop offset=".99" stop-opacity="0"/></linearGradient><linearGradient id="paint18_linear" x1="71.44" y1="218.128" x2="70.931" y2="251.255" gradientUnits="userSpaceOnUse"><stop offset=".36" stop-opacity=".77"/><stop offset=".99" stop-opacity="0"/></linearGradient><linearGradient id="paint19_linear" x1="1567.4" y1="1394.44" x2="1591.59" y2="773.954" gradientUnits="userSpaceOnUse"><stop offset=".01"/><stop offset=".1" stop-opacity=".77"/><stop offset=".99" stop-opacity="0"/></linearGradient><linearGradient id="paint20_linear" x1="2065.09" y1="1304.55" x2="1611.83" y2="655.598" gradientUnits="userSpaceOnUse"><stop offset=".01"/><stop offset=".1" stop-opacity=".77"/><stop offset=".99" stop-opacity="0"/></linearGradient><linearGradient id="paint21_linear" x1="2596.72" y1="958.328" x2="2544.78" y2="572.555" gradientUnits="userSpaceOnUse"><stop offset=".1" stop-opacity=".77"/><stop offset=".99" stop-opacity="0"/></linearGradient><clipPath id="clip0"><path fill="#fff" d="M0 0h368v277H0z"/></clipPath></defs></svg>