<svg height="512" viewBox="0 0 128 128" width="512" xmlns="http://www.w3.org/2000/svg"><path d="M1.75 8.564h124.5V74.07H1.75z" fill="#4d5680"/><path d="M1.75 74.07h124.5v6.938a6 6 0 01-6 6H7.75a6 6 0 01-6-6V74.07z" fill="#80a3ff"/><path d="M46.844 87.007h34.312v20.182H46.844z" fill="#f3f5f9"/><path d="M87.689 119.436H40.311a6.124 6.124 0 01-6.124-6.123 6.124 6.124 0 016.124-6.124h47.378a6.123 6.123 0 016.123 6.124 6.123 6.123 0 01-6.123 6.123z" fill="#4d5680"/><circle cx="64" cy="41.317" fill="#f3f5f9" r="20.405" transform="rotate(-20 63.924 41.38)"/><path d="M69.013 47.083H58.986a8.773 8.773 0 00-8.773 8.774v.5a20.4 20.4 0 0027.574 0v-.5a8.774 8.774 0 00-8.774-8.774z" fill="#ffd830"/><path d="M64 40.615a5.17 5.17 0 01-5.17-5.17v-2.037a5.17 5.17 0 015.17-5.17 5.17 5.17 0 015.17 5.17v2.037a5.17 5.17 0 01-5.17 5.17z" fill="#ffd9b3"/><path d="M28.75 72.319h-5a1.75 1.75 0 000 3.5h5a1.75 1.75 0 000-3.5z"/><path d="M126.25 6.814H1.75A1.751 1.751 0 000 8.564v72.443a7.759 7.759 0 007.75 7.75h37.344v16.682h-4.783a7.874 7.874 0 100 15.747h47.377a7.874 7.874 0 100-15.747h-4.782V88.757h37.344a7.759 7.759 0 007.75-7.75V8.564a1.75 1.75 0 00-1.75-1.75zm-34.188 106.5a4.378 4.378 0 01-4.374 4.373H40.311a4.374 4.374 0 110-8.747h47.377a4.378 4.378 0 014.374 4.373zm-12.656-7.874H48.594V88.757h30.812zm40.844-20.183H7.75a4.255 4.255 0 01-4.25-4.25v-5.188h9.125a1.75 1.75 0 000-3.5H3.5v-62h121v62H39.875a1.75 1.75 0 000 3.5H124.5v5.188a4.255 4.255 0 01-4.25 4.25z"/><path d="M64 63.472a22.18 22.18 0 0022.155-22.155 1.75 1.75 0 00-3.5 0 18.529 18.529 0 01-3.7 11.109 10.533 10.533 0 00-9.937-7.093H58.986a10.534 10.534 0 00-9.938 7.093A18.62 18.62 0 0164 22.661a18.722 18.722 0 0115.114 7.718 1.75 1.75 0 102.834-2.053A22.156 22.156 0 1064 63.472zm-5.014-14.639h10.028a7.027 7.027 0 017.008 6.726 18.583 18.583 0 01-24.044 0 7.026 7.026 0 017.008-6.726z"/><path d="M57.08 33.408v2.037a6.92 6.92 0 0013.84 0v-2.037a6.92 6.92 0 00-13.84 0zm10.34 0v2.037a3.42 3.42 0 01-6.84 0v-2.037a3.42 3.42 0 016.84 0z"/></svg>