<svg width="356" height="205" fill="none" xmlns="http://www.w3.org/2000/svg"><g clip-path="url(#clip0)"><path d="M77.135 181.969c10.225 0 18.514-8.307 18.514-18.555 0-10.247-8.289-18.554-18.514-18.554s-18.514 8.307-18.514 18.554c0 10.248 8.29 18.555 18.514 18.555z" fill="#F2F2F2"/><path d="M80.146 179.254c10.225 0 18.514-8.307 18.514-18.555 0-10.247-8.29-18.555-18.514-18.555-10.225 0-18.514 8.308-18.514 18.555 0 10.248 8.289 18.555 18.514 18.555z" fill="#0090FF"/><path d="M324.125 140.168H95.057v.627h229.068v-.627zM213.691 5.842h-81.305v-1.68H95.519v1.68h-81.64a5.49 5.49 0 00-3.89 1.614 5.513 5.513 0 00-1.61 3.898V122.93a5.52 5.52 0 001.61 3.898 5.496 5.496 0 003.89 1.614H213.69a5.498 5.498 0 003.889-1.614 5.52 5.52 0 001.61-3.898V11.354a5.53 5.53 0 00-1.61-3.898 5.498 5.498 0 00-3.889-1.614z" fill="#3F3D56"/><path d="M211.817 15.582H15.752v110.844h196.065V15.582zm-98.201-3.022a2.013 2.013 0 002.011-2.016c0-1.113-.9-2.015-2.011-2.015-1.11 0-2.011.902-2.011 2.015s.901 2.015 2.011 2.015z" fill="#0090FF"/><path opacity=".1" d="M155.746 126.427H15.752V15.583l139.994 110.844z" fill="#000"/><path d="M46.43 118.132c10.409 0 18.847-8.456 18.847-18.888 0-10.431-8.438-18.888-18.847-18.888-10.408 0-18.846 8.457-18.846 18.888 0 10.432 8.438 18.888 18.846 18.888z" fill="#F2F2F2"/><path d="M177.679 75.362h-18.315v3.835h18.315v-3.835zM199.82 45.5h-62.597v1.645h62.597V45.5zm0 5.206h-62.597v1.643h62.597v-1.643zm0 5.204h-62.597v1.645h62.597V55.91zm0 5.206h-62.597v1.644h62.597v-1.644zm0 5.205h-62.597v1.644h62.597V66.32z" fill="#3F3D56"/><path d="M199.821 17.831h-7.654v7.671h7.654v-7.67z" fill="#F2F2F2"/><path d="M203.374 29.064h-9.294v-9.315h9.294v9.315zm-8.89-.405h8.486v-8.505h-8.486v8.505zm30.211 95.752h-19.134v-1.381a.27.27 0 00-.08-.194.28.28 0 00-.089-.06.288.288 0 00-.105-.02h-6.56a.265.265 0 00-.193.08.26.26 0 00-.08.194v1.381h-4.101v-1.381a.26.26 0 00-.08-.194.265.265 0 00-.193-.08h-6.56a.288.288 0 00-.105.02.28.28 0 00-.148.149.27.27 0 00-.021.105v1.381h-4.1v-1.381a.27.27 0 00-.08-.194.28.28 0 00-.089-.06.287.287 0 00-.104-.02h-6.561a.26.26 0 00-.193.08.27.27 0 00-.08.194v1.381h-4.1v-1.381a.29.29 0 00-.021-.105.26.26 0 00-.06-.089.265.265 0 00-.193-.08h-6.56a.288.288 0 00-.105.02.28.28 0 00-.148.149.27.27 0 00-.021.105v1.381h-4.1v-1.381a.27.27 0 00-.08-.194.269.269 0 00-.193-.08h-6.561a.26.26 0 00-.193.08.27.27 0 00-.08.194v1.381h-4.1v-1.381a.27.27 0 00-.08-.194.28.28 0 00-.089-.06.288.288 0 00-.105-.02h-6.56a.265.265 0 00-.193.08.26.26 0 00-.06.089.29.29 0 00-.021.105v1.381h-4.1v-1.381a.27.27 0 00-.08-.194.26.26 0 00-.193-.08h-51.39a.27.27 0 00-.253.169.273.273 0 00-.02.105v1.381h-4.101v-1.381a.275.275 0 00-.273-.274h-6.56a.27.27 0 00-.253.169.275.275 0 00-.021.105v1.381h-4.1v-1.381a.275.275 0 00-.274-.274h-6.56a.27.27 0 00-.253.169.275.275 0 00-.02.105v1.381h-4.1v-1.381a.275.275 0 00-.274-.274h-6.56a.27.27 0 00-.252.169.273.273 0 00-.022.105v1.381h-4.1v-1.381a.275.275 0 00-.274-.274h-6.56a.27.27 0 00-.253.169.275.275 0 00-.02.105v1.381h-4.1v-1.381a.273.273 0 00-.274-.274h-6.56a.27.27 0 00-.253.169.275.275 0 00-.02.105v1.381h-4.101v-1.381a.275.275 0 00-.274-.274h-6.56a.27.27 0 00-.253.169.273.273 0 00-.02.105v1.381H6.56a6.55 6.55 0 00-4.638 1.926A6.581 6.581 0 000 130.986v2.973c0 1.744.691 3.416 1.922 4.649a6.554 6.554 0 004.638 1.926h218.135c1.74 0 3.409-.693 4.639-1.926a6.579 6.579 0 001.922-4.649v-2.973a6.579 6.579 0 00-1.922-4.649 6.553 6.553 0 00-4.639-1.926zm-173.702-13.37c-4.698 0-9.29-1.396-13.195-4.011a23.794 23.794 0 01-8.748-10.683 23.851 23.851 0 01-1.35-13.752 23.818 23.818 0 016.5-12.188 23.735 23.735 0 0112.16-6.514 23.703 23.703 0 0113.723 1.354 23.762 23.762 0 0110.659 8.767 23.84 23.84 0 014.002 13.224 23.858 23.858 0 01-6.964 16.824 23.752 23.752 0 01-16.786 6.979zm0-46.98a23.09 23.09 0 00-12.848 3.907 23.165 23.165 0 00-8.518 10.401 23.224 23.224 0 00-1.315 13.39 23.197 23.197 0 006.329 11.868 23.082 23.082 0 0025.202 5.024 23.137 23.137 0 0010.378-8.536 23.215 23.215 0 003.897-12.877 23.228 23.228 0 00-6.78-16.38 23.126 23.126 0 00-16.345-6.796zm211.88-53.869h-79.689v.627h79.689v-.627zM356 175.56H126.932v.626H356v-.626zm-216.1 28.814H60.21V205h79.69v-.626z" fill="#3F3D56"/><path d="M155.942 172.258h-8.751v8.769h8.751v-8.769z" fill="#0090FF"/><path d="M161.254 176.016h-10.625v-10.649h10.625v10.649zm-10.163-.463h9.701v-9.723h-9.701v9.723z" fill="#3F3D56"/><path d="M257.506 6.89h-8.75v8.77h8.75V6.89z" fill="#0090FF"/><path d="M262.82 10.649h-10.626V0h10.626v10.649zm-10.164-.463h9.702V.463h-9.702v9.723z" fill="#3F3D56"/><path d="M345.634 172.258h-8.75v8.769h8.75v-8.769z" fill="#0090FF"/><path d="M350.947 176.016h-10.626v-10.649h10.626v10.649zm-10.164-.463h9.702v-9.723h-9.702v9.723zM330.375 72.648h-.744V52.24a11.803 11.803 0 00-.897-4.52 11.8 11.8 0 00-6.378-6.393 11.776 11.776 0 00-4.51-.899h-43.143a11.761 11.761 0 00-8.334 3.46 11.815 11.815 0 00-3.452 8.352v111.962a11.84 11.84 0 003.452 8.352 11.767 11.767 0 008.334 3.459h43.143a11.778 11.778 0 0010.888-7.291c.593-1.433.898-2.969.897-4.52V87.175h.744V72.648z" fill="#3F3D56"/><path d="M327.121 52.934v111.798a8.827 8.827 0 01-2.576 6.238 8.79 8.79 0 01-6.224 2.585H274.97a8.788 8.788 0 01-6.223-2.585 8.828 8.828 0 01-2.577-6.238V52.934c0-2.339.927-4.582 2.578-6.236a8.79 8.79 0 016.222-2.584h5.26a4.198 4.198 0 00.402 3.92 4.18 4.18 0 003.47 1.853h24.716a4.174 4.174 0 003.47-1.853 4.197 4.197 0 00.402-3.92h5.631c2.334 0 4.572.93 6.223 2.584a8.83 8.83 0 012.577 6.236z" fill="#0090FF"/><path d="M303.102 117.83h-12.914v3.835h12.914v-3.835zm15.613-29.861h-44.139v1.644h44.139v-1.644zm0 5.205h-44.139v1.644h44.139v-1.644zm0 5.205h-44.139v1.644h44.139v-1.644zm0 5.205h-44.139v1.644h44.139v-1.644zm0 5.205h-44.139v1.644h44.139v-1.644z" fill="#3F3D56"/><path d="M298.187 66.14h-7.654v7.67h7.654v-7.67z" fill="#F2F2F2"/><path d="M293.463 68.058v9.315h9.294v-9.315h-9.294zm8.891 8.91h-8.488v-8.506h8.488v8.507z" fill="#3F3D56"/><path opacity=".1" d="M327.121 152.793v11.939a8.827 8.827 0 01-2.576 6.238 8.79 8.79 0 01-6.224 2.585H274.97a8.788 8.788 0 01-6.223-2.585 8.828 8.828 0 01-2.577-6.238v-60.199l36.523 28.918.625.494 6.794 5.378.634.504 16.375 12.966z" fill="#000"/><path d="M292.896 169.932c7.571 0 13.709-6.151 13.709-13.739 0-7.588-6.138-13.739-13.709-13.739-7.572 0-13.709 6.151-13.709 13.739 0 7.588 6.137 13.739 13.709 13.739z" fill="#F2F2F2"/><path d="M100.056 205a27.146 27.146 0 01-15.105-4.592 27.235 27.235 0 01-10.013-12.229 27.302 27.302 0 01-1.547-15.743 27.265 27.265 0 017.44-13.951 27.14 27.14 0 0129.63-5.907 27.203 27.203 0 0112.202 10.036 27.294 27.294 0 014.582 15.138 27.313 27.313 0 01-7.973 19.258 27.188 27.188 0 01-19.216 7.99zm0-53.87a26.524 26.524 0 00-14.757 4.487 26.61 26.61 0 00-9.784 11.947 26.679 26.679 0 00-1.511 15.382 26.637 26.637 0 007.27 13.63 26.545 26.545 0 0013.6 7.286 26.511 26.511 0 0015.348-1.515 26.58 26.58 0 0011.921-9.805 26.662 26.662 0 004.477-14.79 26.687 26.687 0 00-7.789-18.816 26.568 26.568 0 00-18.775-7.806zm196.88 15.66c-3.399 0-6.723-1.01-9.549-2.903a17.216 17.216 0 01-6.331-7.731 17.26 17.26 0 013.726-18.772 17.174 17.174 0 018.801-4.714 17.15 17.15 0 019.931.98 17.2 17.2 0 017.713 6.344 17.25 17.25 0 012.897 9.57 17.265 17.265 0 01-5.04 12.175 17.188 17.188 0 01-12.148 5.051zm0-33.825c-3.276 0-6.478.974-9.202 2.798a16.58 16.58 0 00-6.1 7.449 16.632 16.632 0 003.59 18.09 16.563 16.563 0 008.481 4.543c3.213.64 6.543.312 9.569-.945a16.567 16.567 0 007.434-6.114 16.63 16.63 0 002.791-9.222 16.637 16.637 0 00-4.857-11.732 16.562 16.562 0 00-11.706-4.867z" fill="#3F3D56"/></g><defs><clipPath id="clip0"><path fill="#fff" d="M0 0h356v205H0z"/></clipPath></defs></svg>