<svg width="435" height="326" fill="none" xmlns="http://www.w3.org/2000/svg"><path d="M63.453 300.542a1.8 1.8 0 01-1.226-.481 1.8 1.8 0 01-.577-1.181L48.91 142.831a16.924 16.924 0 013.151-11.282l64.244-88.835a16.943 16.943 0 0115.212-6.947l219.947 19.379a16.932 16.932 0 0114.898 12.597l30.216 116.211c.743 2.852.724 5.85-.054 8.693l-29.221 106.95a1.8 1.8 0 01-.65.964c-.315.239-.704.37-1.101.37l-302.1-.389z" fill="#F4F4F4"/><path d="M377.408 301.292H53.062a.411.411 0 01-.408-.408.409.409 0 01.408-.407h324.346a.41.41 0 01.289.695.411.411 0 01-.289.12z" fill="#B2B6BB"/><path d="M390.956 198.045V162.37l-2.175-8.367v44.042h2.175z" fill="#DADDDF"/><path opacity=".1" d="M390.956 198.045V162.37l-2.175-8.367v44.042h2.175z" fill="#000"/><path d="M302.597 90.193v107.852h86.184v-44.043l-5.166-19.864v58.474h-75.853V95.083h65.699l-1.273-4.89h-69.591z" fill="#DADDDF"/><path d="M349.359 101.462v26.545l24.839-30.088-.737-2.836h-19.037l-5.065 6.379zm34.257 91.15v-23.551l-18.912 23.551h18.912zm-34.257 0l34.257-43.47v-15.004l-2.763-10.625-31.494 37.8v31.299zm0-34.893l30.812-36.827-.878-3.382-29.934 35.235v4.974zm-26.078 34.893h20.369v-24.448l-20.369 24.448zm6.852-97.529h-21.011v28.028l21.011-28.028zm-21.011 81.666l34.528-41.826V108.65l-34.528 43.472v24.627zm34.527-17.283l-28.155 33.146h4.671l23.484-28.069v-5.077z" fill="#F4F4F4"/><path d="M309.122 152.122l34.528-43.472V95.083h-13.517l-21.011 28.028v29.011zm45.302-57.039h-5.065v6.379l5.065-6.379zm-10.774 39.84l-34.528 41.826v15.863h6.373l28.155-33.146v-24.543zm5.709 17.821l29.934-35.235-5.095-19.59-24.839 30.087v24.738zm15.345 39.868l18.912-23.551v-19.919l-34.257 43.47h15.345zm-15.345-31.299l31.494-37.8-.682-2.621-30.812 36.827v3.594zm-5.709 3.23l-23.485 28.069h3.116l20.369-24.448v-3.621z" fill="#fff"/><path d="M309.122 152.122l-1.087 1.37v-28.93l1.087-1.451V95.083h-1.359v83.312l1.359-1.646v-24.627z" fill="#F4F4F4"/><path opacity=".2" d="M309.122 152.122l-1.087 1.37v-28.93l1.087-1.451V95.083h-1.359v83.312l1.359-1.646v-24.627z" fill="#000"/><path d="M308.034 124.562v28.93l1.088-1.37v-29.011l-1.088 1.451z" fill="#fff"/><path opacity=".2" d="M308.034 124.562v28.93l1.088-1.37v-29.011l-1.088 1.451z" fill="#000"/><path d="M307.763 178.395v14.216h1.359v-15.862l-1.359 1.646z" fill="#fff"/><path opacity=".2" d="M307.763 178.395v14.216h1.359v-15.862l-1.359 1.646z" fill="#000"/><path d="M348 162.943v29.668h1.359v-31.298l-1.359 1.63z" fill="#F4F4F4"/><path opacity=".2" d="M348 162.943v29.668h1.359v-31.298l-1.359 1.63z" fill="#000"/><path d="M348 159.343l1.359-1.624v-4.974l-1.359 1.6v4.998z" fill="#F4F4F4"/><path opacity=".2" d="M348 159.343l1.359-1.624v-4.974l-1.359 1.6v4.998z" fill="#000"/><path d="M348 129.653l1.359-1.646v-26.545L348 103.174v26.479z" fill="#F4F4F4"/><path opacity=".2" d="M348 129.653l1.359-1.646v-26.545L348 103.174v26.479z" fill="#000"/><path d="M349.359 101.462v-6.379H348v8.091l1.359-1.712z" fill="#fff"/><path opacity=".2" d="M349.359 101.462v-6.379H348v8.091l1.359-1.712z" fill="#000"/><path d="M348 154.344l1.359-1.6v-24.738L348 129.653v24.691z" fill="#fff"/><path opacity=".2" d="M348 154.344l1.359-1.6v-24.738L348 129.653v24.691z" fill="#000"/><path d="M348 162.943l1.359-1.63v-3.594L348 159.344v3.599z" fill="#fff"/><path opacity=".2" d="M348 162.943l1.359-1.63v-3.594L348 159.344v3.599z" fill="#000"/><path d="M347.999 159.343v-64.26h-4.35v97.529h4.35v-33.269z" fill="#DADDDF"/><path d="M211.94 210.484l-6.887 5.491a1.167 1.167 0 01-.301.152l-5.669 2.054a5.775 5.775 0 00-1.631.942l-5.59 4.866a.591.591 0 00-.082.815.598.598 0 00.173.163.59.59 0 00.459.078.624.624 0 00.217-.097l5.603-4.013-4.676 5.496a.654.654 0 00-.158.469.655.655 0 00.668.611.658.658 0 00.444-.183l5.128-4.695-4.622 4.214a.664.664 0 00-.057.888.62.62 0 00.878.131l4.962-3.622-4.28 3.146a.545.545 0 00-.117.728.544.544 0 00.742.15l12.235-7.751 8.849-4.328-6.288-5.705z" fill="#FC9D9D"/><path opacity=".15" d="M194.752 227.559a.104.104 0 01-.109-.028.102.102 0 01-.031-.074c0-.028.011-.055.031-.075l4.622-4.214a.098.098 0 01.034-.023.098.098 0 01.081 0 .093.093 0 01.035.023c.02.02.03.047.03.075 0 .028-.01.055-.03.075l-4.622 4.213a.089.089 0 01-.041.028zm1.506.543a.1.1 0 01-.064 0 .1.1 0 01-.052-.038.1.1 0 01-.007-.117.114.114 0 01.028-.03l4.28-3.146a.106.106 0 01.037-.018.112.112 0 01.041-.002.1.1 0 01.068.042.107.107 0 01-.021.149l-4.274 3.144a.07.07 0 01-.036.016z" fill="#000"/><path d="M250.334 138.278c-.062.06-3.333 2.141-3.333 2.141s-.543-.459-3.281-1.03c-2.79 6.686 1.359 25.048 2.898 29.395 1.006 2.752 3.01-1.16 5.916-1.484.71-.073 0-4.993.356-5.417 3.999-4.534-2.566-23.632-2.556-23.605z" fill="#000"/><path d="M283.329 268.303c.204-16.21.052-32.934-7.321-51.163l-.237-.986-32.353.044-6.343 52.282 46.254-.177z" fill="#21252B"/><path opacity=".3" d="M270.559 216.163c.152.271 9.787 18.489 7.675 52.159l5.095-.019c.203-16.21.051-32.934-7.322-51.162l-.228-.954-4.35-.027-.87.003z" fill="#000"/><path d="M269.899 220.757l-3.461 1.48c-.674 1.926-3.891 3.684-3.891 3.684-1.141.842-1.987.272-1.987.272a1.566 1.566 0 01-1.237-.777 1.756 1.756 0 00-.565-.563 1.94 1.94 0 01-.794-1.027 1.589 1.589 0 00-.375-.592 2.162 2.162 0 01-.544-1.749l-5.911 2.475a.625.625 0 01-.62-1.087l8.36-4.7c.183-.12.39-.198.607-.228l4.14-1.282.079.146-.068-.136 3.007-1.863 3.26 5.947z" fill="#FC9D9D"/><path opacity=".1" d="M269.898 220.756l-3.461 1.481c-.674 1.926-3.89 3.684-3.89 3.684-1.142.842-1.988.271-1.988.271a1.553 1.553 0 01-1.237-.777 1.763 1.763 0 00-.565-.562 1.944 1.944 0 01-.794-1.027 1.505 1.505 0 00-.362-.579 2.104 2.104 0 01-.574-1.578c1.009 2.622 4.437 3.803 4.437 3.803 2.668-.978 4.911-4.181 4.911-4.181l2.824-1.358.699.823z" fill="#000"/><path d="M237.324 204.022l12.341-39.392-7.425 1.326c-3.091.342-5.742 1.948-6.892 4.835l-8.839 28.631-21.19 15.075 3.714 6.987 25.013-13.879c.155-.087.312-.166.47-.247a5.708 5.708 0 002.808-3.336z" fill="#0090FF"/><path opacity=".2" d="M240.931 174.983s-7.39 9.75-3.809 16.153c.218.384.355.808.402 1.246.046.439.002.882-.13 1.302l-2.395 8.376a5.407 5.407 0 01-2.406 3.002l-24.649 14.398 1.088 2.027 25.012-13.88c.155-.087.313-.165.471-.247a5.703 5.703 0 002.811-3.339l4.915-16.27-1.31-12.768z" fill="#000"/><path d="M243.374 216.26l32.353-.068a57.182 57.182 0 01-1.555-7.734c-1.324-11.921 2.083-26.11 2.083-26.11l6.696-7.395c.188-3.879-2.335-7.506-6.028-8.356l-10.382-2.114-16.914-.03-6.218 2.301c-3.879 1.231-4.276 4.195-4.211 8.262l.566 2.964-1.602 5.536c-.949 3.594.5 5.675 2.991 8.577.788.913 1.199 1.293 1.514 3.026l.707 21.141z" fill="#0090FF"/><path d="M247.703 164.973a32.707 32.707 0 008.948 12.849s6.992-5.24 10.268-13.311l-12.234-1.747-6.982 2.209z" fill="#21252B"/><path opacity=".2" d="M273.702 173.891l-1.34 7.131a126.47 126.47 0 00-1.952 25.072c.048 2.111-5.438 8.186-8.505 10.15l13.828-.052a57.182 57.182 0 01-1.555-7.734c-1.052-9.459.878-20.348 1.719-24.45l-2.195-10.117z" fill="#000"/><path d="M292.745 199.947l-9.383-26.662c-2.672-5.873-3.474-6.319-9.649-7.411l-5.021 2.777 11.783 31.44-17.028 16.156 4.59 5.895 22.867-16.322a5.118 5.118 0 001.841-5.873z" fill="#0090FF"/><path d="M260.976 161.272c1.544 1.033 7.885 10.487 10.432 9.21 2.547-1.277.976-12.739.438-15.542-1.338-7.278-5.383-17.604-11.321-21.497-.74-.481-3.094-1.527-4.25-1.006l4.579 24.179s-.639 4.099.122 4.656z" fill="#000"/><path d="M257.02 168.311l-7.082-3.893c1.049-.171 1.973-.912 1.933-2.078l-.077-3.659-.07-1.557-.4-9.595 10.331 1.782 1.49 12.548a2.43 2.43 0 002.004 2.111c.087.019.16 0 .247 0l-8.376 4.341z" fill="#FC9D9D"/><path opacity=".15" d="M257.648 156.458a.216.216 0 00-.054-.063.208.208 0 00-.075-.036.206.206 0 00-.162.021c-.679.385-1.451.896-2.085 1.105l-3.578-.068v1.924a4.693 4.693 0 003.535-1.391 12.603 12.603 0 002.332-1.201.215.215 0 00.087-.291z" fill="#000"/><path d="M246.256 150.571l-.898-9.723c-.119-1.79 1.137-3.312 2.831-3.374l9.243-.427c1.278-.07 2.409.989 2.529 2.375l.731 10.437c.18 3.075-2.384 7.335-6.617 7.895l-.528.024c-4.056.332-6.99-3.124-7.291-7.207z" fill="#FC9D9D"/><path d="M253.319 152.231l-3.39.052c-.122 0-.166.127-.095.23l.334.473a1.837 1.837 0 003.045-.117l.242-.432c.057-.1-.027-.236-.136-.206z" fill="#fff"/><path d="M254.16 147.83a.814.814 0 10-.725-1.426.822.822 0 00-.284.858.83.83 0 00.386.494.818.818 0 00.623.074z" fill="#000"/><path d="M253.679 147.558a.158.158 0 00.094-.072.156.156 0 00-.176-.227.159.159 0 00-.108.191.152.152 0 00.073.092.155.155 0 00.117.016z" fill="#fff"/><path d="M247.923 148.553a.814.814 0 10-.443-1.567.814.814 0 00.443 1.567z" fill="#000"/><path d="M247.407 148.251a.152.152 0 00.092-.073.154.154 0 00.016-.117.161.161 0 00-.193-.109.157.157 0 00-.08.246.17.17 0 00.046.039.152.152 0 00.119.014z" fill="#fff"/><path opacity=".15" d="M249.764 150.232a.98.98 0 01.94-.989c.115-.03.229.098.223.223-.005.125-.098.228-.223.222a.484.484 0 00-.467.495.479.479 0 00.495.467l1.087-.022c.114-.03.228.098.223.223-.005.125-.098.231-.223.223l-1.087.019a.925.925 0 01-.968-.861z" fill="#000"/><path d="M243.995 144.467l1.811 2.445-.357-6.091c0-.446.196-1.185.65-1.152 1.849.092 10.266.954 13.015 1.087l.06 1.238a12.07 12.07 0 00.948 3.989.447.447 0 00.816.016c.299-.527.734-1.301.816-1.28.592.239 2.093 2.861 2.262 2.174.413-1.573 2.468-3.804 2.824-6.004 0 0-2.629-4.936-6.269-7.403-6.03-4.075-17.367-1.005-17.612 10.353l.413-.114.623.742z" fill="#000"/><path d="M260.654 150.071l.419-3.879c.588-3.564 4.997-3.007 4.285.543-.712 3.551-4.258 3.326-4.258 3.326l-.446.01z" fill="#FC9D9D"/><path opacity=".15" d="M264.3 145.26a.238.238 0 01-.147.081.246.246 0 01-.163-.037 1.086 1.086 0 00-.739-.196.936.936 0 00-.544.475 2.853 2.853 0 00-.291 1.131v.404a.247.247 0 01-.492-.024l.019-.37c.013-.49.142-.97.378-1.401a1.285 1.285 0 01.848-.723 1.367 1.367 0 011.088.272.32.32 0 01.043.388z" fill="#000"/><path d="M243.483 147.882a3.266 3.266 0 003.341 2.934 3.259 3.259 0 003.165-3.122 3.331 3.331 0 00-.511-1.681 2.75 2.75 0 011.631-.128 2.789 2.789 0 00-.149 1.057 3.255 3.255 0 002.096 2.959 3.26 3.26 0 004.382-2.503 3.255 3.255 0 00-1.488-3.307 3.258 3.258 0 00-1.831-.493 3.331 3.331 0 00-2.838 1.882 2.959 2.959 0 00-2.009.196 3.212 3.212 0 00-2.548-1.155 3.363 3.363 0 00-2.301 1.025 3.362 3.362 0 00-.94 2.336zm7.92-.943a2.83 2.83 0 013.306-2.871 2.835 2.835 0 012.173 3.8 2.831 2.831 0 01-4.59 1.045 2.84 2.84 0 01-.889-1.974zm-7.444.891a2.83 2.83 0 013.311-2.868 2.831 2.831 0 01-.407 5.62 2.801 2.801 0 01-2.028-.768 2.806 2.806 0 01-.876-1.984z" fill="#fff"/><path d="M262.193 149.485a.704.704 0 10-.372-1.357.704.704 0 00.372 1.357z" fill="#0090FF"/><path opacity=".15" d="M261.672 149.346a.54.54 0 00.4.13.679.679 0 00.504-.205.675.675 0 00.186-.512.708.708 0 00-.318-.559.75.75 0 01.114.412.773.773 0 01-.742.778c-.09.027-.125.027-.144-.044zm.616 3.39l-1.71-2.643 1.24-.062.47 2.705z" fill="#000"/><path d="M251.693 163l5.187 4.998 6.642-5.305 1.879 1.374-5.462 7.642-2.841-3.276-2.842 3.494-4.586-7.422 2.023-1.505z" fill="#F4F4F4"/><path d="M244.619 138.865l7.069-2.934 5.709-.543s7.632 5.889 1.803 8.802c-6.223 3.107-7.817-6.689-13.749-3.423l-.832-1.902zm28.474 31.326c-3.202 1.736-11.962 1.519-11.962 1.519 2.129-5.162.677-21.674.677-21.674s7.762-.799 9.309 1.703c.014-.005 4.021 17.346 1.976 18.452z" fill="#000"/><path opacity=".2" d="M268.023 222.139l22.867-16.322a5.12 5.12 0 001.854-5.862l-.718-2.043c.128 3.605-3.211 6.482-5.309 7.927a168.68 168.68 0 00-6.023 4.32l-13.865 10.464 1.194 1.516z" fill="#000"/><path d="M352.622 262.702H85.912v6.791h266.71v-6.791z" fill="#868A91"/><path d="M341.793 269.493H96.738v30.97h245.055v-30.97z" fill="#868A91"/><path opacity=".2" d="M341.53 269.493h-31.687v30.97h31.687v-30.97z" fill="#000"/><path opacity=".2" d="M352.622 262.702h-34.594v6.791h34.594v-6.791zm-42.779 6.791H96.476v1.359h213.367v-1.359z" fill="#000"/><path d="M155.089 262.938l46.7-.206-5.671-50.158a7.424 7.424 0 00-5.734-6.61l-14.075-3.605-13.396.036-14.428 3.404a7.956 7.956 0 00-6.098 7.818l5.655 42.633v6.452l7.047.236z" fill="#0090FF"/><path d="M192.303 224.666h-37.734v4.102h37.734v-4.102z" fill="#fff"/><path opacity=".2" d="M149.087 218.947l6.213-2.318a1.75 1.75 0 011.41.365c.195.159.353.359.462.585.111.226.17.473.175.724l-.237 27.463 25.222 5.275-.136 11.682h-34.411l1.302-43.776zm43.218-.527v40.943l9.871-.019v-2.54l-3.093-1.06a5.86 5.86 0 01-3.954-5.24l-1.631-32.106a.6.6 0 00-.601-.57.597.597 0 00-.592.592z" fill="#000"/><path d="M192.05 257.765v.028-.028z" fill="#fff" stroke="#000" stroke-width="1.32" stroke-miterlimit="10"/><path d="M181.523 251.802l3.877.519 6.125-1.323a2.782 2.782 0 011.903.815l7.259 5.143a.81.81 0 01.264.543.811.811 0 01-.715.869.82.82 0 01-.588-.157l-5.886-3.953 4.193 4.116a.788.788 0 01-.757 1.285.81.81 0 01-.385-.193l-4.206-4.121 3.197 3.138a.722.722 0 01.205.668.734.734 0 01-.452.532.717.717 0 01-.71-.081l-4.478-3.274 3.032 2.239a.637.637 0 010 1.035.642.642 0 01-.628.081l-4.078-1.689a1.473 1.473 0 00-1.229.027l-1.558.576c-.935.443-2.238.345-3.63.345l-3.183.024c.592-2.165 2.428-7.164 2.428-7.164z" fill="#FC9D9D"/><path opacity=".15" d="M189.497 257.399c.971.486 2.596 1.312 3.167 1.63.797.456 1.025-.141 1.025-.141a.696.696 0 01-.255.711.687.687 0 01-.658.087l-4.25-1.768a1.548 1.548 0 00-1.283.03l.816-.487a1.586 1.586 0 011.438-.062zm3.303 1.04a.1.1 0 01-.085-.03l-2.912-2.138a.142.142 0 01-.056-.093.152.152 0 01.004-.056.162.162 0 01.025-.049c.057-.057.142-.087.199-.03l2.909 2.138c.057.057.087.144.03.201a.22.22 0 01-.114.057zm2.463-.19c-.03 0-.087 0-.087-.027l-3.138-3.081a.14.14 0 01-.031-.045.125.125 0 010-.108.14.14 0 01.031-.045.132.132 0 01.046-.032.129.129 0 01.055-.011.142.142 0 01.101.043l3.137 3.078a.136.136 0 01.043.1.146.146 0 01-.011.055.147.147 0 01-.032.046.183.183 0 01-.114.027z" fill="#000"/><path d="M182.332 251.835l-27.503-4.102 1.563-31.454-13.977-3.42-1.544 41.059a6.772 6.772 0 007.047 6.689l34.414-1.63v-7.142z" fill="#0090FF"/><path d="M164.906 203.878c3.743 2.504 7.436 2.974 11.394.815a12.222 12.222 0 001.61-1.065l.228-.174c.402-.334.228-.87.16-1.359l-.367-6.571c.185-.79.277-1.599.272-2.41.133-4.116.503-7.832.503-7.832s-13.667-8.568-14.203 1.902l-.201 2.716-.938 12.16a1.52 1.52 0 00.696 1.244l.846.574z" fill="#FC9D9D"/><path d="M179.908 185.91a4.622 4.622 0 004.533-5.519 4.62 4.62 0 00-6.302-3.366 4.622 4.622 0 00-2.853 4.266 4.624 4.624 0 004.622 4.619z" fill="#000"/><path d="M181.186 178.575s2.991 20.706-7.533 21.13c-9.116.386-8.845-13.738-8.845-13.738l1.259-9.063 15.119 1.671z" fill="#FC9D9D"/><path d="M179.641 179.148l-9.244.671a2.14 2.14 0 00-1.941 2.241 2.086 2.086 0 01-.507 1.525 2.104 2.104 0 01-1.437.719.615.615 0 00-.544.603l.134 2.041a.433.433 0 01-.102.351.438.438 0 01-.333.151.468.468 0 01-.503-.369l-.408-1.94-.4-.636-2.175 1.337s-3.518-5.433-1.843-10.375c.97-2.812 3.752-3.803 5.092-3.983a1.472 1.472 0 001.039-.671c.543-.902 1.84-2.474 4.755-2.374a4.895 4.895 0 014.135 2.277 1.417 1.417 0 001.775.499c.938-.434 2.311-.668 3.918.302 3.007 1.907 1.805 7.131-1.411 7.631z" fill="#000"/><path opacity=".15" d="M164.299 190.563s.87.065 1.341-.301l-1.474 2.276.133-1.975z" fill="#000"/><path d="M164.802 185.141s-.672-1.902-2.681-1.038c-2.278 1.003-1.808 6.159 2.045 6.46 2.009.166 1.607-1.005 1.272-2.578l-.636-2.844z" fill="#FC9D9D"/><path opacity=".15" d="M162.021 185.442a1.464 1.464 0 011.104-.301 1.334 1.334 0 01.87.7c.247.428.375.914.37 1.408l.033.434a.24.24 0 01-.235.211.238.238 0 01-.159-.06.243.243 0 01-.077-.151l-.032-.434a2.855 2.855 0 00-.302-1.171.801.801 0 00-1.305-.302.265.265 0 01-.181.026.265.265 0 01-.156-.094c-.063-.032-.03-.16.07-.266zm16.403 15.591l-.346-3.26c-.87.902-3.578 2.405-6.427 1.734a6.942 6.942 0 01-3.632-2.277.216.216 0 00-.146-.079.213.213 0 00-.238.192.218.218 0 00.047.159 7.562 7.562 0 004.826 2.578 7.381 7.381 0 005.916.953zm-3.004-5.583c0 .033-.033.033 0 0-.87.066-1.273.101-1.273.101a.3.3 0 01-.302-.272.272.272 0 01.272-.301l1.24-.101a.279.279 0 01.199.055.277.277 0 01.103.179c-.003.217-.103.339-.239.339zm.483-1.209c-2.278.335-3.317-.904-3.684-1.505a.267.267 0 01-.046-.215.277.277 0 01.045-.104.275.275 0 01.469.048c.334.603 1.473 1.901 4.222 1.005a.267.267 0 01.34.039c.03.029.051.065.064.104.013.04.017.081.012.122a.275.275 0 01-.25.235c-.381.129-.774.22-1.172.271z" fill="#000"/><path d="M172.741 188.89a.839.839 0 00.821-1 .835.835 0 00-.658-.657.836.836 0 10-.163 1.657z" fill="#000"/><path d="M173.108 188.287a.17.17 0 00.169-.169.163.163 0 00-.05-.118.165.165 0 00-.054-.036.162.162 0 00-.065-.011.165.165 0 00-.166.165c0 .022.004.044.012.064a.175.175 0 00.09.092c.02.008.042.013.064.013z" fill="#fff"/><path d="M179.373 188.922a.839.839 0 00.821-1 .835.835 0 00-1.142-.609.833.833 0 00-.453 1.093.842.842 0 00.453.453c.102.042.21.063.321.063z" fill="#000"/><path d="M179.742 188.32a.166.166 0 00.117-.049.166.166 0 00.037-.181.168.168 0 00-.154-.105.166.166 0 00-.119.05.166.166 0 00.054.273.182.182 0 00.065.012z" fill="#fff"/><path opacity=".15" d="M176.493 192.201l-1.107.068a.256.256 0 01-.17-.069.254.254 0 01-.022-.342.255.255 0 01.16-.092l1.103-.065a.505.505 0 00.471-.535.51.51 0 00-.17-.346.51.51 0 00-.366-.124.27.27 0 01-.272-.234c-.032-.135.101-.233.234-.271a1.033 1.033 0 011.088.904 1.04 1.04 0 01-.949 1.106z" fill="#000"/><path d="M181.831 185.413l-3.651-.109-.501-.016-3.181-.093h-.035l-4.119-.119a1.193 1.193 0 00-1.136.709c-.065.145-.1.301-.104.459l-.027.937a3.285 3.285 0 006.563.193l.027-.937a1.167 1.167 0 00-.247-.745l1.272.038a1.15 1.15 0 00-.255.731l-.027.937a3.28 3.28 0 003.187 3.285 3.287 3.287 0 003.376-3.092l.027-.937a1.193 1.193 0 00-.325-.865 1.224 1.224 0 00-.384-.273 1.218 1.218 0 00-.46-.103zm-6.634 1.007l-.027.938a2.779 2.779 0 01-.223 1.082 2.782 2.782 0 01-1.553 1.51 2.808 2.808 0 01-2.167-.052 2.794 2.794 0 01-1.65-2.673l.028-.935a.74.74 0 01.758-.714l4.119.122h.033a.702.702 0 01.682.722zm7.305 1.155a2.803 2.803 0 01-.842 1.998 2.799 2.799 0 01-4.75-2.123l.027-.937a.746.746 0 01.759-.712l.503.014 3.648.108a.746.746 0 01.715.758l-.06.894z" fill="#000"/><path d="M238.249 262.685h-71.503v-3.328h71.503l.036.065a3.39 3.39 0 01-.036 3.26v.003z" fill="#21252B"/><path opacity=".3" d="M238.249 262.685h-71.503v-3.328h71.503a3.072 3.072 0 010 3.328z" fill="#000"/><path d="M238.398 259.431h-39.987l14.899-29.645h39.987l-14.899 29.645z" fill="#21252B"/><path opacity=".3" d="M238.398 259.431h-39.987l14.899-29.645h39.987l-14.899 29.645z" fill="#000"/><path d="M166.896 259.26h31.265a1.206 1.206 0 011.118.746c.061.146.092.304.092.462v.911a1.205 1.205 0 01-.747 1.116 1.206 1.206 0 01-.463.092h-31.265v-3.327z" fill="#21252B"/><path d="M198.595 259.792l-1.311-.532 14.899-29.474h1.49l-15.078 30.006z" fill="#21252B"/><path opacity=".2" d="M228.903 246.847c1.034-1.141 1.209-2.667.389-3.409-.819-.741-2.321-.417-3.355.725-1.034 1.141-1.209 2.666-.389 3.408.819.741 2.321.417 3.355-.724z" fill="#fff"/><path opacity=".3" d="M198.825 259.328l39.482.024.215-.429h-39.493l-.204.405z" fill="#000"/><path d="M318.502 249.279h-15.951v8.011a5.295 5.295 0 005.304 5.3h5.242a5.303 5.303 0 005.304-5.232l.101-8.079z" fill="#21252B"/><path d="M309.451 246.872a2.748 2.748 0 01-2.673.225 2.89 2.89 0 01-1.463-2.309 3.288 3.288 0 012.67-.139c.419.187.794.461 1.099.803.307.341.538.744.677 1.18m-7.675 3.078a2.74 2.74 0 01-2.67.226 2.904 2.904 0 01-1.463-2.309 3.286 3.286 0 012.67-.136c.419.186.794.459 1.101.801.305.341.536.745.672 1.182m3.825-6.104a2.75 2.75 0 01-2.11 1.657 2.9 2.9 0 01-2.49-1.125c.228-.4.538-.747.911-1.019.37-.272.794-.462 1.245-.559a3.23 3.23 0 011.359.064c.444.117.857.326 1.213.615m-2.817 3.652a2.752 2.752 0 012.406 1.189 2.897 2.897 0 01.057 2.733 3.1 3.1 0 01-2.36-1.255 3.122 3.122 0 01-.546-1.256 3.099 3.099 0 01.052-1.368m-2.2 5.137c.217.415.329.88.315 1.349-.011.47-.141.928-.38 1.332a2.896 2.896 0 01-2.447 1.204 3.269 3.269 0 01-.21-1.349c.028-.46.153-.908.365-1.316.421-.769 1.185-1.149 2.139-1.358" fill="#0090FF"/><path d="M296.657 252.455c.185-.174.4-.311.636-.405.28-.097.577-.15.873-.155.397.002.794.025 1.188.071.492.063.99.019 1.463-.128a2.243 2.243 0 001.21-1.168 6.69 6.69 0 00.519-1.777 5.012 5.012 0 01.62-1.828c.38-.528.837-.995 1.359-1.383a6.567 6.567 0 001.302-1.32 4.35 4.35 0 00.65-3.032 4.255 4.255 0 00-.791-1.948 3.372 3.372 0 00-.386-.424c-.095-.089-.147-.136-.152-.13a.911.911 0 00.125.152c.13.139.247.287.356.443.391.574.642 1.233.726 1.923a4.283 4.283 0 01-.661 2.923 6.495 6.495 0 01-1.28 1.28 6.718 6.718 0 00-1.401 1.421 5.357 5.357 0 00-.641 1.901 6.456 6.456 0 01-.498 1.742 2.101 2.101 0 01-1.114 1.103c-.454.142-.93.188-1.403.136-.4-.038-.8-.053-1.202-.044a2.663 2.663 0 00-.894.19 1.477 1.477 0 00-.585.424l-.022.043" fill="#0090FF"/><path d="M296.657 252.455c.185-.174.4-.311.636-.405.28-.097.577-.15.873-.155.397.002.794.025 1.188.071.492.063.99.019 1.463-.128a2.243 2.243 0 001.21-1.168 6.69 6.69 0 00.519-1.777 5.012 5.012 0 01.62-1.828c.38-.528.837-.995 1.359-1.383a6.567 6.567 0 001.302-1.32 4.35 4.35 0 00.65-3.032 4.255 4.255 0 00-.791-1.948 3.372 3.372 0 00-.386-.424c-.095-.089-.147-.136-.152-.13a.911.911 0 00.125.152c.13.139.247.287.356.443.391.574.642 1.233.726 1.923a4.283 4.283 0 01-.661 2.923 6.495 6.495 0 01-1.28 1.28 6.718 6.718 0 00-1.401 1.421 5.357 5.357 0 00-.641 1.901 6.456 6.456 0 01-.498 1.742 2.101 2.101 0 01-1.114 1.103c-.454.142-.93.188-1.403.136-.4-.038-.8-.053-1.202-.044a2.663 2.663 0 00-.894.19 1.477 1.477 0 00-.585.424l-.022.043m30.876 1.22a4.072 4.072 0 011.675-3.493 4.073 4.073 0 013.842-.516c-.93 2.132-3.2 3.751-5.517 4.009zm.895.364c.786.864.791 2.573.229 3.594-.563 1.022-1.534 1.755-2.507 2.402a5.295 5.295 0 012.278-5.996zm-3.773-3.735a4.722 4.722 0 01-.557 1.797 4.706 4.706 0 01-4.785 2.386c.304-1.266.815-2.54 1.791-3.398.976-.859 2.521-1.179 3.603-.457m-.039-2.067c.199-1.152 1.359-1.551 2.512-1.663 1.153-.111 2.317.389 3.246 1.087a4.23 4.23 0 01-5.758.568m6.166 9.902c1.107.946 1.289 2.969.832 4.347-.457 1.377-1.536 2.477-2.749 3.282-.465-1.359-.755-2.831-.511-4.255.245-1.423 1.088-2.795 2.428-3.377m-6.077-12.817a3.124 3.124 0 00-1.092-.974 3.118 3.118 0 00-1.42-.365 3.444 3.444 0 00-2.767 1.168 2.989 2.989 0 002.604 1.736 2.94 2.94 0 002.675-1.565zm-1.256-3.179a4.418 4.418 0 005.636-3.452 10.217 10.217 0 00-2.661.038 4.339 4.339 0 00-2.357 1.16 2.34 2.34 0 00-.609 1.045 2.338 2.338 0 00-.009 1.209zm-2.585-.958a3.624 3.624 0 001.324-2.78 3.582 3.582 0 00-.34-1.541 3.58 3.58 0 00-.965-1.248 7.518 7.518 0 00-1.577 3.363 2.8 2.8 0 000 1.391 1.27 1.27 0 00.976.912" fill="#0090FF"/><path opacity=".4" d="M324.652 250.314a4.722 4.722 0 01-.557 1.797 4.706 4.706 0 01-4.785 2.386c.304-1.266.815-2.54 1.791-3.398.976-.859 2.521-1.179 3.603-.457m-1.206-8.172a4.418 4.418 0 005.636-3.452 10.217 10.217 0 00-2.661.038 4.339 4.339 0 00-2.357 1.16 2.34 2.34 0 00-.609 1.045 2.338 2.338 0 00-.009 1.209z" fill="#0090FF"/><path d="M316.528 249.702a.706.706 0 000-.092c0-.071 0-.155-.017-.272a19.29 19.29 0 01-.046-1.018 9.128 9.128 0 01.598-3.657c.327-.793.829-1.5 1.471-2.067a3.922 3.922 0 012.678-.987 3.36 3.36 0 011.512.381c.484.257.889.642 1.169 1.114.584.961.728 2.173.679 3.36-.049 1.187-.214 2.385-.081 3.532.06.563.209 1.113.44 1.63.223.504.563.949.993 1.296.418.306.883.544 1.378.706.454.152.889.35 1.302.59a4.745 4.745 0 011.708 1.858c.321.631.489 1.327.492 2.035a4.833 4.833 0 01-.272 1.572 5.89 5.89 0 01-.609 1.223s.022-.022.06-.068a4.28 4.28 0 00.617-1.13 4.73 4.73 0 00.288-1.597 4.543 4.543 0 00-.478-2.092 4.817 4.817 0 00-1.743-1.926c-.797-.53-1.846-.663-2.656-1.296-.811-.633-1.237-1.725-1.36-2.831-.122-1.106.041-2.298.087-3.513.046-1.214-.095-2.445-.704-3.458a3.159 3.159 0 00-1.237-1.171 3.526 3.526 0 00-1.588-.388 4.077 4.077 0 00-2.775 1.035 5.74 5.74 0 00-1.493 2.132 7.548 7.548 0 00-.506 2.087 11.37 11.37 0 00-.046 1.63c.019.442.052.787.079 1.018 0 .109.024.193.032.272a.396.396 0 00.02.084" fill="#0090FF"/><path opacity=".4" d="M316.528 249.702a.706.706 0 000-.092c0-.071 0-.155-.017-.272a19.29 19.29 0 01-.046-1.018 9.128 9.128 0 01.598-3.657c.327-.793.829-1.5 1.471-2.067a3.922 3.922 0 012.678-.987 3.36 3.36 0 011.512.381c.484.257.889.642 1.169 1.114.584.961.728 2.173.679 3.36-.049 1.187-.214 2.385-.081 3.532.06.563.209 1.113.44 1.63.223.504.563.949.993 1.296.418.306.883.544 1.378.706.454.152.889.35 1.302.59a4.745 4.745 0 011.708 1.858c.321.631.489 1.327.492 2.035a4.833 4.833 0 01-.272 1.572 5.89 5.89 0 01-.609 1.223s.022-.022.06-.068a4.28 4.28 0 00.617-1.13 4.73 4.73 0 00.288-1.597 4.543 4.543 0 00-.478-2.092 4.817 4.817 0 00-1.743-1.926c-.797-.53-1.846-.663-2.656-1.296-.811-.633-1.237-1.725-1.36-2.831-.122-1.106.041-2.298.087-3.513.046-1.214-.095-2.445-.704-3.458a3.159 3.159 0 00-1.237-1.171 3.526 3.526 0 00-1.588-.388 4.077 4.077 0 00-2.775 1.035 5.74 5.74 0 00-1.493 2.132 7.548 7.548 0 00-.506 2.087 11.37 11.37 0 00-.046 1.63c.019.442.052.787.079 1.018 0 .109.024.193.032.272a.396.396 0 00.02.084" fill="#21252B"/><path d="M293.082 246.828a3.43 3.43 0 01-.24-1.179 2.99 2.99 0 01.313-1.358 2.838 2.838 0 011.313-1.269 2.96 2.96 0 011.036-.272c.391-.022.78.024 1.155.136.792.207 1.572.655 2.504.84.479.106.979.094 1.452-.036a2.152 2.152 0 001.18-.945c.566-.872.723-1.964 1.403-2.768.337-.39.778-.678 1.27-.832a3.6 3.6 0 011.487-.152c.957.102 1.84.562 2.471 1.288.574.655.995 1.43 1.229 2.268.215.729.305 1.488.272 2.247a24.759 24.759 0 01-.416 3.29l-.155.888c0 .095-.025.171-.035.234a.176.176 0 000 .079.419.419 0 00.024-.076c0-.063.03-.139.052-.231.046-.215.108-.511.185-.886.239-1.085.399-2.187.475-3.295a6.97 6.97 0 00-.271-2.293 5.921 5.921 0 00-1.248-2.336 4.517 4.517 0 00-1.131-.905 3.904 3.904 0 00-2.991-.288 2.942 2.942 0 00-1.359.883c-.718.861-.873 1.961-1.411 2.793a2.028 2.028 0 01-1.088.874 2.78 2.78 0 01-1.359.038c-.9-.171-1.683-.611-2.499-.815a3.475 3.475 0 00-1.204-.127 2.937 2.937 0 00-1.977.968 2.919 2.919 0 00-.742 2.072c.008.304.068.605.177.891.032.102.079.201.133.293" fill="#0090FF"/><path opacity=".2" d="M293.082 246.828a3.43 3.43 0 01-.24-1.179 2.99 2.99 0 01.313-1.358 2.838 2.838 0 011.313-1.269 2.96 2.96 0 011.036-.272c.391-.022.78.024 1.155.136.792.207 1.572.655 2.504.84.479.106.979.094 1.452-.036a2.152 2.152 0 001.18-.945c.566-.872.723-1.964 1.403-2.768.337-.39.778-.678 1.27-.832a3.6 3.6 0 011.487-.152c.957.102 1.84.562 2.471 1.288.574.655.995 1.43 1.229 2.268.215.729.305 1.488.272 2.247a24.759 24.759 0 01-.416 3.29l-.155.888c0 .095-.025.171-.035.234a.176.176 0 000 .079.419.419 0 00.024-.076c0-.063.03-.139.052-.231.046-.215.108-.511.185-.886.239-1.085.399-2.187.475-3.295a6.97 6.97 0 00-.271-2.293 5.921 5.921 0 00-1.248-2.336 4.517 4.517 0 00-1.131-.905 3.904 3.904 0 00-2.991-.288 2.942 2.942 0 00-1.359.883c-.718.861-.873 1.961-1.411 2.793a2.028 2.028 0 01-1.088.874 2.78 2.78 0 01-1.359.038c-.9-.171-1.683-.611-2.499-.815a3.475 3.475 0 00-1.204-.127 2.937 2.937 0 00-1.977.968 2.919 2.919 0 00-.742 2.072c.008.304.068.605.177.891.032.102.079.201.133.293" fill="#21252B"/><path d="M302.497 240.985a3.14 3.14 0 01-1.411.445 3.152 3.152 0 01-1.46-.255 2.89 2.89 0 01-1.463-2.309 3.092 3.092 0 014.445 1.844m-3.162 3.046c-.002.5-.125.993-.356 1.436a3.137 3.137 0 01-.979 1.112 2.91 2.91 0 01-2.718.046 3.076 3.076 0 011.267-2.344 3.09 3.09 0 012.62-.487m-5.133-.377a3.139 3.139 0 01-2.876-.12 2.88 2.88 0 01-.908-1.072 2.853 2.853 0 01-.297-1.373 3.095 3.095 0 013.69 1.051c.269.374.451.804.532 1.258m12.659-3.732c.775-.666 1.292-1.834 1.142-2.717a2.867 2.867 0 00-.625-1.261 2.904 2.904 0 00-1.147-.817 3.084 3.084 0 00.451 4.789m6.816 1.236a3.991 3.991 0 01-3.067-1.277 3.77 3.77 0 01-.816-3.121 3.345 3.345 0 013.246 1.048c.397.45.666.999.778 1.588.109.59.06 1.199-.147 1.762" fill="#0090FF"/><path opacity=".7" d="M313.584 240.384a3.991 3.991 0 01-3.067-1.277 3.77 3.77 0 01-.816-3.121 3.345 3.345 0 013.246 1.048c.397.45.666.999.778 1.588.109.59.06 1.199-.147 1.762" fill="#fff"/><path d="M327.628 235.364s0-.025-.032-.071l-.109-.196a7.815 7.815 0 00-.465-.725 7.795 7.795 0 00-2.305-2.173 5.584 5.584 0 00-2.069-.758 5.095 5.095 0 00-2.512.271c-.9.318-1.659.941-2.148 1.761-.492.861-.655 1.872-.944 2.839a4.97 4.97 0 01-.6 1.358 4.068 4.068 0 01-1.02 1.003c-.386.271-.786.543-1.15.839a4.935 4.935 0 00-.935 1.011 6.26 6.26 0 00-.96 2.339 8.372 8.372 0 00-.128 2.195c.087 1.057.278 2.103.563 3.124.095.364.174.641.231.831.025.098.057.193.095.285a2.043 2.043 0 00-.06-.296c-.048-.206-.116-.486-.198-.839a17.778 17.778 0 01-.508-3.116 8.433 8.433 0 01.146-2.174 6.103 6.103 0 01.949-2.273c.256-.365.56-.693.906-.976.356-.288.755-.543 1.147-.815a4.272 4.272 0 001.066-1.046c.274-.434.484-.906.622-1.401.291-.984.449-1.981.922-2.807a3.931 3.931 0 012.058-1.692 5.024 5.024 0 012.447-.272 5.554 5.554 0 012.023.723 8.029 8.029 0 012.313 2.108c.223.299.386.543.492.706.052.09.109.175.174.256" fill="#0090FF"/><path d="M315.228 239.004a2.946 2.946 0 011.506.478 4.073 4.073 0 011.319 4.271 3.266 3.266 0 01-2.885-1.513 3.214 3.214 0 01.06-3.236z" fill="#0090FF"/><path opacity=".7" d="M315.228 239.004a2.946 2.946 0 011.506.478 4.073 4.073 0 011.319 4.271 3.266 3.266 0 01-2.885-1.513 3.214 3.214 0 01.06-3.236z" fill="#fff"/><path d="M325.918 233.932c.133-.339.326-.239.677-.334a2.31 2.31 0 011.087.019 4.069 4.069 0 013.032 3.29 3.174 3.174 0 01-3.257-.127 3.176 3.176 0 01-1.433-2.927m-13.46 11.793a3.667 3.667 0 012.95-1.268 3.653 3.653 0 011.587.446c.49.266.911.641 1.232 1.094a4.562 4.562 0 01-2.991 1.179 4.628 4.628 0 01-3.012-1.22m4.984-11.176a3.721 3.721 0 01-4.421-1.392 3.698 3.698 0 01-.595-1.542 3.337 3.337 0 014.673 1.149c.302.52.457 1.111.449 1.712m1.187-1.859a3.72 3.72 0 015.016 2.937 3.344 3.344 0 01-3.412.089 3.35 3.35 0 01-1.71-2.95m1.643-1.113a3.723 3.723 0 01-2.306-2.256 3.71 3.71 0 01.327-3.207 3.337 3.337 0 011.628.686 3.337 3.337 0 01.476 4.777m3.819.187a3.756 3.756 0 01-.204-1.642 3.75 3.75 0 01.53-1.566 3.74 3.74 0 012.714-1.747c.31.514.475 1.102.478 1.702a3.3 3.3 0 01-.457 1.708 3.324 3.324 0 01-1.264 1.235 3.348 3.348 0 01-1.721.416" fill="#0090FF"/><g opacity=".7"><path opacity=".7" d="M309.452 246.872a2.754 2.754 0 01-2.673.226 2.893 2.893 0 01-1.463-2.31 3.303 3.303 0 012.67-.138c.419.187.794.46 1.099.802.307.342.538.744.677 1.181m-7.675 3.078a2.738 2.738 0 01-2.67.225 2.896 2.896 0 01-1.463-2.309 3.303 3.303 0 012.67-.136 3.225 3.225 0 011.773 1.984m3.825-6.105a2.75 2.75 0 01-2.11 1.657 2.9 2.9 0 01-2.49-1.124c.228-.4.538-.747.911-1.019.37-.272.794-.463 1.245-.56a3.247 3.247 0 012.572.679m-2.817 3.652a2.752 2.752 0 012.406 1.189 2.897 2.897 0 01.057 2.733 3.1 3.1 0 01-2.36-1.255 3.122 3.122 0 01-.546-1.256 3.099 3.099 0 01.052-1.368m-2.2 5.137a2.733 2.733 0 01-.065 2.681 2.879 2.879 0 01-2.447 1.204 3.266 3.266 0 01.155-2.665c.421-.769 1.185-1.149 2.14-1.359" fill="#fff"/><path opacity=".7" d="M296.657 252.455c.185-.174.4-.311.636-.405.28-.097.577-.15.873-.155.397.002.794.025 1.188.071.492.063.99.019 1.463-.128a2.243 2.243 0 001.21-1.168 6.69 6.69 0 00.519-1.777 5.012 5.012 0 01.62-1.828c.38-.528.837-.995 1.359-1.383a6.567 6.567 0 001.302-1.32 4.35 4.35 0 00.65-3.032 4.255 4.255 0 00-.791-1.948 3.372 3.372 0 00-.386-.424c-.095-.089-.147-.136-.152-.13a.911.911 0 00.125.152c.13.139.247.287.356.443.391.574.642 1.233.726 1.923a4.283 4.283 0 01-.661 2.923 6.495 6.495 0 01-1.28 1.28 6.718 6.718 0 00-1.401 1.421 5.357 5.357 0 00-.641 1.901 6.456 6.456 0 01-.498 1.742 2.101 2.101 0 01-1.114 1.103c-.454.142-.93.188-1.403.136-.4-.038-.8-.053-1.202-.044a2.663 2.663 0 00-.894.19 1.477 1.477 0 00-.585.424l-.022.043" fill="#fff"/><path opacity=".7" d="M296.657 252.455c.185-.174.4-.311.636-.405.28-.097.577-.15.873-.155.397.002.794.025 1.188.071.492.063.99.019 1.463-.128a2.243 2.243 0 001.21-1.168 6.69 6.69 0 00.519-1.777 5.012 5.012 0 01.62-1.828c.38-.528.837-.995 1.359-1.383a6.567 6.567 0 001.302-1.32 4.35 4.35 0 00.65-3.032 4.255 4.255 0 00-.791-1.948 3.372 3.372 0 00-.386-.424c-.095-.089-.147-.136-.152-.13a.911.911 0 00.125.152c.13.139.247.287.356.443.391.574.642 1.233.726 1.923a4.283 4.283 0 01-.661 2.923 6.495 6.495 0 01-1.28 1.28 6.718 6.718 0 00-1.401 1.421 5.357 5.357 0 00-.641 1.901 6.456 6.456 0 01-.498 1.742 2.101 2.101 0 01-1.114 1.103c-.454.142-.93.188-1.403.136-.4-.038-.8-.053-1.202-.044a2.663 2.663 0 00-.894.19 1.477 1.477 0 00-.585.424l-.022.043" fill="#21252B"/></g><g opacity=".7"><path opacity=".7" d="M325.918 233.932c.133-.339.326-.239.677-.334a2.234 2.234 0 011.087.019 4.065 4.065 0 012.007 1.191 4.09 4.09 0 011.025 2.096 3.174 3.174 0 01-3.257-.126 3.173 3.173 0 01-1.433-2.925m-13.46 11.793a3.667 3.667 0 012.95-1.268 3.653 3.653 0 011.587.446c.49.266.911.641 1.232 1.094a4.562 4.562 0 01-2.991 1.179 4.628 4.628 0 01-3.012-1.22m4.983-11.176a3.709 3.709 0 01-3.214-.26 3.712 3.712 0 01-1.802-2.674 3.337 3.337 0 014.673 1.149c.302.52.457 1.111.449 1.712m1.188-1.859a3.72 3.72 0 015.016 2.937 3.344 3.344 0 01-3.412.089 3.35 3.35 0 01-1.71-2.95m1.643-1.113a3.723 3.723 0 01-2.306-2.256 3.71 3.71 0 01.327-3.207 3.337 3.337 0 011.628.686 3.337 3.337 0 01.476 4.777m3.82.187a3.754 3.754 0 01-.204-1.641c.057-.555.24-1.091.53-1.567a3.727 3.727 0 012.714-1.747c.31.514.475 1.102.478 1.702a3.3 3.3 0 01-.457 1.708 3.339 3.339 0 01-2.985 1.651" fill="#fff"/><path opacity=".7" d="M327.628 235.364s0-.024-.032-.071l-.109-.195a7.558 7.558 0 00-.465-.725 7.799 7.799 0 00-2.305-2.174 5.584 5.584 0 00-2.069-.758 5.107 5.107 0 00-2.512.272 4.08 4.08 0 00-2.148 1.76c-.492.861-.655 1.872-.944 2.839a4.99 4.99 0 01-.6 1.359 4.064 4.064 0 01-1.02 1.002c-.386.272-.786.543-1.15.839a4.988 4.988 0 00-.935 1.011 6.26 6.26 0 00-.96 2.339 8.372 8.372 0 00-.128 2.195c.087 1.057.278 2.103.563 3.124.095.364.174.641.231.832.025.097.057.192.095.285a1.99 1.99 0 00-.06-.296c-.048-.207-.116-.487-.198-.84a17.748 17.748 0 01-.508-3.116 8.425 8.425 0 01.146-2.173 6.1 6.1 0 01.949-2.274c.256-.365.56-.693.906-.975.356-.288.755-.544 1.147-.815a4.307 4.307 0 001.066-1.046c.274-.435.484-.907.622-1.402.291-.983.449-1.98.922-2.806a3.933 3.933 0 012.058-1.693 5.024 5.024 0 012.447-.271 5.552 5.552 0 012.023.722 8.043 8.043 0 012.313 2.108c.223.299.386.544.492.707.052.089.109.175.174.255" fill="#21252B"/></g><path d="M127.749 262.609h-7.409a2.056 2.056 0 01-2.068-2.067v-12.171h11.573v12.174a2.102 2.102 0 01-2.096 2.064z" fill="#0090FF"/><path d="M131.628 258.445h-1.811v-.889h1.811a.831.831 0 00.832-.831v-4.969a.831.831 0 00-.832-.831h-1.811v-.888h1.811a1.694 1.694 0 011.694 1.692v4.969a1.696 1.696 0 01-.476 1.233 1.702 1.702 0 01-1.218.514z" fill="#0090FF"/><path opacity=".2" d="M130.622 250.925v-.888h-.815v-1.695h-2.529v11.969a1.858 1.858 0 01-1.15 1.725c-.227.094-.47.142-.715.142h-6.394a2.03 2.03 0 001.294.459h7.408c.272.001.542-.052.793-.156a2.043 2.043 0 001.121-1.119c.103-.252.156-.521.155-.793v-2.094h.816v-.891h-.816v-6.632h.832v-.027z" fill="#000"/><path d="M122.208 247.488a.137.137 0 01-.136-.087.122.122 0 01-.008-.057 2.018 2.018 0 00-2.012-2.01h-.971a1.55 1.55 0 110-3.1h5.517c.335 0 .656-.133.894-.369a1.267 1.267 0 000-1.787 1.267 1.267 0 00-.894-.37h-1.33a1.587 1.587 0 01-1.118-.461 1.585 1.585 0 01-.461-1.118.12.12 0 01.008-.056.137.137 0 01.136-.088.135.135 0 01.056.009.137.137 0 01.088.135 1.278 1.278 0 00.377.916 1.275 1.275 0 00.917.378h1.324a1.55 1.55 0 110 3.102h-5.514a1.265 1.265 0 00-.894 2.157c.237.237.559.37.894.37h.976a2.305 2.305 0 012.3 2.295.13.13 0 01-.012.055.132.132 0 01-.032.046.16.16 0 01-.047.031.151.151 0 01-.055.009m3.186.883a.152.152 0 01-.056-.008.157.157 0 01-.049-.031.146.146 0 01-.031-.049.15.15 0 01-.008-.056v-.345a.463.463 0 00-.134-.325.444.444 0 00-.325-.134.74.74 0 01-.748-.744v-.603a.74.74 0 01.748-.747h.919a2.275 2.275 0 002.267-2.266v-1.119a.154.154 0 01.008-.057.152.152 0 01.031-.048.146.146 0 01.048-.031.124.124 0 01.057-.008.135.135 0 01.056.009.152.152 0 01.048.031.137.137 0 01.04.104v1.086a2.563 2.563 0 01-2.555 2.554h-.922a.464.464 0 00-.327.133.465.465 0 00-.133.326v.6a.465.465 0 00.133.327.472.472 0 00.327.133.726.726 0 01.53.217.76.76 0 01.218.53v.345a.162.162 0 01-.038.115.155.155 0 01-.107.058" fill="#B2B6BB"/><path d="M191.671 148.058c-6.163 0-11.147 3.953-11.147 8.827 0 3.083 2.004 5.797 5.036 7.376l-.607 3.507a.237.237 0 00.106.239.241.241 0 00.261 0l3.823-2.529c.834.155 1.68.235 2.528.239 6.161 0 11.147-3.953 11.147-8.827 0-4.873-4.975-8.832-11.147-8.832z" fill="#0090FF"/><path d="M194.374 153.576a2.24 2.24 0 00-1.327-1.027c-1.297-.356-2.735-.185-3.436.581-.838.617-.979 2.157.179 2.157.721 0 .9-1.437 2.295-1.1a.758.758 0 01.508.543c.229.845-.862 1.435-1.631 2.336a.99.99 0 00-.153 1.057.978.978 0 00.901.573 1.061 1.061 0 00.951-.586c.688-1.359 2.964-2.445 1.713-4.534zm-2.792 6.041a1.09 1.09 0 00-1.298 1.22 1.082 1.082 0 001.591.801 1.088 1.088 0 00-.293-2.021z" fill="#fff"/><path d="M228.541 117.903c6.161-.07 11.201 3.823 11.259 8.694.035 3.083-1.933 5.821-4.949 7.435l.648 3.499a.239.239 0 01-.232.28.232.232 0 01-.13-.038l-3.855-2.483c-.835.169-1.683.259-2.534.272-6.161.073-11.204-3.82-11.261-8.694-.057-4.873 4.891-8.891 11.054-8.965z" fill="#0090FF"/><path d="M231.274 127.385a3.14 3.14 0 00.908-2.206 3.374 3.374 0 00-6.694-.46 3.227 3.227 0 00.816 2.614 3.31 3.31 0 01.881 2.26v.076h3.257v-.084a3.11 3.11 0 01.832-2.2z" fill="#fff"/><path opacity=".1" d="M228.804 121.93a3.243 3.243 0 00-.622.057c1.555.271 3.072.883 3.072 3.192 0 .826-.328 1.619-.911 2.206a3.127 3.127 0 00-.816 2.208v.076h.928v-.084a3.109 3.109 0 01.831-2.208 3.14 3.14 0 00.909-2.206 3.324 3.324 0 00-3.391-3.241z" fill="#000"/><path d="M230.323 130.443h-3.094v.31h3.094v-.31zm0 .772h-3.094v.31h3.094v-.31z" fill="#fff"/><path d="M154.424 186.771c0-2.926-3.287-5.298-7.34-5.298-4.054 0-7.341 2.372-7.341 5.298s3.287 5.297 7.341 5.297a9.895 9.895 0 001.547-.119l3.618 1.206-.777-2.138c1.792-.964 2.952-2.507 2.952-4.246z" fill="#B2B6BB"/><path d="M144.365 187.722a.815.815 0 10.001-1.63.815.815 0 00-.001 1.63zm2.719 0a.815.815 0 10.001-1.63.815.815 0 00-.001 1.63zm2.719 0a.816.816 0 100-1.632.816.816 0 000 1.632z" fill="#fff"/><path d="M278.672 145.749c0-2.926 3.287-5.297 7.34-5.297 4.054 0 7.341 2.371 7.341 5.297 0 2.926-3.287 5.298-7.341 5.298-.519 0-1.035-.04-1.546-.12l-3.619 1.206.777-2.138c-1.791-.964-2.952-2.507-2.952-4.246z" fill="#B2B6BB"/><path d="M288.732 146.7a.815.815 0 10.001-1.629.815.815 0 00-.001 1.629zm-2.719 0a.815.815 0 10.001-1.629.815.815 0 00-.001 1.629zm-2.72 0a.815.815 0 10.001-1.63.815.815 0 00-.001 1.63z" fill="#fff"/><path d="M160.134 143.712H82.378v4.075h77.756v-4.075z" fill="#DADDDF"/><path opacity=".2" d="M160.134 143.712H82.378v4.075h77.756v-4.075z" fill="#000"/><path d="M96.28 122.589l-7.616-.016v.119l.005-1.725 7.618.019-.005 1.128-.003.462v.013z" fill="#D7DADC"/><path d="M96.28 122.589v.12l-.003 1.198-7.618-.016.006-1.198v-.12l7.615.016zm-.007 2.106l-.005 1.317-7.616-.016.003-1.318 7.618.017z" fill="#F4F4F4"/><path d="M96.269 126.012l.002-.698-.002.698zm-7.614-1.334l.003-.787 7.618.016.003-1.198-.008 2.605.002-.619-7.618-.017zm-.057 16.306l-.005 1.139.005-1.139zm-.01 2.728h7.613v-2.717l.043-11.796v-3.197l-7.612-.017v-1.127l-.017 4.347-.038 10.665v1.109l7.613.016v1.323l-7.613-.016v.94l.011.47zm3.752-16.548v2.043l-.038 10.182H90.67l.038-10.176v-2.046l1.63-.003zm1.857 2.043l-.035 9.237H93.09l.036-9.237v-1.086h1.07v1.086zm2.083-6.618l-7.616-.016v.119l.005-1.725 7.618.019-.005 1.128-.003.462v.013z" fill="#B2B6BB"/><path d="M88.655 124.678l.003-.787 7.618.016.003-1.198-.008 2.605.002-.619-7.618-.017zm-.067 19.034h7.613v-2.717l.043-11.796v-3.197l-7.612-.017v-1.127l-.017 4.347-.038 10.665v1.109l7.613.016v1.323l-7.613-.016v.94l.011.47zm3.752-16.548v2.043l-.038 10.182H90.67l.038-10.176v-2.046l1.63-.003zm1.857 2.043l-.035 9.237H93.09l.036-9.237v-1.086h1.07v1.086z" fill="#B2B6BB"/><path d="M88.593 142.123l.005-1.139 7.615.017-.005 1.323-7.615-.016v-.185z" fill="#F4F4F4"/><path d="M90.705 129.213l.005-2.048 1.626.002-.005 2.046-.038 10.179-1.626-.005.038-10.174zm2.42 0l.003-1.1 1.071.002-.005 1.098-.033 9.239-1.071-.003.035-9.236z" fill="#D7DADC"/><path d="M100.218 122.174h-4.184v.462h4.184v-.462z" fill="#B2B6BB"/><path d="M100.218 122.636v20.739h-4.184v-20.739h4.184zm0 20.739h-4.184v.339h4.184v-.339z" fill="#B2B6BB"/><path opacity=".3" d="M100.322 122.636v20.739h-4.288v-20.739h4.288z" fill="#fff"/><path d="M109.799 127.608v-3.442h-4.894v3.442h4.894zm-3.768-1.438h2.33v.337h-2.33v-.337zm2.922-.48h-3.52v-.677h3.515l.005.677z" fill="#D7DADC"/><path d="M108.949 125.013h-3.515v.676h3.515v-.676zm-.591 1.157h-2.333v.34h2.333v-.34z" fill="#F4F4F4"/><path d="M109.799 127.608v-3.442h-4.894v3.442h4.894zm-3.768-1.438h2.33v.337h-2.33v-.337zm2.922-.48h-3.52v-.677h3.515l.005.677z" fill="#B2B6BB"/><path d="M104.914 127.608v16.104h4.894v-16.104h-4.894zm1.117 14.273c0-.543.563-.959 1.259-.959s1.256.429 1.256.959-.562.959-1.256.959c-.693 0-1.259-.429-1.259-.959z" fill="#B2B6BB"/><path d="M107.284 140.922c.693 0 1.256.429 1.256.959 0 .529-.563.959-1.256.959-.693 0-1.259-.43-1.259-.959 0-.53.563-.959 1.259-.959z" fill="#F4F4F4"/><path opacity=".2" d="M104.914 127.608v16.104h4.894v-16.104h-4.894zm1.117 14.273c0-.543.563-.959 1.259-.959s1.256.429 1.256.959-.562.959-1.256.959c-.693 0-1.259-.429-1.259-.959zm-1.474-15.42h.386v.375h-4.785v-.375h4.399z" fill="#fff"/><path d="M101.562 127.547v7.844h-.552v-7.844h.552zm1.074 0v4.757h-.555v-4.757h.555zm1.068 0v5.624h-.552v-5.624h.552z" fill="#D7DADC"/><path opacity=".2" d="M101.562 127.547v7.844h-.552v-7.844h.552zm1.074 0v4.757h-.555v-4.757h.555zm1.068 0v5.624h-.552v-5.624h.552z" fill="#fff"/><path d="M104.557 123.505h.386v2.955h-4.785v-2.955h4.399zm0 3.331h-4.399v14.45h4.785v-14.45h-.386zm-2.99 2.374v6.181h-.544v-7.843h.544v1.662zm1.071 0v3.092h-.544v-4.754h.544v1.662zm1.071 0v3.961h-.544v-5.623h.544v1.662z" fill="#D7DADC"/><path d="M104.557 123.505h.386v2.955h-4.785v-2.955h4.399z" fill="#D7DADC"/><path d="M104.557 126.836h-4.399v14.45h4.785v-14.45h-.386zm-2.99 2.374v6.181h-.544v-7.843h.544v1.662zm1.071 0v3.092h-.544v-4.754h.544v1.662zm1.071 0v3.961h-.544v-5.623h.544v1.662z" fill="#B2B6BB"/><path d="M104.557 141.286h.386v2.426h-4.785v-2.426h4.399z" fill="#D7DADC"/><path opacity=".1" d="M104.557 141.286h.386v2.426h-4.785v-2.426h4.399z" fill="#fff"/><path d="M142.889 122.589l7.615-.016v.119l-.005-1.725-7.618.019.005 1.128.003.462v.013z" fill="#D7DADC"/><path d="M142.89 122.589v.12l.002 1.198 7.618-.016-.005-1.198v-.12l-7.615.016zm.008 2.106l.003 1.317 7.618-.016-.005-1.318-7.616.017z" fill="#F4F4F4"/><path d="M142.901 126.012l-.003-.698.003.698zm7.612-1.334l-.003-.787-7.618.016-.002-1.198.008 2.605v-.619l7.615-.017zm.059 16.306l.003 1.139-.003-1.139zm.009 2.263v-.94l-7.613.016V141l7.613-.016v-1.109l-.038-10.665-.016-4.347v1.138l-7.613.017v3.197l.041 11.796v2.717h7.612l.014-.481zm-2.123-16.083v2.046l.035 10.176h-1.631l-.038-10.182v-2.043l1.634.003zm-3.489.951h1.072v1.087l.032 9.236h-1.071l-.033-9.236v-1.087zm-2.08-5.526l7.615-.016v.119l-.005-1.725-7.618.019.005 1.128.003.462v.013z" fill="#B2B6BB"/><path d="M150.513 124.678l-.003-.787-7.618.016-.002-1.198.008 2.605v-.619l7.615-.017zm.068 18.569v-.94l-7.613.016V141l7.613-.016v-1.109l-.038-10.665-.016-4.347v1.138l-7.613.017v3.197l.041 11.796v2.717h7.612l.014-.481zm-2.123-16.083v2.046l.035 10.176h-1.631l-.038-10.182v-2.043l1.634.003zm-3.489.951h1.072v1.087l.032 9.236h-1.071l-.033-9.236v-1.087z" fill="#B2B6BB"/><path d="M150.575 142.123l-.003-1.139-7.618.017.006 1.323 7.615-.016v-.185z" fill="#F4F4F4"/><path d="M148.465 129.213l-.008-2.048-1.626.002.005 2.046.039 10.179 1.625-.005-.035-10.174zm-2.42 0l-.005-1.1-1.071.002.005 1.098.033 9.239 1.071-.003-.033-9.236z" fill="#D7DADC"/><path d="M143.137 122.174h-4.184v.462h4.184v-.462z" fill="#B2B6BB"/><path d="M138.949 122.636v20.739h4.184v-20.739h-4.184zm4.188 20.739h-4.184v.339h4.184v-.339z" fill="#B2B6BB"/><path opacity=".3" d="M138.846 122.636v20.739h4.287v-20.739h-4.287z" fill="#fff"/><path d="M134.254 127.608v-3.442h-4.894v3.442h4.894zm-1.112-1.101h-2.33v-.337h2.33v.337zm-2.914-1.494h3.507v.677h-3.507v-.677z" fill="#D7DADC"/><path d="M133.735 125.013h-3.515v.676h3.515v-.676zm-.591 1.157h-2.332v.34h2.332v-.34z" fill="#F4F4F4"/><path d="M134.254 127.608v-3.442h-4.894v3.442h4.894zm-1.112-1.101h-2.33v-.337h2.33v.337zm-2.914-1.494h3.507v.677h-3.507v-.677z" fill="#B2B6BB"/><path d="M129.369 127.608v16.104h4.894v-16.104h-4.894zm2.518 15.232c-.696 0-1.259-.429-1.259-.959s.563-.959 1.259-.959 1.256.429 1.256.959-.563.959-1.256.959z" fill="#B2B6BB"/><path d="M131.887 140.922c-.696 0-1.259.429-1.259.959 0 .529.563.959 1.259.959s1.256-.43 1.256-.959c0-.53-.563-.959-1.256-.959z" fill="#F4F4F4"/><path opacity=".2" d="M129.369 127.608v16.104h4.894v-16.104h-4.894zm2.518 15.232c-.696 0-1.259-.429-1.259-.959s.563-.959 1.259-.959 1.256.429 1.256.959-.563.959-1.256.959zm2.724-16.379h-.386v.375h4.787v-.375h-4.401z" fill="#fff"/><path d="M137.607 127.547v7.844h.552v-7.844h-.552zm-1.072 0v4.757h.552v-4.757h-.552zm-1.07 0v5.624h.552v-5.624h-.552z" fill="#D7DADC"/><path opacity=".2" d="M137.607 127.547v7.844h.552v-7.844h-.552zm-1.072 0v4.757h.552v-4.757h-.552zm-1.07 0v5.624h.552v-5.624h-.552z" fill="#fff"/><path d="M134.611 123.505h-.386v2.955h4.787v-2.955h-4.401zm-.386 3.331v14.45h4.785v-14.45h-4.785zm3.382.712h.543v7.843h-.543v-7.843zm-1.071 0h.543v4.754h-.543v-4.754zm-1.072 0h.544v5.623h-.544v-5.623z" fill="#D7DADC"/><path d="M134.611 123.505h-.386v2.955h4.787v-2.955h-4.401z" fill="#D7DADC"/><path d="M134.225 126.836v14.45h4.785v-14.45h-4.785zm3.382.712h.543v7.843h-.543v-7.843zm-1.071 0h.543v4.754h-.543v-4.754zm-1.072 0h.544v5.623h-.544v-5.623z" fill="#B2B6BB"/><path d="M134.611 141.286h-.386v2.426h4.787v-2.426h-4.401z" fill="#D7DADC"/><path opacity=".1" d="M134.611 141.286h-.386v2.426h4.787v-2.426h-4.401z" fill="#fff"/><path d="M119.321 137.273l-2.004-9.671 2.072 9.657-.068.014zm.613-14.679l-.291 14.251.068.002.291-14.252-.068-.001z" fill="#3F4249"/><path d="M123.209 125.233l-3.401 4.268.054.043 3.398-4.268-.051-.043zm-1.657 5.204l-3.078 2.551.033.04 3.077-2.552-.032-.039zm-2.813 4.386l-2.406-2.277.027-.027 2.417 2.266-.038.038z" fill="#3F4249"/><path d="M121.205 127.795l.56-2.445a1.215 1.215 0 011.945-.693c.162.128.289.295.368.486a1.207 1.207 0 01-.129 1.172c-.12.168-.28.304-.466.393l-2.278 1.087z" fill="#0090FF"/><path opacity=".3" d="M121.205 127.795l.56-2.445a1.215 1.215 0 011.945-.693c.162.128.289.295.368.486a1.207 1.207 0 01-.129 1.172c-.12.168-.28.304-.466.393l-2.278 1.087z" fill="#fff"/><path d="M124.166 125.624a1.178 1.178 0 01-.696 1.087l-2.279 1.086 2.513-3.14c.15.111.271.257.351.426.081.168.119.354.111.541zm-4.269 1.078l-1.613-3.328a1.787 1.787 0 012.477-2.341 1.78 1.78 0 01.921 1.465 1.79 1.79 0 01-.176.876l-1.609 3.328z" fill="#0090FF"/><path opacity=".3" d="M119.897 126.702l-1.613-3.328a1.787 1.787 0 012.477-2.341 1.78 1.78 0 01.921 1.465 1.79 1.79 0 01-.176.876l-1.609 3.328z" fill="#fff"/><path opacity=".3" d="M119.989 120.824l-.082 5.879 1.621-3.328a1.788 1.788 0 00-.074-1.688 1.778 1.778 0 00-1.454-.863" fill="#fff"/><path d="M118.065 130.864l-1.575-1.866a1.182 1.182 0 01.095-1.619 1.19 1.19 0 01.518-.284 1.19 1.19 0 011.105.291 1.172 1.172 0 01.34 1.09l-.483 2.388z" fill="#0090FF"/><path opacity=".3" d="M118.56 128.477a1.184 1.184 0 00-1.447-1.383l.96 3.76.487-2.377z" fill="#fff"/><path d="M117.931 134.024l-.717-1.79a.937.937 0 00-1.165-.538.925.925 0 00-.608.667.931.931 0 00.642 1.11l1.848.551z" fill="#0090FF"/><path opacity=".3" d="M117.931 134.024l-.717-1.79a.937.937 0 00-1.165-.538.925.925 0 00-.608.667.931.931 0 00.642 1.11l1.848.551z" fill="#fff"/><path opacity=".3" d="M115.688 131.911l2.243 2.113-.717-1.79a.942.942 0 00-1.526-.323z" fill="#fff"/><path d="M119.307 132.332l.881-2.138a1.117 1.117 0 01.843-.68 1.12 1.12 0 011.281.851 1.115 1.115 0 01-.784 1.323l-2.221.644z" fill="#0090FF"/><path opacity=".3" d="M119.307 132.332l.881-2.138a1.117 1.117 0 01.843-.68 1.12 1.12 0 011.281.851 1.115 1.115 0 01-.784 1.323l-2.221.644z" fill="#fff"/><path d="M119.696 134.755l-.019-.041 4.165-2.284.022.043-4.168 2.282z" fill="#3F4249"/><path d="M120.364 134.353l1.512-2.068a1.238 1.238 0 012.072 1.344 1.241 1.241 0 01-1.023.621l-2.561.103z" fill="#0090FF"/><path opacity=".3" d="M120.364 134.353l1.512-2.068a1.238 1.238 0 012.072 1.344 1.241 1.241 0 01-1.023.621l-2.561.103z" fill="#fff"/><path d="M124.007 133.519a1.242 1.242 0 01-1.088.731l-2.561.103 3.616-1.923a1.224 1.224 0 01.041 1.086" fill="#0090FF"/><path opacity=".3" d="M120.188 130.194l-.881 2.138 2.765-2.459a1.13 1.13 0 00-1.871.321" fill="#fff"/><path d="M121.219 138.952l-.386-.47a2.513 2.513 0 01-.587-1.6v-1.13h-1.482v1.13a2.513 2.513 0 01-.587 1.6l-.389.47a3.615 3.615 0 00-.693 3.377l.432 1.396h3.956l.432-1.396a3.647 3.647 0 00-.696-3.377z" fill="#B2B6BB"/><path opacity=".2" d="M121.218 138.952l-.386-.47a2.513 2.513 0 01-.587-1.6v-1.13h-.433v1.026c.009.653.238 1.284.65 1.791a3.728 3.728 0 01.416 3.01 4.364 4.364 0 01-.756 1.537l-.293.394a.64.64 0 01-.495.229h2.175l.432-1.397a3.71 3.71 0 00-.712-3.39" fill="#000"/></svg>