<svg width="301" height="219" fill="none" xmlns="http://www.w3.org/2000/svg"><path d="M274.781 201.035a13.07 13.07 0 00.53-3.639c0-10.389-12.625-18.805-28.254-18.805-15.63 0-28.255 8.416-28.255 18.805.002 1.233.185 2.459.543 3.639h55.436z" fill="#0090FF"/><path d="M274.781 202.299h-55.437a1.262 1.262 0 01-1.262-.91 14.143 14.143 0 01-.594-3.993c0-11.071 13.244-20.069 29.518-20.069 16.273 0 29.517 8.998 29.517 20.069 0 1.353-.2 2.699-.594 3.993a1.26 1.26 0 01-1.148.91zm-54.465-2.527h53.48c.164-.782.249-1.578.252-2.376 0-9.681-12.107-17.542-26.992-17.542-14.885 0-26.992 7.861-26.992 17.542.003.798.088 1.594.252 2.376z" fill="#093F68"/><path d="M247.056 191.077a1.26 1.26 0 01-1.262-1.264v-11.222a1.265 1.265 0 011.262-1.264 1.262 1.262 0 011.263 1.264v11.222a1.265 1.265 0 01-1.263 1.264z" fill="#093F68"/><path d="M292.317 201.035H8.684a7.289 7.289 0 00-7.285 7.292v1.188a7.289 7.289 0 007.285 7.292h283.633a7.288 7.288 0 007.285-7.292v-1.188a7.288 7.288 0 00-7.285-7.292z" fill="#725858"/><path d="M292.317 218.071H8.684a8.553 8.553 0 01-6.04-2.51 8.571 8.571 0 01-2.507-6.046v-1.188a8.573 8.573 0 012.507-6.046 8.558 8.558 0 016.04-2.51h283.633a8.557 8.557 0 016.04 2.51 8.572 8.572 0 012.507 6.046v1.188a8.57 8.57 0 01-2.507 6.046 8.553 8.553 0 01-6.04 2.51zM8.684 202.299a6.033 6.033 0 00-6.022 6.028v1.188a6.044 6.044 0 001.767 4.259 6.029 6.029 0 004.255 1.769h283.633a6.03 6.03 0 004.255-1.769 6.045 6.045 0 001.767-4.259v-1.188a6.035 6.035 0 00-6.022-6.028H8.684z" fill="#093F68"/><path d="M240.517 12.328H60.484c-6.965 0-12.612 5.653-12.612 12.625v130.055c0 6.973 5.647 12.626 12.612 12.626h180.033c6.966 0 12.612-5.653 12.612-12.626V24.953c0-6.972-5.646-12.625-12.612-12.625z" fill="#0090FF"/><path d="M240.517 168.897H60.484a13.88 13.88 0 01-9.82-4.071 13.909 13.909 0 01-4.067-9.83V24.953c0-3.686 1.463-7.222 4.067-9.83a13.88 13.88 0 019.82-4.071h180.033c3.683 0 7.215 1.465 9.82 4.072a13.91 13.91 0 014.067 9.83v130.042a13.91 13.91 0 01-4.067 9.83 13.881 13.881 0 01-9.82 4.071zM60.484 13.592a11.357 11.357 0 00-8.034 3.332 11.38 11.38 0 00-3.328 8.042v130.03c0 3.016 1.197 5.91 3.328 8.043a11.357 11.357 0 008.034 3.331h180.033c3.013 0 5.903-1.198 8.034-3.331a11.381 11.381 0 003.328-8.043V24.953a11.38 11.38 0 00-3.328-8.042 11.357 11.357 0 00-8.034-3.331l-180.033.012z" fill="#093F68"/><path d="M186.886 201.035h-72.771l7.6-33.401h57.57l7.601 33.401z" fill="#0090FF"/><path d="M186.886 202.299h-72.771a1.255 1.255 0 01-.985-.48 1.266 1.266 0 01-.239-1.062l7.575-33.401a1.265 1.265 0 011.262-.986h57.57a1.26 1.26 0 011.263.986l7.575 33.401a1.278 1.278 0 01-.24 1.062 1.271 1.271 0 01-1.01.48zm-71.18-2.527h69.589l-7.02-30.874h-55.55l-7.019 30.874z" fill="#093F68"/><path d="M239.128 25.27H61.86v115.268h177.268V25.269z" fill="#fff"/><path d="M239.14 141.802H61.86a1.262 1.262 0 01-1.262-1.264V25.269a1.265 1.265 0 011.262-1.263h177.28a1.263 1.263 0 011.263 1.263v115.269a1.265 1.265 0 01-1.263 1.264zm-176.017-2.528h174.755V26.534H63.123v112.74z" fill="#093F68"/><path d="M114.115 25.27H61.86v115.268h52.255V25.269z" fill="#fff"/><path d="M114.115 141.802H61.86a1.262 1.262 0 01-1.262-1.264V25.269a1.265 1.265 0 011.262-1.263h52.255a1.263 1.263 0 011.263 1.263v115.269a1.265 1.265 0 01-1.263 1.264zm-50.992-2.528h49.73V26.534h-49.73v112.74z" fill="#093F68"/><path d="M239.128 25.27H114.115v115.268h125.013V25.269z" fill="#093F68"/><path d="M239.141 141.802H114.153a1.262 1.262 0 01-1.262-1.264V25.269a1.263 1.263 0 011.262-1.264h124.988a1.26 1.26 0 011.262 1.264v115.269a1.265 1.265 0 01-1.262 1.264zm-123.725-2.528h122.462V26.534H115.416v112.74zM98.385 41.117h-21.21a1.262 1.262 0 01-1.263-1.264 1.265 1.265 0 011.263-1.263h21.21a1.262 1.262 0 011.262 1.263 1.264 1.264 0 01-1.262 1.264zm3.635 12.436H84.143a1.262 1.262 0 01-.892-2.158c.236-.237.557-.37.892-.37h17.877a1.263 1.263 0 010 2.528zm2.424 12.435H89.597a1.262 1.262 0 01-1.262-1.263 1.265 1.265 0 011.263-1.264h14.846a1.263 1.263 0 010 2.527zm-4.848 12.436H80.81a1.262 1.262 0 01-.892-2.158c.236-.237.557-.37.892-.37h18.786a1.262 1.262 0 01.893 2.158c-.237.237-.558.37-.893.37zM94.547 90.86H77.175a1.262 1.262 0 01-1.263-1.264 1.264 1.264 0 011.263-1.264h17.372a1.262 1.262 0 011.262 1.264 1.264 1.264 0 01-1.262 1.263zm3.837 12.435H83.032a1.262 1.262 0 01-1.263-1.264 1.265 1.265 0 011.263-1.264h15.352a1.262 1.262 0 011.263 1.264 1.266 1.266 0 01-1.263 1.264zm-5.302 12.435H77.175a1.262 1.262 0 01-.893-2.157c.237-.237.558-.37.893-.37h15.907a1.261 1.261 0 011.263 1.264 1.263 1.263 0 01-1.263 1.263zm5.302 12.436H83.032a1.262 1.262 0 01-.893-2.157c.237-.237.558-.371.893-.371h15.352a1.263 1.263 0 01.893 2.158c-.237.237-.558.37-.893.37z" fill="#093F68"/><path d="M151.763 41.117h-21.21a1.263 1.263 0 010-2.527h21.21a1.26 1.26 0 011.262 1.263 1.264 1.264 0 01-1.262 1.264z" fill="#fff"/><path d="M181.002 53.553h-43.531a1.262 1.262 0 01-.892-2.158c.237-.237.558-.37.892-.37h43.531a1.263 1.263 0 010 2.528zm-10.807 12.435h-32.724a1.262 1.262 0 01-.892-2.157c.237-.237.558-.37.892-.37h32.724a1.263 1.263 0 010 2.527z" fill="#FFBC0E"/><path d="M152.924 78.424h-18.836a1.263 1.263 0 010-2.528h18.786a1.264 1.264 0 010 2.528h.05z" fill="#fff"/><path d="M160.398 90.86h-21.261a1.262 1.262 0 01-.892-2.158c.237-.237.558-.37.892-.37h21.21a1.263 1.263 0 010 2.527h.051z" fill="#F56132"/><path d="M171.205 103.295h-32.749a1.262 1.262 0 01-.893-2.158c.237-.237.558-.37.893-.37h32.749a1.262 1.262 0 01.893 2.158c-.237.237-.558.37-.893.37zM146.41 115.73h-15.907a1.262 1.262 0 110-2.527h15.907a1.262 1.262 0 110 2.527z" fill="#fff"/><path d="M171.205 128.166H136.36a1.262 1.262 0 01-.893-2.157c.237-.237.558-.371.893-.371h34.845a1.263 1.263 0 010 2.528z" fill="#70CC40"/><path d="M204.586 128.166H181.71a1.262 1.262 0 01-.893-2.157c.237-.237.558-.371.893-.371h22.876a1.263 1.263 0 010 2.528z" fill="#FFBC0E"/><path d="M197.213 65.988h-16.16a1.263 1.263 0 010-2.527h16.16a1.262 1.262 0 01.892 2.157c-.237.237-.558.37-.892.37z" fill="#fff"/><path d="M220.203 53.553h-31.12a1.263 1.263 0 010-2.528h31.12a1.263 1.263 0 010 2.528z" fill="#0090FF"/><path d="M215.039 65.988h-9.09a1.263 1.263 0 010-2.527h9.09a1.263 1.263 0 010 2.527zM175.751 90.86h-9.09a1.263 1.263 0 010-2.528h9.09a1.263 1.263 0 010 2.527z" fill="#F56132"/><path d="M220.203 90.86h-36.979a1.26 1.26 0 01-1.262-1.264 1.264 1.264 0 011.262-1.264h36.979a1.263 1.263 0 010 2.527z" fill="#FFBC0E"/><path d="M189.083 103.295h-8.08a1.262 1.262 0 01-.893-2.158c.237-.237.558-.37.893-.37h8.08a1.265 1.265 0 010 2.528z" fill="#0090FF"/><path d="M220.204 128.166h-5.164a1.262 1.262 0 01-.893-2.157c.237-.237.558-.371.893-.371h5.164a1.263 1.263 0 01.892 2.158c-.237.237-.558.37-.892.37zM288.087 2.193h-77.353a5.508 5.508 0 00-5.505 5.51v58.892a5.508 5.508 0 005.505 5.51h77.353a5.508 5.508 0 005.505-5.51V7.703a5.508 5.508 0 00-5.505-5.51z" fill="#fff"/><path d="M288.113 73.369h-77.378a6.779 6.779 0 01-6.767-6.774V7.703a6.778 6.778 0 016.767-6.774h77.378a6.778 6.778 0 016.767 6.774v58.892a6.779 6.779 0 01-6.767 6.774zM210.735 3.457a4.253 4.253 0 00-4.242 4.246v58.892a4.259 4.259 0 004.242 4.246h77.378a4.253 4.253 0 004.242-4.246V7.703a4.259 4.259 0 00-4.242-4.246h-77.378z" fill="#093F68"/><path d="M293.593 19.43h-88.375a1.263 1.263 0 010-2.527h88.375a1.26 1.26 0 011.262 1.264 1.264 1.264 0 01-1.262 1.264z" fill="#093F68"/><path d="M213.689 12.505a2.54 2.54 0 000-5.08 2.54 2.54 0 000 5.08z" fill="#0090FF"/><path d="M221.668 12.505a2.539 2.539 0 002.537-2.54 2.539 2.539 0 10-5.075 0 2.539 2.539 0 002.538 2.54zm7.966 0a2.539 2.539 0 002.538-2.54 2.539 2.539 0 10-5.075 0 2.539 2.539 0 002.537 2.54z" fill="#093F68"/><path d="M238.535 55.398c-.292.004-.575-.1-.796-.29l-11.892-9.858a1.263 1.263 0 010-1.946l11.892-9.87a1.262 1.262 0 011.604 1.946l-10.706 8.846 10.706 8.847a1.267 1.267 0 01.164 1.782 1.27 1.27 0 01-.972.543zm21.803 0a1.261 1.261 0 01-1.259-1.38 1.268 1.268 0 01.451-.857l10.706-8.846-10.706-8.847a1.272 1.272 0 01-.451-.857 1.256 1.256 0 01.287-.925 1.26 1.26 0 011.78-.164l11.817 9.782a1.263 1.263 0 010 1.946l-11.868 9.908c-.22.16-.485.244-.757.24zm-17.309 5.876a1.438 1.438 0 01-.505-.1 1.268 1.268 0 01-.668-.701 1.28 1.28 0 01.024-.968l13.887-31.48a1.266 1.266 0 011.667-.645 1.254 1.254 0 01.667.7 1.263 1.263 0 01-.023.968l-13.888 31.48a1.262 1.262 0 01-1.161.746z" fill="#0090FF"/><path d="M92.614 147.691H33.832a4.838 4.838 0 00-4.835 4.841v26.956a4.838 4.838 0 004.835 4.84h58.782a4.838 4.838 0 004.836-4.84v-26.956a4.838 4.838 0 00-4.836-4.841z" fill="#fff"/><path d="M92.615 185.604H33.833a6.105 6.105 0 01-4.308-1.791 6.12 6.12 0 01-1.79-4.313v-26.968a6.11 6.11 0 016.098-6.105h58.782a6.088 6.088 0 014.312 1.788 6.105 6.105 0 011.786 4.317V179.5a6.097 6.097 0 01-6.098 6.104zm-58.782-36.649a3.576 3.576 0 00-3.573 3.577V179.5a3.576 3.576 0 003.573 3.577h58.782a3.565 3.565 0 003.3-2.208 3.58 3.58 0 00.273-1.369v-26.968a3.58 3.58 0 00-2.206-3.305 3.583 3.583 0 00-1.367-.272H33.833z" fill="#093F68"/><path d="M42.998 160.443h1.906v4.271h5.05v-4.271h1.907v10.742h-1.907v-4.739h-5.05v4.739h-1.906v-10.742zm13.422 1.731h-3.296v-1.731h8.484v1.731h-3.27v9.011h-1.906l-.013-9.011zm6.539-1.731h2.954l2.866 7.519 2.891-7.519h2.879v10.742H72.73v-8.922l-3.257 8.922h-1.415l-3.244-8.922v8.922h-1.818l-.038-10.742zm13.988 0h1.907v9.011h4.557v1.731h-6.464v-10.742z" fill="#0090FF"/></svg>