<svg xmlns="http://www.w3.org/2000/svg" viewBox="0 0 512 512"><path fill="#fff" d="M7.811 67.86h496.38v376.292H7.811z"/><path fill="#027ea8" d="M183.945 260.003V147.917h224.171v112.086H183.945"/><path d="M448.305 285.218a18.78 18.78 0 00-14.974 14.974l-1.778 9.422c-3.247 5.411-11.09 5.411-14.337 0l-39.663-66.105a10.254 10.254 0 0114.068-14.068l66.105 39.663c5.411 3.247 5.411 11.09 0 14.337l-9.421 1.777z" fill="#84dccf"/><path fill="#e6e6e6" d="M7.811 67.86h80.061v376.292H7.811z"/><path fill="#fbb03b" d="M47.841 147.915h96.072v256.193H47.841z"/><path fill="#027ea8" d="M7.811 67.86h496.38v40.031H7.811z"/><circle cx="95.875" cy="227.981" r="48.031" fill="#84dccf"/><path fill="#f15a24" d="M32.092 100.301h15.622v15.622H32.092z"/><path fill="#fbb03b" d="M63.334 100.301h16.663v15.622H63.334z"/><path fill="#f15a24" d="M95.614 100.301h16.663v15.622H95.614z"/><path d="M0 60.046v391.908h512V60.046H0zm15.622 376.286V75.668h480.757v24.638H127.903v15.622h368.476v320.406H15.622v-.002z"/><path d="M368.085 267.814H176.134V140.106h239.793v79.866h-15.622v-64.244h-208.55v96.464h176.33z"/><path fill="#f15a24" d="M175.805 291.925h184.334v15.622H175.805z"/><path d="M175.805 324.209h23.953v15.622h-23.953zm0 23.953h80.191v15.622h-80.191z"/><path fill="#fbb03b" d="M271.617 348.162h40.616v15.622h-40.616z"/><path d="M327.854 348.162h80.191v15.622h-80.191z"/><path fill="#84dccf" d="M175.805 372.115H295.57v15.622H175.805z"/><path d="M175.805 396.068h176.003v15.622H175.805zM40.031 140.106v271.817h111.695V140.106H40.031zm96.073 256.197H55.652V266.659c10.168 10.57 24.437 17.167 40.226 17.167s30.058-6.596 40.225-17.167v129.644zM55.652 227.979c0-22.181 18.045-40.225 40.226-40.225 22.181 0 40.225 18.045 40.225 40.225s-18.045 40.225-40.225 40.225c-22.181 0-40.226-18.045-40.226-40.225zm40.226-55.847c-15.789 0-30.059 6.597-40.226 17.167v-33.57h80.452v33.57c-10.167-10.571-24.436-17.167-40.226-17.167zm328.507 149.351c-5.733 0-10.916-2.935-13.866-7.85l-39.664-66.105a18.041 18.041 0 012.716-22.067 18.04 18.04 0 0122.069-2.717l66.104 39.663c4.917 2.949 7.851 8.134 7.851 13.867 0 5.732-2.935 10.916-7.85 13.867l-1.198.719-10.796 2.037a10.906 10.906 0 00-8.746 8.746l-2.037 10.794-.719 1.198c-2.948 4.913-8.132 7.848-13.864 7.848zm-38.039-85.695c-.632 0-1.256.245-1.728.717a2.44 2.44 0 00-.367 2.985l39.663 66.104c.055.092.144.241.399.263l1.342-7.115c2.044-10.835 10.365-19.157 21.202-21.201l7.114-1.342a.469.469 0 00-.265-.4l-66.104-39.663a2.455 2.455 0 00-1.256-.348z"/><path d="M71.665 363.784h47.906v15.622H71.665zm0-63.528h47.906v15.622H71.665z" fill="#fff"/><path fill="#f15a24" d="M71.665 332.541h47.906v15.622H71.665z"/></svg>