<svg width="365" height="274" fill="none" xmlns="http://www.w3.org/2000/svg"><g clip-path="url(#clip0)"><path opacity=".1" d="M113.968 274c43.114 0 78.064-5.149 78.064-11.501 0-6.351-34.95-11.5-78.064-11.5-43.114 0-78.065 5.149-78.065 11.5 0 6.352 34.951 11.501 78.065 11.501zm-1.264-261.912C125.086 1.482 144.525-.691 162.222.165c55.575 2.658 105.737 28.43 149.141 57.587 15.711 10.559 31.18 21.932 41.376 36.47 20.76 29.59 14.6 70.584-14.266 94.959-9.821 8.306-21.726 14.654-33.947 20.289-21.733 10.022-45.182 18.066-69.847 20.357-17.588 1.632-35.394.303-52.88-1.975-48.857-6.363-96.813-20.446-137.006-44.524-17.628-10.548-34.243-23.691-41.51-40.78-7.268-17.088-2.63-38.741 15.386-48.852 7.445-4.185 16.346-6.07 25.06-7.85 12.818-2.61 25.86-5.185 37.437-10.491 11.955-5.485 26.112-16.088 23.745-28.222-2.541-13.024-4.585-24.458 7.793-35.045z" fill="#0090FF"/><path d="M302.67 28.26c2.222 14.235-3.961 26.953-3.961 26.953s-9.785-10.36-12.013-24.595c-1.246-7.987.151-15.488 1.617-20.542a3.504 3.504 0 011.085-1.699 3.659 3.659 0 011.863-.848 3.71 3.71 0 012.037.277 3.59 3.59 0 011.553 1.311c2.948 4.396 6.573 11.16 7.819 19.143zm41.317 22.689c2.201-.01 4.395.26 6.524.801 3.586.895 3.642 5.83.076 6.802a26.036 26.036 0 01-6.505.939c-8.063.086-14.646-4.118-14.646-4.118s6.488-4.338 14.551-4.424zm-22.674-21.641c-7.504 8.015-9.091 18.49-9.091 18.49s10.577-2.523 18.078-10.542c3.477-3.715 5.686-7.958 7.054-11.44.259-.66.307-1.379.14-2.065a3.5 3.5 0 00-1.081-1.784 3.659 3.659 0 00-1.926-.883 3.706 3.706 0 00-2.103.323c-3.458 1.652-7.593 4.185-11.071 7.9z" fill="#0090FF"/><path d="M330.553 27.797H174.621c-3.594 0-6.508 2.832-6.508 6.325v185.089c0 3.494 2.914 6.326 6.508 6.326h155.932c3.594 0 6.508-2.832 6.508-6.326V34.122c0-3.493-2.914-6.325-6.508-6.325z" fill="#464353"/><path opacity=".1" d="M322.487 47.744H182.688V205.59h139.799V47.744z" fill="#0090FF"/><path d="M252.587 221.78c3.286 0 5.949-2.589 5.949-5.782 0-3.194-2.663-5.783-5.949-5.783s-5.949 2.589-5.949 5.783c0 3.193 2.663 5.782 5.949 5.782zm0-179.687c-.556 0-1.099-.16-1.562-.46a2.753 2.753 0 01-1.035-1.226 2.67 2.67 0 01.61-2.977 2.834 2.834 0 011.438-.748 2.886 2.886 0 011.624.156 2.79 2.79 0 011.261 1.006c.309.45.474.977.474 1.517a2.7 2.7 0 01-.825 1.93 2.86 2.86 0 01-1.985.802z" fill="#fff"/><path d="M252.587 36.79a2.7 2.7 0 011.47.433c.435.283.774.684.974 1.154a2.5 2.5 0 01.151 1.486 2.55 2.55 0 01-.724 1.317c-.37.36-.842.605-1.355.704a2.72 2.72 0 01-1.529-.147 2.634 2.634 0 01-1.187-.947 2.519 2.519 0 01-.446-1.429 2.54 2.54 0 01.776-1.817 2.688 2.688 0 011.87-.754zm0-.32a3.036 3.036 0 00-1.657.48 2.91 2.91 0 00-1.103 1.294 2.813 2.813 0 00-.176 1.672 2.87 2.87 0 00.81 1.484c.416.406.945.683 1.523.796a3.055 3.055 0 001.721-.162 2.964 2.964 0 001.338-1.065 2.838 2.838 0 00.282-2.713 2.876 2.876 0 00-.641-.938 2.952 2.952 0 00-.961-.627 3.033 3.033 0 00-1.136-.22z" fill="#fff"/><path d="M216.763 96.642h-26.167c-.781 0-1.413.615-1.413 1.374v35.563c0 .758.632 1.373 1.413 1.373h26.167c.781 0 1.414-.615 1.414-1.373V98.015c0-.758-.633-1.373-1.414-1.373z" fill="#fff" stroke="#fff" stroke-miterlimit="10"/><path opacity=".5" d="M213.111 106.296h-18.864c-1.296 0-2.347 1.021-2.347 2.281v7.594c0 1.26 1.051 2.281 2.347 2.281h18.864c1.296 0 2.347-1.021 2.347-2.281v-7.594c0-1.26-1.051-2.281-2.347-2.281z" fill="#0090FF"/><path d="M209.986 123.41h-12.612a.548.548 0 00-.556.54v.808c0 .298.249.54.556.54h12.612a.547.547 0 00.555-.54v-.808a.547.547 0 00-.555-.54z" fill="#0090FF"/><path d="M265.781 96.642h-26.167c-.781 0-1.414.615-1.414 1.374v35.563c0 .758.633 1.373 1.414 1.373h26.167c.78 0 1.413-.615 1.413-1.373V98.015c0-.758-.633-1.373-1.413-1.373z" fill="#fff" stroke="#fff" stroke-miterlimit="10"/><path opacity=".5" d="M259.24 102.625h-12.934a.474.474 0 00-.48.467v6.236c0 .258.215.466.48.466h12.934c.265 0 .48-.208.48-.466v-6.236a.474.474 0 00-.48-.467z" fill="#0090FF"/><path d="M260.976 116.513H244.35a.547.547 0 00-.555.54v.808c0 .298.249.54.555.54h16.626a.548.548 0 00.555-.54v-.808a.547.547 0 00-.555-.54zm0 3.52H244.35a.548.548 0 00-.555.54v.808c0 .299.249.54.555.54h16.626a.547.547 0 00.555-.54v-.808a.548.548 0 00-.555-.54z" fill="#0090FF"/><path d="M314.579 69.426h-26.168c-.78 0-1.413.615-1.413 1.374v35.563c0 .759.633 1.374 1.413 1.374h26.168c.78 0 1.413-.615 1.413-1.374V70.8c0-.759-.633-1.374-1.413-1.374z" fill="#fff" stroke="#fff" stroke-miterlimit="10"/><path opacity=".5" d="M310.454 75.372h-17.917a.473.473 0 00-.48.466v7.629c0 .258.215.466.48.466h17.917a.473.473 0 00.479-.466v-7.629a.473.473 0 00-.479-.466zm0 12.443h-17.917a.473.473 0 00-.48.466v7.63c0 .257.215.466.48.466h17.917a.473.473 0 00.479-.467v-7.629a.473.473 0 00-.479-.466z" fill="#0090FF"/><path d="M295.482 103.277h-3.675c-.696 0-1.259.548-1.259 1.224v.195c0 .675.563 1.223 1.259 1.223h3.675c.695 0 1.258-.548 1.258-1.223v-.195c0-.676-.563-1.224-1.258-1.224zm7.852 0h-3.675c-.695 0-1.259.548-1.259 1.224v.195c0 .675.564 1.223 1.259 1.223h3.675c.695 0 1.259-.548 1.259-1.223v-.195c0-.676-.564-1.224-1.259-1.224zm7.853 0h-3.675c-.695 0-1.259.548-1.259 1.224v.195c0 .675.564 1.223 1.259 1.223h3.675c.695 0 1.258-.548 1.258-1.223v-.195c0-.676-.563-1.224-1.258-1.224z" fill="#0090FF"/><path d="M314.509 123.857h-26.167c-.781 0-1.413.615-1.413 1.374v35.563c0 .759.632 1.374 1.413 1.374h26.167c.781 0 1.414-.615 1.414-1.374v-35.563c0-.759-.633-1.374-1.414-1.374z" fill="#fff" stroke="#fff" stroke-miterlimit="10"/><path opacity=".5" d="M297.351 128.336h-7.704a.474.474 0 00-.48.467v7.628c0 .258.215.467.48.467h7.704c.265 0 .48-.209.48-.467v-7.628a.474.474 0 00-.48-.467z" fill="#0090FF"/><path d="M309.74 142.112h-16.625a.547.547 0 00-.555.539v.809c0 .298.248.54.555.54h16.625a.548.548 0 00.556-.54v-.809a.548.548 0 00-.556-.539zm0 3.817h-16.625a.547.547 0 00-.555.54v.808c0 .298.248.54.555.54h16.625a.548.548 0 00.556-.54v-.808a.548.548 0 00-.556-.54zm0 3.818h-16.625a.547.547 0 00-.555.539v.809c0 .298.248.54.555.54h16.625a.548.548 0 00.556-.54v-.809a.548.548 0 00-.556-.539z" fill="#0090FF"/><path d="M234.857 114.883l-.444.208-3.595 1.68-.329.151a.188.188 0 01-.141.004.183.183 0 01-.099-.097.172.172 0 010-.064v-.993a.166.166 0 00-.051-.12.177.177 0 00-.123-.05h-8.74a.185.185 0 01-.125-.049.173.173 0 01-.053-.12v-1.403a.169.169 0 01.053-.119.181.181 0 01.125-.05h8.75a.179.179 0 00.123-.052.17.17 0 00.051-.12v-1.016a.172.172 0 010-.064.177.177 0 01.04-.058.177.177 0 01.13-.048.188.188 0 01.07.016l.328.151 3.586 1.696.444.211a.17.17 0 01.1.153.17.17 0 01-.1.153zm48.656-8.616l-.289.387-2.353 3.118-.207.278a.18.18 0 01-.122.066.188.188 0 01-.135-.037.165.165 0 01-.039-.052l-.48-.875a.18.18 0 00-.105-.084.181.181 0 00-.135.011l-7.724 3.996a.188.188 0 01-.066.02.174.174 0 01-.171-.09l-.677-1.243a.16.16 0 01-.013-.13.183.183 0 01.032-.058.197.197 0 01.053-.042l7.725-3.99a.179.179 0 00.053-.042.166.166 0 00.019-.188l-.49-.898a.12.12 0 01-.02-.06.164.164 0 01.04-.131.176.176 0 01.058-.043.187.187 0 01.07-.015h.352l3.984-.14.493-.016a.18.18 0 01.088.023.172.172 0 01.086.15.161.161 0 01-.027.085zm-.025 16.376h-4.822a.168.168 0 01-.07-.014.167.167 0 01-.058-.04.16.16 0 01-.046-.128c0-.021.006-.042.016-.061l.441-.897a.161.161 0 00.007-.13.17.17 0 00-.09-.097l-7.888-3.68a.172.172 0 01-.082-.23l.624-1.262a.168.168 0 01.167-.098.185.185 0 01.066.018l7.889 3.683a.181.181 0 00.237-.079l.453-.917a.163.163 0 01.137-.097.171.171 0 01.156.065l.22.265 2.475 3.041.306.377a.175.175 0 01.042.089.168.168 0 01-.083.168.173.173 0 01-.097.024z" fill="#fff" stroke="#fff" stroke-miterlimit="10"/><path d="M139.428 193.804l-.026.936-1.677 57.527h-2.82l1.384-57.527.026-1.079 3.113.143z" fill="#504F60"/><path opacity=".1" d="M139.428 193.804l-.026.936-1.677 57.527h-2.82l1.384-57.527.026-1.079 3.113.143z" fill="#000"/><path d="M155.748 242.536l-2.11-.006-31.374-.064-1.669-.004.887-2.667h34.043l.223 2.741z" fill="#504F60"/><path opacity=".1" d="M139.428 193.804l-.026.936h-3.113l.026-1.079 3.113.143z" fill="#000"/><path d="M140.618 192.399h-5.229v1.91h5.229v-1.91z" fill="#504F60"/><path opacity=".1" d="M122.544 239.795l-.28 2.671-1.669-.004.887-2.667h1.062z" fill="#000"/><path d="M127.046 192.364l-.089.827-6.958 66.714-3.188-.144 7.333-66.57.082-.757 2.82-.07z" fill="#504F60"/><path opacity=".1" d="M155.748 242.536l-2.11-.006-.286-2.735h2.172l.224 2.741z" fill="#000"/><path d="M159.087 259.761l-3.192.144-6.958-66.714-.085-.827 2.816.07.083.757 7.336 66.57z" fill="#504F60"/><path d="M172.659 126.582h-70.31v65.526h70.31v-65.526z" fill="#fff"/><path d="M186.806 126.582H88.283c-.75 0-1.357.591-1.357 1.32v62.887c0 .728.608 1.319 1.357 1.319h98.523c.749 0 1.357-.591 1.357-1.319v-62.887c0-.729-.608-1.32-1.357-1.32z" fill="#fff"/><path d="M138.872 104.67v15.823h-2.741V104.67c0-.353.144-.692.401-.942s.606-.39.97-.39c.363 0 .712.14.969.39s.401.589.401.942z" fill="#504F60"/><path opacity=".1" d="M138.875 119.052h-2.744v1.441h2.744v-1.441z" fill="#000"/><path d="M139.951 120.132v5.227h-4.894v-5.227c0-.169.069-.332.192-.452a.671.671 0 01.465-.187h3.56a.681.681 0 01.477.18.627.627 0 01.2.459z" fill="#504F60"/><path opacity=".1" d="M137.502 123.809c.573 0 1.038-.452 1.038-1.009 0-.558-.465-1.01-1.038-1.01-.574 0-1.039.452-1.039 1.01 0 .557.465 1.009 1.039 1.009z" fill="#000"/><path d="M137.502 123.592c.573 0 1.038-.452 1.038-1.009 0-.558-.465-1.01-1.038-1.01-.574 0-1.039.452-1.039 1.01 0 .557.465 1.009 1.039 1.009z" fill="#3F3D56"/><path opacity=".1" d="M139.951 124.71h-4.894v.649h4.894v-.649zm2.002.866h-8.901v1.441h8.901v-1.441z" fill="#000"/><path d="M141.953 125.141h-8.901v1.441h8.901v-1.441z" fill="#504F60"/><path opacity=".1" d="M119.851 190.402h36.676c.523 0 1.025.202 1.394.562.37.359.578.847.578 1.355h-40.613c0-.507.207-.994.575-1.353.368-.36.868-.562 1.39-.564zm4.375 2.032l2.82-.07-.089.827h-2.813l.082-.757zm16.392-.035h-5.229v.792h5.229v-.792zm11.133.792h-2.814l-.085-.827 2.816.07.083.757z" fill="#000"/><path d="M119.851 190.849h36.676c.523 0 1.025.202 1.394.562.37.359.578.847.578 1.355h-40.613c0-.508.208-.996.577-1.355.37-.36.872-.562 1.395-.562h-.007z" fill="#504F60"/><path d="M170.204 134.278a.506.506 0 01.414.127.476.476 0 01.148.397c-.477 4.473-.171 9.054.345 13.517.24 2.041.565 4.201 1.496 5.715a.473.473 0 01-.066.594c-.26.197-.586.291-.914.265l-14.67.08a.498.498 0 01-.387-.18.46.46 0 01-.092-.408c1.18-4.887.926-10.223.453-15.293-.233-2.495-.368-3.833 1.548-4.009 1.972-.172 3.945-.252 5.917-.412.473-.038 4.266-.147 5.808-.393zm-11.225 29.292a.506.506 0 00-.414.127.477.477 0 00-.148.397c.477 4.473.171 9.054-.348 13.517-.237 2.041-.562 4.201-1.492 5.718a.463.463 0 00.065.591c.26.197.586.291.914.265l14.67.083a.497.497 0 00.48-.377.469.469 0 000-.214c-1.18-4.887-.927-10.223-.454-15.293.233-2.495.368-3.833-1.548-4.009-1.916-.176-3.945-.252-5.917-.412-.473-.038-4.266-.147-5.808-.393z" fill="#fff" stroke="#33313F" stroke-width="3" stroke-miterlimit="10"/><path d="M163.288 171.8a44.746 44.746 0 015.114.06.496.496 0 01.293.133.463.463 0 01.141.283l.161 1.306a.183.183 0 01-.039.169.18.18 0 01-.125.032c-.717.02-1.433-.06-2.146 0-.444.036-.885.119-1.315.167-.728.062-1.46.075-2.189.038a11.335 11.335 0 01-3.047-.364s.059-1.083.059-1.186c0-.504-.017-.549.519-.562l2.574-.076zm0 5.89a44.07 44.07 0 005.114-.063.496.496 0 00.293-.133.465.465 0 00.141-.283l.161-1.303a.187.187 0 00-.039-.173.19.19 0 00-.125-.032c-.717-.019-1.433.064-2.146 0-.444-.032-.885-.115-1.315-.163a15.683 15.683 0 00-2.189-.038 11.335 11.335 0 00-3.047.364s.059 1.08.059 1.185c0 .505-.017.547.519.563l2.574.076zm0 2.307a43.85 43.85 0 015.114.064c.111.01.214.057.293.133a.46.46 0 01.141.282l.161 1.304a.187.187 0 01-.039.172.185.185 0 01-.125.032c-.717.019-1.433-.064-2.146 0-.444.032-.885.118-1.315.166-.728.061-1.46.073-2.189.035a11.292 11.292 0 01-3.047-.361s.059-1.083.059-1.188c0-.505-.017-.546.519-.559l2.574-.08z" stroke="#33313F" stroke-width="2" stroke-miterlimit="10" stroke-linecap="round"/><path d="M165.448 152.654c.15.351.2.735.144 1.112a.155.155 0 01-.023.086.177.177 0 01-.063.038.175.175 0 01-.075.01l-3.122.118s.174-.895.197-.958c.108-.365.381-.269.733-.288l2.209-.118zm4.717 0c.149.351.198.735.141 1.112a.154.154 0 01-.02.086.188.188 0 01-.138.048l-3.126.118s.178-.895.201-.958c.105-.365.378-.269.733-.288l2.209-.118z" fill="#fff" stroke="#33313F" stroke-width="2" stroke-miterlimit="10" stroke-linecap="round"/><path d="M168.28 137.402l.421 3.515a.933.933 0 01-.22.712.978.978 0 01-.677.345 48.3 48.3 0 01-8.014-.051.996.996 0 01-.621-.295.944.944 0 01-.269-.619 13.331 13.331 0 00-.283-1.862c-.109-.639-.227-1.256.549-1.444.776-.189 1.837-.055 2.685-.071 1.017-.019 2.03-.046 3.041-.083.282 0 3.388-.163 3.388-.147zm0 12.696l.414-3.514a.931.931 0 00-.219-.712.979.979 0 00-.678-.345 48.615 48.615 0 00-8.013.047 1.005 1.005 0 00-.623.296.945.945 0 00-.268.621c-.05.627-.145 1.249-.283 1.863-.108.639-.227 1.255.549 1.444.776.188 1.837.054 2.685.07 1.016.019 2.028.045 3.041.083.289.01 3.395.173 3.395.147z" stroke="#33313F" stroke-width="3" stroke-miterlimit="10"/><path d="M164.056 165.934a51.582 51.582 0 00-.207 3.514 17.644 17.644 0 01-3.586-.399.645.645 0 01-.475-.243.617.617 0 01-.113-.511c-.023-.728-.417-2.355.638-2.457.315-.032 3.74.154 3.743.096z" stroke="#33313F" stroke-width="2" stroke-miterlimit="10" stroke-linecap="round"/><path d="M106.019 149.973c.155-.016.311.002.458.051.147.05.281.131.391.237a1.01 1.01 0 01.308.821c-.378 4.252-.079 8.606.414 12.846.221 1.885.513 3.869 1.289 5.354a.823.823 0 01-.342 1.112.868.868 0 01-.421.108l-14.554.083a.58.58 0 01-.454-.208.56.56 0 01-.115-.475c1.154-4.862.9-10.172.43-15.2-.236-2.495-.367-3.834 1.546-4.01 1.972-.169 3.944-.249 5.9-.412.417-.032 3.402-.121 5.15-.307z" fill="#fff" stroke="#33313F" stroke-width="3" stroke-miterlimit="10" stroke-linecap="round"/><path d="M126.267 149.894a.528.528 0 00-.571.331c-.027.074-.036.153-.027.231.47 4.45.165 9.025-.351 13.472-.237 2.041-.563 4.191-1.489 5.709a.494.494 0 00.138.661c.248.153.541.225.835.204l14.63.083a.527.527 0 00.515-.408.501.501 0 00-.006-.231c-1.167-4.878-.917-10.206-.444-15.254.234-2.495.368-3.834-1.545-4.009-1.972-.17-3.944-.25-5.916-.412-.483-.029-4.197-.135-5.769-.377z" fill="#fff" stroke="#33313F" stroke-width="3" stroke-miterlimit="10"/><path d="M97.306 152.798l7.441 9.648m.001-10.37l-7.195 10.852m32.961-9.677l4.052 5.255m0-5.651l-3.918 5.914m-30.884 6.759a44.808 44.808 0 015.118.061c.11.011.213.059.292.134a.475.475 0 01.142.281l.158 1.307a.195.195 0 01-.036.172.229.229 0 01-.125.032c-.717.02-1.437-.063-2.15 0-.444.032-.881.115-1.315.163-.728.063-1.459.075-2.189.039a11.271 11.271 0 01-3.044-.365c-.02 0 .06-1.079.06-1.185 0-.504-.02-.546.516-.562l2.573-.077zm31.266-4.824a44.36 44.36 0 015.118.064.496.496 0 01.293.133.465.465 0 01.141.283l.158 1.303a.202.202 0 01-.036.173.192.192 0 01-.125.032c-.717.019-1.437-.064-2.15 0-.444.031-.881.118-1.315.162-.727.064-1.459.077-2.189.039a11.38 11.38 0 01-3.047-.364c-.016 0 .059-1.08.059-1.186 0-.504-.016-.546.52-.562l2.573-.077zm2.607 3.62a44.761 44.761 0 00-5.115.061.484.484 0 00-.434.415l-.151 1.303a.188.188 0 00-.005.091c.007.03.021.058.041.082a.186.186 0 00.125.032c.717.019 1.433-.061 2.15 0 .444.032.881.118 1.315.166.728.061 1.459.073 2.189.038a11.295 11.295 0 003.047-.364c.016 0-.059-1.083-.059-1.185 0-.508.019-.55-.516-.562l-2.587-.077z" stroke="#33313F" stroke-width="2" stroke-miterlimit="10" stroke-linecap="round"/><path d="M112.367 161.96s4.835-.24 5.703 0m.006-2.53s2.107 2.047 2.107 2.53c0 .482-2.728 2.169-2.728 2.169m26.535-6.539s4.382-1.994 5.279-2.09" stroke="#33313F" stroke-width="3" stroke-miterlimit="10"/><path d="M148.289 153.159s2.745 1.124 2.932 1.568c.187.444-1.683 3.01-1.683 3.01m-5.594 4.958s4.454 1.837 5.128 2.424" stroke="#33313F" stroke-width="3" stroke-miterlimit="10"/><path d="M150.209 162.842s.986 2.737.756 3.172c-.23.434-3.428.792-3.428.792" stroke="#33313F" stroke-width="3" stroke-miterlimit="10"/><path d="M161.23 152.654c.149.351.198.735.142 1.112a.173.173 0 01-.02.086.198.198 0 01-.064.038.207.207 0 01-.074.01l-3.126.118s.177-.895.2-.958c.106-.365.382-.269.733-.288l2.209-.118z" fill="#fff" stroke="#33313F" stroke-width="2" stroke-miterlimit="10" stroke-linecap="round"/><path d="M102.181 180.185l1.104-.999-.986-.039-.516.77.398.268z" fill="#33313F"/><path d="M94.236 187.188l1.17-1.46.26-.262 3.583-3.648 1.219-1.24.572-.067.822-.792.483.412-.799.907.014.476-1.246 1.313-3.517 3.713-.227.236-1.413 1.271-.92-.859z" fill="#65617D"/><path d="M95.666 185.466l3.583-3.648 1.065 1.009-3.517 3.713-1.131-1.074z" fill="#33313F"/><path d="M101.073 186.872a15.416 15.416 0 01-2.692-3.195c-1.578-2.389-4.214-3.68-6.022-4.322v-.776l.112-.023-.05-.722h.05l-.128-1.917v-.015l-.651-9.511s-2.317-6.341 1.801-12.191c4.119-5.849.257-11.459-3.615-13.654 0 0-1.802-9.264-.257-11.459a67.74 67.74 0 00-6.469-3.179 5.622 5.622 0 01-.095-.351c-.043-.863-.099-1.725-.148-2.588a9.2 9.2 0 01.418-1.882 9.746 9.746 0 004.55-3.465 9.328 9.328 0 001.744-5.355 9.031 9.031 0 00-.611-3.271 4.07 4.07 0 00.47-1.067c.246-.988-.033-2.042-.612-3.042-1.032-2.166-3.605-4.194-5.472-4.945-2.676-1.054-6.702-.805-9.49-.48-1.564.183-3.35.691-3.914 2.084-.208.511-.21 1.076-.355 1.597-.585 2.128-3.113 3.118-4.674 4.747-1.38 1.438-1.973 3.383-2.433 5.278a46.98 46.98 0 00-.904 16.564c.158 1.278.369 2.54.592 3.805-.94 1.278-1.788 3.537-1.4 7.46l-3.09 14.139-1.285 8.29s-.773 3.412 2.3 6.339c1.973 1.865 4.356 5.018 5.825 7.06a16.325 16.325 0 00-.937 5.619c.033.869.083 1.709.145 2.508.13 1.697.461 3.373.986 4.996.362 3.406 1.075 7.76 2.472 10.543l.513 14.871s-.773 13.654-2.301 16.334c-1.529 2.681 3.343 25.356 3.343 25.356v3.169l-.822 2.345-.207-.15c-3.86 4.632 0 6.338 0 6.338s1.052.048 2.731.112a2.916 2.916 0 00.24 1.926 3.035 3.035 0 001.404 1.378s21.868.974 25.73 0c3.862-.975 2.83-4.39.769-4.154-.786.096-1.946-.105-3.08-.389 1.2-1.358.24-3.195-1.292-3.022-2.057.242-6.689-1.527-6.689-1.527l-.023.028a3.566 3.566 0 00-.453-.134 52.796 52.796 0 01-5.092-1.383c-.986-2.054-3.287-7.575-1.643-11.856.743-1.936.986-4.51.986-7.009a77.492 77.492 0 013.389-22.254l3.086-10.223s4.375-12.436 4.631-15.848l-.016-4.965c3.616 2.236 6.492 1.566 8.326.521.267-.154.494-.366.661-.621a1.872 1.872 0 00.173-1.729 1.917 1.917 0 00-.525-.733zm-34.339-25.877c.089-.358.161-.747.224-1.159.605 0 1.213 0 1.817-.02a8.783 8.783 0 01.914 4.792c-1.393-.418-3.477-1.444-2.955-3.597v-.016z" fill="url(#paint0_linear)"/><path d="M69.18 259.036l-.986 2.876 3.218 3.127 10.647 2.406 7.675-.722-.497-2.649a3.177 3.177 0 00-.883-1.497 3.327 3.327 0 00-1.556-.832c-3.155-.722-9.17-2.364-10.436-4.648l-7.182 1.939z" fill="#DB8B8B"/><path opacity=".1" d="M69.18 259.036l-.986 2.876 3.218 3.127 10.647 2.406 7.675-.722-.497-2.649a3.177 3.177 0 00-.883-1.497 3.327 3.327 0 00-1.556-.832c-3.155-.722-9.17-2.364-10.436-4.648l-7.182 1.939z" fill="#000"/><path d="M87.255 266.001l-1.486-1.917 1.486-2.236s4.454 1.747 6.436 1.507c1.982-.239 2.958 3.128-.743 4.09-3.701.961-24.757 0-24.757 0s-3.714-1.684 0-6.256l3.218 2.406s5.446 2.875 8.171 2.406h7.675z" fill="#2E3037"/><path d="M93.937 270.093l-7.675.722-10.647-2.409-3.227-3.128.263-.763.368-1.074.361-1.051 7.179-1.916a4.377 4.377 0 001.456 1.415c2.33 1.549 6.521 2.671 8.98 3.23.102.025.207.054.306.089.52.168.988.462 1.361.852.373.391.638.867.772 1.384l.503 2.649z" fill="#DB8B8B"/><path opacity=".1" d="M93.937 270.093l-7.675.722-10.647-2.409-3.227-3.127.263-.764 2.958 2.208s5.45 2.875 8.171 2.405h7.672l-1.486-1.917 1.335-2.003c.52.169.988.462 1.361.853.373.391.638.867.772 1.384l.503 2.648z" fill="#000"/><path d="M91.452 269.371l-1.485-1.917 1.485-2.236s4.457 1.747 6.436 1.508c1.979-.24 2.958 3.127-.74 4.092-3.697.965-24.76 0-24.76 0s-3.714-1.687 0-6.258l3.218 2.405s5.45 2.876 8.171 2.409l7.675-.003z" fill="#2E3037"/><path d="M85.273 129.806s-11.882 1.201-10.15-3.61a8.397 8.397 0 00.365-4.249 11.62 11.62 0 00-2.097-4.895l11.139 1.684a13.307 13.307 0 00-1.509 3.476c-1.328 5.108 2.252 7.594 2.252 7.594z" fill="#DB8B8B"/><path d="M64.973 184.667s.246 10.348 2.721 15.402l.497 14.676s-.743 13.479-2.229 16.124c-1.486 2.645 3.218 25.027 3.218 25.027v3.849s7.921 2.875 10.15-.482l-2.23-28.634.987-39.703-13.115-6.259z" fill="#35323E"/><path opacity=".1" d="M64.97 184.667s.246 10.348 2.721 15.402l.497 14.676s-.743 13.479-2.229 16.124c-1.486 2.645 3.218 25.027 3.218 25.027v3.849s7.921 2.875 10.15-.482l-2.228-28.634.986-39.703-13.115-6.259z" fill="#000"/><path d="M60.019 151.462l-1.486 3.85-1.236 8.181a7.045 7.045 0 00.336 3.39 7.214 7.214 0 001.893 2.865c2.958 2.876 6.932 8.904 6.932 8.904l4.704-13.715s-4.704-.722-3.945-3.849c.76-3.128.493-8.904.493-8.904l-7.691-.722z" fill="#0090FF"/><path opacity=".1" d="M82.026 261.882c-3.179 4.86-8.12 2.106-8.997 1.559l.362-1.051 7.178-1.916a4.37 4.37 0 001.457 1.408z" fill="#000"/><path d="M91.958 194.053c-.25 3.368-4.457 15.654-4.457 15.654l-2.958 10.099a78.181 78.181 0 00-3.28 21.953c0 2.463-.234 5.006-.947 6.917-1.972 5.293 1.972 12.513 1.972 12.513-3.464 6.016-9.407 1.917-9.407 1.917v-3.834s-4.69-20.944-3.451-25.033c1.239-4.089 1.735-15.162 1.735-15.162v-19.97c-3.969-3.842-6.38-8.946-6.794-14.376a61.343 61.343 0 01-.138-2.476c-.2-5.43 3.616-11.794 5.108-14.056.362-.55.585-.856.585-.856l21.855 8.427.05.019v2.642l.127 15.622z" fill="#35323E"/><path opacity=".1" d="M84.53 118.736a13.307 13.307 0 00-1.509 3.476 9.92 9.92 0 01-7.533-.265 11.62 11.62 0 00-2.097-4.895l11.139 1.684z" fill="#000"/><path d="M79.58 122.346c5.333 0 9.657-4.202 9.657-9.386 0-5.184-4.324-9.386-9.657-9.386-5.334 0-9.657 4.202-9.657 9.386 0 5.184 4.323 9.386 9.657 9.386z" fill="#DB8B8B"/><path opacity=".1" d="M91.958 178.412l-.108.019c-10.38 2.074-23.407-8.44-23.407-8.44.35-.572.652-1.172.901-1.792.362-.55.585-.856.585-.856l21.852 8.427.055.841.122 1.801z" fill="#000"/><path d="M89.234 129.566s-13.865-8.182-18.322-4.814l-6.189 7.699s-3.96 1.204-3.218 8.903l-2.958 13.958 8.91 2.166s5.2 4.811.987 11.791c0 0 13.121 10.587 23.521 8.421l-.75-11.299s-2.228-6.258 1.733-12.031c3.96-5.773.246-11.309-3.465-13.475-.003-.01-1.735-9.156-.25-11.319z" fill="#0090FF"/><path d="M89.976 178.652s5.2.959 7.675 4.814a15.026 15.026 0 002.594 3.147c.223.201.396.45.504.727a1.869 1.869 0 01-.173 1.698 1.945 1.945 0 01-.64.617c-1.973 1.15-5.167 1.856-9.204-1.377-6.945-5.534-.756-9.626-.756-9.626z" fill="#DB8B8B"/><path opacity=".1" d="M82.301 134.125s-4.95-.483-6.19 12.031c-1.238 12.513-3.217 15.398-3.217 15.398s-1.24 6.498 1.732 10.348c2.972 3.849 8.664 12.06 8.664 12.06s6.193 1.686 7.429-4.332l-7.675-13.955s-1.236-4.814 1.732-8.181c2.968-3.367 5.2-25.765-2.475-23.369z" fill="#000"/><path d="M82.798 133.416s-4.953-.483-6.19 12.031c-1.235 12.513-3.217 15.398-3.217 15.398s-1.24 6.504 1.732 10.338c2.972 3.834 8.665 12.031 8.665 12.031s6.189 1.687 7.428-4.329l-7.675-13.957s-1.24-4.815 1.732-8.182 5.194-25.739-2.475-23.33z" fill="#0090FF"/><path opacity=".1" d="M86.883 142.431s.493 7.459-1.735 11.552c-2.229 4.092-2.229 9.383 0 12.271m2.972-32.96s-1.973-1.917-7.676-2.166c-5.702-.249-8.168-1.917-8.168-1.917" fill="#000"/><path opacity=".1" d="M74.36 100.833c-1.505.179-3.225.681-3.767 2.058-.2.504-.204 1.06-.345 1.597-.562 2.102-2.994 3.08-4.497 4.686-1.314 1.419-1.91 3.339-2.34 5.208a47.576 47.576 0 00-.884 16.337c.483 3.99 1.47 7.917 1.749 11.926.279 4.009-.23 8.226-2.485 11.593-.986 1.451-2.249 2.722-2.935 4.316 1.42 1.118 3.378 1.278 5.206 1.339 2.13.07 4.26.07 6.39 0 1.117-.038 2.284-.109 3.247-.658a4.948 4.948 0 001.706-1.776c1.216-2.01 1.525-4.425 1.473-6.757-.053-2.332-.43-4.648-.477-6.98-.023-1.278.079-2.62.832-3.662.542-.75 1.367-1.255 2.074-1.865 2.652-2.281 3.56-5.942 3.648-9.383.089-3.441-.493-6.888-.194-10.316.115-1.344.631-2.955 1.992-3.217.427-.083.884 0 1.292-.159 1.091-.406.986-1.901 1.295-2.994.352-1.23 1.43-2.178 1.732-3.418.713-2.91-3.1-6.389-5.588-7.399-2.58-1.048-6.455-.795-9.124-.476z" fill="#000"/><path d="M74.1 100.354c-1.506.179-3.225.68-3.767 2.054-.14.526-.25 1.06-.329 1.597-.562 2.103-2.997 3.08-4.5 4.69-1.314 1.415-1.91 3.335-2.34 5.208a47.64 47.64 0 00-.867 16.347c.483 3.99 1.469 7.919 1.745 11.925.276 4.006-.227 8.227-2.482 11.594-.986 1.45-2.248 2.722-2.935 4.316 1.42 1.121 3.379 1.278 5.206 1.338 2.13.071 4.26.071 6.39 0 1.118-.038 2.285-.105 3.248-.658a4.888 4.888 0 001.702-1.776c1.22-2.009 1.525-4.425 1.476-6.757-.05-2.332-.434-4.648-.476-6.98-.023-1.278.078-2.62.828-3.658.546-.754 1.37-1.259 2.077-1.866 2.65-2.284 3.56-5.945 3.649-9.386.089-3.44-.497-6.887-.197-10.315.118-1.342.634-2.955 1.991-3.214.431-.083.888 0 1.295-.163 1.092-.406.987-1.898 1.296-2.993.348-1.23 1.426-2.176 1.732-3.415.713-2.914-3.1-6.39-5.588-7.402-2.6-1.055-6.472-.809-9.154-.486z" fill="#35323E"/></g><defs><linearGradient id="paint0_linear" x1="79.047" y1="272.617" x2="79.047" y2="99.194" gradientUnits="userSpaceOnUse"><stop stop-color="gray" stop-opacity=".25"/><stop offset=".54" stop-color="gray" stop-opacity=".12"/><stop offset="1" stop-color="gray" stop-opacity=".1"/></linearGradient><clipPath id="clip0"><path fill="#fff" d="M0 0h365v274H0z"/></clipPath></defs></svg>