<svg height="512" viewBox="0 0 64 64" width="512" xmlns="http://www.w3.org/2000/svg"><path d="M6 21h52v35H6z" fill="#8892a0"/><path d="M9 24h46v29H9z" fill="#c7e2fc"/><path d="M9 24v19.572C13.462 46.369 18.782 48 24.5 48c14.51 0 26.479-10.466 28.262-24z" fill="#ebf7fe"/><path d="M62 56H2v4a2 2 0 002 2h56a2 2 0 002-2z" fill="#4d5d7a"/><path d="M13 35h14v14H13z" fill="#c66b60"/><path d="M13 17h14v14H13z" fill="#78b75b"/><path d="M19 29l.042-.001a1 1 0 00.806-.469l5-8-1.695-1.061-4.228 6.764L16.8 23.4l-1.6 1.2 3 4a1 1 0 00.8.4zm4.293 8.293L20 40.586l-3.293-3.293-1.414 1.414L18.586 42l-3.293 3.293 1.414 1.414L20 43.414l3.293 3.293 1.414-1.414L21.414 42l3.293-3.293z" fill="#fff"/><path d="M51 34a6 6 0 10-12 0 6 6 0 0012 0zm-9 0a3 3 0 116 0 3 3 0 01-6 0z" fill="#8892a0"/><path d="M47 24h4v-2.231a8.943 8.943 0 002.785-1.156l1.579 1.579 2.828-2.828-1.579-1.579A8.943 8.943 0 0057.769 15H60v-4h-2.231a8.943 8.943 0 00-1.156-2.785l1.579-1.579-2.828-2.828-1.579 1.579A8.943 8.943 0 0051 4.231V2h-4v2.231a8.943 8.943 0 00-2.785 1.156l-1.579-1.579-2.828 2.828 1.579 1.579A8.943 8.943 0 0040.231 11H38v4h2.231a8.943 8.943 0 001.156 2.785l-1.579 1.579 2.828 2.828 1.579-1.579A8.943 8.943 0 0047 21.769zm-4-11a6 6 0 1112 0 6 6 0 01-12 0z" fill="#4d5d7a"/><path d="M37 33h2v2h-2zm14 0h2v2h-2zm-7 7h2v2h-2zm0-14h2v2h-2zm4.283 12.71l1.414-1.415 1.656 1.657-1.414 1.414zm-9.653-9.659l1.414-1.414 1.656 1.657-1.414 1.414zm9.656.251l1.657-1.656 1.414 1.414-1.657 1.656zm-9.658 9.658l1.657-1.657 1.414 1.414-1.657 1.656z" fill="#8892a0"/><path d="M38 34c0-3.859 3.14-7 7-7s7 3.141 7 7-3.14 7-7 7-7-3.141-7-7zm12 0c0-2.757-2.243-5-5-5s-5 2.243-5 5 2.243 5 5 5 5-2.243 5-5z" fill="#4d5d7a"/></svg>