<svg width="320" height="264" fill="none" xmlns="http://www.w3.org/2000/svg"><path d="M129.191 105.271s-21.043 6.303-27.127 23.142c-6.083 16.838-.593 48.212 23.825 67.274 24.417 19.062 63.282 3.958 63.282 3.958s26.698-35.799 15.46-61.6c-11.237-25.801-29.816-51.836-75.44-32.774z" fill="#fff"/><path d="M88.925 177.285S77.8 220.93 94.507 220.93c16.708 0 45.236-.629 45.236-.629l-21.473-37.972-29.345-5.044zm42.239-71.943s-11.871 12.707 0 20.462c11.871 7.755 26.237-3.451 22.802-11.337-3.436-7.887-13.783-13.287-13.783-13.287l-9.019 4.162z" fill="#F4A28C"/><path opacity=".09" d="M131.165 105.342s-11.871 12.707 0 20.462c11.871 7.755 26.237-3.451 22.802-11.337-3.436-7.887-13.784-13.287-13.784-13.287l-9.018 4.162z" fill="#000"/><path d="M100.734 131.001c-5.48 11.388-13.957 31.465-13.476 46l31.012 5.339s17.301-40.479.42-55.095a11.568 11.568 0 00-4.659-2.42 11.62 11.62 0 00-5.256-.116 11.57 11.57 0 00-4.762 2.212 11.456 11.456 0 00-3.279 4.08z" fill="#fff"/><path opacity=".54" d="M100.734 131.001c-5.48 11.388-13.957 31.465-13.476 46l31.012 5.339s17.301-40.479.42-55.095a11.568 11.568 0 00-4.659-2.42 11.62 11.62 0 00-5.256-.116 11.57 11.57 0 00-4.762 2.212 11.456 11.456 0 00-3.279 4.08z" fill="#fff"/><path d="M186.809 108.783c11.38 7.967 26.145 23.345 31.349 51.013l-28.343 10.465s-24.193-24.411-22.495-52.171c.142-2.18.866-4.283 2.097-6.094a12.385 12.385 0 014.908-4.211 12.48 12.48 0 0112.484.998z" fill="#fff"/><path opacity=".54" d="M186.809 108.783c11.38 7.967 26.145 23.345 31.349 51.013l-28.343 10.465s-24.193-24.411-22.495-52.171c.142-2.18.866-4.283 2.097-6.094a12.385 12.385 0 014.908-4.211 12.48 12.48 0 0112.484.998z" fill="#fff"/><path opacity=".58" d="M51.46 205.766s-12.494-3.38-15.214-14.941c0 0 19.356-3.877 19.908 15.956l-4.693-1.015z" fill="#fff"/><path opacity=".73" d="M52.995 204.538s-8.732-13.703-1.023-26.502c0 0 14.724 9.277 8.18 26.532l-7.157-.03z" fill="#fff"/><path d="M55.244 204.548s4.612-14.464 18.548-17.255c0 0 2.618 9.389-9.028 17.255h-9.52z" fill="#fff"/><path d="M46.174 204.223l2.536 17.204 15.95.061 2.352-17.184-20.838-.081z" fill="#24285B"/><path d="M122.125 89.843s2.802 19.843 13.426 19.224c10.623-.619 4.09-22.625 4.09-22.625s-1.432-11.165-7.741-11.165c-6.308 0-14.478.853-9.775 14.566z" fill="#F4A28C"/><path d="M120.93 92.37l2.157 2.03s10.9-5.745 10.9-14.515c0 0 2.045 7.593 6.564 10.414 0 0 4.52-15.306-3.906-17.011 0 0-2.689-4.344-5.409-4.649-2.208-.253-13.762 3.32-14.57 13.195-.124 1.96.194 3.924.932 5.747a13.185 13.185 0 003.332 4.789z" fill="#24285B"/><path d="M123.087 94.4s-5.644-.345-4.714 2.284c.931 2.629.931 6.445 6.636 3.38l-1.922-5.664z" fill="#F4A28C"/><path opacity=".09" d="M133.475 114.802s-5.245 4.547 1.544 8.038c6.79 3.492 4.918 36.723 14.755 45.32 9.836 8.597 25.757 3.959 25.757 3.959l-19.07-35.799-3.773-17.895-9.683-1.868-9.53-1.755z" fill="#000"/><path d="M140.173 89.903s4.938-2.74 5.245 0c.307 2.741 1.973 6.212-4.499 5.908l-.746-5.908zm7.239 21.326s-12.178-4.954-14.99 0c-2.812 4.953 13.415 8.678 13.415 8.678l1.575-8.678z" fill="#F4A28C"/><path d="M147.412 111.229s-12.178-4.953-14.99 0c-2.812 4.953 13.415 8.678 13.415 8.678l1.575-8.678z" fill="#F4A28C"/><path d="M216.737 160.304s13.129 34.581-2.331 42.701c-15.46 8.12-59.377-36.479-68.569-83.129l1.575-8.678s15.48 16.93 21.329 27.172c5.849 10.241 23.957 24.035 23.957 24.035l24.039-2.101z" fill="#F4A28C"/><path d="M123.935 220.94l-10.92-54.242h86.902l-6.953 55.622-69.029-1.38z" fill="#FFD200"/><path d="M156.451 199.199c3.298 0 5.971-2.654 5.971-5.928s-2.673-5.927-5.971-5.927-5.972 2.653-5.972 5.927c0 3.274 2.674 5.928 5.972 5.928z" fill="#fff"/><path d="M31.604 219.702h241.504v17.031H31.603v-17.031z" fill="#E6E6E6"/><path d="M240.961 195.555h18.579v24.228h-18.579v-24.228z" fill="#C1C1C1"/><path d="M244.734 201.635h-6.524c-1.863 0-3.65.734-4.967 2.042a6.948 6.948 0 00-.003 9.864 7.019 7.019 0 002.28 1.512c.853.35 1.767.529 2.69.528h6.554" stroke="#C1C1C1" stroke-width="2.03" stroke-miterlimit="10"/><path d="M251.932 214.069c3.004 0 5.44-2.418 5.44-5.4s-2.436-5.4-5.44-5.4c-3.004 0-5.44 2.418-5.44 5.4s2.436 5.4 5.44 5.4z" fill="#E6E6E6"/><path opacity=".38" d="M243.129 195.555s-4.796-13.053 7.157-15.225c11.953-2.172 14.499-6.506 7.158-15.499-7.342-8.993-5.113-15.499 2.157-16.737 7.27-1.239 17.935 11.814 23.242-4.06 5.306-15.875 15.93-10.211 19.989 0 4.06 10.21 11.248 26.329-10.623 27.567-21.872 1.238-11.248 16.676-19.039 19.65a108.465 108.465 0 01-13.569 4.253l-16.472.051zm-.123-152.86c.098-.59.149-1.187.153-1.785 0-3.16-1.264-6.192-3.516-8.426a12.048 12.048 0 00-8.488-3.49 11.922 11.922 0 00-5.399 1.288c0-.426.072-.852.072-1.289a11.856 11.856 0 00-3.269-8.354 12.03 12.03 0 00-8.212-3.725 12.046 12.046 0 00-8.502 3.016 11.874 11.874 0 00-3.974 8.048 12.041 12.041 0 00-7.53-2.606 12.04 12.04 0 00-7.51 2.662 11.882 11.882 0 00-4.165 6.75 11.815 11.815 0 001.025 7.851h-.235a8.37 8.37 0 00-3.46.745 8.315 8.315 0 00-2.833 2.106 8.237 8.237 0 00-1.693 3.086 8.193 8.193 0 00.997 6.794 8.287 8.287 0 002.51 2.477 8.357 8.357 0 006.851.95 11.867 11.867 0 003.932 7.513 12.035 12.035 0 007.97 3.013 11.912 11.912 0 004.554 6.246 12.065 12.065 0 007.452 2.17 12.053 12.053 0 007.231-2.812 11.905 11.905 0 003.984-6.619 12.082 12.082 0 0012.75 1.576 11.971 11.971 0 005.015-4.395 11.856 11.856 0 001.867-6.377v-.09c.393.055.789.086 1.186.09a8.349 8.349 0 005.62-2.218 8.229 8.229 0 002.618-5.412 8.212 8.212 0 00-1.77-5.741 8.325 8.325 0 00-5.221-3.03l-.01-.011zm-47.25 38.642a3.79 3.79 0 00.184-.579 4.022 4.022 0 00-.075-2.017 4.061 4.061 0 00-1.044-1.732 4.103 4.103 0 00-3.789-1.072c.052-.135.093-.274.123-.416a4.034 4.034 0 00-.655-2.758 4.089 4.089 0 00-2.313-1.662 4.117 4.117 0 00-2.844.246 4.074 4.074 0 00-1.99 2.032 4.086 4.086 0 00-1.838-1.282 4.118 4.118 0 00-4.214.944 4.047 4.047 0 00-1.105 1.942 3.874 3.874 0 000 1.817h-.082a2.83 2.83 0 00-2.274.218 2.797 2.797 0 00-1.36 1.823 2.762 2.762 0 00.452 2.223 2.82 2.82 0 001.965 1.156c.264.069.537.093.808.071a4.034 4.034 0 00.713 2.75 4.09 4.09 0 002.354 1.615c.089.871.46 1.691 1.057 2.336a4.118 4.118 0 004.813.9 4.076 4.076 0 001.84-1.795 4.093 4.093 0 001.825 1.288 4.119 4.119 0 004.21-.907 4.06 4.06 0 001.123-1.924c.122.051.249.092.378.122.694.175 1.429.08 2.055-.267a2.788 2.788 0 001.308-1.595 2.759 2.759 0 00-.154-2.051 2.796 2.796 0 00-1.532-1.385l.061-.041zm-26.636 4.07c0-.122.082-.243.113-.375a2.568 2.568 0 00-1.023-2.693 2.612 2.612 0 00-.93-.413 2.555 2.555 0 00-1.207 0 2.03 2.03 0 00.082-.264 2.577 2.577 0 00-.245-1.968 2.609 2.609 0 00-1.575-1.22 2.625 2.625 0 00-1.982.244 2.593 2.593 0 00-1.229 1.563 2.609 2.609 0 00-1.171-.824 2.626 2.626 0 00-2.694.599c-.347.34-.592.77-.705 1.24a2.476 2.476 0 000 1.168 1.823 1.823 0 00-1.99.868 1.782 1.782 0 00.286 2.139 1.809 1.809 0 001.407.535c-.07.637.1 1.277.478 1.796.378.52.936.881 1.567 1.015.04.572.27 1.114.654 1.541a2.626 2.626 0 003.133.584c.514-.26.926-.683 1.172-1.2a2.62 2.62 0 002.635.945 2.625 2.625 0 001.28-.694c.352-.347.597-.787.707-1.267l.245.081a1.813 1.813 0 002.1-1.216 1.78 1.78 0 00-.081-1.292 1.804 1.804 0 00-.935-.902l-.092.01z" fill="#E6E6E6"/></svg>