<svg class="gridItem__media" xmlns="http://www.w3.org/2000/svg" width="1600" height="1200" fill="none"><path d="M278.52 1053.88h1006.25l94.97-304.69a56.048 56.048 0 00.55-31.44l-113.52-415.09c-6.12-22.37-25.39-38.65-48.46-40.95l-706.85-70.45a56.004 56.004 0 00-51.69 23.99L216.35 569.16a56 56 0 00-9.15 40.62l71.32 444.1z" fill="#EFEFEF"/><path d="M1082.69 761.88H523.95c-6.83 0-12.37-5.54-12.37-12.37V347.05c0-6.83 5.54-12.37 12.37-12.37h558.74c6.83 0 12.37 5.54 12.37 12.37v402.46c0 6.83-5.54 12.37-12.37 12.37z" class="change-color-in-svg" fill="#44a7ef"/><path opacity=".15" d="M1082.69 761.88H523.95c-6.83 0-12.37-5.54-12.37-12.37V347.05c0-6.83 5.54-12.37 12.37-12.37h558.74c6.83 0 12.37 5.54 12.37 12.37v402.46c0 6.83-5.54 12.37-12.37 12.37z" fill="#fff"/><path d="M787.27 1053.08l38.709-288.22-38.709-26.06 24.029-339.28-24.029-28.72 14.779-150.58 13.86 1.38-12.329 144.77 20.44 41-20.31 315.69 38.449 37.04-45.37 292.98h-9.519z" fill="#fff"/><path d="M802.05 220.22l-292.12-29.48a51.099 51.099 0 00-47.17 21.79l-247.4 358.02a51.104 51.104 0 00-8.42 37.14l71.57 446.18 508.75-.8 38.71-288.22-38.71-26.06L811.3 399.5l-24.04-28.71 14.79-150.57z" fill="#DCDCDC"/><path d="M1073.42 761.88H514.5c-6.78 0-12.28-5.5-12.28-12.28V346.96c0-6.78 5.5-12.28 12.28-12.28h558.92c6.78 0 12.28 5.5 12.28 12.28V749.6c0 6.78-5.5 12.28-12.28 12.28z" class="change-color-in-svg" fill="#44a7ef"/><path opacity=".3" d="M1073.33 761.88H514.59c-6.83 0-12.37-5.54-12.37-12.37V347.05c0-6.83 5.54-12.37 12.37-12.37h558.74c6.83 0 12.37 5.54 12.37 12.37v402.46c0 6.83-5.54 12.37-12.37 12.37z" fill="#fff"/><path opacity=".6" d="M1063.33 751.84H524.35c-6.09 0-11.02-4.94-11.02-11.02V354.1c0-6.09 4.94-11.02 11.02-11.02h538.98c6.09 0 11.02 4.94 11.02 11.02v386.72c0 6.08-4.94 11.02-11.02 11.02z" fill="#fff"/><path d="M1020.25 697.899H887.179c-1.07 0-1.94-.87-1.94-1.94v-243.16c0-1.07.87-1.94 1.94-1.94h133.071c1.07 0 1.94.87 1.94 1.94v243.16c0 1.07-.87 1.94-1.94 1.94z" fill="#fff"/><path opacity=".8" d="M1027.82 686.729H906.789c-.98 0-1.769-.79-1.769-1.77v-221.16c0-.98.789-1.77 1.769-1.77h121.031c.98 0 1.77.79 1.77 1.77v221.16c0 .98-.79 1.77-1.77 1.77z" fill="#fff"/><path opacity=".6" d="M1034.39 469.09h-4.8v210.58h4.8c.92 0 1.66-.74 1.66-1.66V470.75c0-.92-.74-1.66-1.66-1.66z" fill="#fff"/><path d="M1005.53 549.37H901.899a2.57 2.57 0 01-2.57-2.57v-32.22a2.57 2.57 0 012.57-2.57h103.621a2.57 2.57 0 012.57 2.57v32.22c0 1.42-1.15 2.57-2.56 2.57z" class="change-color-in-svg" fill="#44a7ef"/><path opacity=".5" d="M1005.53 549.37H901.899a2.57 2.57 0 01-2.57-2.57v-32.22a2.57 2.57 0 012.57-2.57h103.621a2.57 2.57 0 012.57 2.57v32.22c0 1.42-1.15 2.57-2.56 2.57z" fill="#fff"/><path d="M1005.53 502.17H901.899a2.57 2.57 0 01-2.57-2.57v-32.22a2.57 2.57 0 012.57-2.57h103.621a2.57 2.57 0 012.57 2.57v32.22c0 1.42-1.15 2.57-2.56 2.57z" class="change-color-in-svg" fill="#44a7ef"/><path d="M1001.53 599.259c-.28 0-.5-.22-.5-.5s.22-.5.5-.5h4c.28 0 .52.22.52.5s-.21.5-.48.5v-.5l-.01.5h-4.03zm-3.991 0h-4c-.28 0-.5-.22-.5-.5s.22-.5.5-.5h4c.28 0 .5.22.5.5s-.23.5-.5.5zm-8 0h-4c-.28 0-.5-.22-.5-.5s.22-.5.5-.5h4c.28 0 .5.22.5.5s-.22.5-.5.5zm-7.99 0h-4c-.28 0-.5-.22-.5-.5s.22-.5.5-.5h4c.28 0 .5.22.5.5s-.23.5-.5.5zm-8 0h-4c-.28 0-.5-.22-.5-.5s.22-.5.5-.5h4c.28 0 .5.22.5.5s-.22.5-.5.5zm-7.99 0h-4c-.28 0-.5-.22-.5-.5s.22-.5.5-.5h4c.28 0 .5.22.5.5s-.23.5-.5.5zm-8 0h-4c-.28 0-.5-.22-.5-.5s.22-.5.5-.5h4c.28 0 .5.22.5.5s-.22.5-.5.5zm-7.99 0h-4c-.28 0-.5-.22-.5-.5s.22-.5.5-.5h4c.28 0 .5.22.5.5s-.23.5-.5.5zm-8 0h-4c-.28 0-.5-.22-.5-.5s.22-.5.5-.5h4c.28 0 .5.22.5.5s-.22.5-.5.5zm-7.99 0h-4c-.28 0-.5-.22-.5-.5s.22-.5.5-.5h4c.28 0 .5.22.5.5s-.22.5-.5.5zm-8 0h-4c-.28 0-.5-.22-.5-.5s.22-.5.5-.5h4c.28 0 .5.22.5.5s-.22.5-.5.5zm-7.99 0h-4c-.28 0-.5-.22-.5-.5s.22-.5.5-.5h4c.28 0 .5.22.5.5s-.22.5-.5.5zm-8 0h-4c-.28 0-.5-.22-.5-.5s.22-.5.5-.5h4c.28 0 .5.22.5.5s-.22.5-.5.5zm-7.99-.02h-.06a3.063 3.063 0 01-2.71-3.05v-.26c0-.28.22-.5.5-.5s.5.22.5.5v.26c0 1.05.79 1.94 1.83 2.06.27.03.47.28.44.55-.03.26-.25.44-.5.44zm106.491-2.55c-.28 0-.5-.22-.5-.5v-4c0-.28.22-.5.5-.5s.5.22.5.5v4c0 .28-.22.5-.5.5zm-108.761-4.26c-.28 0-.5-.22-.5-.5v-4c0-.28.22-.5.5-.5s.5.22.5.5v4c0 .28-.22.5-.5.5zm108.761-3.73c-.28 0-.5-.22-.5-.5v-4c0-.28.22-.5.5-.5s.5.22.5.5v4c0 .27-.22.5-.5.5zm-108.761-4.26c-.28 0-.5-.22-.5-.5v-4c0-.28.22-.5.5-.5s.5.22.5.5v4c0 .28-.22.5-.5.5zm108.761-3.74c-.28 0-.5-.22-.5-.5v-4c0-.28.22-.5.5-.5s.5.22.5.5v4c0 .28-.22.5-.5.5zm-108.761-4.25c-.28 0-.5-.22-.5-.5v-4c0-.28.22-.5.5-.5s.5.22.5.5v4c0 .27-.22.5-.5.5zm108.761-3.74c-.28 0-.5-.22-.5-.5v-4c0-.28.22-.5.5-.5s.5.22.5.5v4c0 .27-.22.5-.5.5zm-108.761-4.26c-.28 0-.5-.22-.5-.5v-3.98c0-.28.22-.51.5-.51s.5.22.5.49v4c0 .28-.22.5-.5.5zm108.761-3.74c-.28 0-.5-.22-.5-.5v-.24c0-1.06-.79-1.94-1.84-2.06a.502.502 0 01-.44-.55c.03-.27.28-.48.55-.44 1.56.17 2.73 1.48 2.73 3.05v.24c0 .28-.22.5-.5.5zm-6.28-2.81h-4.001c-.28 0-.5-.22-.5-.5s.22-.5.5-.5h4.001c.28 0 .5.22.5.5s-.23.5-.5.5zm-8.001 0h-4c-.28 0-.5-.22-.5-.5s.22-.5.5-.5h4c.28 0 .5.22.5.5s-.22.5-.5.5zm-7.99 0h-4c-.28 0-.5-.22-.5-.5s.22-.5.5-.5h4c.28 0 .5.22.5.5s-.23.5-.5.5zm-8 0h-4c-.28 0-.5-.22-.5-.5s.22-.5.5-.5h4c.28 0 .5.22.5.5s-.22.5-.5.5zm-7.99 0h-4c-.28 0-.5-.22-.5-.5s.22-.5.5-.5h4c.28 0 .5.22.5.5s-.22.5-.5.5zm-8 0h-4c-.28 0-.5-.22-.5-.5s.22-.5.5-.5h4c.28 0 .5.22.5.5s-.22.5-.5.5zm-7.99 0h-4c-.28 0-.5-.22-.5-.5s.22-.5.5-.5h4c.28 0 .5.22.5.5s-.22.5-.5.5zm-7.99 0h-4c-.28 0-.5-.22-.5-.5s.22-.5.5-.5h4c.28 0 .5.22.5.5s-.23.5-.5.5zm-8 0h-4c-.28 0-.5-.22-.5-.5s.22-.5.5-.5h4c.28 0 .5.22.5.5s-.22.5-.5.5zm-7.99 0h-4c-.28 0-.5-.22-.5-.5s.22-.5.5-.5h4c.28 0 .5.22.5.5s-.23.5-.5.5zm-8 0h-4c-.28 0-.5-.22-.5-.5s.22-.5.5-.5h4c.28 0 .5.22.5.5s-.22.5-.5.5zm-7.99 0h-4c-.28 0-.5-.22-.5-.5s.22-.5.5-.5h4c.28 0 .5.22.5.5s-.23.5-.5.5zm-8 0h-3.97c-.28 0-.51-.22-.51-.5s.21-.5.49-.5h4c.28 0 .5.22.5.5s-.23.5-.51.5z" fill="#61656D"/><path d="M988.13 495.86H909.6c-.93 0-1.68-.75-1.68-1.68v-5.24c0-.93.75-1.68 1.68-1.68h78.54c.93 0 1.68.75 1.68 1.68v5.24c0 .93-.76 1.68-1.69 1.68z" fill="#fff"/><path opacity=".5" d="M926.34 541.65h-16.6c-1.81 0-3.28-1.47-3.28-3.28V523c0-1.81 1.47-3.28 3.28-3.28h16.6c1.81 0 3.28 1.47 3.28 3.28v15.37c0 1.81-1.47 3.28-3.28 3.28z" fill="#fff"/><path d="M997.37 478.879h-70.74c-.81 0-1.47-.66-1.47-1.47 0-.81.66-1.47 1.47-1.47h70.74c.81 0 1.47.66 1.47 1.47 0 .81-.66 1.47-1.47 1.47z" class="change-color-in-svg" fill="#44a7ef"/><path opacity=".3" d="M997.37 478.879h-70.74c-.81 0-1.47-.66-1.47-1.47 0-.81.66-1.47 1.47-1.47h70.74c.81 0 1.47.66 1.47 1.47 0 .81-.66 1.47-1.47 1.47z" fill="#fff"/><path d="M997.82 538.24h-61.03c-.93 0-1.68-.75-1.68-1.68v-5.24c0-.93.75-1.68 1.68-1.68h61.03c.93 0 1.68.75 1.68 1.68v5.24c0 .93-.75 1.68-1.68 1.68z" fill="#fff"/><path opacity=".3" d="M989.81 524.679h-53.23c-.81 0-1.47-.66-1.47-1.47 0-.81.66-1.47 1.47-1.47h53.23c.81 0 1.47.66 1.47 1.47 0 .81-.66 1.47-1.47 1.47z" fill="#fff"/><path d="M913.92 483.419a6.01 6.01 0 100-12.02 6.01 6.01 0 000 12.02z" class="change-color-in-svg" fill="#44a7ef"/><path opacity=".3" d="M913.92 483.419a6.01 6.01 0 100-12.02 6.01 6.01 0 000 12.02z" fill="#fff"/><path d="M1074.33 376.35h-561v-22.74c0-5.82 4.72-10.53 10.53-10.53h539.94c5.82 0 10.53 4.72 10.53 10.53v22.74z" class="change-color-in-svg" fill="#44a7ef"/><path d="M750.33 1045.67H606.37c-1.17 0-2.2 1.03-2.2 2.2v3.65c0 1.17 1.03 2.2 2.2 2.2h143.97c1.17 0 2.2-1.03 2.2-2.2v-3.65c-.01-1.19-.9-2.2-2.21-2.2z" fill="#21252B"/><path opacity=".6" d="M750.33 1045.67H606.37c-1.17 0-2.2 1.03-2.2 2.2v3.65c0 1.17 1.03 2.2 2.2 2.2h143.97c1.17 0 2.2-1.03 2.2-2.2v-3.65c-.01-1.19-.9-2.2-2.21-2.2z" fill="#000"/><path d="M649.3 1045.67H398.31c-1.17 0-2.2 1.03-2.2 2.2v3.65c0 1.17 1.03 2.2 2.2 2.2H649.3c1.17 0 2.2-1.03 2.2-2.2v-3.65c-.16-1.19-1.03-2.2-2.2-2.2z" fill="#21252B"/><path opacity=".6" d="M398.12 1047.12h255.5c.44 0 .73-.28.73-.73 0-.45-.28-.73-.73-.73h-255.5c-.44 0-.73.28-.73.73 0 .45.43.73.73.73z" fill="#000"/><path d="M649.14 1045.67h-37.81c-2.92 0-5.4-2.04-5.99-4.96l-16.6-166.59c-.73-3.79 2.2-7.16 5.99-7.16h37.81c2.92 0 5.4 2.04 5.99 4.96l16.6 166.59c.58 3.79-2.2 7.16-5.99 7.16z" fill="#21252B"/><path opacity=".6" d="M649.14 1045.67h-37.81c-2.92 0-5.4-2.04-5.99-4.96l-16.6-166.59c-.73-3.79 2.2-7.16 5.99-7.16h37.81c2.92 0 5.4 2.04 5.99 4.96l16.6 166.59c.58 3.79-2.2 7.16-5.99 7.16z" fill="#000"/><path opacity=".6" d="M645.79 1045.67h-37.81c-2.92 0-5.4-2.04-5.99-4.96l-16.6-166.59c-.73-3.79 2.2-7.16 5.99-7.16h37.81c2.92 0 5.4 2.04 5.99 4.96l16.6 166.59c.58 3.79-2.2 7.16-5.99 7.16z" fill="#000"/><path d="M646.01 1045.67h-242.8c-2.92 0-5.4-2.04-5.99-4.96l-16.6-166.59c-.73-3.79 2.2-7.16 5.99-7.16h242.64c2.92 0 5.4 2.04 5.99 4.96l16.6 166.59c.72 3.79-2.04 7.16-5.83 7.16z" fill="#21252B"/><path d="M640.46 1041.43H406.91c-2.78 0-5.14-1.95-5.71-4.73l-15.1-158.73c-.69-3.61 2.09-6.82 5.71-6.82h233.41c2.78 0 5.14 1.95 5.71 4.73l15.11 158.72c.68 3.64-1.96 6.83-5.58 6.83z" fill="#fff"/><path d="M640.61 1041.43H406.77a5.94 5.94 0 01-5.91-5.38l-14.87-158.86c-.33-3.48 2.42-6.49 5.92-6.48l232.61.44c3.04.01 5.58 2.31 5.89 5.33l16.11 158.42c.35 3.49-2.4 6.53-5.91 6.53z" class="change-color-in-svg" fill="#44a7ef"/><path opacity=".7" d="M640.61 1041.43H406.77a5.94 5.94 0 01-5.91-5.38l-14.87-158.86c-.33-3.48 2.42-6.49 5.92-6.48l232.61.44c3.04.01 5.58 2.31 5.89 5.33l16.11 158.42c.35 3.49-2.4 6.53-5.91 6.53z" fill="#fff"/><path d="M469.53 979.7h-29.72l-4.1-11.3c-6.55 4.3-12.2.949-12.2.949l-4.34-38.579h44.85l5.51 48.93zm117.22-63.87H426.49c-5.77 0-10.64-4.311-11.33-10.041-.82-6.79 4.48-12.769 11.33-12.769h160.26c5.77 0 10.64 4.31 11.33 10.04.81 6.79-4.49 12.77-11.33 12.77zM452.7 1022.41h-24.77l-3.03-27.02h24.76l3.04 27.02zm34.06 0h-24.77l-3.03-27.02h24.76l3.04 27.02z" fill="#fff"/><path d="M569.59 720.82c7.18 5.49 14.69 28.29 18.07 47.72 3.6 20.7-3.86 24.81 14.3 36.1 9.93 6.17 4.01 12.26 5.78 19.81 1.76 7.54 1.49 16.04-3.01 22.33-3.12 4.37-10.99 10.46-15.98 12.42-5.65 2.23-11.91 3.43-17.82 2.08-7.44-1.69-13.53-7.27-17.5-13.78-9.33-15.28-8.13-34.42-8.5-52.33-.57-27.02-5.41-53.74-10.24-80.32" fill="#263238"/><path d="M594.821 836.92c9.356 0 16.94-7.584 16.94-16.94 0-9.356-7.584-16.94-16.94-16.94-9.356 0-16.94 7.584-16.94 16.94 0 9.356 7.584 16.94 16.94 16.94z" fill="#263238"/><path d="M662.26 926.909s-30.66-78.58-31.81-80.49l-.13-.38c-3.83-6.64-9.71-11.63-17.89-14.18l-26.7-7.409-6.9-1.92-59.41-.51-10.48 2.17-28.75 6.26c-13.03 2.81-21.21 15.59-18.4 28.62 4.09 18.27 7.54 35.39 7.54 35.39l8.82 54.94c2.04 10.22 3.07 20.7 2.3 31.05-2.04 29-10.59 60.98-10.59 60.98h158.52s-18.88-60.09-10.32-89.6l5.11-15.84 14.19 24.049c4.22 8.43 12.39 12.111 21.08 8.151l3.82-41.281z" class="change-color-in-svg" fill="#44a7ef"/><path d="M622.91 935.729l19.03 31.96c3.63 6.1 10.21 9.84 17.32 9.84 11.71 0 20.96-9.95 20.1-21.63l-2.16-29.45-5.12-81.47-25.18-.45-6.79 63.42" class="change-color-in-svg" fill="#44a7ef"/><path opacity=".6" d="M646.26 850.479l26.2.58-.39-6.08-25.2-.26-.61 5.76z" fill="#000"/><path d="M654.08 858.149a2.172 2.172 0 11-1.57 4.05 2.172 2.172 0 01-1.24-2.81c.44-1.12 1.7-1.67 2.81-1.24z" fill="#fff"/><path opacity=".6" d="M666.23 880.539c.6.23.89.89.7 1.37l-2.02 6.62c-.23.6-.89.89-1.37.7-.6-.23-.89-.89-.7-1.37l2.02-6.62c.11-.64.77-.93 1.37-.7zM545.1 853.06c.77.13 1.53.13 2.3.13 13.29 0 25.55-6.9 33.09-17.76l7.03-10.48-1.92-.51-3.45-1.02-46.76 2.56-22.36-2.68-4.09.89-1.92.38.89 1.28 6.9 9.84c6.91 10.09 18.02 16.61 30.29 17.37z" fill="#000"/><path d="M482.75 815.509s38.31-6.36 15.15-50.18l27.27-30.28s-5.98 2.78-2.41 18.28c3.14 13.65 11.92 31.12 14.75 48.56.79 4.86-.18 17.6-4.93 24.75-2.06 3.11-6.87 5.02-6.87 5.02l-16.96 7.81-26-23.96zm9.7-93.19c-6.28-7.04-16.09-10.58-25.96-8.37-14.5 3.24-23.63 17.61-20.4 32.13 3.24 14.5 17.61 23.63 32.13 20.4a26.77 26.77 0 0011.36-5.59 26.758 26.758 0 01-6.17-12.02c-2.28-10.18 1.54-20.3 9.04-26.55z" fill="#263238"/><path d="M498.61 734.349a26.842 26.842 0 00-6.16-12.02c-7.49 6.25-11.32 16.36-9.05 26.54 1.04 4.63 3.21 8.71 6.17 12.02 7.48-6.26 11.3-16.37 9.04-26.54z" class="change-color-in-svg" fill="#44a7ef"/><path d="M533.63 701.829c-4.85.44-8.92 2.8-11.67 6.18-.74.92-1.76 1.55-2.91 1.78-1.93.38-5.2 1.27-9.42 3.61-15.21 8.42-22.11 22.78-15.5 42.79 4.51 13.69 12.06 23.31 24.99 27.08 2.85.82-3.39-26.42 4.43-42.32 1.26-2.55 2.75-4.84 4.36-6.92 3.28 1.54 7.06 2.07 10.87 1.21 9.75-2.17 15.65-12.37 12.3-22.09-2.51-7.27-9.81-12.01-17.45-11.32z" fill="#263238"/><path d="M564.52 762.09l5.88 52.9c.38 3.32 2.81 6.13 6.01 7.03l5.75 1.53-5.75 8.3c-6.64 9.58-17.38 15.59-29 15.46-.64-.13-1.41-.13-2.04-.13-10.73-.64-20.44-6.39-26.58-15.2l-6.01-8.69 5.11-1.41c3.45-.89 5.88-4.09 6.01-7.67l1.28-44.59 39.34-7.53z" fill="#FB9C9C"/><path d="M583.23 761.98l-13.6-33.13c-2.45-6.04-9.48-8.94-15.52-6.48l-33.25 13.64c-4.72 1.98-7.01 7.29-5.03 12.01l14.68 35.73c5.77 14.08 21.78 20.8 35.86 15.03l1.88-.81c14.07-5.78 20.74-21.91 14.98-35.99z" fill="#FB9C9C"/><path d="M552.44 762.9a2.94 2.94 0 100-5.88 2.94 2.94 0 000 5.88z" fill="#21252B"/><path d="M554.01 761.09a.64.64 0 100-1.28.64.64 0 000 1.28z" fill="#fff"/><path d="M574.06 755.079a2.94 2.94 0 100-5.88 2.94 2.94 0 000 5.88z" fill="#21252B"/><path d="M575.83 753.059a.64.64 0 10.001-1.279.64.64 0 00-.001 1.279z" fill="#fff"/><path opacity=".3" d="M570.62 766.94c-.81-1.88-2.97-2.59-4.73-1.82-.36.13-.59.62-.42 1.1.13.36.62.59 1.1.42.92-.47 1.9-.01 2.37.91.47.92.01 1.9-.91 2.37l-3.64 1.59c-.36.13-.59.62-.42 1.1.13.36.62.59 1.1.42l3.64-1.59c1.76-.78 2.64-2.86 1.91-4.5z" fill="#000"/><path d="M580.49 741.64c-.89 4.67-2.43 7.94-2.43 7.94l-6.58-15.96c-.56-1.56-2.4-2.12-3.75-1.36-6.02 3.26-21.25 9.99-34.24 3 0 0-.35 10.32-9.24 15.02l1.8 4.24a42.74 42.74 0 013.28 14.71c.07 1.33-1.52 2.18-2.63 1.36-1.81-1.25-4.52-3.12-4.72-2.91-1.53 1.78-2.31 12.79-3.97 10.81-3.83-4.59-9.43-10.31-14.17-17.02l-5.79-.22c3.26-3.76 1.05-7.99 1.05-7.99-4.65-9.87-5.92-21.64 2.22-35.58 8.91-18.09 48.35-29.52 64.29-3.67.47.92 1.42 1.66 2.39 1.72 2.79.21 6.87 3.31 9.88 12.01.88 2.79 2.61 13.9 2.61 13.9z" fill="#263238"/><path d="M530.83 787.9l-2.77-14.09c-3.17-12.94-19.06-9.3-15.37 3.4 3.68 12.82 16.74 10.8 16.74 10.8l1.4-.11z" fill="#FB9C9C"/><path opacity=".3" d="M515.95 771.25c.25.39.76.39 1.15.14.9-.76 1.8-1.13 2.57-.99.77.01 1.4.66 2.15 1.56 1.01 1.29 1.49 3.72 1.49 4.11l.24 1.54c.11 1.28 1.91.79 1.79-.23l-.11-1.41c-.23-1.79-.85-3.46-1.86-4.88-.88-1.42-2.02-2.2-3.29-2.34-1.27-.14-2.56.35-3.85 1.36-.4.24-.4.75-.28 1.14z" fill="#000"/><path d="M570.99 743.17c-3.4 1.5-5.87 4.43-6.67 7.85-3.56-.07-5.94 1.6-6.97 2.52-3.42-2.7-8.21-3.55-12.41-1.63-5.95 2.7-8.69 9.8-5.99 15.75 2.7 5.95 9.8 8.69 15.75 5.99 5.95-2.7 8.69-9.8 5.99-15.75-.55-1.16-1.39-2.35-2.26-3.26.83-.71 2.82-1.97 5.48-2.12-.35 2.03.02 4.2.93 6.32 2.7 5.95 9.8 8.69 15.75 5.99 5.95-2.7 8.69-9.8 5.99-15.75-2.74-6.07-9.8-8.69-15.59-5.91zm-17.01 29.24c-5.28 2.31-11.52.09-13.83-5.19-2.31-5.28-.09-11.52 5.19-13.83 5.28-2.31 11.52-.09 13.83 5.19 2.39 5.11.05 11.39-5.19 13.83zm26.01-8.86c-5.28 2.31-11.52.09-13.83-5.19-2.31-5.28-.09-11.52 5.19-13.83 5.28-2.31 11.52-.09 13.83 5.19 2.39 5.12.04 11.4-5.19 13.83z" fill="#fff"/><path d="M525.65 786.189a2.56 2.56 0 100-5.12 2.56 2.56 0 000 5.12z" class="change-color-in-svg" fill="#44a7ef"/><path opacity=".15" d="M527.28 785.689c-.39.38-.9.63-1.41.62-1.41.11-2.67-1.05-2.78-2.46-.12-.9.27-1.66.92-2.16-.26.51-.4 1.02-.4 1.53.11 1.53 1.5 2.7 3.04 2.59.25 0 .38.01.63-.12zm-2.8 11.16l4.37-8.99-4.209.05-.161 8.94zm44.52 5.58c-2.33-.13-4.39-.58-5.98-1.05-5.62 1.35-10.24.98-13.29.45-.45-.11-.74-.55-.63-.99.11-.45.55-.74.99-.63 2.48.46 6 .82 10.35.06.24-.09.52-.05.76-.14.64-.1 1.25-.31 1.89-.41.12-.04.12-.04.24-.09.4-.01.88-.18 1.25-.31 1.08-.39 2.04-.74 3.12-1.13.27-.11.54-.21.81-.32l.49 4.56z" fill="#000"/><path d="M559.02 779.96c-.48.17-.47.58-.22.89 2.44 2.24 5.74 3.09 8.86 1.96 3.12-1.13 5.12-3.89 5.56-7.17-.01-.4-.38-.68-.74-.55l-13.46 4.87z" fill="#fff"/><path opacity=".15" d="M617.42 883.599v11.88l3.07 5.37c5.37 9.71 6.64 21.08 3.45 31.56l-1.02 3.32 19.03 31.96c4.23 7.62 16.03 12.22 24.72 8.25l3.07-1.41c-7.28 2.43-17.24-1.94-20.18-7.69l-18.59-32.27c2.43-12.01.26-24.53-6.01-35.01l-3.58-6.01-2.81-10.09c-.26-.63-1.28-.5-1.15.14z" fill="#000"/><path d="M672.229 961.41l1.661-.77-1.661.77z" fill="#000"/><path d="M599.151 841.18a2.17 2.17 0 10-.001-4.34 2.17 2.17 0 00.001 4.34zm40.119 48.3a2.17 2.17 0 10-.001-4.341 2.17 2.17 0 00.001 4.341zm13.67 71.67a2.17 2.17 0 100-4.34 2.17 2.17 0 000 4.34zm-169.81-99.271a2.17 2.17 0 100-4.34 2.17 2.17 0 000 4.34zm3.07 60.051c0 1.2-.97 2.17-2.17 2.17s-2.17-.97-2.17-2.17.97-2.17 2.17-2.17c1.19 0 2.17.97 2.17 2.17zm45.1.639c0 1.2-.97 2.17-2.17 2.17s-2.17-.97-2.17-2.17.97-2.17 2.17-2.17 2.17.97 2.17 2.17zm31.05-39.479a2.17 2.17 0 10-.001-4.341 2.17 2.17 0 00.001 4.341zm-37.06 94.42a2.17 2.17 0 100-4.34 2.17 2.17 0 000 4.34zm55.2-26.45a2.17 2.17 0 100-4.34 2.17 2.17 0 000 4.34zm28.88-46.63c0 1.2-.97 2.17-2.17 2.17s-2.17-.97-2.17-2.17.97-2.17 2.17-2.17c1.19-.01 2.17.97 2.17 2.17zm-113.85 119.33c1.2 0 2.17.97 2.17 2.17s-.97 2.17-2.17 2.17-2.17-.97-2.17-2.17.97-2.17 2.17-2.17zm97.24-2.81a2.17 2.17 0 10.001-4.339 2.17 2.17 0 00-.001 4.339z" fill="#fff"/><path opacity=".6" d="M542.54 1012.77c.51.26.64.89.38 1.41l-3.45 6.01c-.26.51-.89.64-1.41.38-.51-.26-.64-.89-.38-1.41l3.45-6.01c.26-.5.9-.76 1.41-.38zm71.43-167.37c.51.26.64.89.38 1.41l-3.45 6.01c-.26.51-.89.64-1.41.38-.51-.26-.64-.89-.38-1.41l3.45-6.01c.26-.51.9-.64 1.41-.38zm-39.48 74.359c0 .51-.51 1.02-1.02 1.02h-7.03c-.51 0-1.02-.51-1.02-1.02s.51-1.02 1.02-1.02h7.03c.63 0 1.14.51 1.02 1.02zm-59.03-28.49c-.38.26-1.02.26-1.41-.26l-4.09-5.62c-.26-.38-.26-1.02.26-1.41.38-.26 1.02-.26 1.41.26l4.09 5.62c.38.38.25 1.02-.26 1.41zm-13.29-58.01c.13.64-.38 1.15-.89 1.15l-6.9.64c-.64.13-1.15-.38-1.15-.89-.13-.64.38-1.15.89-1.15l6.9-.64c.51-.13 1.02.25 1.15.89zm93.14 157.031c-.38.26-1.02.26-1.41-.26l-4.09-5.62c-.26-.38-.26-1.02.26-1.41.38-.26 1.02-.26 1.41.26l4.09 5.62c.38.39.25 1.15-.26 1.41zm47.79-77.561c.26.51.13 1.15-.38 1.41l-6.01 3.45c-.51.26-1.15.13-1.41-.38s-.13-1.15.38-1.41l6.01-3.45c.51-.39 1.15-.13 1.41.38zm-149.62 64.78c0 .51-.38 1.02-.89 1.15l-6.9 1.28c-.51 0-1.02-.38-1.15-.89 0-.51.38-1.02.89-1.15l6.9-1.28c.51-.13 1.02.25 1.15.89z" fill="#000"/><path d="M665.729 985.08c.08.15.01.34-.14.42l-.95.48-.28-.55.95-.48c.15-.08.34-.02.42.13z" fill="#3F4249"/><path d="M665.729 985.08c.08.15.01.34-.14.42l-.95.48-.28-.55.95-.48c.15-.08.34-.02.42.13z" fill="#000"/><path d="M654.38 987.909l.6 1.19-54.31 27.261-.46-.92a.32.32 0 01.13-.41l54.04-27.121zm.86 1.731l1.42 2.83-54.04 27.12a.32.32 0 01-.41-.13l-1.29-2.56 54.32-27.26z" fill="#3F4249"/><path d="M654.38 987.909l.6 1.19-54.31 27.261-.46-.92a.32.32 0 01.13-.41l54.04-27.121zm.86 1.731l1.42 2.83-54.04 27.12a.32.32 0 01-.41-.13l-1.29-2.56 54.32-27.26z" fill="#000"/><path d="M597.27 1018.1l1.06 2.11c.12.24.41.34.66.22l2.97-1.49-1.5-2.98-2.97 1.49c-.24.12-.34.41-.22.65zm57.11-30.191l2.29 4.56 3.03-1.52c1.26-.63 5.71-4.14 5.08-5.4-.63-1.26-6.11.21-7.37.84l-3.03 1.52zm-44.311 27.941l-5.46 2.74 2.94.94 1.06-.53 4.41-2.21 13.47-6.76 2.32-1.16-.21-.43c-.32-.64-1.1-.9-1.74-.58-.48.24-.75.74-.71 1.25l-14.46 7.26-1.62-.52z" fill="#3F4249"/><path d="M654.985 989.165l-54.316 27.255.269.54 54.316-27.259-.269-.536z" fill="#fff"/><path d="M509.46 882.359l-.41 81.161 61.5 15.29-1.16 27.51-80.64-7.591c-9.75-.89-17.33-8.719-18.06-18.359l-9.45-124.6 48.22 26.589z" class="change-color-in-svg" fill="#44a7ef"/><path opacity=".15" d="M509.01 960.069c.05 2.08 1.53 3.88 3.54 4.29l4.87 1.03 47.79 12.14-48.06-15.36-5.13-62.25c-.08-.96-1.03-1.6-1.95-1.31-.62.2-1.05.78-1.05 1.43l-.01 60.03z" fill="#000"/><path opacity=".6" d="M569.48 1006.41l-5.74-.61 1.47-28.261 5.52 1.26-1.25 27.611zm-80.299-33.96c-.06.46-.48.94-1.12.89l-6.92-.63c-.46-.06-.94-.48-.89-1.12.06-.46.48-.94 1.12-.89l6.92.63c.54-.04.94.48.89 1.12zM472.3 883.289c.55.14.95.66.8 1.21l-1.36 6.79c-.14.55-.66.95-1.21.8-.55-.14-.95-.66-.8-1.21l1.36-6.79c.14-.55.66-.94 1.21-.8zm78.15 96.951c.55.14.95.66.8 1.21l-1.36 6.79c-.14.55-.66.95-1.21.8-.55-.14-.95-.66-.8-1.21l1.36-6.79c.05-.63.66-.95 1.21-.8z" fill="#000"/><path opacity=".15" d="M489.86 999.02l79.63 7.39.21-6.44-78.45-8.73c-9.94-1.06-18.2-8.12-20.99-17.53l.54 6.76c.78 9.17 7.11 17.26 19.06 18.55z" fill="#000"/><path d="M570.55 978.81l51.68 11.2 9.07-.93c.75-.15 1.57-.17 2.31.19l9.84 4.17-2.92 2.13c-1.09.79-.94 2.46.15 3.1l7.95 4.36-.49 1.33c-.49 1.33-1.64 1.9-3.05 1.8l-1.19-.16c-.61-.03-1.22.45-1.52.9l-.48.82c-.76 1.17-2.36 1.44-3.75 1.24l-1.27-.27c-.68-.15-1.28.24-1.62.88-.63 1.5-1.56 2.02-3.15 1.78l-2.49-.33-.76.7c-1.41 1.33-2.81 1.64-4.6.95l-9.97-3.91-44.91-2.43 1.17-27.52z" fill="#FA9B9B"/><path opacity=".15" d="M636.891 1008.69c-.68-.15-1.28.24-1.62.88-.63 1.5-1.56 2.02-3.15 1.78l-2.49-.33-.76.7c-1.41 1.33-2.81 1.64-4.6.95l-9.97-3.91-44.91-2.43.3-5.86 44.91 2.43 9.97 3.91s6.16 2.61 7.34 2.61c1.18 0 2.13-.62 2.81-1.29.67-.68 2.17.56 2.17.56z" fill="#000"/><path d="M672.01 789.09s.01 20.62-2.28 22.24l2.34 33.65-25.18-.45s6.19-26.69.68-42.05c-1.9-5.3-3.7-10.36-2.88-14.39l25.76-.5c.86-.01 1.55.66 1.56 1.5z" fill="#FB9C9C"/><path d="M644.649 788.36l.39-26.4c.02-1.07.92-1.92 1.99-1.86.93.05 1.68.77 1.77 1.7l2.88 26.29-7.03.27z" fill="#FB9C9C"/><path d="M646.89 844.53l.52-32.681c-6.96-4.4-6.28-24.1-6.31-24.44-.52-2.81-1.71-9.759-1.71-9.759-.11-.41.14-.801.56-.911 1.65-.46 3.6.46 4.49 2.46l1.95 4.5 2.23 6.66s4.55.89 5.88 4.64c2.51 7.09-.65 11.12-.65 11.12l-6.96 38.411z" fill="#FB9C9C"/><path opacity=".15" d="M650.88 786.64l.36 16.86a2.48 2.48 0 004.94.26l2.49-16.29-7.79-.83z" fill="#000"/><path opacity=".15" d="M658.66 787.479l-2.39 18.06c-.14 1.24.76 2.431 2.07 2.711 1.33.29 2.62-.45 2.92-1.67l3.94-18.861-6.54-.24zm7.46-.129l-3.53 15.25c-.27 1.18.75 2.56 1.93 2.8 1.06.22 2.11-.38 2.46-1.41l5.04-14.35s.32-1.45-1.11-2.05l-4.79-.24z" fill="#000"/><path d="M651.47 787l.3 15.5a2.48 2.48 0 004.94.26l1.95-15.28c.2-1.54-.9-2.94-2.45-3.11l-1.66-.19a2.784 2.784 0 00-3.08 2.82z" fill="#FB9C9C"/><path d="M658.59 787.92l-2.19 16.48c-.16 1.24.65 2.39 1.88 2.64 1.24.25 2.46-.51 2.78-1.73l4.18-16.05c.42-1.6-.57-3.23-2.18-3.61l-.86-.2c-1.7-.42-3.38.74-3.61 2.47z" fill="#FB9C9C"/><path d="M665.06 788.16l-2.5 13.3c-.22 1.19.58 2.32 1.77 2.51 1.07.17 2.09-.47 2.4-1.51l3.87-13.02c.35-1.18-.38-2.4-1.59-2.65l-1.48-.3c-1.13-.23-2.25.52-2.47 1.67z" fill="#FB9C9C"/><path opacity=".15" d="M643.27 878.43l-2.78 26-3.83-43.02 6.61 17.02z" fill="#000"/><path d="M395.481 629.19c-3.55-17.6 7.83-34.75 25.43-38.3 17.6-3.56 34.75 7.83 38.3 25.43 1.42 7.02.46 13.96-2.32 20-3.16 7.77-13.42 17.9-12.48 22.54l1.07 5.3c.21 1.06-.47 2.09-1.53 2.3l-5.12 1.03-4.71.95-5.12 1.03c-1.06.21-2.09-.47-2.3-1.53l-1.07-5.3c-.94-4.64-14.32-9.99-20.25-15.92a32.4 32.4 0 01-9.9-17.53z" class="change-color-in-svg" fill="#44a7ef"/><path d="M439.991 666.7c-.2-.79-3.35-13.47-4.59-24.89-1.23.4-2.55.75-3.99 1.04-1.44.29-2.8.48-4.08.59 3.29 11 5.3 23.91 5.43 24.72l-.57.09c-.03-.2-2.11-13.55-5.47-24.76-9.72.59-15.03-3.9-16.81-8.8-1.04-2.86-.63-6.01.99-7.47.98-.89 2.29-1.3 3.81-1.17 2.38.19 4.91 1.7 6.77 4.03 2.15 2.7 4.06 7.5 5.68 12.81 1.3-.1 2.68-.29 4.14-.59 1.46-.29 2.8-.65 4.04-1.06-.57-5.52-.67-10.7.26-14.02.81-2.87 2.55-5.24 4.67-6.34 1.35-.7 2.72-.84 3.97-.4 2.05.73 3.66 3.46 3.81 6.5.26 5.21-2.89 11.42-12.07 14.64 1.26 11.63 4.52 24.75 4.57 24.94l-.56.14zm1.93-45.82c-.46.09-.92.26-1.38.5-1.98 1.03-3.62 3.27-4.39 5.99-.9 3.19-.8 8.24-.24 13.66 8.79-3.13 11.81-9.06 11.56-14.02-.14-2.78-1.61-5.35-3.43-5.99a3.9 3.9 0 00-2.12-.14zm-28.72 5.8c-.74.15-1.38.47-1.91.95-1.42 1.3-1.78 4.24-.83 6.85 1.7 4.67 6.78 8.96 16.1 8.43-1.59-5.22-3.46-9.91-5.52-12.5-1.76-2.21-4.14-3.64-6.37-3.82-.52-.03-1.02 0-1.47.09z" fill="#fff" stroke="#fff" stroke-width="2" stroke-miterlimit="10"/><path d="M445.621 660.96l-20.28 4.1 1.95 9.67a8.505 8.505 0 002.2 4.2 8.894 8.894 0 008.18 2.56l2.97-.6c2.98-.6 5.45-2.69 6.54-5.53.58-1.5.71-3.14.39-4.72l-1.95-9.68z" fill="#28364C"/><path d="M426.66 671.58c.06-.01.12-.02.17-.04l19.86-6.2c.68-.21 1.04-.93.8-1.61s-.98-1.05-1.66-.84l-19.86 6.2c-.68.21-1.04.93-.8 1.61.22.61.86.98 1.49.88zm.891 4.42c.06-.01.12-.02.17-.04l19.86-6.2c.68-.21 1.04-.93.8-1.61s-.98-1.05-1.66-.84l-19.86 6.2c-.68.21-1.04.93-.8 1.61.22.62.86.98 1.49.88zm1.689 4.22c.06-.01.12-.02.17-.04l18.82-5.88c.68-.21 1.04-.93.8-1.61s-.98-1.05-1.66-.84l-18.82 5.88c-.68.21-1.04.93-.8 1.61.23.61.87.98 1.49.88z" fill="#475577"/><path d="M419.01 564.65c-.2-.97-1.14-1.6-2.11-1.4-.97.2-1.6 1.14-1.4 2.11l2.88 14.27a1.805 1.805 0 002.12 1.41c.97-.19 1.6-1.14 1.4-2.11l-2.89-14.28zm25.52-.91c-.47-.11-.95-.02-1.35.24a1.8 1.8 0 00-.79 1.13l-3.13 14.22c-.21.97.4 1.92 1.37 2.14a1.782 1.782 0 00.73.01c.7-.14 1.25-.68 1.4-1.37l3.13-14.22c.1-.47.02-.95-.24-1.35-.26-.42-.66-.7-1.12-.8zm26.261 12.88c-.07-.47-.33-.89-.71-1.17-.8-.58-1.92-.41-2.51.39l-8.6 11.75a1.79 1.79 0 102.89 2.11l8.6-11.74c.29-.39.41-.86.33-1.34zm-76.66-1.77a1.79 1.79 0 00-1.16-.73c-.47-.08-.95.03-1.34.3-.39.28-.65.69-.73 1.16-.08.47.03.95.3 1.34l8.4 11.89c.32.45.82.72 1.35.76.15.01.31 0 .47-.03.25-.05.47-.15.68-.29.39-.28.65-.69.73-1.16.08-.47-.03-.95-.3-1.34l-8.4-11.9zm-6.561 27.16l-12.49-7.48c-.85-.51-1.95-.23-2.46.62-.25.41-.32.89-.2 1.36.12.46.41.86.82 1.1l12.49 7.48c.25.15.53.24.81.25.15.01.31 0 .46-.03.49-.1.92-.41 1.18-.83.52-.86.24-1.96-.61-2.47z" fill="#32353A"/><path d="M1312.72 1054.68H264.6c-.4 0-.8-.3-.8-.8s.4-.8.8-.8h1048.22c.4 0 .8.3.8.8s-.4.8-.9.8z" fill="#ADB1B6"/><path d="M828.501 1045.67h143.97c1.17 0 2.2 1.03 2.2 2.2v3.65c0 1.17-1.03 2.2-2.2 2.2h-143.97c-1.17 0-2.2-1.03-2.2-2.2v-3.65c0-1.19.89-2.2 2.2-2.2z" fill="#21252B"/><path opacity=".6" d="M828.501 1045.67h143.97c1.17 0 2.2 1.03 2.2 2.2v3.65c0 1.17-1.03 2.2-2.2 2.2h-143.97c-1.17 0-2.2-1.03-2.2-2.2v-3.65c0-1.19.89-2.2 2.2-2.2z" fill="#000"/><path d="M929.531 1045.67h250.989c1.17 0 2.2 1.03 2.2 2.2v3.65c0 1.17-1.03 2.2-2.2 2.2H929.531c-1.17 0-2.2-1.03-2.2-2.2v-3.65c.17-1.19 1.03-2.2 2.2-2.2z" fill="#21252B"/><path opacity=".6" d="M1180.72 1047.12H925.221c-.44 0-.73-.28-.73-.73 0-.45.28-.73.73-.73h255.499c.44 0 .73.28.73.73 0 .45-.43.73-.73.73z" fill="#000"/><path d="M1139.32 1045.67h37.81c2.92 0 5.4-2.04 5.99-4.96l16.6-166.59c.73-3.79-2.2-7.16-5.99-7.16h-37.81c-2.92 0-5.4 2.04-5.99 4.96l-16.6 166.59c-.58 3.79 2.2 7.16 5.99 7.16z" fill="#21252B"/><path opacity=".6" d="M1139.32 1045.67h37.81c2.92 0 5.4-2.04 5.99-4.96l16.6-166.59c.73-3.79-2.2-7.16-5.99-7.16h-37.81c-2.92 0-5.4 2.04-5.99 4.96l-16.6 166.59c-.58 3.79 2.2 7.16 5.99 7.16z" fill="#000"/><path d="M930.401 1045.67H1173.2c2.92 0 5.4-2.04 5.99-4.96l16.6-166.59c.73-3.79-2.2-7.16-5.99-7.16H947.161c-2.92 0-5.4 2.04-5.99 4.96l-16.6 166.59c-.72 3.79 2.04 7.16 5.83 7.16z" fill="#21252B"/><path d="M935.951 1041.43H1169.5c2.78 0 5.14-1.95 5.71-4.73l15.11-158.72c.69-3.61-2.09-6.82-5.71-6.82H951.201c-2.78 0-5.141 1.95-5.711 4.73l-15.109 158.72c-.69 3.63 1.95 6.82 5.57 6.82z" class="change-color-in-svg" fill="#44a7ef"/><path opacity=".7" d="M935.951 1041.43H1169.5c2.78 0 5.14-1.95 5.71-4.73l15.11-158.72c.69-3.61-2.09-6.82-5.71-6.82H951.201c-2.78 0-5.141 1.95-5.711 4.73l-15.109 158.72c-.69 3.63 1.95 6.82 5.57 6.82z" fill="#fff"/><path d="M1152.6 910.47h-106.61c-4.9 0-8.71-4.26-8.17-9.13a8.218 8.218 0 018.17-7.31h106.61c4.9 0 8.71 4.26 8.17 9.13a8.218 8.218 0 01-8.17 7.31zm-155.769 110.86h-48.23l4.57-48.38h48.229l-4.569 48.38zm156.579-67.5h-29.18l2.77-29.26h29.17l-2.76 29.26zm-5.56 64.93h-29.18l5.64-54.64h29.18l-5.64 54.64z" fill="#fff"/><path d="M1028.87 615.13H919.04c-1.5 0-2.72-1.22-2.72-2.72v-34.15c0-1.5 1.22-2.72 2.72-2.72h109.83c1.5 0 2.72 1.22 2.72 2.72v34.15a2.71 2.71 0 01-2.72 2.72z" class="change-color-in-svg" fill="#44a7ef"/><path opacity=".2" d="M1028.87 615.13H919.04c-1.5 0-2.72-1.22-2.72-2.72v-34.15c0-1.5 1.22-2.72 2.72-2.72h109.83c1.5 0 2.72 1.22 2.72 2.72v34.15a2.71 2.71 0 01-2.72 2.72z" fill="#fff"/><path d="M1009.68 586.67h-80.39c-1.3 0-2.37-1.06-2.37-2.37 0-1.3 1.06-2.37 2.37-2.37h80.39c1.3 0 2.37 1.06 2.37 2.37-.01 1.3-1.06 2.37-2.37 2.37z" class="change-color-in-svg" fill="#44a7ef"/><path opacity=".15" d="M960.05 608.72h-29.77a3.35 3.35 0 01-3.35-3.35v-5.52c0-1.85 1.5-3.35 3.35-3.35h29.77c1.85 0 3.35 1.5 3.35 3.35v5.52c0 1.85-1.5 3.35-3.35 3.35z" fill="#fff"/><path opacity=".5" d="M1009.68 586.67h-80.39c-1.3 0-2.37-1.06-2.37-2.37 0-1.3 1.06-2.37 2.37-2.37h80.39c1.3 0 2.37 1.06 2.37 2.37-.01 1.3-1.06 2.37-2.37 2.37z" fill="#fff"/><path d="M960.051 608.72h-29.77a3.35 3.35 0 01-3.35-3.35v-5.52c0-1.85 1.5-3.35 3.35-3.35h29.77c1.85 0 3.35 1.5 3.35 3.35v5.52c0 1.85-1.5 3.35-3.35 3.35z" class="change-color-in-svg" fill="#44a7ef"/><path opacity=".15" d="M960.051 608.72h-29.77a3.35 3.35 0 01-3.35-3.35v-5.52c0-1.85 1.5-3.35 3.35-3.35h29.77c1.85 0 3.35 1.5 3.35 3.35v5.52c0 1.85-1.5 3.35-3.35 3.35z" fill="#fff"/><path d="M960.051 608.72h-29.77a3.35 3.35 0 01-3.35-3.35v-5.52c0-1.85 1.5-3.35 3.35-3.35h29.77c1.85 0 3.35 1.5 3.35 3.35v5.52c0 1.85-1.5 3.35-3.35 3.35z" fill="#fff"/><path d="M846.241 855.67l-10.03-10.42-6.11-16.69c-.46-1.43.33-2.75 1.78-2.78 1.02-.01 1.94.63 2.38 1.63l7.22 14.99 8.71 6.24-8.71-6.24-5.19-13.84c-.42-1.16.26-2.25 1.3-2.43.95-.11 1.87.54 2.24 1.44l6.31 13.16 12.5 9.19-12.5-9.19-2.7-10.66c-.14-.78.39-1.47 1.15-1.44.59.01 1.2.44 1.44 1.15l4.74 11.23 11.06 9.22-15.59 5.44z" fill="#FB9C9C"/><path opacity=".15" d="M846.241 855.67l-10.03-10.42-6.11-16.69c-.46-1.43.33-2.75 1.78-2.78 1.02-.01 1.94.63 2.38 1.63l7.22 14.99 8.71 6.24-8.71-6.24-5.19-13.84c-.42-1.16.26-2.25 1.3-2.43.95-.11 1.87.54 2.24 1.44l6.31 13.16 12.5 9.19-12.5-9.19-2.7-10.66c-.14-.78.39-1.47 1.15-1.44.59.01 1.2.44 1.44 1.15l4.74 11.23 11.06 9.22-15.59 5.44z" fill="#000"/><path d="M841.96 857.651l22.33 9.74c1.28.53 2.4 1.47 3.34 2.54l26.47 32.74 17.92-19.23-25.3-23.16c-.89-.81-1.6-1.77-2.04-2.77l-.84-1.74c-2.83-7.04-7.78-12.37-14.4-15.15l-.07-.1c-.87-.39-1.72-.94-2.45-1.73-2.46-2.75-8.5-9.34-8.5-9.34-.35-.48-.94-.48-1.33-.2-1.81 1.34-2.31 4.06-.98 6.46l3.06 5.55c1.59 2.95.23 6.31-2.71 6.71l-12.6 1.48c-.78.14-1.59-.16-2.27-.68l-17.89-14.49c-.75-.62-1.84-.7-2.37-.02-.79.73-.66 2.1.14 2.99 3.95 4.16 16.21 16.61 19.17 19.43.37.49.75.8 1.32.97z" fill="#FB9C9C"/><path opacity=".15" d="M894.421 902.3l6.24-11.51c2.21-3.99 1.45-9.02-1.79-12.22l-14.97-14.73c-1.27-1.12-2.23-2.63-2.76-4.15-1.38-4.28-5-13.39-12.25-19.23.17.03.24.12.31.22l.07.1c6.61 2.78 11.57 8.11 14.4 15.15l.84 1.74c.51 1.09 1.21 2.05 2.04 2.77l25.3 23.16-17.43 18.7z" fill="#000"/><path d="M992.431 620.781c-5.06-1.32-9.89-5.05-11-10.14-.22-1.19-.73-2.92-.23-4.1-5.89 2.86-7.51 8.58-7.51 8.58h-14.59c1.14 11.03 9.67 17.03 9.67 17.03l.25 4.76c2.43.34 5.94.89 8.22.28 7.66-1.88 13.4-8.78 15.19-16.41z" fill="#F79898"/><path d="M998.231 671.471l-4.71-38.84s6.05-19.34 7.459-23.51c.99-2.93 3.54-11.87 3.82-17.06a2.059 2.059 0 00-3.16-1.85c-1.22.79-3.519 2.48-6.149 5.35-2.73 2.98-4.86 7.17-5.88 8.23-.18.18-.4.31-.65.36-2.19.45-4.58.67-7.77 2.39-.5 1.19.02 2.92.23 4.1 1.12 5.09 5.94 8.82 11 10.14-1.79 7.62-7.52 14.53-15.2 16.4-2.27.61-5.79.05-8.22-.28l1.29 38.24 27.94-3.67z" fill="#F79898"/><path opacity=".15" d="M999.5 591.73c-2.62 2.19-4.97 4.67-6.94 7.46-.91 1.29-1.72 2.64-2.49 4.01-.55.98-1.17.96-2.21 1.12-.73.12-1.45.27-2.17.45-6.08 1.53-11.51 6.07-12.56 12.44-.34.07-.76 6.26.09 8.9.39 1.23 2.28.54 1.88-.69-.69-2.15-.13-6.94-.07-7.38.86-6.59 6.8-10.74 13.01-11.72 1.47-.23 2.7-.37 3.54-1.74.84-1.37 1.57-2.78 2.5-4.09 1.87-2.65 4.07-5.04 6.56-7.12.98-.81-.15-2.46-1.14-1.64z" fill="#000"/><path d="M1026.16 864.021l-42.729-76.76a68.354 68.354 0 01-8.54-29.51l-4.58-82.61 27.93-3.67 18.449 86.52 47.69 49.38-38.22 56.65z" fill="#3F4249"/><path opacity=".15" d="M998.23 671.471l-6.36.83 28.05 141.67-15.11 11.69 4.11 7.4 21.39-13.57-32.08-148.02z" fill="#000"/><path d="M1007.08 793.991l1.72.79c12.52 5.51 27.03-.14 32.49-12.54l13.97-31.641c1.87-4.16-.06-8.969-4.22-10.839l-29.57-13.161c-5.4-2.36-11.72.061-14.08 5.451l-12.969 29.4c-5.36 12.46.25 27.07 12.659 32.54z" fill="#F49595"/><path d="M997.991 753.66s-4.41 2.96-6.53 5.28c-2.13 2.32 2.77 4.34 2.77 4.34l3.76-9.62zm16.659 39.04l12.05 29.25-13.99 8.86 17.76 4.2 32.36-34.32-10.5-25.2 6.02-42.44-40.11-7.35-3.59 67z" fill="#F49595"/><path opacity=".15" d="M1052.33 776.32c-1.17-1.61-2.26-3.94-3.2-7.02l-12.31 4c-.57-.17-1.11-.39-1.59-.69l5.49 7.74 11.61-4.03z" fill="#000"/><path d="M1001.83 741.276l-.78 2.001 39.77 15.614.79-2.002-39.78-15.613z" fill="#fff"/><path d="M997.201 753.06c.4 0 .79-.23.97-.62l8.369-17.86a1.075 1.075 0 10-1.95-.91l-8.359 17.86a1.075 1.075 0 00.97 1.53z" fill="#fff"/><path opacity=".3" d="M998.36 772.52c-3.23.8-5.79.15-5.96.11l.13-2.16c.04.01 4.05.98 7.41-.85a1.07 1.07 0 011.38.33c.37.53.2 1.27-.37 1.58-.85.46-1.73.78-2.59.99z" fill="#000"/><path d="M1124.23 838.71c-.77-10.23-22.14-14.11-28.28-21.77a49.663 49.663 0 00-24.42-16.41s-23.91 23.71-36.06 29.43c-5.45 2.57-22.76.84-22.76.84l-10.46 6.22a43.892 43.892 0 00-19.2 23.82l-2.029 6.1 42.769 47.38-27.48 66.4-3.659 60.7H1121.9l2.33-202.71z" fill="#3F4249"/><path opacity=".15" d="M1005.4 835.16s20.61 6.65 36.49-.15c19.25-8.24 34.05-32.23 34.05-32.23l-4.41-2.24s-29.97 27.66-36.06 29.43c-9.25 2.69-22.76.84-22.76.84l-7.31 4.35z" fill="#000"/><path d="M1023.79 914.34l-27.479 66.4c-4.96 8.46-13.69 12.84-22.46 12.84-7.34 0-14.73-3.08-19.98-9.4l-72.24-96.86 18.57-14.69 60.2 56.16 20.62-61.83 42.769 47.38z" fill="#3F4249"/><path d="M1030.59 732.824c12.3-1.997 21.14-10.563 19.75-19.133-1.4-8.57-12.49-13.898-24.79-11.901-12.3 1.997-21.14 10.564-19.75 19.133 1.39 8.57 12.49 13.899 24.79 11.901zm-17.88 97.986c29.42-25.39 33.39-36.97 25.92-57.04-1.34-3.6-2.32-7.93-1.27-12.2l-.51-.7c-.23-.31-.3-.71-.2-1.08 6.59-23.31 34.71-11.37 34.71-11.37l22.74 11.56 27.45 24.71-4.59 66.42-10.96 31.48-51.51-13.77c-.01 0-47.85-27.01-41.78-38.01z" fill="#21252B"/><path d="M1081.08 869.109c6.5-21.014-5.27-43.321-26.28-49.823-21.01-6.503-43.32 5.262-49.82 26.276-6.506 21.014 5.26 43.321 26.27 49.823 21.02 6.503 43.32-5.262 49.83-26.276z" fill="#21252B"/><path d="M1110.62 885.23c17.63 0 31.93-14.295 31.93-31.93 0-17.634-14.3-31.93-31.93-31.93s-31.93 14.296-31.93 31.93c0 17.635 14.3 31.93 31.93 31.93z" fill="#21252B"/><path d="M1105.31 838.94c17.11 0 30.98-13.87 30.98-30.979 0-17.11-13.87-30.981-30.98-30.981s-30.98 13.871-30.98 30.981c0 17.109 13.87 30.979 30.98 30.979zm-16.96-105.72c2.38-16.95-9.44-32.61-26.38-34.98-16.95-2.38-52.7 8.13-50.27 25.07 3.6 24.94 30.38 32.24 47.33 34.61 16.94 2.37 26.94-7.75 29.32-24.7z" fill="#21252B"/><path d="M1121.55 781.57s-13.67-7.52-20.59-16.71c-14.35-19.06-4.45-44.48-25.51-61.32-7.22-5.9-9.78 69.78-9.78 69.78l55.88 8.25zm.85 101.55s-25.28 25.091-83.08 13.711l21.67-32.81 61.41 19.099z" fill="#21252B"/><path d="M1042.19 754.71s4.84-5.32 10.13.25c6.05 6.38-2.48 22.65-15.49 18.34-6.82-2.26-3.88-5.49-.63-10.11l5.99-8.48z" fill="#F49595"/><path opacity=".3" d="M1050.86 759.51c-.92-1.4-2.01-2.23-3.24-2.45-1.23-.22-2.52.15-3.84 1.12-1.33.97-2.43 2.39-3.17 4.08l-.74 1.42c-.19.42.01.921.43 1.101.42.19.92-.011 1.1-.431l.74-1.42c.14-.41 1.32-2.469 2.63-3.399.95-.68 1.8-.961 2.55-.831.76.14 1.48.72 2.14 1.72.25.39.77.5 1.16.24.38-.24.49-.76.24-1.15z" fill="#000"/><path opacity=".15" d="M1016.33 796.771l5.77.599c1.48.15 1.93 2.09.67 2.88l-3.98 2.531-2.46-6.01zM996.311 980.74l29.389-71c.66-1.6 3.07-.8 2.64.88l-33.499 94.27 1.47-24.15z" fill="#000"/><path d="M621.69 1003.05l-2.79-5.16-3.45 1.73 6.24 3.43z" fill="#FA9B9B"/><path opacity=".15" d="M615.45 999.62l6.24 3.43-2.79-5.16" fill="#000"/><path d="M492.73 880.26c18.297 0 33.13-14.833 33.13-33.13 0-18.297-14.833-33.13-33.13-33.13-18.298 0-33.13 14.833-33.13 33.13 0 18.297 14.832 33.13 33.13 33.13z" fill="#263238"/><path d="M524.66 787.91s7.01 52.29-2.82 70.83-16.73-43.03-16.73-43.03l19.55-27.8z" fill="#263238"/><path d="M629.3 762.02c.76.45 1.48.94 2.23 1.41.73.48 1.45.98 2.16 1.49.71.51 1.54.88 2.1 1.56.57.67 1.08 1.4 1.37 2.39.02.06-.02.13-.08.15-.02.01-.04.01-.05 0-1.02-.16-1.81-.57-2.56-1.04-.75-.46-1.23-1.23-1.83-1.86-.6-.63-1.19-1.28-1.77-1.94-.57-.67-1.15-1.32-1.7-2.02-.04-.04-.03-.11.02-.14.03-.02.07-.02.11 0zm9.96 2.72c-.16-1.4-.27-2.8-.4-4.2l-.3-4.2c-.09-1.4-.35-2.8-.2-4.2.13-1.4.35-2.8.9-4.2.02-.06.08-.08.14-.06.03.01.05.03.06.06.55 1.4.77 2.8.9 4.2.15 1.4-.11 2.8-.2 4.2l-.3 4.2c-.13 1.4-.24 2.8-.4 4.2-.01.06-.06.1-.11.09a.135.135 0 01-.09-.09z" class="change-color-in-svg" fill="#44a7ef"/><path d="M1261.1 1008.09c0-14.41.52-25.52-5.73-45.48-6.25-19.96-7.12-38.54-7.12-41.66 0-3.12 0-3.65.87-5.03.87-1.38 0-3.47 0-3.47l-1-2.66h.49v-2.61s.41-2.73-2.38-2.73h-12.2c-2.8 0-2.38 2.73-2.38 2.73v2.61h.49l-1 2.66s-.87 2.08 0 3.47c.87 1.39.87 1.91.87 5.03 0 3.13-.87 21.7-7.12 41.66-6.25 19.96-5.73 31.07-5.73 45.48v37.18s-.17 7.81 7.29 7.81h27.26c7.47 0 7.39-7.81 7.39-7.81v-37.18z" fill="#3F4249"/><path d="M1255.38 962.6c-6.25-19.96-7.12-38.54-7.12-41.67 0-3.13 0-3.65.87-5.03.87-1.39 0-3.47 0-3.47l-1-2.66h.49v-2.61s.41-2.73-2.38-2.73h-5.48c2.8 0 2.38 2.73 2.38 2.73v2.61h-.49l1 2.66s.87 2.08 0 3.47c-.87 1.39-.87 1.91-.87 5.03s.87 21.7 7.12 41.67c6.25 19.96 5.73 31.07 5.73 45.48v37.18s.07 7.81-7.39 7.81h5.48c7.47 0 7.39-7.81 7.39-7.81v-37.18c-.01-14.4.51-25.51-5.73-45.48z" fill="#000"/><path d="M439.49 979.7l-16.29-10.36s4.53 3.66 12.2-.95l4.09 11.31z" fill="#83878E"/><path d="M399.09 879.26a1.47 1.47 0 100-2.94 1.47 1.47 0 000 2.94z" class="change-color-in-svg" fill="#44a7ef"/><path d="M404.79 879.26a1.47 1.47 0 100-2.94 1.47 1.47 0 000 2.94zm5.69 0a1.47 1.47 0 100-2.94 1.47 1.47 0 000 2.94z" fill="#21252B"/><path d="M957.451 879.68a1.47 1.47 0 10-.001-2.94 1.47 1.47 0 00.001 2.94z" class="change-color-in-svg" fill="#44a7ef"/><path d="M963.14 879.68a1.47 1.47 0 100-2.94 1.47 1.47 0 000 2.94zm5.7 0a1.47 1.47 0 100-2.94 1.47 1.47 0 000 2.94z" fill="#21252B"/><path d="M1234.63 733.05h-99.23c-5.26 0-9.52-4.26-9.52-9.52v-24.3c0-5.26 4.26-9.52 9.52-9.52h99.23c5.26 0 9.52 4.26 9.52 9.52v24.3c0 5.25-4.26 9.52-9.52 9.52z" class="change-color-in-svg" fill="#44a7ef"/><path d="M1161.52 717.87c3.58 0 6.49-2.906 6.49-6.49 0-3.585-2.91-6.49-6.49-6.49a6.492 6.492 0 00-6.49 6.49c0 3.584 2.91 6.49 6.49 6.49zm25.33 0c3.58 0 6.49-2.906 6.49-6.49 0-3.585-2.91-6.49-6.49-6.49a6.492 6.492 0 00-6.49 6.49c0 3.584 2.91 6.49 6.49 6.49zm25.32 0c3.58 0 6.49-2.906 6.49-6.49 0-3.585-2.91-6.49-6.49-6.49a6.492 6.492 0 00-6.49 6.49c0 3.584 2.91 6.49 6.49 6.49z" fill="#fff"/><path opacity=".6" d="M568.91 451.57h-35.77V684.4h35.77V451.57z" fill="#fff"/><path d="M559.55 470.03H542.5v17.05h17.05v-17.05z" class="change-color-in-svg" fill="#44a7ef"/><path d="M550.329 506.021h-6.8v8.519h6.8v-8.519zm8.19 8.11h-6.8v8.52h6.8v-8.52zm-8.19 1.72h-6.8v6.8h6.8v-6.8zm8.19-9.83h-6.8v6.8h6.8v-6.8zm1.031 142.87H542.5v17.05h17.05v-17.05z" fill="#61656D"/><path d="M551.389 663.091h-.72c-.24 0-.43-.19-.43-.43v-10.48c0-.24.19-.43.43-.43h.72c.24 0 .43.19.43.43v10.48c0 .23-.2.43-.43.43z" fill="#fff"/><path d="M556.69 657.061v.72c0 .24-.19.43-.43.43h-10.48c-.24 0-.43-.19-.43-.43v-.72c0-.24.19-.43.43-.43h10.48c.24 0 .43.19.43.43z" fill="#fff"/><path d="M546.02 555.73l-.62-.62c-.2-.2-.2-.53 0-.74l8.98-8.98c.2-.2.53-.2.74 0l.62.62c.2.2.2.53 0 .74l-8.98 8.98c-.21.2-.54.2-.74 0z" fill="#61656D"/><path d="M556.8 549.46l-5.13-5.13h5.13v5.13zm-13.84 35.03l8.07-5.8 8.06 5.8-8.06 5.43-8.07-5.43z" fill="#61656D"/><path d="M559.09 585.891l-8.06 5.44-8.07-5.44v1.52l8.07 5.65 8.06-5.61v-1.56zm-5.281 32.37c.09-.08.13-.19.13-.31v-1.95c0-.13-.04-.24-.13-.32a.438.438 0 00-.32-.13h-9.47c-.13 0-.24.04-.32.13-.09.09-.13.2-.13.32v1.95c0 .13.04.23.13.31.09.08.19.12.32.12h3.07v8.93c0 .13.04.23.13.31.09.08.19.12.32.12h2.43c.13 0 .24-.04.32-.12.09-.08.13-.19.13-.31v-8.93h3.07c.12 0 .23-.04.32-.12z" fill="#61656D"/><path d="M558.309 620a.627.627 0 00-.45-.18h-5.42c-.17 0-.33.06-.45.19-.12.12-.19.28-.19.45v1.12c0 .18.07.34.19.46.12.11.27.17.44.17h1.38v4.73c0 .18.07.34.2.46.12.11.27.17.44.17h1.39c.17 0 .32-.06.44-.17.13-.12.2-.28.2-.46v-4.73h1.38c.17 0 .32-.06.44-.17.13-.12.19-.28.19-.46v-1.12a.65.65 0 00-.18-.46z" fill="#61656D"/><path opacity=".6" d="M925.65 392.41H662.02v38.01h263.63v-38.01z" fill="#fff"/><path d="M799.66 399.95H676.64v22.92h123.02v-22.92z" fill="#fff"/><path d="M687.948 414.117c-.498 0-.929-.078-1.295-.234-.36-.155-.635-.359-.827-.611a1.463 1.463 0 01-.306-.827c0-.048.018-.09.054-.126a.198.198 0 01.144-.063h.458c.114 0 .192.06.234.18.054.252.207.468.459.647.258.18.617.27 1.079.27.497 0 .872-.087 1.123-.261a.864.864 0 00.378-.746.665.665 0 00-.189-.494c-.12-.126-.299-.237-.539-.333-.24-.096-.6-.216-1.079-.36-.468-.132-.839-.272-1.115-.422a1.614 1.614 0 01-.62-.558c-.138-.221-.207-.5-.207-.836 0-.323.087-.614.261-.872.18-.258.434-.458.764-.602.33-.15.722-.225 1.178-.225.467 0 .869.084 1.204.252.336.162.591.368.765.62.173.252.266.504.278.755 0 .048-.018.09-.054.126-.03.036-.075.054-.134.054h-.477c-.126 0-.204-.057-.234-.171-.036-.251-.177-.458-.422-.62-.246-.168-.555-.252-.926-.252-.408 0-.729.078-.962.234-.234.156-.351.387-.351.692a.77.77 0 00.162.504c.114.132.285.248.512.35.228.096.561.207.998.333.51.138.911.282 1.205.432.294.143.513.326.656.548.144.216.216.491.216.827 0 .558-.216.995-.647 1.313-.432.317-1.013.476-1.744.476z" fill="#61656D"/><path d="M722.759 399.88h-23.06v23.06h23.06v-23.06z" class="change-color-in-svg" fill="#44a7ef"/><path d="M707.981 413.359a.283.283 0 01-.193-.068.287.287 0 01-.068-.192v-7.405a.26.26 0 01.068-.192.263.263 0 01.193-.08h.567c.121 0 .219.061.294.182l2.393 4.58 2.415-4.58a.272.272 0 01.091-.125.322.322 0 01.193-.057h.555a.24.24 0 01.193.08c.053.045.079.109.079.192v7.405a.261.261 0 01-.079.192.283.283 0 01-.193.068h-.555a.283.283 0 01-.193-.068.282.282 0 01-.068-.192v-5.579l-1.894 3.696c-.075.159-.196.238-.363.238h-.351c-.166 0-.287-.079-.363-.238l-1.905-3.696v5.579a.261.261 0 01-.079.192.244.244 0 01-.182.068h-.555z" fill="#fff"/><path d="M732.818 414.027a.227.227 0 01-.153-.054.226.226 0 01-.054-.152v-5.88c0-.06.018-.108.054-.144a.208.208 0 01.153-.063h.477c.06 0 .107.021.143.063a.18.18 0 01.063.144v5.304h2.985a.19.19 0 01.153.063.19.19 0 01.063.153v.36c0 .059-.021.11-.063.152a.227.227 0 01-.153.054h-3.668zm19.307 0a.204.204 0 01-.135-.054.172.172 0 01-.054-.125c0-.042.012-.081.036-.117l2.059-2.904-1.96-2.796a.225.225 0 01-.027-.117c0-.048.018-.09.054-.126a.173.173 0 01.126-.054h.54c.09 0 .17.051.242.153l1.583 2.247 1.573-2.247c.06-.102.138-.153.234-.153h.512c.048 0 .09.018.126.054a.173.173 0 01.054.126c0 .054-.012.093-.036.117l-1.933 2.805 2.05 2.895a.207.207 0 01.036.117.172.172 0 01-.054.125.183.183 0 01-.135.054h-.548c-.09 0-.171-.051-.243-.152l-1.672-2.329-1.664 2.329c-.059.101-.137.152-.233.152h-.531zm6.274 0a.227.227 0 01-.153-.054.226.226 0 01-.054-.152v-5.88c0-.06.018-.108.054-.144a.208.208 0 01.153-.063h.477a.18.18 0 01.143.063.18.18 0 01.063.144v5.304h2.985a.19.19 0 01.153.063.19.19 0 01.063.153v.36c0 .059-.021.11-.063.152a.227.227 0 01-.153.054h-3.668zm18.004 0a.204.204 0 01-.135-.054.172.172 0 01-.054-.125c0-.042.012-.081.036-.117l2.059-2.904-1.96-2.796a.225.225 0 01-.027-.117c0-.048.018-.09.054-.126a.173.173 0 01.126-.054h.539c.09 0 .171.051.243.153l1.582 2.247 1.573-2.247c.06-.102.138-.153.234-.153h.513c.048 0 .09.018.125.054a.173.173 0 01.054.126c0 .054-.012.093-.036.117l-1.933 2.805 2.05 2.895a.207.207 0 01.036.117.172.172 0 01-.054.125.182.182 0 01-.134.054h-.549c-.09 0-.171-.051-.243-.152l-1.672-2.329-1.663 2.329c-.06.101-.138.152-.234.152h-.53zm5.689 0a.204.204 0 01-.135-.054.172.172 0 01-.054-.125c0-.042.012-.081.036-.117l2.059-2.904-1.96-2.796a.225.225 0 01-.027-.117c0-.048.018-.09.054-.126a.173.173 0 01.126-.054h.539c.09 0 .171.051.243.153l1.582 2.247 1.574-2.247c.06-.102.138-.153.234-.153h.512c.048 0 .09.018.126.054a.173.173 0 01.054.126c0 .054-.012.093-.036.117l-1.933 2.805 2.05 2.895a.207.207 0 01.036.117.172.172 0 01-.054.125.183.183 0 01-.135.054h-.549c-.089 0-.17-.051-.242-.152l-1.673-2.329-1.663 2.329c-.06.101-.138.152-.234.152h-.53zm6.274 0a.227.227 0 01-.153-.054.226.226 0 01-.054-.152v-5.88c0-.06.018-.108.054-.144a.208.208 0 01.153-.063h.476a.18.18 0 01.144.063.18.18 0 01.063.144v5.304h2.985a.19.19 0 01.153.063.19.19 0 01.063.153v.36c0 .059-.021.11-.063.152a.227.227 0 01-.153.054h-3.668z" fill="#61656D"/><path d="M746.319 405.06h-1v12.71h1v-12.71zm23.061 0h-1v12.71h1v-12.71z" fill="#B2B6BB"/><path d="M819.069 417.15a5.74 5.74 0 100-11.48 5.74 5.74 0 000 11.48z" class="change-color-in-svg" fill="#44a7ef"/><path opacity=".2" d="M819.069 417.15a5.74 5.74 0 100-11.48 5.74 5.74 0 000 11.48z" fill="#fff"/><path d="M840.06 401.26h-1v20.31h1v-20.31z" fill="#B2B6BB"/><path d="M833.899 410.04l-2.74 2.75-2.75-2.75h5.49zm18.63 6.67c.4-.05.7-.15.89-.29.19-.15.35-.45.48-.91l2.07-7.55c.06-.21.11-.39.14-.54.03-.15.04-.27.04-.38 0-.29-.08-.46-.24-.54-.16-.08-.49-.13-.99-.18v-.44h5.01v.44c-.41.05-.71.15-.89.3-.18.14-.34.45-.46.91l-2.08 7.55-.13.58c-.01.05-.02.11-.03.17-.01.06-.01.11-.01.16 0 .28.08.46.23.54.15.08.48.14.99.18v.44h-5.01v-.44h-.01z" fill="#61656D"/><path d="M872.17 406.74h10.8m-10.8 10.09h10.8m-10.8-5.05h10.8m-8.75 2.531h6.7m-6.91-5.241h7.13m20.89 6.2h-3.78c-1.93 0-3.49-1.56-3.49-3.49 0-1.93 1.56-3.49 3.49-3.49h3.78m1.539 6.98h3.78c1.93 0 3.49-1.56 3.49-3.49 0-1.93-1.56-3.49-3.49-3.49h-3.78m-4.009 3.49h6.48" stroke="#61656D" stroke-width="1.5" stroke-miterlimit="10"/><path d="M1035.07 358.84c-.03-.22-.28-.39-.51-.39-.95.02-1.75-.74-1.77-1.69-.01-.51.2-.99.58-1.33.17-.15.19-.42.05-.6-.37-.46-.79-.89-1.25-1.26a.447.447 0 00-.6.05c-.5.53-1.28.7-1.96.44-.68-.29-1.1-.97-1.06-1.71a.447.447 0 00-.39-.46c-.59-.07-1.18-.07-1.77 0-.23.03-.4.22-.39.45.03.73-.4 1.4-1.08 1.68-.68.25-1.44.08-1.95-.44a.434.434 0 00-.59-.05c-.47.37-.9.79-1.27 1.26-.14.18-.12.44.05.6.55.49.73 1.28.44 1.97-.31.66-.98 1.08-1.71 1.06a.43.43 0 00-.45.39c-.07.59-.07 1.19 0 1.79.02.23.29.39.51.39.71-.01 1.35.42 1.62 1.08.27.68.1 1.45-.44 1.94-.17.15-.19.41-.05.59.37.47.78.89 1.24 1.26.18.15.44.13.6-.05.5-.53 1.28-.71 1.96-.44.68.29 1.1.97 1.06 1.71-.01.23.16.43.39.46.3.03.6.05.91.05.29 0 .58-.02.86-.05.23-.03.4-.22.39-.45-.03-.73.4-1.4 1.07-1.68.68-.25 1.44-.08 1.94.45.15.17.41.19.59.05.47-.37.9-.79 1.27-1.26.15-.18.13-.44-.05-.6-.72-.63-.79-1.72-.15-2.44.33-.38.82-.59 1.32-.59h.1c.23.01.43-.16.46-.39.09-.6.09-1.2.03-1.79zm-7.8 3.51c-1.45 0-2.62-1.17-2.62-2.62 0-1.45 1.17-2.62 2.62-2.62 1.45 0 2.62 1.17 2.62 2.62 0 1.44-1.17 2.62-2.62 2.62zm20.62 3.34c.69 0 1.24-.555 1.24-1.24 0-.685-.55-1.24-1.24-1.24-.68 0-1.24.555-1.24 1.24 0 .685.56 1.24 1.24 1.24zm0-4.721c.69 0 1.24-.555 1.24-1.24 0-.685-.55-1.24-1.24-1.24-.68 0-1.24.555-1.24 1.24 0 .685.56 1.24 1.24 1.24zm0-4.719c.69 0 1.24-.556 1.24-1.24 0-.685-.55-1.24-1.24-1.24-.68 0-1.24.555-1.24 1.24 0 .684.56 1.24 1.24 1.24z" fill="#fff"/><path d="M820.15 557.531H712.13a2.68 2.68 0 01-2.68-2.68v-33.58c0-1.48 1.2-2.68 2.68-2.68h108.02c1.48 0 2.68 1.2 2.68 2.68v33.58c0 1.48-1.2 2.68-2.68 2.68z" class="change-color-in-svg" fill="#44a7ef"/><path opacity=".2" d="M820.15 557.531H712.13a2.68 2.68 0 01-2.68-2.68v-33.58c0-1.48 1.2-2.68 2.68-2.68h108.02c1.48 0 2.68 1.2 2.68 2.68v33.58c0 1.48-1.2 2.68-2.68 2.68z" fill="#fff"/><path d="M801.28 529.541h-79.07c-1.28 0-2.33-1.04-2.33-2.33 0-1.28 1.04-2.33 2.33-2.33h79.07c1.28 0 2.33 1.04 2.33 2.33-.02 1.29-1.05 2.33-2.33 2.33z" class="change-color-in-svg" fill="#44a7ef"/><path opacity=".15" d="M752.46 551.231h-29.28c-1.82 0-3.29-1.47-3.29-3.29v-5.43c0-1.82 1.47-3.29 3.29-3.29h29.28c1.82 0 3.29 1.47 3.29 3.29v5.43c0 1.82-1.47 3.29-3.29 3.29z" fill="#fff"/><path opacity=".5" d="M801.28 529.541h-79.07c-1.28 0-2.33-1.04-2.33-2.33 0-1.28 1.04-2.33 2.33-2.33h79.07c1.28 0 2.33 1.04 2.33 2.33-.02 1.29-1.05 2.33-2.33 2.33z" fill="#fff"/><path d="M752.461 551.231h-29.28c-1.82 0-3.29-1.47-3.29-3.29v-5.43c0-1.82 1.47-3.29 3.29-3.29h29.28c1.82 0 3.29 1.47 3.29 3.29v5.43c0 1.82-1.47 3.29-3.29 3.29z" class="change-color-in-svg" fill="#44a7ef"/><path opacity=".15" d="M752.461 551.231h-29.28c-1.82 0-3.29-1.47-3.29-3.29v-5.43c0-1.82 1.47-3.29 3.29-3.29h29.28c1.82 0 3.29 1.47 3.29 3.29v5.43c0 1.82-1.47 3.29-3.29 3.29z" fill="#fff"/><path d="M752.461 551.231h-29.28c-1.82 0-3.29-1.47-3.29-3.29v-5.43c0-1.82 1.47-3.29 3.29-3.29h29.28c1.82 0 3.29 1.47 3.29 3.29v5.43c0 1.82-1.47 3.29-3.29 3.29z" fill="#fff"/><path d="M730.85 504.3H622.83a2.68 2.68 0 01-2.68-2.68v-33.58c0-1.48 1.2-2.68 2.68-2.68h108.02c1.48 0 2.68 1.2 2.68 2.68v33.58c0 1.48-1.2 2.68-2.68 2.68z" class="change-color-in-svg" fill="#44a7ef"/><path opacity=".5" d="M730.85 504.3H622.83a2.68 2.68 0 01-2.68-2.68v-33.58c0-1.48 1.2-2.68 2.68-2.68h108.02c1.48 0 2.68 1.2 2.68 2.68v33.58c0 1.48-1.2 2.68-2.68 2.68z" fill="#fff"/><path d="M730.85 663.97H622.83a2.68 2.68 0 01-2.68-2.68v-33.589c0-1.48 1.2-2.68 2.68-2.68h108.02c1.48 0 2.68 1.2 2.68 2.68v33.58c0 1.49-1.2 2.689-2.68 2.689z" class="change-color-in-svg" fill="#44a7ef"/><path opacity=".5" d="M730.85 663.97H622.83a2.68 2.68 0 01-2.68-2.68v-33.589c0-1.48 1.2-2.68 2.68-2.68h108.02c1.48 0 2.68 1.2 2.68 2.68v33.58c0 1.49-1.2 2.689-2.68 2.689z" fill="#fff"/><path d="M711.97 635.98H632.9c-1.28 0-2.33-1.04-2.33-2.33 0-1.28 1.04-2.33 2.33-2.33h79.07c1.28 0 2.33 1.04 2.33 2.33a2.339 2.339 0 01-2.33 2.33zm18.88-24.92H622.83a2.68 2.68 0 01-2.68-2.68V574.8c0-1.48 1.2-2.68 2.68-2.68h108.02c1.48 0 2.68 1.2 2.68 2.68v33.58c0 1.48-1.2 2.68-2.68 2.68z" class="change-color-in-svg" fill="#44a7ef"/><path opacity=".5" d="M730.85 611.06H622.83a2.68 2.68 0 01-2.68-2.68V574.8c0-1.48 1.2-2.68 2.68-2.68h108.02c1.48 0 2.68 1.2 2.68 2.68v33.58c0 1.48-1.2 2.68-2.68 2.68z" fill="#fff"/><path d="M633.43 588.4h-3.84c-.99 0-1.8-.8-1.8-1.8v-3.84c0-.99.8-1.8 1.8-1.8h3.84c.99 0 1.8.8 1.8 1.8v3.84c0 .99-.81 1.8-1.8 1.8z" class="change-color-in-svg" fill="#44a7ef"/><path opacity=".7" d="M633.43 588.4h-3.84c-.99 0-1.8-.8-1.8-1.8v-3.84c0-.99.8-1.8 1.8-1.8h3.84c.99 0 1.8.8 1.8 1.8v3.84c0 .99-.81 1.8-1.8 1.8z" fill="#fff"/><path d="M633.43 602.22h-3.84c-.99 0-1.8-.8-1.8-1.8v-3.84c0-.99.8-1.8 1.8-1.8h3.84c.99 0 1.8.8 1.8 1.8v3.84c0 1-.81 1.8-1.8 1.8zm60.6-15.74h-51.69a1.81 1.81 0 110-3.62h51.69a1.81 1.81 0 110 3.62zm0 13.83h-51.69a1.81 1.81 0 110-3.62h51.69a1.81 1.81 0 110 3.62z" class="change-color-in-svg" fill="#44a7ef"/><path opacity=".7" d="M694.03 586.48h-51.69a1.81 1.81 0 110-3.62h51.69a1.81 1.81 0 110 3.62zm0 13.83h-51.69a1.81 1.81 0 110-3.62h51.69a1.81 1.81 0 110 3.62z" fill="#fff"/><path d="M724.09 586.48h-14.23a1.81 1.81 0 110-3.62h14.23a1.81 1.81 0 110 3.62zm0 13.83h-14.23a1.81 1.81 0 110-3.62h14.23a1.81 1.81 0 110 3.62zm-86.05 57.36a7.46 7.46 0 110-14.92 7.46 7.46 0 010 14.92zm.91-163.29c-5.27 0-9.55-4.28-9.55-9.55 0-5.27 4.28-9.55 9.55-9.55 5.27 0 9.55 4.28 9.55 9.55 0 5.28-4.27 9.55-9.55 9.55zm82.81 161.54H697.7c-1.82 0-3.29-1.47-3.29-3.29v-5.43c0-1.82 1.47-3.29 3.29-3.29h24.07c1.82 0 3.29 1.47 3.29 3.29v5.43c0 1.82-1.48 3.29-3.3 3.29z" class="change-color-in-svg" fill="#44a7ef"/><path opacity=".7" d="M721.76 655.92H697.7c-1.82 0-3.29-1.47-3.29-3.29v-5.43c0-1.82 1.47-3.29 3.29-3.29h24.07c1.82 0 3.29 1.47 3.29 3.29v5.43c0 1.82-1.48 3.29-3.3 3.29z" fill="#fff"/><path d="M685.43 655.92h-29.28c-1.82 0-3.29-1.47-3.29-3.29v-5.43c0-1.82 1.47-3.29 3.29-3.29h29.28c1.82 0 3.29 1.47 3.29 3.29v5.43c0 1.82-1.47 3.29-3.29 3.29z" class="change-color-in-svg" fill="#44a7ef"/><path opacity=".7" d="M685.43 655.92h-29.28c-1.82 0-3.29-1.47-3.29-3.29v-5.43c0-1.82 1.47-3.29 3.29-3.29h29.28c1.82 0 3.29 1.47 3.29 3.29v5.43c0 1.82-1.47 3.29-3.29 3.29z" fill="#fff"/><path d="M719.461 490.84h-56.2c-1.82 0-3.29-1.47-3.29-3.29v-5.43c0-1.82 1.47-3.29 3.29-3.29h56.2c1.82 0 3.29 1.47 3.29 3.29v5.43a3.28 3.28 0 01-3.29 3.29z" class="change-color-in-svg" fill="#44a7ef"/><path opacity=".7" d="M719.461 490.84h-56.2c-1.82 0-3.29-1.47-3.29-3.29v-5.43c0-1.82 1.47-3.29 3.29-3.29h56.2c1.82 0 3.29 1.47 3.29 3.29v5.43a3.28 3.28 0 01-3.29 3.29z" fill="#fff"/><path d="M890.3 579.711H766.2c-.28 0-.5-.22-.5-.5V559.98c0-.28.22-.5.5-.5s.5.22.5.5v18.731h123.6c.28 0 .5.22.5.5s-.22.5-.5.5z" fill="#61656D"/><path d="M822.831 565c7.605 0 13.77-6.165 13.77-13.77 0-7.605-6.165-13.77-13.77-13.77-7.605 0-13.77 6.165-13.77 13.77 0 7.605 6.165 13.77 13.77 13.77z" fill="#3F4249"/><path d="M829.1 549.791c0 3.71-5.82 7.25-6.08 7.39-.06.04-.14.06-.2.06s-.14-.02-.2-.06c-.25-.14-6.08-3.69-6.08-7.39 0-1.94 1.59-3.53 3.53-3.53 1.08 0 2.08.49 2.74 1.31.67-.82 1.67-1.31 2.74-1.31 1.96 0 3.55 1.59 3.55 3.53z" fill="#fff"/><path d="M888.721 585.121l5.91-5.91-5.91-5.91v11.82z" fill="#61656D" stroke="#61656D" stroke-miterlimit="10" stroke-linecap="round" stroke-linejoin="round"/><path d="M1040.43 772.34a1.52 1.52 0 100-3.04 1.52 1.52 0 000 3.04z" fill="#3F4249"/><path d="M1040.43 769.3c-.09 0-.17.01-.25.03.72.12 1.27.74 1.27 1.49s-.55 1.37-1.27 1.49c.08.01.16.03.25.03a1.52 1.52 0 100-3.04z" fill="#000"/><path d="M544.26 389.86c-7.46 0-13.51-6.05-13.51-13.51s6.05-13.51 13.51-13.51 13.51 6.05 13.51 13.51c-.01 7.46-6.05 13.51-13.51 13.51z" fill="#fff"/><path d="M544.26 376.74c-2.02 0-3.7-1.54-3.88-3.54l-.26-2.81c-.21-2.28 1.59-4.26 3.88-4.26h.52c2.3 0 4.09 1.97 3.88 4.26l-.26 2.81a3.9 3.9 0 01-3.88 3.54zm11.44 6.79c-.54.86-1.18 1.66-1.89 2.37-2.45 2.44-5.82 3.96-9.55 3.96-4.82 0-9.05-2.52-11.44-6.33.66-3 3.35-5.25 6.55-5.25h9.78c3.21 0 5.88 2.25 6.55 5.25z" class="change-color-in-svg" fill="#44a7ef"/><path d="M578.13 389.86c-7.46 0-13.51-6.05-13.51-13.51s6.05-13.51 13.51-13.51 13.51 6.05 13.51 13.51c-.01 7.46-6.06 13.51-13.51 13.51z" fill="#fff"/><path d="M578.129 376.74c-2.02 0-3.7-1.54-3.88-3.54l-.26-2.81c-.21-2.28 1.59-4.26 3.88-4.26h.52c2.3 0 4.09 1.97 3.88 4.26l-.26 2.81a3.907 3.907 0 01-3.88 3.54zm11.431 6.79c-.54.86-1.18 1.66-1.89 2.37-2.45 2.44-5.82 3.96-9.55 3.96-4.82 0-9.05-2.52-11.44-6.33.66-3 3.35-5.25 6.55-5.25h9.78c3.21 0 5.89 2.25 6.55 5.25z" fill="#3F4249"/></svg>