<svg height="512pt" viewBox="0 0 512 512.001" width="512pt" xmlns="http://www.w3.org/2000/svg"><g fill-rule="evenodd"><path d="M30 50h452V30c0-11-9-20-20-20H50c-11 0-20 9-20 20zm0 0" fill="#cdd3e0"/><path d="M482 50H30v269.996h252.648V242c0-5.5 2.25-10.5 5.875-14.125S297.148 222 302.648 222h119.348c11 0 20 9 20 20v77.996H482zm0 0" fill="#99ebfb"/><path d="M421.996 222H302.648c-5.5 0-10.5 2.25-14.125 5.875s-5.875 8.625-5.875 14.125v240c0 11 9 20 20 20h119.348c11 0 20-9 20-20V242c0-11-9-20-20-20zm0 0" fill="#cfcdf5"/><path d="M441.996 319.996H482v40h-40.004zm0 0" fill="#cdd3e0"/><path d="M482 359.996h-40.004v50H482c11 0 20-9 20-20v-30zm0 0" fill="#8690af"/><path d="M282.648 369.996v-50H30v40h166c0 5.5 4.5 10 10 10zm0 0" fill="#cdd3e0"/><path d="M282.648 369.996H206c-5.5 0-10-4.5-10-10H10v30c0 11 9 20 20 20h252.648zm0 0" fill="#8690af"/></g><path d="M502 349.996h-10V30c0-16.543-13.46-30-30-30H50C33.457 0 20 13.457 20 30v319.996H10c-5.523 0-10 4.48-10 10v30c0 16.543 13.457 30 30 30h242.648V482c0 16.543 13.457 30 30 30h119.348c16.543 0 30-13.457 30-30v-62.004H482c16.543 0 30-13.457 30-30v-30c0-5.52-4.477-10-10-10zm-50.004 0v-20H472v20zM50 20h412c5.512 0 10 4.484 10 10v10H40V30c0-5.516 4.484-10 10-10zM40 329.996h10c5.523 0 10-4.476 10-10 0-5.523-4.477-10-10-10H40V60h432v249.996h-20.004V242c0-16.543-13.457-30-30-30H302.648a29.798 29.798 0 00-12.925 2.934L246.789 172h15.856c5.523 0 10-4.477 10-10s-4.477-10-10-10h-39.997c-5.523 0-10 4.477-10 10v40c0 5.52 4.477 10 10 10 5.52 0 10-4.48 10-10v-15.86l42.934 42.934A29.811 29.811 0 00272.648 242v67.996H140c-5.523 0-10 4.477-10 10 0 5.524 4.477 10 10 10h132.648v30H206c0-5.52-4.477-10-10-10H40zm-10 70c-5.516 0-10-4.484-10-10v-20h168.684c3.464 5.977 9.93 10 17.316 10h66.648v20zM431.996 482c0 5.516-4.484 10-10 10H302.648c-5.515 0-10-4.484-10-10V246.14l45.86 45.86h-15.86c-5.52 0-10 4.477-10 10s4.48 10 10 10h40c5.524 0 10-4.477 10-10v-39.996c0-5.524-4.476-10-10-10-5.523 0-10 4.476-10 10v15.855L306.79 232h115.207c5.516 0 10 4.488 10 10zM492 389.996c0 5.516-4.488 10-10 10h-30.004v-30H492zm0 0"/><path d="M362.328 462h-.008c-5.523 0-9.996 4.477-9.996 10 0 5.52 4.48 10 10.004 10s10-4.48 10-10c0-5.523-4.476-10-10-10zM387 100.004h54.996c5.524 0 10-4.477 10-10 0-5.524-4.476-10-10-10h-54.992c-5.524 0-10 4.476-10 10-.004 5.523 4.473 10 9.996 10zm-44.996 0c5.523 0 10-4.477 10-10 0-5.524-4.477-10-10-10H342c-5.523 0-10 4.476-10 10 0 5.523 4.48 10 10.004 10zm-247 209.992h-.008c-5.523 0-9.996 4.477-9.996 10 0 5.524 4.48 10 10.004 10 5.523 0 10-4.476 10-10 0-5.523-4.477-10-10-10zm0 0"/></svg>