<svg height="512" viewBox="0 0 128 128" width="512" xmlns="http://www.w3.org/2000/svg"><path d="M119.337 13.151H67V7.25a1 1 0 00-2 0v5.9H12.663a5.006 5.006 0 00-5 5v95.7a5.006 5.006 0 005 5H65v5.9a1 1 0 002 0v-5.9h52.337a5.006 5.006 0 005-5v-95.7a5.006 5.006 0 00-5-4.999z" fill="#e6e7e8"/><path d="M4.663 26.163h114.674v83.687a4 4 0 01-4 4H8.663a4 4 0 01-4-4V26.163z" fill="#d4fbff"/><path d="M62 113.849h53.337a4 4 0 004-4V26.163H62z" fill="#ffd7e5"/><path d="M4.663 14.151v12.012h114.674V14.151a4 4 0 00-4-4H8.663a4 4 0 00-4 4z" fill="#0089ef"/><path d="M115.337 10.151H62v16.012h57.337V14.151a4 4 0 00-4-4z" fill="#fa759e"/><path d="M115.337 10.151H8.663a4 4 0 00-4 4v3a4 4 0 014-4h106.674a4 4 0 014 4v-3a4 4 0 00-4-4z" fill="#fff"/><circle cx="40.281" cy="18.579" fill="#fff" r="3.257"/><circle cx="28.45" cy="18.579" fill="#d4fbff" r="3.257"/><circle cx="16.618" cy="18.579" fill="#fa759e" r="3.257"/><path d="M42.821 60.5h-6.809a1 1 0 010-2h6.809a1 1 0 010 2zm-12.809 0H13.179a1 1 0 010-2h16.833a1 1 0 010 2zm12.809 21H32.512a1 1 0 010-2h10.309a1 1 0 010 2zm-14.309 0H13.179a1 1 0 010-2h15.333a1 1 0 010 2zm14.309 21H32.512a1 1 0 010-2h10.309a1 1 0 010 2zm-14.309 0H13.179a1 1 0 010-2h15.333a1 1 0 010 2z" fill="#fa759e"/><rect fill="#6dc9f7" height="41.953" rx="2" transform="rotate(90 90 45.168)" width="19.6" x="80.2" y="24.192"/><rect fill="#d4fbff" height="41.953" rx="2" transform="rotate(90 90 74.802)" width="28.817" x="75.591" y="53.825"/><g fill="#3a2c60"><path d="M22.423 50.511a1.251 1.251 0 00.924-.372 1.282 1.282 0 00.372-.948 1.1 1.1 0 00-.18-.612 1.132 1.132 0 00-.516-.42l-7.848-3.144 7.848-3.144a1.062 1.062 0 00.7-1.032 1.268 1.268 0 00-.36-.936 1.236 1.236 0 00-.912-.36 1.852 1.852 0 00-.7.145l-8.472 3.456a1.965 1.965 0 00-.936.743 1.991 1.991 0 00-.336 1.128 1.97 1.97 0 00.336 1.14 2.15 2.15 0 00.936.756l8.472 3.456a1.817 1.817 0 00.672.144zm3.84 3.189a1.448 1.448 0 00.828-.252 1.306 1.306 0 00.515-.756l5.521-17.279a1.926 1.926 0 00.071-.5 1.2 1.2 0 00-.431-.948 1.5 1.5 0 00-1.008-.372 1.394 1.394 0 00-1.345 1.007l-5.5 17.28a1.875 1.875 0 00-.072.5 1.2 1.2 0 00.431.949 1.472 1.472 0 00.99.371zm8.268-5.121a1.1 1.1 0 00-.18.612 1.282 1.282 0 00.372.948 1.248 1.248 0 00.923.372 1.813 1.813 0 00.672-.144l8.473-3.456a2.156 2.156 0 00.936-.756 1.969 1.969 0 00.335-1.14 1.99 1.99 0 00-.335-1.128 1.97 1.97 0 00-.936-.743l-8.473-3.456a1.843 1.843 0 00-.7-.145 1.236 1.236 0 00-.912.36 1.268 1.268 0 00-.36.936 1.062 1.062 0 00.7 1.032l7.854 3.144-7.848 3.144a1.122 1.122 0 00-.521.42zm84.806-6.6a1 1 0 00-1 1V51.5a1 1 0 002 0v-8.521a1 1 0 00-1-1z"/><path d="M115.337 9.151H63V3.25a1 1 0 00-2 0v5.9H8.663a5.006 5.006 0 00-5 5v95.7a5.006 5.006 0 005 5H61v5.9a1 1 0 002 0v-5.9h52.337a5.006 5.006 0 005-5V55.667a1 1 0 00-2 0v54.182a3 3 0 01-3 3H63V27.163h55.337v11.38a1 1 0 002 0V14.151a5.006 5.006 0 00-5-5zm-109.674 5a3 3 0 013-3H61v14.012H5.663zm3 98.7a3 3 0 01-3-3V27.163H61V65.5h-9.489a1 1 0 100 2H61v5H20.179a1 1 0 000 2H61v12H41.511a1 1 0 100 2H61v5H47.6a1 1 0 100 2H61v17.349zM63 25.163V11.151h52.337a3 3 0 013 3v11.012z"/><path d="M45.345 65.5H20.179a1 1 0 000 2h25.166a1 1 0 000-2zm-25.166 23h15.166a1 1 0 000-2H20.179a1 1 0 000 2zm22.333 5H20.179a1 1 0 000 2h22.333a1 1 0 000-2zm69.465-56.132a3 3 0 00-3-3H71.024a3 3 0 00-3 3v15.6a3 3 0 003 3h37.953a3 3 0 003-3zm-2 15.6a1 1 0 01-1 1H71.024a1 1 0 01-1-1v-15.6a1 1 0 011-1h37.953a1 1 0 011 1zm2 34.242V62.393a3 3 0 00-3-3H71.024a3 3 0 00-3 3V87.21a3 3 0 003 3h37.953a3 3 0 003-3zM71.024 61.393h37.953a1 1 0 011 1v15.326l-5.394-3.865a1 1 0 00-1.213.036l-5.565 4.51-14.044-10.371a1 1 0 00-1.2.011l-12.535 9.6V62.393a1 1 0 01.998-1zm37.953 26.817H71.024a1 1 0 01-1-1v-7.05l13.153-10.075 14.062 10.386a1 1 0 001.224-.028l5.575-4.519 5.939 4.256v7.03a1 1 0 01-1 1z"/><path d="M97.25 72.583a4.5 4.5 0 10-4.5-4.5 4.5 4.5 0 004.5 4.5zm0-7a2.5 2.5 0 11-2.5 2.5 2.5 2.5 0 012.5-2.5zM109.291 95.2H70.71a1 1 0 100 2h38.581a1 1 0 000-2zm0 8.432H70.71a1 1 0 100 2h38.581a1 1 0 000-2z"/></g></svg>