<svg height="512" width="512" xmlns="http://www.w3.org/2000/svg"><path d="M146.902 7.5h282.846v497H146.902z" fill="#665e66"/><path d="M410.555 7.5h19.193v497h-19.193z" fill="#544f57"/><path d="M146.902 474.195V37.805h70.16l9.31 20.482a20.204 20.204 0 0018.392 11.843h87.12a20.203 20.203 0 0018.392-11.843l9.31-20.482h70.16v436.39z" fill="#90d8f9"/><path d="M324.691 106.496H146.902v197.992h109.647l52.081 52.081c8.909 8.909 24.142 2.599 24.142-10v-42.936c17.299-3.721 30.305-19.135 30.305-37.53v-121.22c0-21.201-17.186-38.387-38.386-38.387zm85.864-68.691h19.193v436.39h-19.193z" fill="#75cef9"/><path d="M324.691 124.679H102.455c-11.158 0-20.203 9.045-20.203 20.203v121.22c0 11.158 9.045 20.203 20.203 20.203h161.626l50.508 50.508v-50.508h10.102c11.158 0 20.203-9.045 20.203-20.203v-121.22c0-11.158-9.045-20.203-20.203-20.203z" fill="#f4dd45"/><path d="M193.37 382.27h40.407v40.407H193.37z" fill="#e27a66"/><path d="M268.122 382.27h40.407v40.407h-40.407z" fill="#aad540"/><path d="M342.874 382.27h40.407v40.407h-40.407z" fill="#a2f4c1"/><circle cx="260.041" cy="35.785" r="10.102"/><path d="M287.315 43.285h39.396c4.143 0 7.5-3.358 7.5-7.5s-3.357-7.5-7.5-7.5h-39.396a7.5 7.5 0 000 15zM132.76 147.484a7.5 7.5 0 00-7.5 7.5v80.813c0 15.275 12.428 27.703 27.704 27.703h20.203c15.275 0 27.703-12.428 27.703-27.703v-80.813c0-4.142-3.357-7.5-7.5-7.5s-7.5 3.358-7.5 7.5v80.813c0 7.004-5.698 12.703-12.703 12.703h-20.203c-7.005 0-12.704-5.699-12.704-12.703v-80.813a7.5 7.5 0 00-7.5-7.5zm97.158 114.947a7.494 7.494 0 0010.29-2.572l23.873-39.789 23.873 39.789a7.496 7.496 0 0010.29 2.572 7.5 7.5 0 002.573-10.29l-27.989-46.649 27.989-46.649a7.5 7.5 0 00-12.863-7.718l-23.873 39.789-23.873-39.789a7.501 7.501 0 00-12.863 7.718l27.989 46.649-27.989 46.649a7.5 7.5 0 002.573 10.29zm-36.548 112.34a7.5 7.5 0 00-7.5 7.5v40.406a7.5 7.5 0 007.5 7.5h40.406a7.5 7.5 0 007.5-7.5v-40.406a7.5 7.5 0 00-7.5-7.5zm32.906 40.406H200.87v-25.406h25.406zm82.252-40.406h-40.406a7.5 7.5 0 00-7.5 7.5v40.406a7.5 7.5 0 007.5 7.5h40.406a7.5 7.5 0 007.5-7.5v-40.406c0-4.143-3.357-7.5-7.5-7.5zm-7.5 40.406h-25.406v-25.406h25.406zm41.846-40.406a7.5 7.5 0 00-7.5 7.5v40.406a7.5 7.5 0 007.5 7.5h40.406a7.5 7.5 0 007.5-7.5v-40.406a7.5 7.5 0 00-7.5-7.5zm32.906 40.406h-25.406v-25.406h25.406z"/><path d="M437.248 474.195c0-.76-.115-1.492-.325-2.184V155.583c0-4.142-3.357-7.5-7.5-7.5s-7.5 3.358-7.5 7.5v311.112H154.077V365.667c0-4.142-3.357-7.5-7.5-7.5s-7.5 3.358-7.5 7.5V504.5a7.5 7.5 0 007.5 7.5h282.846a7.5 7.5 0 007.5-7.5v-28.121c.21-.691.325-1.424.325-2.184zM154.077 497v-15.305h267.846V497z"/><path d="M139.08 330.44c0 4.142 3.357 7.5 7.5 7.5s7.5-3.358 7.5-7.5v-36.635h106.895l48.312 48.312a7.502 7.502 0 008.174 1.626 7.5 7.5 0 004.63-6.929v-43.008h2.602c15.275 0 27.703-12.428 27.703-27.703V144.882c0-15.276-12.428-27.704-27.703-27.704H231.5c-4.143 0-7.5 3.358-7.5 7.5s3.357 7.5 7.5 7.5h93.191c7.005 0 12.703 5.699 12.703 12.704v121.219c0 7.004-5.698 12.703-12.703 12.703H314.59a7.5 7.5 0 00-7.5 7.5v32.402l-37.705-37.705a7.5 7.5 0 00-5.304-2.197H146.677c-.032 0-.064-.005-.097-.005s-.064.004-.097.005h-44.028c-7.005 0-12.703-5.699-12.703-12.703V144.882c0-7.005 5.698-12.704 12.703-12.704h94.128c4.143 0 7.5-3.358 7.5-7.5s-3.357-7.5-7.5-7.5H154.08V45.305h57.831l7.312 16.086c4.484 9.865 14.384 16.239 25.221 16.239h87.113c10.837 0 20.736-6.375 25.221-16.239l7.312-16.086h57.831v75.166c0 4.142 3.357 7.5 7.5 7.5s7.5-3.358 7.5-7.5V7.5a7.5 7.5 0 00-7.5-7.5H146.58a7.5 7.5 0 00-7.5 7.5v109.679h-36.625c-15.275 0-27.703 12.428-27.703 27.704v121.219c0 15.275 12.428 27.703 27.703 27.703h36.625zM421.92 15v15.305h-62.66a7.502 7.502 0 00-6.828 4.396l-9.311 20.482a12.73 12.73 0 01-11.564 7.446h-87.113c-4.97 0-9.509-2.923-11.564-7.446l-9.311-20.482a7.5 7.5 0 00-6.828-4.396h-62.66V15z"/></svg>