<svg class="gridItem__media" xmlns="http://www.w3.org/2000/svg" width="1600" height="1200" fill="none"><path d="M1352.68 1040.7H220.74l-91.87-495.85a56.435 56.435 0 0112.2-46.51l254.6-304.44a56.465 56.465 0 0140.2-20.15l774.59-42.67a56.486 56.486 0 0135.53 10.148 56.482 56.482 0 0121.64 29.942l159.79 530.5a56.416 56.416 0 01.79 29.68l-75.53 309.35z" fill="#F0F0F0"/><path d="M1164.27 290.34h-524a13.444 13.444 0 00-12.417 8.297 13.444 13.444 0 00-1.023 5.143v326.93a13.444 13.444 0 008.297 12.417 13.444 13.444 0 005.143 1.023h524c3.56 0 6.98-1.416 9.5-3.937a13.443 13.443 0 003.94-9.503V303.78a13.447 13.447 0 00-13.44-13.44z" class="change-color-in-svg" fill="#4D61FC"/><path opacity=".3" d="M1164.27 290.34h-524a13.444 13.444 0 00-12.417 8.297 13.444 13.444 0 00-1.023 5.143v326.93a13.444 13.444 0 008.297 12.417 13.444 13.444 0 005.143 1.023h524c3.56 0 6.98-1.416 9.5-3.937a13.443 13.443 0 003.94-9.503V303.78a13.447 13.447 0 00-13.44-13.44z" fill="#fff"/><path d="M1157.16 290.34h-524a13.443 13.443 0 00-9.504 3.936 13.443 13.443 0 00-3.936 9.504v326.93a13.439 13.439 0 0013.44 13.44h524c3.56 0 6.98-1.416 9.5-3.937a13.443 13.443 0 003.94-9.503V303.78a13.447 13.447 0 00-13.44-13.44z" class="change-color-in-svg" fill="#4D61FC"/><path opacity=".6" d="M1157.41 644h-524a13.414 13.414 0 01-12.398-8.307A13.426 13.426 0 01620 630.55V303.61a13.45 13.45 0 018.29-12.42 13.5 13.5 0 015.14-1h524a13.505 13.505 0 0111.24 6.1 13.517 13.517 0 012.2 7.56v326.9a13.413 13.413 0 01-4 9.4 13.393 13.393 0 01-9.46 3.85z" fill="#fff"/><path opacity=".2" d="M619.75 561.62h186.51V400.84H619.75v160.78z" class="change-color-in-svg" fill="#4D61FC"/><path opacity=".2" d="M672.78 452.38v30.49h13V534h14.6v-58.92L745 490.86v12.76h12.85v-46h14.5v-10.3h28.17v10.3h4v104H619.76V452.38h53.02z" class="change-color-in-svg" fill="#4D61FC"/><path d="M812.68 567.4H619.76v-9.08h184.71V403.16H619.76v-9.09h192.92V567.4z" class="change-color-in-svg" fill="#4D61FC"/><path opacity=".2" d="M718.88 403.16l85.58 86v69.15h-5.28L633.44 403.16h85.44zm-99.12 27L762.2 558.31h-33.27l-109.17-96v-32.15z" fill="#fff"/><path d="M681.44 567.4h8.22V394.07h-8.22V567.4z" class="change-color-in-svg" fill="#4D61FC"/><path opacity=".8" d="M681.44 558.32h8.22V403.15h-8.22v155.17z" fill="#fff"/><path opacity=".4" d="M812.68 567.4H815V394.07h-2.34l.02 173.33z" class="change-color-in-svg" fill="#4D61FC"/><path d="M804.74 409.63v-3.1h-185v3.1h185zm.01 5.57v-3.1h-185v3.1h185zm-.01 5.57v-3.1h-185v3.1h185zm0 5.56v-3.1h-185v3.1h185z" class="change-color-in-svg" fill="#4D61FC"/><path opacity=".8" d="M812.68 567.4H619.76v-9.08h184.71V403.16H619.76v-9.09h192.92V567.4z" fill="#fff"/><path opacity=".7" d="M804.47 409.63v-3.1H619.76v3.1h184.71zm0 5.56v-3.1H619.76v3.1h184.71zm0 5.57v-3.1H619.76v3.1h184.71zm0 5.57v-3.1H619.76v3.1h184.71z" fill="#fff"/><path opacity=".2" d="M802.34 426.33h2.13v-3.1h-2.13v3.1zm0-5.56h2.13v-3.1h-2.13v3.1zm0-5.58h2.13v-3.1h-2.13v3.1zm0-5.56h2.13v-3.1h-2.13v3.1zm-122.97 16.7h2.13v-3.1h-2.13v3.1zm0-5.56h2.13v-3.1h-2.13v3.1zm0-5.58h2.13v-3.1h-2.13v3.1zm0-5.56h2.13v-3.1h-2.13v3.1zm10.31 16.7h2.13v-3.1h-2.13v3.1zm0-5.56h2.13v-3.1h-2.13v3.1zm0-5.58h2.13v-3.1h-2.13v3.1zm0-5.56h2.13v-3.1h-2.13v3.1z" class="change-color-in-svg" fill="#4D61FC"/><path d="M619.76 609.49h550.84v21.31c0 1.755-.34 3.493-1.01 5.114a13.519 13.519 0 01-2.9 4.336 13.269 13.269 0 01-4.34 2.896 13.346 13.346 0 01-5.11 1.014H633.12a13.35 13.35 0 01-13.36-13.36v-21.31z" fill="#3F4249"/><path d="M832 637.4a10.55 10.55 0 100-21.1 10.55 10.55 0 000 21.1z" fill="#000"/><path d="M836.87 624.82l-1.93 1.33v-1.89a.388.388 0 00-.13-.3.43.43 0 00-.3-.13h-7.27a.43.43 0 00-.3.13.388.388 0 00-.13.3v5.18a.442.442 0 00.43.43h7.27a.438.438 0 00.43-.43v-1.89l1.93 1.33c.029.01.061.01.09 0 .029.01.061.01.09 0 0 0 .05 0 .06-.07a.153.153 0 000-.09V625a.125.125 0 00.011-.05.125.125 0 00-.011-.05.164.164 0 00-.06-.08.153.153 0 00-.09 0 .17.17 0 00-.1 0h.01z" fill="#fff"/><path d="M877.81 637.4a10.55 10.55 0 100-21.1 10.55 10.55 0 000 21.1z" fill="#000"/><path d="M874.69 626.77h-1.93v4.61h1.93v-4.61zm2.73-1.01h-1.93v5.62h1.93v-5.62zm2.72-1.65h-1.93v7.27h1.93v-7.27zm2.73-1.79h-1.93v9.06h1.93v-9.06z" fill="#fff"/><path d="M969.5 637.34a10.557 10.557 0 009.783-6.478 10.547 10.547 0 00-18.501-9.938 10.544 10.544 0 001.29 13.308 10.552 10.552 0 007.428 3.108z" fill="#F9213C"/><path d="M972.41 622.63l-2.91 2.91-2.91-2.91-1.25 1.25 2.91 2.91-2.91 2.91 1.25 1.24 2.91-2.94 2.91 2.91 1.24-1.24-2.91-2.91 2.91-2.91-1.24-1.22z" fill="#fff"/><path d="M923.66 637.4a10.55 10.55 0 100-21.1 10.55 10.55 0 000 21.1z" fill="#000"/><path d="M924.7 621.94h-1.9a4.579 4.579 0 00-4.61 4 4.369 4.369 0 001.822 4.016 4.402 4.402 0 002.598.814h2.09a4.39 4.39 0 002.21-.6l1.75 1.35a.298.298 0 00.15.07c.056.01.114.01.17 0a.251.251 0 00.12-.11.31.31 0 000-.16v-5a4.46 4.46 0 00-4.45-4.39l.05.01zm-3.4 5.67a.786.786 0 01-.57-.24.79.79 0 01-.24-.57.823.823 0 01.81-.81.79.79 0 01.57.24.776.776 0 01.24.57.823.823 0 01-.81.81zm2.35 0a.714.714 0 01-.43-.14.763.763 0 01-.29-.35.724.724 0 010-.46.76.76 0 01.61-.61.8.8 0 01.46 0 .818.818 0 01.35.29.746.746 0 01.08.73.953.953 0 01-.18.26.866.866 0 01-.56.22l-.04.06zm2.62 0a.714.714 0 01-.43-.14.763.763 0 01-.29-.35.724.724 0 010-.46.76.76 0 01.61-.61.8.8 0 01.46 0 .818.818 0 01.35.29.746.746 0 01.077.73.785.785 0 01-.177.25.808.808 0 01-.257.171.805.805 0 01-.303.059l-.04.06z" fill="#fff"/><path d="M1066.58 383.16A28.345 28.345 0 011091.8 355v-.18h3.14c7.43.14 14.5 3.188 19.71 8.491a28.376 28.376 0 018.12 19.864c0 7.429-2.92 14.562-8.12 19.864a28.367 28.367 0 01-19.71 8.491h-3.14v-.18a28.377 28.377 0 01-18-9.276 28.377 28.377 0 01-7.22-18.914z" class="change-color-in-svg" fill="#4D61FC"/><path d="M1091.8 411.51c5.61 0 11.09-1.663 15.75-4.778a28.324 28.324 0 0010.44-12.723 28.349 28.349 0 001.62-16.38 28.429 28.429 0 00-7.76-14.515 28.38 28.38 0 00-14.52-7.759 28.347 28.347 0 00-33.88 27.805c0 7.519 2.99 14.73 8.3 20.047a28.364 28.364 0 0020.05 8.303z" class="change-color-in-svg" fill="#4D61FC"/><path opacity=".9" d="M1091.8 411.51c5.61 0 11.09-1.663 15.75-4.778a28.324 28.324 0 0010.44-12.723 28.349 28.349 0 001.62-16.38 28.429 28.429 0 00-7.76-14.515 28.38 28.38 0 00-14.52-7.759 28.347 28.347 0 00-33.88 27.805c0 7.519 2.99 14.73 8.3 20.047a28.364 28.364 0 0020.05 8.303z" fill="#fff"/><path d="M1091.8 408.38a25.218 25.218 0 0023.3-15.569 25.236 25.236 0 001.44-14.571 25.262 25.262 0 00-6.91-12.913 25.21 25.21 0 00-27.48-5.467 25.211 25.211 0 00-15.57 23.3c0 3.312.65 6.591 1.92 9.651a25.14 25.14 0 005.47 8.182 25.21 25.21 0 0017.83 7.387z" fill="#fff"/><path d="M1091.8 408.38a25.218 25.218 0 0023.3-15.569 25.236 25.236 0 001.44-14.571 25.262 25.262 0 00-6.91-12.913 25.21 25.21 0 00-27.48-5.467 25.211 25.211 0 00-15.57 23.3c0 3.312.65 6.591 1.92 9.651a25.14 25.14 0 005.47 8.182 25.21 25.21 0 0017.83 7.387z" class="change-color-in-svg" fill="#4D61FC"/><path opacity=".6" d="M1091.8 408.38a25.218 25.218 0 0023.3-15.569 25.236 25.236 0 001.44-14.571 25.262 25.262 0 00-6.91-12.913 25.21 25.21 0 00-27.48-5.467 25.211 25.211 0 00-15.57 23.3c0 3.312.65 6.591 1.92 9.651a25.14 25.14 0 005.47 8.182 25.21 25.21 0 0017.83 7.387z" fill="#fff"/><path d="M1091.8 357.94h1.36a25.232 25.232 0 00-16.97 7.828 25.24 25.24 0 00-6.92 17.357 25.24 25.24 0 006.92 17.357 25.232 25.232 0 0016.97 7.828h-1.36a25.21 25.21 0 01-17.83-7.387 25.22 25.22 0 01-7.39-17.833 25.22 25.22 0 017.39-17.833 25.21 25.21 0 0117.83-7.387v.07z" class="change-color-in-svg" fill="#4D61FC"/><path d="M1091.57 385.12l8.36-16.64a1.33 1.33 0 000-1 1.327 1.327 0 00-.65-.72 1.333 1.333 0 00-1-.09c-.32.102-.59.319-.76.61l-7.2 14.33-9.59-4.7a1.332 1.332 0 00-1.03-.11c-.17.058-.32.146-.46.26-.14.114-.25.258-.32.42-.07.157-.11.328-.11.5 0 .173.04.343.11.5.06.169.15.323.28.45.12.129.27.231.43.3l11.94 5.89z" class="change-color-in-svg" fill="#4D61FC"/><path opacity=".3" d="M1070.21 396.18a25.245 25.245 0 01-3.62-12.661 25.217 25.217 0 013.26-12.758 25.22 25.22 0 0121.95-12.821c.69-.015 1.39.015 2.08.09l-23.67 38.15zm27.46-37.54c1.21.292 2.4.669 3.56 1.13l-26.1 42.3a25.106 25.106 0 01-2.83-2.93l25.37-40.5z" fill="#fff"/><path d="M1170.59 325H619.75v-21.3a13.372 13.372 0 0113.36-13.35h524.12c1.75-.001 3.49.343 5.11 1.014 1.63.671 3.1 1.655 4.34 2.896a13.519 13.519 0 012.9 4.336 13.385 13.385 0 011.01 5.114V325z" fill="#3F4249"/><path d="M1111.24 317.38c1.92 0 3.8-.57 5.39-1.636a9.668 9.668 0 003.58-4.358c.74-1.774.93-3.727.55-5.61a9.722 9.722 0 00-2.65-4.972 9.712 9.712 0 00-4.98-2.657 9.713 9.713 0 00-5.61.552 9.68 9.68 0 00-4.35 3.576 9.71 9.71 0 001.2 12.261 9.727 9.727 0 006.87 2.844z" fill="#000"/><path d="M1115.33 306.8h-8.18v1.75h8.18v-1.75z" fill="#fff"/><path d="M1142.34 317.38c1.92 0 3.8-.57 5.39-1.636a9.668 9.668 0 003.58-4.358c.74-1.774.93-3.727.55-5.61a9.722 9.722 0 00-2.65-4.972 9.712 9.712 0 00-4.98-2.657 9.713 9.713 0 00-5.61.552 9.68 9.68 0 00-4.35 3.576 9.71 9.71 0 001.2 12.261 9.71 9.71 0 006.87 2.844z" fill="#000"/><path d="M1142.2 306.84l-2.42-2.43h2.07v-1h-3.77v3.77h1v-2.07l2.42 2.42.7-.69zm.27 1.67l2.42 2.42h-2.07v1h3.77v-3.77h-1v2.07l-2.42-2.42-.7.7zm-412.96-3.74h-88.66a4 4 0 000 7.9h88.66a3.996 3.996 0 004.263-2.274 4.008 4.008 0 000-3.352 3.997 3.997 0 00-2.55-2.175 4.013 4.013 0 00-1.713-.099zm204.96 304.4c-2.39-36-3.77-69.11-4.56-93.44-.087-2.72-.167-5.327-.24-7.82-.47-15.83-.66-26.91-.73-31.16v-1.92l-2.79-.73-3.43 4.26c-25.49 20.57-45.17-5.75-45.17-5.75l-.9.29h-.08v.1c-.13 1-1.77 13.12-4.32 35l-.75 6.5c-2.63 23-6.06 55.09-9.72 94.77l72.69-.1z" fill="#fff"/><path d="M970 609.17l.36-36.4 4.19 14.23 34.18-8 12.38-2.9-14.11-64.26c-.14-.66-.31-1.31-.5-1.95-.07-.26-.16-.51-.24-.76a27.333 27.333 0 00-1.86-4.52c-.15-.29-.29-.57-.45-.85-.16-.28-.24-.45-.37-.67a30.132 30.132 0 00-8.13-9l-.25-.17a30.01 30.01 0 00-8.2-4.13l-.28-.08c-.52-.17-1-.32-1.57-.45l-11.06-2.82-1.26-.32-24.14-6.12-11-2.85-1.53-.4h-.09l-7.16-1.86v.11c0 .26-.07 1-.15 2.3-.76 11.4-3.82 62.64-3.25 132l44.49-.13z" fill="#21252B"/><path d="M876.2 423.83l.34 53a5.84 5.84 0 001 3.13l.49.72c13.1 13.05 33.7 12 48.89-.58a5.723 5.723 0 001.69-2.37 5.858 5.858 0 00.31-2.9l-8.21-54.69-44.51 3.69z" fill="#FC9D9D"/><path d="M925.55 401.38s9.06 59.69-23.86 62.12c-32.22 2.37-33.12-58-33.12-58l-.9-17.28 41.45-7.33 10.46 5.41 5.97 15.08z" fill="#FC9D9D"/><path opacity=".15" d="M926.31 458.51l-2.4-16.43c-2.92 10.6-9.19 19.39-20 21.14h.09c-.77.13-1.55.22-2.35.28-8.6.64-15.71-3.34-21.12-11.83a.595.595 0 00-.21-.21.708.708 0 00-.56-.12.857.857 0 00-.28.11.587.587 0 00-.21.21.708.708 0 00-.12.56c.02.099.057.194.11.28 5.74 9 13.31 13.2 22.51 12.52a24.299 24.299 0 005.66-1.07c5.88.83 12.57-.67 18.88-5.44z" fill="#000"/><path d="M917.74 388s10.51-7 15.44 4.95c4.15 10-2.88 21-2.88 21l-6-.62c-2.52-.09-4.34-1.27-4.53-3.78L917.74 388z" fill="#21252B"/><path d="M925.23 380.72c.87 11.36-8.85 14.36-12.81 14.69l-32.56 2.76a4.901 4.901 0 00-4.48 5.16l.59 10.36a2.78 2.78 0 01-2.32 2.89l-2 .21-2.22 2.8c-12.75-3.08-18.1-39.31 5.38-46.65a9.777 9.777 0 005.79-4.94c3.39-7.07 17.45-8.92 24.48-1a6.765 6.765 0 005.58 2.42c8.62-.26 14.1 5.08 14.57 11.3z" fill="#21252B"/><path d="M871.7 420.31a5.284 5.284 0 00-3.209-4.407 5.347 5.347 0 00-2.791-.383 5.361 5.361 0 00-2.61 1.12l-.12.1c-5.59 4.84-2 20.1 10.36 18.7l-1.63-15.13zm61.39-8.05l-.13-.09a5.343 5.343 0 00-2.73-.73 5.29 5.29 0 00-2.71.77 5.381 5.381 0 00-1.94 2.05A5.314 5.314 0 00925 417l.65 14.56c12.35-.41 13.67-15.34 7.44-19.3z" fill="#FC9D9D"/><path d="M873.26 422.24a1.397 1.397 0 01-.37 1.04c-.127.138-.28.25-.45.33-.173.078-.36.122-.55.13a1.533 1.533 0 01-1.06-.22 1.47 1.47 0 01-.61-.89l-1.4-9.77 4 .15.44 9.23zm54.25-4a1.413 1.413 0 01-.82 1.33 1.449 1.449 0 01-.54.14 1.491 1.491 0 01-1-.22 1.47 1.47 0 01-.61-.89l-1.41-9.77 4 .15.38 9.26z" fill="#21252B"/><path d="M912.6 396.88c-.559.04-1.121.04-1.68 0a.683.683 0 01-.413-1.189.681.681 0 01.493-.171c.07 0 6.62.35 9.38-4a.665.665 0 01.69-.3.754.754 0 01.25.1.665.665 0 01.3.69.754.754 0 01-.1.25c-2.27 3.62-6.52 4.45-8.92 4.62z" fill="#FC9D9D"/><path d="M888.15 428.77a2.84 2.84 0 10-.001-5.681 2.84 2.84 0 00.001 5.681z" fill="#21252B"/><path d="M886.8 426.26a.61.61 0 100-1.218.61.61 0 000 1.218z" fill="#fff"/><path d="M910.18 427.15a2.84 2.84 0 10-.001-5.681 2.84 2.84 0 00.001 5.681z" fill="#21252B"/><path d="M908.83 424.63a.61.61 0 100-1.218.61.61 0 000 1.218z" fill="#fff"/><path opacity=".3" d="M900.58 439.52l2.3-.18c.116 0 .231-.02.34-.06a.909.909 0 00.28-.2.787.787 0 00.18-.29c.036-.11.053-.225.05-.34a.754.754 0 00-.1-.32.712.712 0 00-.21-.27.883.883 0 00-.31-.15.78.78 0 00-.34 0l-2.31.18a1.693 1.693 0 01-.67-.08 1.764 1.764 0 01-.99-.87 1.796 1.796 0 01-.18-.65A1.763 1.763 0 01899 435a1.71 1.71 0 011.19-.6.842.842 0 00.56-.28.831.831 0 00.2-.6.842.842 0 00-.28-.56.831.831 0 00-.6-.2 3.29 3.29 0 00-1.27.35 3.386 3.386 0 00-1.87 3.26c.03.443.149.875.35 1.27a3.386 3.386 0 003.26 1.87l.04.01z" fill="#000"/><path d="M922.71 423.71l-.18-3.17a4.144 4.144 0 00-4.35-3.89l-12.41.71-1.67.09-10.89.62h-.1l-14 .79a4.161 4.161 0 00-3.89 4.36l.18 3.17a11.175 11.175 0 003.719 7.709 11.177 11.177 0 008.081 2.821 11.175 11.175 0 007.709-3.719 11.177 11.177 0 002.821-8.081l-.17-3.07V422a4.117 4.117 0 00-1-2.43l4.34-.25a4.058 4.058 0 00-.71 2.53v0l.18 3.14a11.184 11.184 0 009.403 10.554A11.177 11.177 0 00922 428.45v0c.574-1.511.816-3.127.71-4.74v0z" stroke="#21252B" stroke-width="2" stroke-miterlimit="10"/><path d="M893.59 444l14-1a.488.488 0 01.24 0c.08.029.15.081.2.15a.46.46 0 01.11.22c.02.082.02.168 0 .25a7.943 7.943 0 01-11.699 4.768 7.939 7.939 0 01-3.201-3.568l-.05-.09a.479.479 0 010-.5.492.492 0 01.41-.27l-.01.04z" fill="#fff"/><path opacity=".3" d="M868.59 428.23a.802.802 0 01-.59-.23.775.775 0 01-.29-.53l-.23-1.75c-.19-1.86-.73-3.18-1.55-3.82a1.89 1.89 0 00-1.35-.43.784.784 0 01-.61-.14.828.828 0 01-.335-.85.763.763 0 01.135-.29.792.792 0 01.53-.34c.458-.06.924-.03 1.37.09.442.129.855.339 1.22.62 1.23.93 2 2.6 2.23 5l.22 1.73a.831.831 0 01-.71.93l-.04.01zm60.66-4.47a.831.831 0 00.55-.27.81.81 0 00.21-.57v-1.77c-.08-1.87.26-3.25 1-4a1.898 1.898 0 011.27-.63.848.848 0 00.53-.27.84.84 0 000-1.11.848.848 0 00-.53-.27 3.59 3.59 0 00-2.48 1.13c-1.08 1.1-1.58 2.86-1.47 5.24V423a.667.667 0 00.07.31.804.804 0 00.18.27c.08.071.171.128.27.17.102.04.21.06.32.06l.08-.05zM994.44 513l14.29 66 12.38-2.91-12.91-58.88c-2.54-15.94-10.11-23.46-21.33-27.5l-14.07-3.61c13.13 5.84 18.99 15.09 21.64 26.9zM970 609.17l.36-36.4-10.91-34.71a1.631 1.631 0 00-3.19.43l-.64 70.68H970z" fill="#000"/><path d="M928.16 469.78l8 6.89L947 516.19l-18.85-9 .85-31.79-.84-5.62z" fill="#21252B"/><path opacity=".3" d="M937.67 477l-1.62-.44L947 516.19l-18.85-9-.18 8.36 20.72 2.12L937.67 477z" fill="#000"/><path opacity=".15" d="M886.36 609.17c-1.68-65.53-8.2-118.91-9.6-129.77.01-.08.01-.16 0-.24l-.23-1.75-.89 28.89-.23 7.73-2.93 95.17 13.88-.03z" fill="#000"/><path d="M802.81 609.17L820 574.53l-26.8-59.42-42.85 94.06h52.46z" fill="#FC9D9D"/><path opacity=".15" d="M802.81 609.17L820 574.53l-13 2.17-16.12 32.47h11.93z" fill="#000"/><path d="M807.21 576.11l.14.52.84 3 2.61-3.55 6.13-8.35 6.9-9.38.14-.19.19 9.7.83 41.33h53.33c.19-36.47-.25-70.47-.75-95.4l-.18-8.36v-1.76c-.11-5.06-.22-9.6-.33-13.54l-.11-4.21c-.07-2.62-.14-4.87-.19-6.74V478c-.1-3.32-.16-5.11-.16-5.11l-7 1.9-55.13 15a34.566 34.566 0 00-13 7.18 29.938 29.938 0 00-8.12 12.37c-.89 2.35-1.7 5-2.57 8.2l.5 1.77 15.93 56.8z" fill="#21252B"/><path d="M768 568.81l42 26.07 19.63-37.39-30.41-52-5.33 2.71L768 568.81zm108.49-100.28l-7.13 6.38-10.82 39.52 18.85-9-.9-36.9z" fill="#21252B"/><path opacity=".3" d="M867.84 475.27l1.63-.44-10.93 39.6 18.85-9 .18 8.36-20.72 2.12 10.99-40.64z" fill="#000"/><path d="M1028.32 609.17l-7.21-33-12.38 2.83-34.18 8 7.53 22.13 46.24.04z" fill="#FC9D9D"/><path opacity=".15" d="M1028.32 609.17l-7.21-33-12.38 2.83 6.66 30.14 12.93.03z" fill="#000"/><path opacity=".3" d="M824.16 567.84l-.68-19.67a1.22 1.22 0 00-.28-.72 1.15 1.15 0 00-.66-.39 1.184 1.184 0 00-.76.08 1.253 1.253 0 00-.55.54l-20.46 41.48 9.2 5.72 14.19-27.04z" fill="#000"/><path d="M1100.22 522.93c.34 0 .66-.1.94-.286.28-.187.5-.453.63-.763.13-.311.16-.653.1-.983a1.726 1.726 0 00-.47-.87 1.7 1.7 0 00-1.85-.369c-.31.129-.58.347-.76.627-.19.279-.29.608-.29.944 0 .451.18.883.5 1.202.32.319.75.498 1.2.498z" fill="#fff"/><path d="M1363 1042.43H198.32a.797.797 0 01-.566-.23.814.814 0 010-1.14c.15-.15.354-.23.566-.23H1363.1a.815.815 0 01.57.23.815.815 0 01.23.57c0 .11-.03.23-.08.33-.04.1-.11.2-.2.27-.08.07-.18.13-.29.16-.11.04-.22.05-.33.04z" fill="#ABAFB4"/><path d="M1242.48 768.49h68.17a3.522 3.522 0 002.45-1c.32-.326.57-.709.75-1.13.17-.42.25-.868.25-1.32.01-.455-.08-.906-.25-1.327a3.41 3.41 0 00-.75-1.124 3.37 3.37 0 00-1.12-.747 3.437 3.437 0 00-1.33-.252h-68.17v6.9z" fill="#AFB3B8"/><path d="M1301.81 765.14H1233V977h68.78l.03-211.86z" fill="#AFB3B8"/><path d="M1235.17 765.14h-210.41V977h210.41V765.14z" fill="#D7DADC"/><path d="M1224.5 960.81h-189.89V794.6l189.89.2v166.01zm-188.36-1.52H1223v-163h-186.86v163z" fill="#AFB3B8"/><path d="M1016.94 768.49h225.65a3.437 3.437 0 002.44-1.03c.31-.326.56-.71.73-1.13.17-.422.25-.875.24-1.33 0-.452-.08-.9-.25-1.32a3.656 3.656 0 00-.75-1.13 3.37 3.37 0 00-1.12-.747 3.438 3.438 0 00-1.33-.253h-225.61c-.46-.001-.91.084-1.33.25-.42.176-.8.431-1.12.75-.32.326-.57.709-.75 1.13-.17.42-.25.868-.25 1.32.01.915.38 1.789 1.02 2.44.65.65 1.52 1.027 2.43 1.05z" fill="#D7DADC"/><path d="M1224.5 876.69h-189.89v1.52h189.89v-1.52zm-103.12-55.37c1.04 0 2.07-.31 2.93-.89a5.285 5.285 0 001.95-2.369c.4-.965.5-2.027.3-3.051a5.328 5.328 0 00-1.45-2.704 5.258 5.258 0 00-2.7-1.445 5.28 5.28 0 00-6.31 5.179c0 .694.13 1.381.4 2.022a5.2 5.2 0 001.14 1.715 5.31 5.31 0 003.74 1.543z" fill="#AFB3B8"/><path opacity=".15" d="M1123.31 816c0-1.1-.34-2.173-.98-3.069a5.301 5.301 0 00-2.58-1.931 4.638 4.638 0 011.73-.3 5.26 5.26 0 014.05 1.859c.5.587.86 1.277 1.06 2.021a5.224 5.224 0 01-.2 3.379 5.253 5.253 0 01-2.2 2.571c-.66.389-1.4.627-2.17.7a5.152 5.152 0 01-2.27-.27 5.343 5.343 0 003.56-5v.04z" fill="#000"/><path d="M1121.38 903.1c1.04 0 2.07-.31 2.93-.89a5.285 5.285 0 001.95-2.369c.4-.965.5-2.027.3-3.051a5.32 5.32 0 00-1.45-2.703 5.272 5.272 0 00-8.12.8 5.28 5.28 0 00-.89 2.933 5.287 5.287 0 005.28 5.28z" fill="#AFB3B8"/><path opacity=".15" d="M1123.31 897.82c0-1.1-.34-2.173-.98-3.069a5.301 5.301 0 00-2.58-1.931 4.638 4.638 0 011.73-.3 5.26 5.26 0 014.05 1.859c.5.587.86 1.278 1.06 2.021a5.31 5.31 0 01-.18 3.408 5.256 5.256 0 01-2.22 2.592c-.66.389-1.4.628-2.17.7a5.152 5.152 0 01-2.27-.27 5.355 5.355 0 002.57-1.92 5.3 5.3 0 001-3l-.01-.09z" fill="#000"/><path d="M1246 775.6l-10.87-7.11h-210.37v3.25L1246 775.6z" fill="#AFB3B8"/><path d="M1288.3 977l5.28 58.62c.11.5.11 1.01 0 1.51-.12.49-.35.96-.67 1.35-.32.4-.72.72-1.17.95-.46.23-.96.35-1.47.36-.72-.01-1.42-.24-2-.66-.58-.41-1.02-1-1.25-1.68L1271.64 977h16.66z" fill="#D7DADC"/><path d="M1286.37 1011.1l-6.4-1.52-8.23-32.51h16.66l5.28 58.62a3.554 3.554 0 01-2 3.86l-5.31-28.45z" fill="#AFB3B8"/><path d="M1228.46 977l5.28 58.62c.11.5.11 1.01 0 1.51-.12.49-.35.96-.67 1.35-.32.4-.72.72-1.17.95-.46.23-.96.35-1.47.36-.72-.01-1.42-.24-2-.66-.58-.41-1.02-1-1.25-1.68L1211.8 977h16.66z" fill="#D7DADC"/><path d="M1222.87 983.47l-9.55-1.83-1.63-4.67h16.66l5.28 58.62a3.554 3.554 0 01-2 3.86l-8.76-55.98z" fill="#AFB3B8"/><path d="M1096.59 977l-5.28 58.62c-.11.5-.11 1.01 0 1.51.12.49.35.96.67 1.35.32.4.72.72 1.17.95.46.23.96.35 1.47.36.72-.01 1.42-.24 2-.66.58-.41 1.02-1 1.25-1.68l15.38-60.45h-16.66z" fill="#D7DADC"/><path d="M1099.53 1008.16l-5.69-1.42 2.74-29.77h16.66l-15.34 60.45c-.24.67-.68 1.26-1.26 1.68-.58.42-1.27.65-1.99.66h-.2l5.08-31.6z" fill="#AFB3B8"/><path d="M1035.12 977l-5.28 58.62c-.11.5-.11 1.01 0 1.51.12.49.35.96.67 1.35.32.4.72.72 1.17.95.46.23.96.35 1.47.36.72-.01 1.42-.24 2-.66.58-.41 1.02-1 1.25-1.68l15.38-60.45h-16.66z" fill="#D7DADC"/><path d="M1041.62 982.05l-7.31-1.32.81-3.76h16.66l-15.34 60.45c-.24.67-.68 1.26-1.26 1.68-.58.42-1.27.65-1.99.66h-.2l8.63-57.71z" fill="#AFB3B8"/><path d="M1204.31 738h-34.09v23.56h34.09V738z" fill="#D7DADC"/><path d="M1170.22 738h90.89v23.56h-56.8V744.3h-34.09V738zm-42.88 23.58h21.34c1.56 0 3.06-.62 4.16-1.725a5.873 5.873 0 001.73-4.165 5.944 5.944 0 00-1.73-4.159 5.908 5.908 0 00-4.16-1.731h-21.34v11.78z" fill="#AFB3B8"/><path d="M1063.12 761.58h64.21V749.8h-64.21a5.776 5.776 0 00-2.25.45 5.934 5.934 0 00-3.19 3.19c-.3.713-.45 1.478-.45 2.25 0 .775.15 1.542.45 2.258.3.715.73 1.365 1.28 1.912a5.932 5.932 0 004.16 1.72z" fill="#D7DADC"/><path d="M1105.22 752.69h28.87v-2.88h-28.87a1.4 1.4 0 00-.55.107c-.18.072-.34.178-.47.312-.14.134-.24.293-.31.468-.07.176-.11.363-.11.553 0 .189.04.377.11.553.07.175.17.334.31.468.13.134.29.24.47.312.17.072.36.108.55.107z" fill="#AFB3B8"/><path d="M636.43 389.68h-44.78a9.4 9.4 0 00-9.4 9.4v44.78a9.4 9.4 0 009.4 9.4h44.78a9.4 9.4 0 009.4-9.4v-44.78a9.4 9.4 0 00-9.4-9.4z" class="change-color-in-svg" fill="#4D61FC"/><path opacity=".3" d="M636.43 389.68h-44.78a9.4 9.4 0 00-9.4 9.4v44.78a9.4 9.4 0 009.4 9.4h44.78a9.4 9.4 0 009.4-9.4v-44.78a9.4 9.4 0 00-9.4-9.4z" fill="#000"/><path d="M631.23 389.68h-44.78a9.4 9.4 0 00-9.4 9.4v44.78a9.4 9.4 0 009.4 9.4h44.78a9.4 9.4 0 009.4-9.4v-44.78a9.4 9.4 0 00-9.4-9.4z" class="change-color-in-svg" fill="#4D61FC"/><path d="M609.51 431.69a2.607 2.607 0 00.082-2.512 2.596 2.596 0 00-2.082-1.408 2.583 2.583 0 00-1.66.43 2.725 2.725 0 00-.35-1.56 2.675 2.675 0 00-1.18-1.08 2.601 2.601 0 00-1.58-.22 2.682 2.682 0 00-1.43.72 9.677 9.677 0 00-.72-1.77 2.471 2.471 0 00-1.57-1 2.432 2.432 0 00-1.81.4c-.55.32-1.06.7-1.58 1.05l-1.43.94-3.86-3.43 7.21-11.4c1.59 1.81 3.6 1.33 5.64 1.25-1.56 1-3.11 1.95-4.68 2.91a3.343 3.343 0 00-1.38 1.48 3.285 3.285 0 00-.28 2 3.433 3.433 0 001.94 2.51c.502.227 1.05.333 1.6.31a3.451 3.451 0 001.56-.47c1.77-1.06 3.5-2.2 5.29-3.24a1.398 1.398 0 011.18 0c4.41 2.76 8.8 5.57 13.2 8.36a1.62 1.62 0 01.872.881 1.61 1.61 0 01-.012 1.239 1.683 1.683 0 01-.4.68 1.538 1.538 0 01-.67.41 1.68 1.68 0 01-1.5-.26c-1.83-1.12-3.64-2.27-5.46-3.39-.13-.08-.27-.16-.39-.25a.345.345 0 00-.22 0 .319.319 0 00-.18.12.338.338 0 000 .11v.11a.227.227 0 000 .11.29.29 0 00.08.08c1.82 1.14 3.63 2.27 5.44 3.42a1.544 1.544 0 01.89 1c.05.224.05.456 0 .68-.04.229-.129.448-.26.64a1.479 1.479 0 01-.43.56 1.396 1.396 0 01-.63.32 1.548 1.548 0 01-.71 0 1.577 1.577 0 01-.64-.3c-1.77-1.08-3.51-2.2-5.28-3.29-.2-.12-.31-.17-.54-.32a.205.205 0 00-.11 0h-.12a.329.329 0 00-.1.06.185.185 0 00-.08.09.266.266 0 000 .2.3.3 0 00.12.17l2 1.27c1 .6 1.92 1.17 2.85 1.8.199.101.371.248.5.43a1.487 1.487 0 01.28 1.25 1.478 1.478 0 01-.27.6 1.587 1.587 0 01-.41.55 1.57 1.57 0 01-.62.3c-.224.057-.459.06-.684.009a1.47 1.47 0 01-.616-.299c-1.27-.8-2.48-1.7-3.72-2.55-.32-.28-.69-.47-1.09-.7z" fill="#fff"/><path d="M623 426c-2.72-1.68-5.44-3.33-8.14-5-1.89-1.19-3.79-2.37-5.59-3.68a2.09 2.09 0 00-1.42-.59 2.06 2.06 0 00-1.43.54c-1.52 1.11-3.23 2-4.8 3a2.821 2.821 0 01-1.26.39 2.902 2.902 0 01-1.3-.24 2.782 2.782 0 01-1-.81 2.73 2.73 0 01-.56-1.19 2.707 2.707 0 011.27-2.7c2.61-1.67 5.23-3.32 7.91-4.87.697-.31 1.471-.4 2.22-.26 2.47.38 4.92.84 7.36 1.36a3.348 3.348 0 002.69-.31c.11-.08.76-.52 1.07-.71l7.14 11.27L623 426z" fill="#fff"/><path d="M597.87 409c-.23.41-.4.72-.58 1l-6.29 9.88c-.64 1-1.27 2-1.9 3-.3.49-.66.53-1.15.24-1.41-.83-2.84-1.66-4.27-2.47a1.137 1.137 0 01-.747-1.374c.049-.186.144-.357.277-.496 2.713-4.22 5.38-8.46 8-12.72.48-.77.91-.89 1.67-.38 1.37.91 2.81 1.73 4.2 2.62.271.21.522.444.75.7h.04zm27.53-3.82c.281.274.541.568.78.88 2.367 3.733 4.73 7.473 7.09 11.22.18.3.36.6.56.89 1 1.52 1 1.55-.45 2.57-1.17.81-2.4 1.53-3.62 2.27-.67.41-1.16.34-1.63-.42-2.667-4.28-5.357-8.543-8.07-12.79-.47-.73-.43-1.16.34-1.6 1.43-.82 2.82-1.72 4.23-2.58l.77-.44z" class="change-color-in-svg" fill="#4D61FC"/><path opacity=".7" d="M597.87 409c-.23.41-.4.72-.58 1l-6.29 9.88c-.64 1-1.27 2-1.9 3-.3.49-.66.53-1.15.24-1.41-.83-2.84-1.66-4.27-2.47a1.137 1.137 0 01-.747-1.374c.049-.186.144-.357.277-.496 2.713-4.22 5.38-8.46 8-12.72.48-.77.91-.89 1.67-.38 1.37.91 2.81 1.73 4.2 2.62.271.21.522.444.75.7h.04zm27.53-3.82c.281.274.541.568.78.88 2.367 3.733 4.73 7.473 7.09 11.22.18.3.36.6.56.89 1 1.52 1 1.55-.45 2.57-1.17.81-2.4 1.53-3.62 2.27-.67.41-1.16.34-1.63-.42-2.667-4.28-5.357-8.543-8.07-12.79-.47-.73-.43-1.16.34-1.6 1.43-.82 2.82-1.72 4.23-2.58l.77-.44z" fill="#fff"/><path d="M608.52 429a1.911 1.911 0 01-.24 2.82c-1.67 1.22-3.39 2.38-5.11 3.53-.196.15-.421.259-.66.32-.241.05-.489.05-.73 0a1.69 1.69 0 01-.69-.25 1.853 1.853 0 01-.53-.51 1.692 1.692 0 01-.3-.67 1.844 1.844 0 01.29-1.42c.144-.201.328-.371.54-.5 1.69-1.2 3.37-2.42 5.14-3.49.31-.159.652-.244 1-.25a2.5 2.5 0 011 .14c.132.059.251.144.35.25l-.06.03zm-9.89 4.13c-.279.07-.571.07-.85 0a1.688 1.688 0 01-.77-.38 2.887 2.887 0 01-.64-.71 1.48 1.48 0 01-.19-1.09c.08-.373.302-.699.62-.91 1.84-1.35 3.71-2.65 5.63-3.88a1.812 1.812 0 011.354-.268 1.809 1.809 0 011.415 1.418 1.806 1.806 0 01-.769 1.85c-1.81 1.32-3.68 2.57-5.54 3.82a1.188 1.188 0 01-.25.13l-.01.02zm1.18-8.62a1.91 1.91 0 010 2.62l-.18.17a33.41 33.41 0 01-3 2 1.784 1.784 0 01-.65.28 1.884 1.884 0 01-.71 0 1.926 1.926 0 01-.66-.27c-.2-.13-.37-.3-.5-.5a1.735 1.735 0 01-.32-1.35c.039-.238.131-.463.27-.66.13-.2.3-.37.5-.5 1-.72 2-1.42 3.06-2.05a1.758 1.758 0 011.14-.26c.382.051.735.231 1 .51l.05.01zm10.97 9.62c0 1.3-3.23 3.45-4.43 3a1.634 1.634 0 01-.67-.5 1.629 1.629 0 01-.33-.76 1.667 1.667 0 01.1-.83c.11-.261.281-.491.5-.67a16.161 16.161 0 012.44-1.66 1.656 1.656 0 011.6 0c.238.147.438.349.58.59.138.244.21.52.21.8v.03zm-1.28 2.44c.89-.71 1.669-1.549 2.31-2.49.59.33 1.68.63 1.58 1.77a2.811 2.811 0 01-1.09 1.71c-.85.64-2.19-.39-2.8-.99z" fill="#fff"/><path d="M1198.67 185.29h-46.25a9.71 9.71 0 00-6.87 2.844 9.71 9.71 0 00-2.84 6.866v46.25a9.71 9.71 0 002.84 6.866 9.71 9.71 0 006.87 2.844h46.25a9.71 9.71 0 006.87-2.844 9.71 9.71 0 002.84-6.866V195a9.71 9.71 0 00-2.84-6.866 9.71 9.71 0 00-6.87-2.844z" class="change-color-in-svg" fill="#4D61FC"/><path opacity=".3" d="M1198.67 185.29h-46.25a9.71 9.71 0 00-6.87 2.844 9.71 9.71 0 00-2.84 6.866v46.25a9.71 9.71 0 002.84 6.866 9.71 9.71 0 006.87 2.844h46.25a9.71 9.71 0 006.87-2.844 9.71 9.71 0 002.84-6.866V195a9.71 9.71 0 00-2.84-6.866 9.71 9.71 0 00-6.87-2.844z" fill="#000"/><path d="M1193.3 185.29h-46.25a9.71 9.71 0 00-6.87 2.844 9.71 9.71 0 00-2.84 6.866v46.25a9.71 9.71 0 002.84 6.866 9.71 9.71 0 006.87 2.844h46.25a9.71 9.71 0 006.87-2.844 9.71 9.71 0 002.84-6.866V195a9.71 9.71 0 00-2.84-6.866 9.71 9.71 0 00-6.87-2.844z" class="change-color-in-svg" fill="#4D61FC"/><path d="M1175.89 237.41H1164v3.09c0 .144.03.286.08.42.06.13.14.248.24.35.1.101.22.179.35.23.13.051.28.078.42.08h.74c.09.003.17.04.23.103.07.064.1.149.1.237 0 .227.04.451.13.661.09.209.22.399.38.559a1.704 1.704 0 001.22.5h4.11c.23.002.45-.042.66-.13.21-.083.4-.209.56-.37.16-.161.29-.351.38-.56.09-.209.13-.433.13-.66 0-.088.03-.173.1-.237.06-.063.14-.1.23-.103h.74c.14-.002.29-.029.42-.08.13-.051.25-.129.35-.23.1-.102.18-.22.24-.35.05-.134.08-.276.08-.42v-3.09z" class="change-color-in-svg" fill="#4D61FC"/><path opacity=".5" d="M1175.89 237.41v3.09c0 .287-.12.562-.32.764a1.1 1.1 0 01-.77.316h-.74a.328.328 0 00-.23.103.313.313 0 00-.1.237c0 .227-.04.451-.13.66-.09.209-.22.399-.38.56-.16.161-.35.287-.56.37-.21.088-.43.132-.66.13h-4.17c-.34.002-.68-.101-.97-.296-.28-.195-.5-.472-.62-.794a1.517 1.517 0 01-.13-.63c0-.09-.04-.177-.1-.24a.332.332 0 00-.24-.1h-.77a1.08 1.08 0 01-.99-.669c-.05-.13-.08-.27-.08-.411v-3.09h11.96z" fill="#000"/><path d="M1178.69 207.45a13.934 13.934 0 00-13.06-2.473c-2.66.853-5 2.485-6.71 4.684a13.963 13.963 0 00-2.93 7.65c-.18 2.786.48 5.562 1.89 7.969.94 1.596 2.19 2.99 3.67 4.1a5.993 5.993 0 012.27 3.8s.09 2.64.13 2.64h11.94s.06-2.66.1-2.64a6.6 6.6 0 012.54-4 13.944 13.944 0 003.89-4.813 13.834 13.834 0 001.42-6.024 13.925 13.925 0 00-5.15-10.913v.02z" fill="#fff"/><path opacity=".2" d="M1180.05 208.71c.32 1.312.52 2.651.59 4 .52 5-1.48 13.71-12.92 17.23-.43.132-.8.399-1.07.76-.27.358-.41.793-.41 1.24v3.89h9.76v-2.66a6.6 6.6 0 012.54-4 13.928 13.928 0 003.68-4.399 13.844 13.844 0 001.59-5.511c.15-1.927-.11-3.864-.76-5.686a13.75 13.75 0 00-2.99-4.894l-.01.03z" class="change-color-in-svg" fill="#4D61FC"/><path opacity=".6" d="M1172.9 235.84h-1.35v-13.41h-3.25v13.41h-1.36v-13.41h-1.65a3.004 3.004 0 01-2.77-1.85 3.013 3.013 0 01-.05-2.152c.25-.699.75-1.28 1.41-1.63a2.98 2.98 0 012.13-.269c.72.178 1.35.616 1.77 1.231.33.494.51 1.075.51 1.67v1.65h3.25v-1.65c0-.595.18-1.176.51-1.67a3.023 3.023 0 011.77-1.231 2.98 2.98 0 012.13.269c.66.35 1.16.931 1.41 1.63.25.698.23 1.465-.05 2.152a3.004 3.004 0 01-2.77 1.85h-1.65l.01 13.41zm0-14.76h1.65c.33-.001.65-.098.92-.28.27-.18.48-.438.6-.74a1.628 1.628 0 00-.19-1.61 1.662 1.662 0 00-1.96-.55c-.3.128-.56.34-.74.61a1.67 1.67 0 00-.28.92v1.65zm-7.61-3.3a1.645 1.645 0 00-1.65 1.65 1.645 1.645 0 001.65 1.65h1.65v-1.65c0-.217-.04-.432-.13-.63-.08-.2-.2-.383-.35-.54-.16-.149-.34-.27-.54-.36-.2-.08-.41-.121-.63-.12z" class="change-color-in-svg" fill="#4D61FC"/><path d="M1195.4 220.24v-.71h-.2c-.11-.17-.25-.311-.43-.41a1.15 1.15 0 00-.57-.17h-4.67c-.22.001-.44.059-.63.17-.19.115-.35.276-.46.47l-.17-.08v.69c0 .165.03.329.1.48.06.153.15.293.27.41.12.11.26.201.41.27.15.06.32.09.48.09h4.67c.32-.013.62-.144.84-.369.22-.224.35-.525.36-.841z" class="change-color-in-svg" fill="#4D61FC"/><path opacity=".2" d="M1195.4 220.24v-.69h-.2c-.11-.17-.25-.311-.43-.41a1.25 1.25 0 00-.57-.17h-4.67c-.22.001-.44.059-.63.17-.19.117-.35.279-.46.47l-.17-.08v.69c0 .165.03.329.1.48.06.154.15.293.27.41.12.114.26.205.41.27.15.06.32.09.48.09h4.67c.32-.012.62-.145.84-.37.23-.228.36-.537.36-.86z" fill="#000"/><path d="M1194.15 220.79c.33 0 .65-.132.88-.366.24-.234.37-.552.37-.884 0-.331-.13-.649-.37-.884a1.238 1.238 0 00-.88-.366h-4.67c-.33 0-.65.132-.88.366-.24.235-.37.553-.37.884 0 .332.13.65.37.884.23.234.55.366.88.366h4.67z" fill="#fff"/><path d="M1170.31 192.6h-.7v.2a1.273 1.273 0 00-.58 1v4.67c0 .221.06.438.17.63.12.194.28.353.48.46l-.09.16h.69a1.266 1.266 0 001.25-1.25v-4.67a1.219 1.219 0 00-.37-.84 1.286 1.286 0 00-.85-.36z" class="change-color-in-svg" fill="#4D61FC"/><path opacity=".2" d="M1170.31 192.6h-.69v.2a1.273 1.273 0 00-.58 1v4.67c0 .221.06.438.17.63.12.194.28.353.48.46l-.09.16h.69a1.266 1.266 0 001.25-1.25v-4.67a1.218 1.218 0 00-.38-.84 1.149 1.149 0 00-.39-.267c-.14-.061-.3-.093-.46-.093z" fill="#000"/><path d="M1170.87 193.85c0-.332-.13-.649-.37-.884a1.238 1.238 0 00-1.76 0c-.24.235-.37.552-.37.884v4.67c0 .331.13.649.37.884a1.238 1.238 0 001.76 0c.24-.235.37-.553.37-.884v-4.67z" fill="#fff"/><path d="M1151.61 220.24v-.71h-.19c-.11-.18-.27-.328-.46-.43-.18-.1-.39-.151-.6-.15h-4.67c-.22.001-.44.059-.63.17-.19.117-.35.279-.46.47l-.16-.08v.69a1.266 1.266 0 001.25 1.25h4.67a1.253 1.253 0 001.25-1.21z" class="change-color-in-svg" fill="#4D61FC"/><path opacity=".2" d="M1151.61 220.24v-.69h-.19c-.11-.18-.27-.328-.46-.43-.18-.1-.39-.151-.6-.15h-4.67c-.22.001-.44.059-.63.17-.19.117-.35.279-.46.47l-.16-.08v.69a1.266 1.266 0 001.25 1.25h4.67c.33 0 .64-.129.88-.359.23-.23.36-.543.37-.871z" fill="#000"/><path d="M1150.36 220.8c.33 0 .65-.132.88-.366.24-.234.37-.552.37-.884 0-.331-.13-.649-.37-.884a1.238 1.238 0 00-.88-.366h-4.67c-.33 0-.65.132-.88.366-.24.235-.37.553-.37.884 0 .332.13.65.37.884.23.234.55.366.88.366h4.67z" fill="#fff"/><path d="M1189.29 201.36l-.5-.5-.11.16c-.2-.055-.42-.055-.62 0-.2.059-.39.169-.54.32l-3.08 3.09c-.16.154-.28.35-.33.565-.06.215-.05.442.01.655l-.18.06.5.49a1.265 1.265 0 001.76 0l3.09-3.09c.12-.115.21-.255.27-.41.06-.152.1-.315.1-.48 0-.165-.04-.327-.1-.48a1.107 1.107 0 00-.27-.4v.02z" class="change-color-in-svg" fill="#4D61FC"/><path opacity=".2" d="M1189.29 201.36l-.49-.49-.12.15c-.2-.055-.42-.055-.62 0-.2.059-.39.169-.54.32l-3.08 3.09c-.16.154-.28.35-.33.565-.06.215-.05.442.01.655l-.18.06.5.49a1.265 1.265 0 001.76 0l3.09-3.09c.12-.115.21-.255.27-.41.06-.152.1-.315.1-.48 0-.165-.04-.327-.1-.48a1.107 1.107 0 00-.27-.4v.02z" fill="#000"/><path d="M1187 200.87l-3 3.13c-.23.235-.37.553-.37.885 0 .332.14.65.37.885.23.235.55.367.89.367.33 0 .65-.132.88-.367l3.09-3.09c.23-.235.37-.553.37-.885 0-.332-.14-.65-.37-.885a1.24 1.24 0 00-.89-.367c-.33 0-.65.132-.88.367l-.09-.04z" fill="#fff"/><path d="M1150.29 201.36l.5-.5.11.16c.2-.055.42-.055.62 0 .2.059.39.169.54.32l3.08 3.09c.16.154.28.35.33.565.06.215.05.442-.01.655l.18.06-.5.49a1.265 1.265 0 01-1.76 0l-3.09-3.09a1.128 1.128 0 01-.27-.41c-.06-.152-.1-.315-.1-.48 0-.165.04-.327.1-.48.06-.143.16-.273.27-.38z" class="change-color-in-svg" fill="#4D61FC"/><path opacity=".2" d="M1150.29 201.36l.49-.49.12.15c.2-.055.42-.055.62 0 .2.059.39.169.54.32l3.08 3.09c.16.154.28.35.33.565.06.215.05.442-.01.655l.18.06-.5.49a1.265 1.265 0 01-1.76 0l-3.09-3.09a1.128 1.128 0 01-.27-.41c-.06-.152-.1-.315-.1-.48 0-.165.04-.327.1-.48.06-.143.16-.273.27-.38z" fill="#000"/><path d="M1152.54 200.86a1.23 1.23 0 00-.41-.272 1.227 1.227 0 00-.95 0 1.23 1.23 0 00-.41.272 1.271 1.271 0 000 1.77l3.1 3.09a1.254 1.254 0 001.72-.053c.22-.226.35-.53.36-.85.01-.319-.11-.629-.32-.867l-3.09-3.09z" fill="#fff"/><path opacity=".5" d="M1173 237.41v3.09a1.088 1.088 0 01-1.08 1.08h-6.18c.09 0 .18.036.24.1.06.063.1.15.1.24-.01.083-.01.167 0 .25h4.74l-.13.38c-.13.32-.35.594-.63.79-.29.204-.64.309-1 .3h2.94c.23.002.45-.042.66-.13.21-.083.4-.209.56-.37.16-.161.29-.351.38-.56.09-.209.13-.433.13-.66 0-.088.03-.173.1-.237.06-.063.14-.1.23-.103h.74c.14-.002.29-.029.42-.08.13-.051.25-.129.35-.23.1-.102.18-.22.24-.35.05-.134.08-.276.08-.42v-3.09H1173z" fill="#000"/><path d="M753.26 182.11H691a13.073 13.073 0 00-13.08 13.08v62.25A13.073 13.073 0 00691 270.52h62.25a13.08 13.08 0 0013.08-13.08v-62.25a13.081 13.081 0 00-13.07-13.08z" class="change-color-in-svg" fill="#4D61FC"/><path opacity=".4" d="M753.26 182.11H691a13.073 13.073 0 00-13.08 13.08v62.25A13.073 13.073 0 00691 270.52h62.25a13.08 13.08 0 0013.08-13.08v-62.25a13.081 13.081 0 00-13.07-13.08z" fill="#fff"/><path d="M746 182.11h-62.23a13.073 13.073 0 00-13.08 13.08v62.25a13.073 13.073 0 0013.08 13.08H746a13.08 13.08 0 0013.08-13.08v-62.25A13.08 13.08 0 00746 182.11z" class="change-color-in-svg" fill="#4D61FC"/><path opacity=".7" d="M746 182.11h-62.23a13.073 13.073 0 00-13.08 13.08v62.25a13.073 13.073 0 0013.08 13.08H746a13.08 13.08 0 0013.08-13.08v-62.25A13.08 13.08 0 00746 182.11z" fill="#fff"/><path d="M735.18 222.23a27.59 27.59 0 00.17-3v-1.6l-5-1.6a21.71 21.71 0 00-1.76-5.94l3.29-4a27.316 27.316 0 00-2.6-3.79h-4.17l-1.57.88a21.32 21.32 0 00-4.13-3l.28-5.21a26.432 26.432 0 00-4.32-1.53h-4.17l-.39 4c-.72-.07-1.44-.12-2.17-.12-.842 0-1.684.05-2.52.15l-2.83-4.38h-4.17l.1 1.19-.33.11v5.22a22.524 22.524 0 00-5.1 3.5l-4.86-1.87h-4.16l1.75 3.09c-.13.19-.27.36-.39.55l3.07 4.21a22.087 22.087 0 00-2.07 5.84l-5 1.34a27.59 27.59 0 00-.17 3v1.59l5 1.6a21.71 21.71 0 001.76 5.94l-.6.74H688l-.33.57-2.24 2.75c.1.18.22.35.33.52l-1.89 3.26H688l5-1.62c.784.802 1.63 1.541 2.53 2.21l2.26 8.31H702l3.07-4.23c1.209.208 2.433.312 3.66.31h.4l.79 4.24H714a25.074 25.074 0 004.41-1.3V239a22.456 22.456 0 004.93-3.37l.87 1.74h4.16a27.507 27.507 0 002.8-3.64l-3.07-4.22a21.545 21.545 0 002.07-5.83l5.01-1.45zm-26.54-13.48a10.43 10.43 0 017.2 2.88l1.15 6.53-.75 7.29-4.11 3.64c-1.12.402-2.3.608-3.49.61a10.68 10.68 0 01-4.11-.7 10.485 10.485 0 01-6.701-9.775 10.483 10.483 0 016.701-9.775 10.68 10.68 0 014.11-.7z" class="change-color-in-svg" fill="#4D61FC"/><path opacity=".3" d="M735.18 222.23a27.59 27.59 0 00.17-3v-1.6l-5-1.6a21.71 21.71 0 00-1.76-5.94l3.29-4a27.316 27.316 0 00-2.6-3.79h-4.17l-1.57.88a21.32 21.32 0 00-4.13-3l.28-5.21a26.432 26.432 0 00-4.32-1.53h-4.17l-.39 4c-.72-.07-1.44-.12-2.17-.12-.842 0-1.684.05-2.52.15l-2.83-4.38h-4.17l.1 1.19-.33.11v5.22a22.524 22.524 0 00-5.1 3.5l-4.86-1.87h-4.16l1.75 3.09c-.13.19-.27.36-.39.55l3.07 4.21a22.087 22.087 0 00-2.07 5.84l-5 1.34a27.59 27.59 0 00-.17 3v1.59l5 1.6a21.71 21.71 0 001.76 5.94l-.6.74H688l-.33.57-2.24 2.75c.1.18.22.35.33.52l-1.89 3.26H688l5-1.62c.784.802 1.63 1.541 2.53 2.21l2.26 8.31H702l3.07-4.23c1.209.208 2.433.312 3.66.31h.4l.79 4.24H714a25.074 25.074 0 004.41-1.3V239a22.456 22.456 0 004.93-3.37l.87 1.74h4.16a27.507 27.507 0 002.8-3.64l-3.07-4.22a21.545 21.545 0 002.07-5.83l5.01-1.45zm-26.54-13.48a10.43 10.43 0 017.2 2.88l1.15 6.53-.75 7.29-4.11 3.64c-1.12.402-2.3.608-3.49.61a10.68 10.68 0 01-4.11-.7 10.485 10.485 0 01-6.701-9.775 10.483 10.483 0 016.701-9.775 10.68 10.68 0 014.11-.7z" fill="#000"/><path d="M704.47 229.7a10.513 10.513 0 01-9.136-15.548A10.51 10.51 0 11711.91 226.7a10.465 10.465 0 01-7.44 3zm26.53-7.47a27.59 27.59 0 00.17-3v-1.6l-5-1.6a22.085 22.085 0 00-1.76-5.94l3.29-4a26.018 26.018 0 00-2.61-3.79l-5 1.62a22.003 22.003 0 00-4.91-3.77l.28-5.21a25.926 25.926 0 00-4.33-1.53l-3.06 4.22a22.443 22.443 0 00-3.66-.31c-.842 0-1.684.05-2.52.15l-2.84-4.38a27.06 27.06 0 00-4.4 1.3v5.22a22.025 22.025 0 00-5.1 3.5l-4.86-1.87a26.696 26.696 0 00-2.8 3.64l3.07 4.21a21.307 21.307 0 00-2.07 5.84l-5 1.34a27.59 27.59 0 00-.17 3v1.59l5 1.6a21.372 21.372 0 001.75 5.94l-3.28 4a27.843 27.843 0 002.6 3.78l5-1.62a21.386 21.386 0 004.91 3.77l-.29 5.21a26.899 26.899 0 004.33 1.54l3.06-4.23c1.213.203 2.44.307 3.67.31A21.389 21.389 0 00707 241l2.83 4.38a25.08 25.08 0 004.4-1.3v-5.21c1.86-.918 3.578-2.1 5.1-3.51l4.87 1.88a27.507 27.507 0 002.8-3.64l-3.07-4.22a22.007 22.007 0 002.07-5.83l5-1.32zm18.48 19.95v-.6l2.57-2.07a13.167 13.167 0 00-.94-2.95l-3.32-.25a11.141 11.141 0 00-2.87-3.06V230a13.74 13.74 0 00-2.95-1.14h-2.46l-1.23 2.39c-.899.013-1.792.137-2.66.37l-2.6-2.06h-2.46l.45 1.11c-.25.16-.51.31-.74.49l.49 3.28c-.98.97-1.767 2.117-2.32 3.38l-3.24.75a13.754 13.754 0 00-.48 3.13l2.86 1.64a10.8 10.8 0 001.21 4l-1.42 3c.09.13.2.24.29.36l-.66 1.9h2.46l3-1.2c.63.402 1.3.738 2 1l.51.28.56 3.29h3c.846 0 1.69-.08 2.52-.24l1-3.14a10.926 10.926 0 003.79-2.2h.16l.65.7H749a14.39 14.39 0 001.71-2.53l-1.87-2.73c.417-1.172.633-2.406.64-3.65zM738.36 247a4.655 4.655 0 01-2-.44 4.806 4.806 0 01-1.61-1.25 4.731 4.731 0 01-.91-1.82 4.487 4.487 0 01-.05-2 4.624 4.624 0 014.328-3.72c.686-.03 1.37.093 2.002.36l2.53 5.94a4.67 4.67 0 01-1.7 2.15 4.599 4.599 0 01-2.61.81l.02-.03z" class="change-color-in-svg" fill="#4D61FC"/><path opacity=".3" d="M749.48 242.18v-.6l2.57-2.07a13.167 13.167 0 00-.94-2.95l-3.32-.25a11.141 11.141 0 00-2.87-3.06V230a13.74 13.74 0 00-2.95-1.14h-2.46l-1.23 2.39c-.899.013-1.792.137-2.66.37l-2.6-2.06h-2.46l.45 1.11c-.25.16-.51.31-.74.49l.49 3.28c-.98.97-1.767 2.117-2.32 3.38l-3.24.75a13.754 13.754 0 00-.48 3.13l2.86 1.64a10.8 10.8 0 001.21 4l-1.42 3c.09.13.2.24.29.36l-.66 1.9h2.46l3-1.2c.63.402 1.3.738 2 1l.51.28.56 3.29h3c.846 0 1.69-.08 2.52-.24l1-3.14a10.926 10.926 0 003.79-2.2h.16l.65.7H749a14.39 14.39 0 001.71-2.53l-1.87-2.73c.417-1.172.633-2.406.64-3.65zM738.36 247a4.655 4.655 0 01-2-.44 4.806 4.806 0 01-1.61-1.25 4.731 4.731 0 01-.91-1.82 4.487 4.487 0 01-.05-2 4.624 4.624 0 014.328-3.72c.686-.03 1.37.093 2.002.36l2.53 5.94a4.67 4.67 0 01-1.7 2.15 4.599 4.599 0 01-2.61.81l.02-.03z" fill="#000"/><path d="M735.91 247a4.638 4.638 0 01-4.108-6.82 4.642 4.642 0 017.952-.401 4.639 4.639 0 01-.574 5.861 4.602 4.602 0 01-3.27 1.36zm11.09-4.82v-.6l2.57-2.07a13.142 13.142 0 00-.93-2.95l-3.32-.25a11.178 11.178 0 00-2.88-3.06V230a13.71 13.71 0 00-3-1.14l-2.26 2.44c-.4-.04-.8-.06-1.2-.06-.976.001-1.947.128-2.89.38l-2.6-2.06c-.976.423-1.9.96-2.75 1.6l.49 3.28a11.067 11.067 0 00-2.32 3.38l-3.24.75a13.754 13.754 0 00-.48 3.13l2.86 1.64c.143 1.4.557 2.759 1.22 4l-1.43 3c.612.84 1.316 1.608 2.1 2.29l3.06-1.2a10.896 10.896 0 004 1.6l1.44 3h.56c.849 0 1.696-.08 2.53-.24l1-3.14a10.926 10.926 0 003.79-2.2l3.22.72a13.878 13.878 0 001.71-2.53l-1.87-2.73c.43-1.196.64-2.459.62-3.73zm254.52-.92h-41.21a8.662 8.662 0 00-8.66 8.66v41.21a8.662 8.662 0 008.66 8.66h41.21c2.3 0 4.5-.912 6.12-2.536a8.64 8.64 0 002.54-6.124v-41.21a8.64 8.64 0 00-2.54-6.124 8.639 8.639 0 00-6.12-2.536z" class="change-color-in-svg" fill="#4D61FC"/><path opacity=".6" d="M1001.52 241.26h-41.21a8.662 8.662 0 00-8.66 8.66v41.21a8.662 8.662 0 008.66 8.66h41.21c2.3 0 4.5-.912 6.12-2.536a8.64 8.64 0 002.54-6.124v-41.21a8.64 8.64 0 00-2.54-6.124 8.639 8.639 0 00-6.12-2.536z" fill="#fff"/><path d="M996.73 241.26h-41.21a8.662 8.662 0 00-8.66 8.66v41.21a8.662 8.662 0 008.66 8.66h41.21c2.297 0 4.5-.912 6.12-2.536a8.64 8.64 0 002.54-6.124v-41.21a8.64 8.64 0 00-2.54-6.124 8.644 8.644 0 00-6.12-2.536z" fill="#fff"/><path d="M988 263.6l-2.57 2.57a14.07 14.07 0 11-5.61-5.61l2.57-2.57a17.65 17.65 0 105.61 5.61z" class="change-color-in-svg" fill="#4D61FC"/><path d="M983.47 268.15l-2.75 2.75a6.77 6.77 0 01.28 2 7.931 7.931 0 01-12.658 6.381 7.923 7.923 0 01-3.052-4.831 7.91 7.91 0 013.37-8.14 7.888 7.888 0 014.41-1.34 7.515 7.515 0 012 .28l2.75-2.75a11.213 11.213 0 00-4.8-1.06 11.462 11.462 0 00-11.24 13.696 11.453 11.453 0 003.137 5.867 11.453 11.453 0 0012.489 2.485 11.462 11.462 0 007.074-10.588 11.112 11.112 0 00-1-4.75h-.01z" class="change-color-in-svg" fill="#4D61FC"/><path d="M973.07 278.23a5.291 5.291 0 01-2.027-10.177 5.29 5.29 0 112.027 10.177zm0-7.05a1.722 1.722 0 00-1 .3 1.797 1.797 0 00-.65.79 1.826 1.826 0 00-.1 1c.073.341.243.654.49.9.246.247.559.417.9.49.336.061.683.026 1-.1.323-.133.598-.359.79-.65.201-.294.306-.644.3-1a1.736 1.736 0 00-.51-1.24 1.792 1.792 0 00-1.25-.52l.03.03z" class="change-color-in-svg" fill="#4D61FC"/><path d="M997.2 253.92a1.278 1.278 0 00-.49-.59 1.334 1.334 0 00-.73-.22h-3.09V250a1.308 1.308 0 00-.22-.74 1.278 1.278 0 00-.59-.49 1.317 1.317 0 00-.76-.07c-.26.05-.497.179-.68.37l-5.29 5.29a1.296 1.296 0 00-.39.93v3.88h-.05L972.14 272c-.122.124-.221.27-.29.43a1.33 1.33 0 000 1c.069.16.168.306.29.43.25.242.583.378.93.38.175.002.349-.032.51-.1.161-.062.308-.157.43-.28l12.77-12.79h3.88c.172.003.342-.031.5-.1.161-.067.308-.165.43-.29l5.29-5.29c.202-.183.342-.424.4-.69a1.27 1.27 0 00-.08-.79v.01z" class="change-color-in-svg" fill="#4D61FC"/><path opacity=".5" d="M997.2 253.92a1.278 1.278 0 00-.49-.59 1.334 1.334 0 00-.73-.22h-3.09V250a1.308 1.308 0 00-.22-.74 1.278 1.278 0 00-.59-.49 1.317 1.317 0 00-.76-.07c-.26.05-.497.179-.68.37l-5.29 5.29a1.296 1.296 0 00-.39.93v3.88h-.05L972.14 272c-.122.124-.221.27-.29.43a1.33 1.33 0 000 1c.069.16.168.306.29.43.25.242.583.378.93.38.175.002.349-.032.51-.1.161-.062.308-.157.43-.28l12.77-12.79h3.88c.172.003.342-.031.5-.1.161-.067.308-.165.43-.29l5.29-5.29c.202-.183.342-.424.4-.69a1.27 1.27 0 00-.08-.79v.01z" fill="#000"/><path d="M1227.33 455.13h-73.95c-4.12 0-8.07 1.636-10.98 4.549a15.54 15.54 0 00-4.55 10.981v73.95a15.54 15.54 0 004.55 10.981 15.519 15.519 0 0010.98 4.549h73.95c4.12 0 8.07-1.636 10.98-4.549a15.54 15.54 0 004.55-10.981v-73.95a15.54 15.54 0 00-4.55-10.981 15.519 15.519 0 00-10.98-4.549z" class="change-color-in-svg" fill="#4D61FC"/><path opacity=".3" d="M1227.33 455.13h-73.95c-4.12 0-8.07 1.636-10.98 4.549a15.54 15.54 0 00-4.55 10.981v73.95a15.54 15.54 0 004.55 10.981 15.519 15.519 0 0010.98 4.549h73.95c4.12 0 8.07-1.636 10.98-4.549a15.54 15.54 0 004.55-10.981v-73.95a15.54 15.54 0 00-4.55-10.981 15.519 15.519 0 00-10.98-4.549z" fill="#000"/><path d="M1218.73 455.13h-74c-4.12 0-8.07 1.636-10.98 4.549a15.54 15.54 0 00-4.55 10.981v73.95a15.54 15.54 0 004.55 10.981 15.519 15.519 0 0010.98 4.549h74c4.12 0 8.07-1.636 10.98-4.549a15.54 15.54 0 004.55-10.981v-73.95a15.54 15.54 0 00-4.55-10.981 15.519 15.519 0 00-10.98-4.549z" class="change-color-in-svg" fill="#4D61FC"/><path opacity=".7" d="M1161.34 489.22h-3.72l-15.42 19.13 15.42 19.14h3.72l5.75-5.75-13.38-13.39 13.38-13.35-5.75-5.78zm44.82 0h-3.71l-2 5.75 13.38 13.38-13.38 13.39 2 5.75h3.71l19.14-19.14-19.14-19.13zm-38.29 43.36l3.73 3.28h3.72l22.58-53.16-7.44-3.28h-3.72l-18.87 53.16z" fill="#fff"/><path d="M1157.62 489.22l-19.14 19.13 19.14 19.14 5.76-5.75-13.38-13.39 13.38-13.35-5.76-5.78zm44.83 0l-5.76 5.75 13.39 13.38-13.39 13.39 5.76 5.75 19.14-19.14-19.14-19.13zm-38.3 43.36l7.45 3.28 22.59-53.16-7.45-3.28-22.59 53.16z" fill="#F0F0F0"/><path d="M595 716.57h81.25a1.26 1.26 0 011.24 1.24v2.06a1.256 1.256 0 01-1.24 1.24H595a1.256 1.256 0 01-1.24-1.24v-2.06a1.145 1.145 0 01.09-.48 1.107 1.107 0 01.67-.67c.153-.06.316-.09.48-.09z" fill="#21252B"/><path opacity=".6" d="M595 716.57h81.25a1.26 1.26 0 011.24 1.24v2.06a1.256 1.256 0 01-1.24 1.24H595a1.256 1.256 0 01-1.24-1.24v-2.06a1.145 1.145 0 01.09-.48 1.107 1.107 0 01.67-.67c.153-.06.316-.09.48-.09z" fill="#000"/><path d="M652.06 716.57h141.65a1.26 1.26 0 011.24 1.24v2.06a1.256 1.256 0 01-1.24 1.24H652.06a1.256 1.256 0 01-1.24-1.24v-2.06a1.339 1.339 0 011.24-1.24z" fill="#21252B"/><path opacity=".6" d="M793.82 717.39h-144.2a.41.41 0 110-.82h144.2a.43.43 0 01.16 0 .392.392 0 01.23.23.43.43 0 01-.11.44.383.383 0 01-.123.107.376.376 0 01-.157.043z" fill="#000"/><path d="M770.46 716.57h21.34a3.45 3.45 0 003.38-2.8l17.88-94c.09-.492.07-.997-.06-1.48a3.542 3.542 0 00-.69-1.32 3.342 3.342 0 00-1.18-.89 3.468 3.468 0 00-1.45-.31h-21.34a3.45 3.45 0 00-3.38 2.8l-17.88 94a3.46 3.46 0 001.939 3.68 3.4 3.4 0 001.441.32z" fill="#21252B"/><path opacity=".6" d="M770.46 716.57h21.34a3.45 3.45 0 003.38-2.8l17.88-94c.09-.492.07-.997-.06-1.48a3.542 3.542 0 00-.69-1.32 3.342 3.342 0 00-1.18-.89 3.468 3.468 0 00-1.45-.31h-21.34a3.45 3.45 0 00-3.38 2.8l-17.88 94a3.46 3.46 0 001.939 3.68 3.4 3.4 0 001.441.32z" fill="#000"/><path d="M652.55 716.57h137a3.45 3.45 0 003.38-2.8l17.88-94c.09-.492.07-.997-.06-1.48a3.557 3.557 0 00-.69-1.32 3.342 3.342 0 00-1.18-.89 3.468 3.468 0 00-1.45-.31H670.52a3.45 3.45 0 00-3.38 2.8l-17.88 94c-.11.484-.11.986 0 1.47.121.482.35.93.67 1.31.313.381.705.688 1.15.9.451.211.942.32 1.44.32h.03z" fill="#21252B"/><path d="M655.68 714.18h131.81a3.279 3.279 0 002.09-.76 3.23 3.23 0 001.13-1.91l17-89.58a3.227 3.227 0 00-.05-1.42 3.188 3.188 0 00-.65-1.27 3.1 3.1 0 00-1.13-.86 3.314 3.314 0 00-1.39-.3H672.8a3.279 3.279 0 00-2.09.76 3.23 3.23 0 00-1.13 1.91l-17 89.58a3.15 3.15 0 000 1.4c.104.463.317.895.62 1.26.3.368.675.668 1.1.88.432.203.903.309 1.38.31z" class="change-color-in-svg" fill="#4D61FC"/><g opacity=".6"><path opacity=".5" d="M655.68 714.18h131.81a3.279 3.279 0 002.09-.76 3.23 3.23 0 001.13-1.91l17-89.58a3.227 3.227 0 00-.05-1.42 3.188 3.188 0 00-.65-1.27 3.1 3.1 0 00-1.13-.86 3.314 3.314 0 00-1.39-.3H672.8a3.279 3.279 0 00-2.09.76 3.23 3.23 0 00-1.13 1.91l-17 89.58a3.15 3.15 0 000 1.4c.104.463.317.895.62 1.26.3.368.675.668 1.1.88.432.203.903.309 1.38.31z" fill="#fff"/></g><path d="M385.77 736.1h-7.87v307.34h7.87V736.1zm415.77 0h-7.87v307.34h7.87V736.1z" fill="#ACB0B5"/><path d="M884.74 736.1h-83.21v307.33h83.21V736.1z" fill="#61656D"/><path d="M884.74 736.1h-83.21v307.33h83.21V736.1z" fill="#80848B"/><path d="M469 736.1h-83.23v307.33H469V736.1z" fill="#61656D"/><path d="M469 736.1h-83.23v307.33H469V736.1z" fill="#80848B"/><path d="M603.37 737l190.3-.85v51.53l-190.3.85V737z" fill="#ACB0B5"/><path opacity=".5" d="M707.58 759.74a5.862 5.862 0 01-6.54 7.14 5.867 5.867 0 01-4.317-3.107 5.87 5.87 0 019.317-6.893 5.891 5.891 0 011.56 2.81l-.02.05z" fill="#000"/><path d="M723 720.78h160.48c2.032 0 3.98.807 5.416 2.244a7.656 7.656 0 010 10.832 7.656 7.656 0 01-5.416 2.244H723" fill="#61656D"/><path d="M723 720.78h160.48c2.032 0 3.98.807 5.416 2.244a7.656 7.656 0 010 10.832 7.656 7.656 0 01-5.416 2.244H723" fill="#80848B"/><path d="M367.79 720.78h442.92c2.032 0 3.98.807 5.416 2.244a7.656 7.656 0 010 10.832 7.656 7.656 0 01-5.416 2.244H367.79a7.645 7.645 0 01-5.419-2.241 7.645 7.645 0 01-2.241-5.419 7.645 7.645 0 012.241-5.419 7.645 7.645 0 015.419-2.241z" fill="#ACB0B5"/><path opacity=".5" d="M884.75 736.1H603.37v2.61h281.38v-2.61zm-415.75 0h-91.1v2.61H469v-2.61z" fill="#000"/><path d="M503.23 579.81l4.87 3.81c-17.92-3.58-19.78 6.43-17.64 35 1.82 24.36 21.27 21.12 21.27 21.12l14.56 26s-3.73 20.59-.68 35.84c1.59 8 6.16 43.41 6.16 43.41H428.59s-58.28-151.31-53.16-163.32c-.01.08 121.83-7.21 127.8-1.86z" class="change-color-in-svg" fill="#4D61FC"/><path d="M659.94 1041.43l-14.83-10.23v-61.78l-.06-.12c-.3-92.34-1.82-149.09-5.86-183.69-3.83-32.77-37.67-5.68-47.14-10.13-5.68-2.67-9.45-13.3-20.81-13.86-20-1-26.58-15.55-26.58-15.55l-10.32 70 52.65 1.8c-1.42 53.48 20.45 87.52 30.49 143.71-5.51 3.51-9.59 10.09-9.59 20 24.36 8.1 21.71 52.63 21.71 52.63l30.34 7.22z" fill="#F59696"/><path opacity=".2" d="M609.39 775.48c4.18 2 13.11-2.22 22.1-4.68-6.78-3.71-16.7-.34-25.18 2.44.897.91 1.938 1.667 3.08 2.24zm35.72 217.25c-4.88-6.73-11.43-24.53-12.61-31.15-10-56.19-29.59-90.24-28.18-143.71l-52.65-1.8 9.78-57.51c-11.24-7.19-18.26-12.49-18.26-12.49l-8.86 70 52.65 1.8c-1.42 53.48 20.45 87.52 30.49 143.71-5.51 3.51-9.59 10.09-9.59 20 24.36 8.1 21.71 52.63 21.71 52.63l30.34 7.24-14.83-10.25v-38.47h.01z" fill="#000"/><path d="M659 1042.26h-25.2a6.998 6.998 0 01-4.627-1.68 7.021 7.021 0 01-2.373-4.32c-1.8-12.43-7.06-40.8-19-54.64 0 0-3.61-14.39 9.59-20 0 0 13.21 8.73 9 34.78l7.33 28.17s17.86 5.62 26.41 15.19a1.546 1.546 0 01.22 1.58c-.109.26-.29.48-.52.64-.244.17-.532.27-.83.28z" class="change-color-in-svg" fill="#4D61FC"/><path d="M607.89 981.57l-2.54 60.69h2.54l6.62-60.69h-6.62z" class="change-color-in-svg" fill="#4D61FC"/><path d="M596.84 1041.43L582 1031.2v-61.78l-.06-.12c-.3-92.34-1.82-149.09-5.86-183.69-3.83-32.77-37.67-5.68-47.14-10.13-5.68-2.67-9.45-13.3-20.81-13.86-20-1-50.73-14.63-50.73-14.63l-11.75 69.08 78.23 1.8c-1.42 53.48 20.45 87.52 30.49 143.71-5.51 3.51-9.59 10.09-9.59 20 24.36 8.1 21.71 52.63 21.71 52.63l30.35 7.22z" fill="#F59696"/><path opacity=".2" d="M546.28 775.48c4.18 2 13.11-2.22 22.1-4.68-6.78-3.71-16.7-.34-25.18 2.44.9.907 1.94 1.663 3.08 2.24zM582 992.73c-4.88-6.73-11.43-24.53-12.61-31.15-10-56.19-29.59-90.24-28.18-143.71l-78.21-1.8 9.78-57.51c-11.25-7.19-15.37-11.56-15.37-11.56l-11.75 69.08 78.23 1.8c-1.42 53.48 20.45 87.52 30.49 143.71-5.51 3.51-9.59 10.09-9.59 20 24.36 8.1 21.71 52.63 21.71 52.63l30.34 7.24-14.84-10.25v-38.48z" fill="#000"/><path d="M595.92 1042.26h-25.2a6.998 6.998 0 01-4.627-1.68 7.021 7.021 0 01-2.373-4.32c-1.8-12.43-7.06-40.8-19-54.64 0 0-3.61-14.39 9.59-20 0 0 13.21 8.73 9 34.78l7.33 28.17s17.86 5.62 26.41 15.19a1.546 1.546 0 01.21 1.6 1.53 1.53 0 01-1.34.9z" class="change-color-in-svg" fill="#4D61FC"/><path d="M544.78 981.57l-2.53 60.69h2.53l6.62-60.69h-6.62z" class="change-color-in-svg" fill="#4D61FC"/><path d="M553 954.58c-10.52-52.1-30.51-85.49-29.16-136.72l-78.23-1.8L457.4 747s30.73 13.65 50.73 14.63c11.36.56 15.13 11.19 20.81 13.86 9.47 4.45 43.31-22.64 47.14 10.13 3.83 32.77 5.38 85.25 5.8 169l-28.88-.04z" fill="#3F4249"/><path opacity=".2" d="M542.41 775.48c4.57 2.15 14.81-3.05 24.61-5.32-7.52-3-18.17 1.33-26.66 4 .63.518 1.318.961 2.05 1.32zm24.09 179.1c-10.5-52.1-30.5-85.5-29.16-136.72l-78.23-1.8L470 752c-7.45-2.77-12.6-5-12.6-5l-11.75 69.08 78.23 1.8C522.52 869.1 542.52 902.5 553 954.6h13.5v-.02z" fill="#000"/><path d="M643 841.71l-1.13-65.36a32.614 32.614 0 00-32.57-32.05l-184.43-.18v34.58a38.06 38.06 0 0037.36 38L587 818.61c-1.14 50.8 18.7 84.13 29.17 136H645c-.24-46.68-.83-83.61-2-112.9z" fill="#3F4249"/><path opacity=".2" d="M631.1 954.58c-10.46-51.84-30.31-85.17-29.17-136l-124.72-1.87a38.058 38.058 0 01-37.36-38v-34.58h-15v34.57a38.06 38.06 0 0037.36 38L587 818.61c-1.14 50.8 18.7 84.13 29.17 136h15l-.07-.03z" fill="#000"/><path d="M489.2 491c2.1-6.79-4.09-14.74-13.84-17.76-9.75-3.02-19.34 0-21.45 6.83-2.11 6.83 4.1 14.74 13.84 17.76 9.74 3.02 19.35-.03 21.45-6.83z" fill="#000"/><path d="M428.66 523.21l-3 43.46a8.13 8.13 0 01-6.24 7.24l-5 1.2 11.07 7.4a42.299 42.299 0 0044 2.21l12.64-6.85-5.49-1.8a8 8 0 01-5.52-7l-3.51-52-38.95 6.14z" fill="#F59696"/><path d="M459.79 560.22l-2.06.12a26.716 26.716 0 01-19.28-7 26.813 26.813 0 01-8.66-18.61l-1.57-37.62a8.956 8.956 0 012.36-6.44 8.911 8.911 0 016.23-2.87l35.19-1.6a11.64 11.64 0 0112.1 11.13l1.45 35a26.999 26.999 0 01-25.76 27.89z" fill="#F59696"/><path d="M485.05 523a49.984 49.984 0 014.52 8c1.23 3.2-4.54 3.3-4.54 3.3l.02-11.3z" fill="#F59696"/><path d="M481.17 519a2.896 2.896 0 002.679-1.79 2.896 2.896 0 00-.628-3.161 2.908 2.908 0 00-3.161-.628 2.896 2.896 0 00-.941 4.73 2.905 2.905 0 002.051.849z" fill="#21252B"/><path d="M482.38 516.13a.596.596 0 00.554-.37.6.6 0 10-.554.37z" fill="#fff"/><path opacity=".15" d="M428.62 536.27h4.11l-4.35 8.73.24-8.73z" fill="#000"/><path d="M488.55 512.75a11.69 11.69 0 101.69 5.2 11.315 11.315 0 00-1-3.75c-.193-.5-.424-.985-.69-1.45zM479.6 529a10.137 10.137 0 01-8.094-3.08 10.133 10.133 0 01-2.756-8.21 10.13 10.13 0 012.2-5.188 10.131 10.131 0 0110.264-3.438A10.12 10.12 0 01479.6 529z" fill="#fff"/><path d="M462 576.31c-10.65-27.87.09-36.57-2.26-56.82-2.35-20.25-26.91-13.66-26.91-13.66l-19.75 6.79L388 529.53l-3.82 54.36 5.31 26.76 43.32-5.31s32.89-19.42 29.19-29.03z" fill="#000"/><path d="M434.87 627a32.601 32.601 0 0023.052-55.652A32.6 32.6 0 10434.87 627zm-55.76-17.94a20.805 20.805 0 0019.217-12.84 20.8 20.8 0 10-19.217 12.84z" fill="#000"/><path d="M393.2 573.8a25.363 25.363 0 0024.873-30.308 25.358 25.358 0 00-19.926-19.925 25.363 25.363 0 00-14.653 48.305 25.351 25.351 0 009.706 1.928zm27.61-82.22a25.368 25.368 0 0125.36-25.36c14 0 41.8 12.58 37.9 26-5.75 19.81-28.29 22.68-42.3 22.68-14.01 0-20.96-9.31-20.96-23.32z" fill="#000"/><path d="M386.59 524.12s10.57-2 17.22-8.67c13.8-13.82 7.84-32.49 30.83-46.46 6.52-4 0 57.68 0 57.68l-48.05-2.55zm-17.73 82.24s17.64 23.21 65.79 20.55l-13.84-29.06-51.95 8.51z" fill="#000"/><path d="M460.59 530.4s-11.59.47-13.59-10.95 12.2-13.1 13.77-1.52l.77 12.58-.95-.11z" fill="#F59696"/><path opacity=".15" d="M450.79 513.56a4.643 4.643 0 011.66-.76 4.696 4.696 0 011.83 0 3.996 3.996 0 011.59.85c.462.397.834.888 1.09 1.44a8.459 8.459 0 011.1 4.51v1.2c0 .88-1.56 1.13-1.54 0l-.06-1.32a7.894 7.894 0 00-.87-3.72 2.552 2.552 0 00-4.14-1.05.779.779 0 01-.58.08.822.822 0 01-.49-.32.779.779 0 01.07-.5.836.836 0 01.34-.38v-.03z" fill="#000"/><path d="M459.84 526.5a2.28 2.28 0 10-4.53-.525 2.28 2.28 0 004.53.525z" class="change-color-in-svg" fill="#4D61FC"/><path opacity=".15" d="M458.33 528.27a2.445 2.445 0 01-1.8-.78 2.37 2.37 0 01-.52-.84 2.291 2.291 0 01-.15-1c.042-.456.208-.892.48-1.26a2.494 2.494 0 00-.75.8 2.566 2.566 0 00-.35 1 2.25 2.25 0 00.14.89c.1.286.264.546.48.76.206.225.459.402.74.52.278.119.578.18.88.18a2 2 0 001.36-.38c-.17.04-.39.01-.51.11zm3.08 32.37s6.07-1.36 8.88-3.06l.46 7.18-9.34-4.12z" fill="#000"/><path opacity=".15" d="M476.31 536.54a13.8 13.8 0 008.28 5.45" stroke="#000" stroke-linecap="round" stroke-linejoin="round"/><path d="M278.3 1042.26l38.51-201.47c.75-5.06-1.64-8.28 3.47-8.28h84.53a11.428 11.428 0 0110.82 9.33l29.55 201.59H456l-27.84-202.68c-1.28-8.6-12.55-15.6-21.25-15.6h-88.73a18.882 18.882 0 00-18.1 15.6l-39.6 201.51h17.82z" fill="#ACB0B5"/><path opacity=".5" d="M306.3 829.77h19.54v2.73h-5.56c-4.94 0-2.88 3-3.41 7.77h-16.69a18.52 18.52 0 016.12-10.5z" fill="#000"/><path d="M278.3 1042.26h-6.62l39.4-203.7a16.44 16.44 0 0115.5-12.79h90.83a15.7 15.7 0 0115.06 13l30.14 204.66H456l-29.59-203.76a9.527 9.527 0 00-9-7.77h-90.83a10.195 10.195 0 00-9.49 7.83l-38.79 202.53z" fill="#ACB0B5"/><path opacity=".5" d="M278.3 1042.26h-6.62l39.4-203.7a16.44 16.44 0 0115.5-12.79h90.83a15.7 15.7 0 0115.06 13l30.14 204.66H456l-29.59-203.76a9.527 9.527 0 00-9-7.77h-90.83a10.195 10.195 0 00-9.49 7.83l-38.79 202.53z" fill="#000"/><path d="M289.55 831.62c-16.71-1.11-3.73-38.64-6.24-53.67l-.5-3 6-1 .5 3c3.72 22.3-7.39 48.56.2 48.56 3.55 0 8.71-.17 15.86-.39 18.74-.6 50.11-1.61 106.58-1.61H415v6.12h-3c-56.38 0-87.68 1-106.39 1.6-7.21.22-12.41.39-16.06.39z" fill="#fff"/><path d="M418.64 829.61H295.42c-9.78 0-9.63-8.2-7-22.68 2.8-15.59 1.42-26.27.79-30l6-1c3.63 21.83-7.5 47.61.2 47.61h123.23v6.07z" fill="#80848B"/><path d="M568.47 836.25a64.836 64.836 0 01-32.56 8.93H373.13c-36.23 0-75.09-2.63-80.87-17.33-5.78-14.7 248.74-9.38 248.74-9.38s20.07 3.6 22.17 5.18c2.1 1.58 5.3 12.6 5.3 12.6z" fill="#80848B"/><path d="M292.28 773.23l-21.61-157.78c-.41-2.75-14-3.88-13.45-6.32 1.95-8.75 10.29-22.64 32.17-22.64h110.27c12.71 0 24.63 10.29 26.49 22.85 0 0 23.49 155.22 22.61 158.64-.88 3.42-4 10.5-9.8 10.5-5.8 0-145.72 1-145.72 1l-.96-6.25zM429.84 831H300a11 11 0 010-22h129.84a11 11 0 010 22z" fill="#ACB0B5"/><path d="M576.88 847.65a9.208 9.208 0 01-9.1-8c-.19-.87-2.76-10.5-24-10.5H431.29a9.39 9.39 0 01-9.48-8.58 9.19 9.19 0 019.17-9.76H543.8c33.88 0 42.08 20.31 42.28 27.42a9.208 9.208 0 01-8.66 9.44c-.18.003-.36-.003-.54-.02z" fill="#AFB3B8"/><path d="M567.69 838.43c-.005.402.025.803.09 1.2v-.5a5.492 5.492 0 01-.09-.7z" fill="#AFB3B8"/><path opacity=".15" d="M576.88 847.65a9.208 9.208 0 01-9.1-8c-.19-.87-2.76-10.5-24-10.5h-104a9.39 9.39 0 01-9.48-8.58 9.19 9.19 0 019.17-9.76H543.8c33.88 0 42.08 20.31 42.28 27.42a9.208 9.208 0 01-8.66 9.44c-.18.003-.36-.003-.54-.02zm-9.19-9.22c-.005.402.025.803.09 1.2v-.5a5.492 5.492 0 01-.09-.7z" fill="#80848B"/><path d="M558.93 829.61H436.66a7.117 7.117 0 01-6.57-4.67 6.993 6.993 0 01-.43-2.8c.17-13.21 4.9-20.13.6-45.92l-1.73-1.3 7.15-1 .5 3c4.28 25.65-6.3 46.56.43 46.56h122.3l.02 6.13z" fill="#ACB0B5"/><path d="M562.52 830.61H441c-15.1 0-1.13-26.52-6.38-53.6l6.18-1.13c3.72 22.33-5.35 48.61 2.23 48.61h119.49v6.12z" fill="#80848B"/><path d="M590.3 1042.26l-29.48-209.61a9.427 9.427 0 00-9-7.76H461a9.462 9.462 0 00-9 7.76l-29.42 209.61h-6.48L446 831.79a15.623 15.623 0 0115-13h90.83a15.623 15.623 0 0115 13l29.92 210.47h-6.45z" fill="#ACB0B5"/><path d="M422.51 1043.43l28.75-209.65c.75-5.06-1.64-10.14 3.47-10.14l84.53 1.86a11.46 11.46 0 0110.82 9.33l29.41 207.43h10.8L562.6 833.75c-1.28-8.6-12.86-15.28-21.56-15.28l-88.41-.32a18.882 18.882 0 00-18.1 15.6l-29.77 209.68h17.75z" fill="#ACB0B5"/><path opacity=".5" d="M590.3 1042.26l-29.48-209.61a9.427 9.427 0 00-9-7.76H461a9.462 9.462 0 00-9 7.76l-29.58 210.78h-6.59L446 831.79a15.623 15.623 0 0115-13h90.83a15.623 15.623 0 0115 13l29.92 210.47h-6.45z" fill="#000"/><path d="M285.2 773.23l-21.62-157.78c-.41-2.75-9.79-3.88-9.25-6.32 1.95-8.75 19-16.54 29-16.54h110.23c12.71 0 24.63 10.28 26.49 22.86l21.27 162.61-6.3 1.48H286.16l-.96-6.31z" fill="#80848B"/><path d="M283.3 592.59h110.27c8.53 0 16.69 4.63 21.71 11.48a2.997 2.997 0 01-1.4-1c-3.15-3.5-5.95 3.85-5.95 6.65 0 2.21-99.2 11.64-142.92 15.32l-1.42-9.61c-.41-2.75-9.79-3.88-9.25-6.32 1.94-8.73 19.03-16.52 28.96-16.52z" fill="#80848B"/><path d="M273.29 779.54l-21.62-157.79c-1.86-12.57 7-22.85 19.72-22.85h115.52c12.71 0 24.63 10.28 26.49 22.85L435 779.54s-34.31 8.75-88.92 8.75-72.79-8.75-72.79-8.75z" fill="#ACB0B5"/><path d="M687 715.6l-3-8.93-.15-.47-.21-.62-.6-1.8c0-1.92-2-3.81-3.71-4.72l-9.49-5.56a5.113 5.113 0 00-3.79-.44l-18.92 7.75c-.61.16-1.243.211-1.87.15l-68.36-11.18 23.4 31 57.82-3.54h27.22a1.656 1.656 0 001.17-.48 1.68 1.68 0 00.49-1.16z" fill="#F59696"/><path d="M611.49 720.78l1.82-25-36.42-6-56.83-99.16a27.081 27.081 0 00-22.28-12.43l-15.75-.3 5.73 55.85 62.73 87 61 .04z" class="change-color-in-svg" fill="#4D61FC"/><path opacity=".15" d="M524.44 684.61l-9.39-13 4.69 72.54h12s-4.35-33-6.79-46.59c-.26-1.463-.4-2.944-.42-4.43l-.09-8.52z" fill="#000"/><path opacity=".5" d="M435.32 830.61H293.84l2.17 2.28h138.68l.63-2.28zm-19.2 14.56H377.9v7.66h39.34l-1.12-7.66zm52.88 0h-18.68l-1.06 7.66H469v-7.66z" fill="#000"/><path d="M759.25 702.46h-73.64c-.6 0-1.08-1.2-1.08-2.65l12.88-66.67c0-1.49.49-2.65 1.08-2.65h73.64c.6 0 1.08 1.2 1.08 2.65l-12.88 66.67c-.01 1.48-.48 2.65-1.08 2.65z" class="change-color-in-svg" fill="#4D61FC"/><path opacity=".5" d="M759.25 702.46h-73.64c-.6 0-1.08-1.2-1.08-2.65l12.88-66.67c0-1.49.49-2.65 1.08-2.65h73.64c.6 0 1.08 1.2 1.08 2.65l-12.88 66.67c-.01 1.48-.48 2.65-1.08 2.65z" fill="#fff"/><path d="M683.12 700.36L696 632.58a1.999 1.999 0 01.16-.8 2.088 2.088 0 011.94-1.3h71.6c.275-.002.547.052.8.16.512.22.921.628 1.14 1.14.108.253.162.525.16.8l-12.88 67.78a2.117 2.117 0 01-2.1 2.1h-71.6a2.1 2.1 0 01-2.1-2.1z" fill="#fff"/><path d="M704.65 682.85h-6.21c-.206.001-.41-.04-.6-.12a1.551 1.551 0 01-.85-.85 1.527 1.527 0 01-.12-.6v-6.21c-.001-.206.04-.41.12-.6a1.551 1.551 0 01.85-.85c.19-.08.394-.121.6-.12h6.21c.206-.001.41.04.6.12a1.551 1.551 0 01.85.85c.08.19.121.394.12.6v6.21c.001.206-.04.41-.12.6a1.551 1.551 0 01-.85.85c-.19.08-.394.121-.6.12z" class="change-color-in-svg" fill="#4D61FC"/><path opacity=".4" d="M704.65 682.85h-6.21c-.206.001-.41-.04-.6-.12a1.551 1.551 0 01-.85-.85 1.527 1.527 0 01-.12-.6v-6.21c-.001-.206.04-.41.12-.6a1.551 1.551 0 01.85-.85c.19-.08.394-.121.6-.12h6.21c.206-.001.41.04.6.12a1.551 1.551 0 01.85.85c.08.19.121.394.12.6v6.21c.001.206-.04.41-.12.6a1.551 1.551 0 01-.85.85c-.19.08-.394.121-.6.12z" fill="#fff"/><path d="M702.29 680.67l-3-3a.462.462 0 01-.11-.29c0-.11.039-.216.11-.3l.78-.78a.462.462 0 01.29-.11c.11 0 .216.039.3.11l1.91 1.91 4.6-4.62a.464.464 0 01.3-.11.462.462 0 01.29.11l.78.78a.46.46 0 01.11.29c0 .11-.039.216-.11.3l-5.68 5.68a.41.41 0 01-.57.03z" class="change-color-in-svg" fill="#4D61FC"/><path d="M753.24 676.54h-41a.795.795 0 01-.569-.231.795.795 0 01-.231-.569v-.3a.8.8 0 01.8-.8h41a.8.8 0 01.8.8v.3a.795.795 0 01-.231.569.795.795 0 01-.569.231z" fill="#ACB0B5"/><path opacity=".5" d="M725.26 681.71h-13a.823.823 0 01-.742-.496.776.776 0 01-.058-.304.792.792 0 01.8-.8h13a.795.795 0 01.569.231.792.792 0 01.231.569.758.758 0 01-.23.56.823.823 0 01-.57.24z" fill="#ACB0B5"/><path d="M701.08 697.55h-6.21a1.56 1.56 0 01-1.1-.45 1.544 1.544 0 01-.47-1.1v-6.21c.003-.314.099-.62.278-.878.178-.259.429-.458.722-.572.19-.08.394-.121.6-.12h6.21c.206-.001.41.04.6.12.293.114.544.313.722.572.179.258.275.564.278.878V696a1.53 1.53 0 01-.47 1.1 1.56 1.56 0 01-1.1.45h-.06z" class="change-color-in-svg" fill="#4D61FC"/><path opacity=".4" d="M701.08 697.55h-6.21a1.56 1.56 0 01-1.1-.45 1.544 1.544 0 01-.47-1.1v-6.21c.003-.314.099-.62.278-.878.178-.259.429-.458.722-.572.19-.08.394-.121.6-.12h6.21c.206-.001.41.04.6.12.293.114.544.313.722.572.179.258.275.564.278.878V696a1.53 1.53 0 01-.47 1.1 1.56 1.56 0 01-1.1.45h-.06z" fill="#fff"/><path d="M698.72 695.36l-3-3a.462.462 0 01-.11-.29c0-.11.039-.216.11-.3l.78-.78a.46.46 0 01.29-.11c.11 0 .216.039.3.11l1.91 1.91 4.6-4.62a.464.464 0 01.3-.11.46.46 0 01.29.11l.78.78a.46.46 0 01.11.29c0 .11-.039.216-.11.3l-5.68 5.68a.303.303 0 01-.13.09.256.256 0 01-.15 0 .31.31 0 01-.16 0 .35.35 0 01-.13-.08v.02zm48.17-40.94a21.269 21.269 0 01-4.12 8 24.744 24.744 0 01-1.75 1.94 23.501 23.501 0 01-4.84 3.73c-.147.098-.3.185-.46.26a19.358 19.358 0 01-5.22 2.06c-.32.08-.65.16-1 .22a17.822 17.822 0 01-3.5.37h-1.23a13.103 13.103 0 01-2.21-.34h-.1a10.144 10.144 0 01-1.11-.31 11.783 11.783 0 01-4.26-2.47c-.18-.15-.35-.32-.52-.49v-.05c-.18-.19-.36-.38-.52-.58-.16-.2-.21-.25-.3-.38-.26-.34-.5-.69-.73-1.06a12.129 12.129 0 01-1.4-3.52l-.06-.25a15.486 15.486 0 01.29-7.05c2.41-9.16 11.76-16.58 20.89-16.58s14.55 7.34 12.15 16.5z" class="change-color-in-svg" fill="#4D61FC"/><path opacity=".6" d="M746.89 654.42a21.269 21.269 0 01-4.12 8 24.744 24.744 0 01-1.75 1.94 23.501 23.501 0 01-4.84 3.73c-.147.098-.3.185-.46.26a19.358 19.358 0 01-5.22 2.06c-.32.08-.65.16-1 .22a17.822 17.822 0 01-3.5.37h-1.23a13.103 13.103 0 01-2.21-.34h-.1a10.144 10.144 0 01-1.11-.31 11.783 11.783 0 01-4.26-2.47c-.18-.15-.35-.32-.52-.49v-.05c-.18-.19-.36-.38-.52-.58-.16-.2-.21-.25-.3-.38-.26-.34-.5-.69-.73-1.06a12.129 12.129 0 01-1.4-3.52l-.06-.25a15.486 15.486 0 01.29-7.05c2.41-9.16 11.76-16.58 20.89-16.58s14.55 7.34 12.15 16.5z" fill="#fff"/><path d="M749.67 691.24h-41a.808.808 0 01-.57-.23.831.831 0 01-.23-.57v-.3a.795.795 0 01.231-.569.795.795 0 01.569-.231h41a.795.795 0 01.569.231.795.795 0 01.231.569v.3a.831.831 0 01-.23.57.808.808 0 01-.57.23z" fill="#ACB0B5"/><path opacity=".5" d="M721.69 696.41h-13a.795.795 0 01-.569-.231.795.795 0 01-.231-.569.831.831 0 01.23-.57.861.861 0 01.57-.23h13a.861.861 0 01.57.23.831.831 0 01.172.878.815.815 0 01-.173.261.795.795 0 01-.569.231z" fill="#ACB0B5"/><path d="M734.16 654.28v.18c-.15.61-.49 2-.93 3.9-.08.32-.15.66-.24 1-.66 2.9-1.6 6.95-2.45 11.19-1 1-8.56.71-9-.36 1.62-4.56 3-8.29 4-11 .12-.29.22-.57.32-.84 1-2.76 1.67-4.32 1.74-4.5h.12s1.65 3.39 5.62.74l.59-.55.23.24z" fill="#fff"/><path d="M729.11 647.71l-1.75 6.84a.552.552 0 000 .4v.05c1.25 1.69 3.93 1.56 6.31-.07a1.002 1.002 0 00.44-.68l.8-7.06-5.8.52z" fill="#FC9D9D"/><path d="M736.22 644.81s-.86 7.7-5.18 8c-4.32.3-2.3-7.49-2.3-7.49l.47-2.23 5.59-1 1.16.7.26 2.02z" fill="#FC9D9D"/><path opacity=".15" d="M734.38 652.18l.25-2.12a4.672 4.672 0 01-1.33 1.75 4.837 4.837 0 01-2 1h-.3a2.124 2.124 0 01-1.441-.331 2.122 2.122 0 01-.879-1.189s-.07-.06-.12 0c.152.519.485.967.94 1.26a2.21 2.21 0 001.5.45c.261-.021.519-.068.77-.14a3.911 3.911 0 002.61-.68z" fill="#000"/><path d="M735.66 643.08s1.59-.9 1.83.64a4.109 4.109 0 01-1.08 2.7l-.76-.08c-.32 0-.52-.16-.46-.49l.47-2.77z" fill="#21252B"/><path d="M736.88 642.14c-.101.509-.368.97-.76 1.31a2.385 2.385 0 01-1.39.59l-4.28.35a.858.858 0 00-.48.22.864.864 0 00-.28.45l-.27 1.34a.465.465 0 01-.15.24.5.5 0 01-.25.13h-.26l-.38.36c-1.54-.4-1-5.08 2.27-6a1.84 1.84 0 00.91-.64c.68-.92 2.55-1.15 3.19-.14a.59.59 0 00.27.25.652.652 0 00.36.07c1.12-.02 1.62.67 1.5 1.47z" fill="#21252B"/><path d="M728.65 647.25c.08-.54-.49-.82-1-.47-.88.63-.93 2.6.7 2.42l.3-1.95zm8.17-1.04c-.38-.28-1.07.08-1.19.63l-.41 1.88c1.6-.07 2.27-2 1.6-2.51z" fill="#FC9D9D"/><path d="M728.78 647.5a.252.252 0 01-.083.133.255.255 0 01-.147.057h-.12v-.06a.122.122 0 010-.06l.15-1.26h.42l-.22 1.19zm7.12-.5a.294.294 0 01-.08.14.385.385 0 01-.15.06c-.11 0-.19 0-.18-.15l.15-1.26h.52l-.26 1.21zm-5.09 1.2a.333.333 0 00.178-.231.345.345 0 00-.005-.15.34.34 0 00-.192-.22.342.342 0 00-.291.019.326.326 0 00-.11.102.388.388 0 00-.11.52.377.377 0 00.53-.04z" fill="#21252B"/><path d="M730.46 648a.091.091 0 00.02-.024.082.082 0 00.007-.031.082.082 0 00-.007-.031.091.091 0 00-.02-.024h-.11a.091.091 0 00-.02.024.082.082 0 00-.007.031c0 .011.003.021.007.031a.091.091 0 00.02.024h.11z" fill="#fff"/><path d="M733.67 648a.333.333 0 00.177-.231.33.33 0 00-.196-.37.342.342 0 00-.291.019.326.326 0 00-.11.102.379.379 0 00-.1.52.376.376 0 00.268.083.375.375 0 00.252-.123z" fill="#21252B"/><path d="M733.34 647.77v-.11a.082.082 0 00-.055-.022c-.02 0-.04.008-.055.022v.12a.089.089 0 00.11-.01z" fill="#fff"/><path d="M734.75 646.78l-1.62.09h-.22l-1.42.08-1.83.11a.74.74 0 00-.42.17 3.703 3.703 0 00-.31.8c-.03.149-.03.301 0 .45a.992.992 0 00.4.68c.22.167.496.242.77.21.416-.038.809-.21 1.12-.49.306-.262.526-.611.63-1 .056-.229.086-.464.09-.7h.57c-.112.233-.2.478-.26.73a.997.997 0 000 .52c.037.173.116.334.23.47.114.136.263.24.43.3.164.069.344.093.52.07.303-.032.596-.128.86-.28a1.999 1.999 0 00.9-1.24c.048-.211.085-.425.11-.64a.434.434 0 00-.11-.2.861.861 0 00-.42-.09l-.02-.04z" stroke="#21252B" stroke-width=".4" stroke-miterlimit="10"/><path d="M732.49 650.18c-.26 1-1.86 1.15-2 .2l2-.2z" fill="#fff"/><path opacity=".3" d="M728 648.27c-.28-.13.18-.92-.39-.88-.12-.23.3-.24.4-.1.1.14.25.86 0 1l-.01-.02z" fill="#000"/><path d="M742.77 662.38c.059-.062.112-.129.16-.2l-.37-3.41a1.472 1.472 0 000-.23v-.09a3.268 3.268 0 00-.16-.53.28.28 0 000-.1 1.35 1.35 0 000-.09 3.419 3.419 0 00-.81-1.11 3.327 3.327 0 00-.87-.56l-.18-.07-1.21-.45h-.14l-2.65-1-1.21-.46-.17-.06-.79-.29v.25c-.23 1.26-3 8.85-3.83 16.58l.19-.05a19.257 19.257 0 005.22-2.06c.16-.075.313-.162.46-.26.42-.24.83-.5 1.24-.77l.24-2.08.3 1.66H738a23.992 23.992 0 003-2.53 24.674 24.674 0 001.77-2.09z" fill="#21252B"/><path opacity=".3" d="M742.56 658.77c0 .57.35 3.14.32 3.75a24.744 24.744 0 01-1.75 1.94c-.16-2.41 1.56-7.86-1.61-8.71 1.86.5 2.64 1.03 3.04 3.02zm-6.38 8.16l-.46 1.38c-.69.399-1.405.753-2.14 1.06l1.94-6.86c.07-.24.42-.28.43-.06l.23 4.48z" fill="#000"/><path d="M734.24 653.64l.79.89.06 5.1-2.09-1.17 1.18-4.1.06-.72z" fill="#21252B"/><path opacity=".3" d="M735.22 654.57l-.2-.05.07 5.11-2.09-1.17-.31 1.08 2.6.28-.07-5.25z" fill="#000"/><path opacity=".15" d="M724.36 670.83c2.13-9.16 3-16.4 3-16.4l-4.71 16.13a7.62 7.62 0 001.71.27z" fill="#000"/><path d="M716.77 667.16l-.1.28c-.18-.19-.45-.41-.61-.61-.16-.2-.21-.25-.3-.38-.26-.34-.5-.69-.73-1.06a12.05 12.05 0 01-1.4-3.52l1.3-1.82.4-.56 1.13 6 .14.76.17.91z" fill="#FC9D9D"/><path d="M727.49 654v.07a.061.061 0 000 .06v.15l-.06.25v.17l-.8 3.38-.26 1.08c-.73 3-1.76 7.2-2.93 11.58-.646-.12-1.284-.28-1.91-.48a11 11 0 01-4.26-2.47l.39-1.65.3-1.25-1.24 1.24-.54.55c-.11-.13-.21-.25-.3-.38-.26-.34-.5-.69-.73-1.06l-.1-5.34v-.24c.19-.35.36-.65.52-.92l.2-.3a5.29 5.29 0 011.36-1.43 5.68 5.68 0 011.91-.94l7.37-1.87.22-.06.86-.14z" fill="#21252B"/><path d="M718.58 665l-1 1.33-.91 1.16a10.92 10.92 0 01-3.09-5.77l2-2.79.2-.3.78-.35 2.02 6.72zm9.05-11.52l-1.13.82-2.74 5.1 2.74-1.16 1.13-4.76z" fill="#21252B"/><path opacity=".3" d="M726.29 654.35l.22-.06-2.75 5.11 2.74-1.16-.26 1.08-2.74.27 2.79-5.24zm-8.18 9.41l-.3 1.31-.28 1.23-.91 1.11c-.18-.19-.36-.38-.52-.58-.16-.2-.21-.25-.3-.38l.7-.93 1.38-1.83c.12-.14.27-.09.23.07zm13.65-14.07h.24a.056.056 0 00.042-.018.056.056 0 00.018-.042.056.056 0 00-.018-.042.056.056 0 00-.042-.018h-.27a.123.123 0 01-.085-.035.123.123 0 01-.035-.085.135.135 0 01.006-.049.118.118 0 01.066-.071.112.112 0 01.048-.01.067.067 0 00.043-.024.07.07 0 00.017-.046.056.056 0 00-.018-.042.056.056 0 00-.042-.018.25.25 0 100 .5h.03z" fill="#000"/></svg>