<svg class="gridItem__media" xmlns="http://www.w3.org/2000/svg" width="1600" height="1200" fill="none"><path d="M277.68 1041.42L215 586.47a55.998 55.998 0 0112-43l240.66-296.3a55.998 55.998 0 0134.81-20l439.72-68.8a56.002 56.002 0 0143.07 11.14l378.69 294.92a56.053 56.053 0 0119.12 27.719 56.065 56.065 0 01-.24 33.671l-166.48 515.57-938.67.03z" fill="#F4F4F4"/><path d="M917.86 240.551l-131.55 26.89a11.492 11.492 0 00-8.6 7.62l-42.49 127.37a11.495 11.495 0 002.3 11.26l89.06 100.48a11.5 11.5 0 0010.9 3.64L969 490.921a11.51 11.51 0 005.32-2.659 11.516 11.516 0 003.28-4.961l42.49-127.37c.64-1.914.76-3.962.36-5.938a11.534 11.534 0 00-2.66-5.322l-89.03-100.48a11.51 11.51 0 00-10.9-3.64z" fill="#DCDCDC"/><path d="M850.76 383.439l-6.76 2.56-19.16 9.8c-.11.17-8 2.31-5.77 12.67.35 1.59.71 3.22 1.09 4.86 5.49 23.83 2.78 29.35 6.11 44.45 4.73 21.53 25.7 18.84 35.48 40.73 16.63 37.24 13.2 64.22 13.2 64.22l121.67-41.24s0-.91-1.73-4.32a148.337 148.337 0 00-9-14.69c-11.63-17.24-23.39-72-23.39-72l-5.32-35.86c-3.33-22.46-47.42-31.08-47.42-31.08l-59 19.9z" class="change-color-in-svg" fill="#44a7ef"/><path d="M851.62 438.789a1.479 1.479 0 10-1.19-1.72 1.452 1.452 0 001.19 1.72zm73.83-19.74a1.479 1.479 0 10-.046-2.902 1.481 1.481 0 00-1.144 1.182 1.448 1.448 0 001.19 1.72zm2.62-27.129a1.48 1.48 0 10-1.19-1.72 1.452 1.452 0 00.647 1.515c.165.104.35.174.543.205zm-104.13 14.231c.288.052.585.018.854-.098a1.483 1.483 0 00.629-2.2 1.485 1.485 0 00-2.281-.187c-.204.21-.34.477-.392.765a1.452 1.452 0 00.647 1.515c.165.104.35.174.543.205zm32.64 60.429a1.479 1.479 0 10-1.19-1.72 1.452 1.452 0 001.19 1.72zm-19.89-13.939a1.475 1.475 0 001.746-1.48 1.48 1.48 0 00-2.936-.24 1.452 1.452 0 00.647 1.515c.165.104.35.174.543.205zm37.9-16.811a1.48 1.48 0 10-1.19-1.72 1.448 1.448 0 001.19 1.72zm59.29 2.959a1.48 1.48 0 10-1.19-1.72 1.448 1.448 0 001.19 1.72zm-10.6 18.621a1.476 1.476 0 001.509-.653 1.483 1.483 0 00-.026-1.644 1.486 1.486 0 00-.673-.535 1.486 1.486 0 00-1.608.348 1.47 1.47 0 00-.392.764 1.457 1.457 0 00.228 1.114 1.443 1.443 0 00.962.606zm-47.43 19.76a1.48 1.48 0 10-1.19-1.72 1.446 1.446 0 001.19 1.72zm30.41-73.349a1.489 1.489 0 001.51-.654 1.482 1.482 0 00-.7-2.179 1.482 1.482 0 00-2 1.113c-.039.191-.039.388.001.58a1.456 1.456 0 001.189 1.14zm23.29-29.102a1.48 1.48 0 10-1.19-1.72 1.439 1.439 0 00.647 1.515c.166.104.35.174.543.205zm-73.46 27.611a1.48 1.48 0 10-1.19-1.72 1.448 1.448 0 001.19 1.72zM902 456.799a1.48 1.48 0 10-1.19-1.72 1.452 1.452 0 001.19 1.72zm-22.68 2.092a1.48 1.48 0 10-1.19-1.72 1.427 1.427 0 00.643 1.52c.166.103.353.172.547.2zM893 424.299a1.48 1.48 0 10-1.19-1.72 1.452 1.452 0 001.19 1.72zm18.76 10.541a1.48 1.48 0 10-1.19-1.72c-.039.192-.039.389.001.58a1.452 1.452 0 001.189 1.14zm-38.65-19.33a1.48 1.48 0 10-1.19-1.72 1.452 1.452 0 00.647 1.515c.165.104.35.174.543.205zm11.28-13.891a1.48 1.48 0 10-1.19-1.72 1.449 1.449 0 001.19 1.72zM911.32 383a1.48 1.48 0 10-1.19-1.72 1.452 1.452 0 00.647 1.515c.165.104.35.174.543.205z" fill="#F3F3F3"/><path d="M635.15 486.051h412.67c.8.001 1.59.182 2.31.529a5.35 5.35 0 012.88 3.612c.18.78.18 1.589 0 2.369l-57.32 252.78a5.33 5.33 0 01-5.19 4.14H577.83a5.324 5.324 0 01-4.16-2.008 5.327 5.327 0 01-1.03-4.502L630 490.191a5.322 5.322 0 015.15-4.14z" class="change-color-in-svg" fill="#44a7ef"/><path opacity=".2" d="M635.15 486.051h412.67c.8.001 1.59.182 2.31.529a5.35 5.35 0 012.88 3.612c.18.78.18 1.589 0 2.369l-57.32 252.78a5.33 5.33 0 01-5.19 4.14H577.83a5.324 5.324 0 01-4.16-2.008 5.327 5.327 0 01-1.03-4.502L630 490.191a5.322 5.322 0 015.15-4.14z" fill="#fff"/><path d="M625.83 486.051h412.67c.8.001 1.59.182 2.31.529a5.35 5.35 0 012.88 3.612c.18.78.18 1.589 0 2.369l-57.32 252.78a5.33 5.33 0 01-5.19 4.14H568.52a5.32 5.32 0 01-4.16-2.008 5.327 5.327 0 01-1.03-4.502l57.32-252.78a5.318 5.318 0 015.18-4.14z" class="change-color-in-svg" fill="#44a7ef"/><path opacity=".7" d="M625.83 486.051h412.67c.8.001 1.59.182 2.31.529a5.35 5.35 0 012.88 3.612c.18.78.18 1.589 0 2.369l-57.32 252.78a5.33 5.33 0 01-5.19 4.14H568.52a5.32 5.32 0 01-4.16-2.008 5.327 5.327 0 01-1.03-4.502l57.32-252.78a5.318 5.318 0 015.18-4.14z" fill="#fff"/><path d="M720 535.071h-80.9a5.262 5.262 0 01-5.25-5.25l5.22-20.19a5.263 5.263 0 015.25-5.25h80.9a5.262 5.262 0 015.25 5.25l-5.22 20.19a5.261 5.261 0 01-5.25 5.25zm-75.69-29.35a3.926 3.926 0 00-3.92 3.92l-5.22 20.19a3.934 3.934 0 001.151 2.769 3.934 3.934 0 002.769 1.151H720a3.93 3.93 0 003.92-3.92l5.22-20.19a3.928 3.928 0 00-3.92-3.92h-80.91zm189.19 29.35h-80.9a5.263 5.263 0 01-5.25-5.25l5.22-20.19a5.257 5.257 0 015.25-5.25h80.9a5.261 5.261 0 015.25 5.25l-5.22 20.19a5.262 5.262 0 01-5.25 5.25zm-75.69-29.35a3.924 3.924 0 00-2.769 1.151 3.924 3.924 0 00-1.151 2.769l-5.22 20.19a3.926 3.926 0 003.92 3.92h80.9a3.936 3.936 0 002.769-1.151 3.934 3.934 0 001.151-2.769l5.22-20.19a3.933 3.933 0 00-3.92-3.92h-80.9zM822.7 576H706a4.08 4.08 0 01-4.08-4.08 4.08 4.08 0 014.08-4.08h116.7a4.08 4.08 0 014.08 4.08 4.07 4.07 0 01-4.08 4.08zm-67.94 31.199h-52.58a4.079 4.079 0 110-8.16h52.58a4.079 4.079 0 014.08 4.08 4.07 4.07 0 01-4.08 4.08z" class="change-color-in-svg" fill="#44a7ef"/><path opacity=".9" d="M822.7 576H706a4.08 4.08 0 01-4.08-4.08 4.08 4.08 0 014.08-4.08h116.7a4.08 4.08 0 014.08 4.08 4.07 4.07 0 01-4.08 4.08zm-67.94 31.199h-52.58a4.079 4.079 0 110-8.16h52.58a4.079 4.079 0 014.08 4.08 4.07 4.07 0 01-4.08 4.08z" fill="#fff"/><path d="M856.91 576h-14a4.08 4.08 0 010-8.16h14a4.08 4.08 0 014.08 4.08 4.08 4.08 0 01-4.08 4.08zm-176.64 4.29H669.7a3.054 3.054 0 01-2.965-2.311 3.067 3.067 0 01-.035-1.338l2.12-10.7a3.052 3.052 0 013-2.461h10.58a3.07 3.07 0 012.361 1.117 3.067 3.067 0 01.639 2.534l-2.12 10.7a3.072 3.072 0 01-3.01 2.459z" class="change-color-in-svg" fill="#44a7ef"/><path opacity=".9" d="M680.27 580.29H669.7a3.054 3.054 0 01-2.965-2.311 3.067 3.067 0 01-.035-1.338l2.12-10.7a3.052 3.052 0 013-2.461h10.58a3.07 3.07 0 012.361 1.117 3.067 3.067 0 01.639 2.534l-2.12 10.7a3.072 3.072 0 01-3.01 2.459z" fill="#fff"/><path d="M674.7 610.54h-10.58a3.054 3.054 0 01-2.965-2.311 3.067 3.067 0 01-.035-1.338l2.12-10.7a3.052 3.052 0 013-2.461h10.58a3.062 3.062 0 013 3.651l-2.12 10.7a3.063 3.063 0 01-3 2.459z" class="change-color-in-svg" fill="#44a7ef"/><path d="M244.92 1042.28h1012.3c.06 0 .11-.01.16-.03.06-.02.1-.06.14-.1.04-.04.08-.08.1-.14.02-.05.03-.1.03-.16s-.01-.11-.03-.16a.359.359 0 00-.1-.14.359.359 0 00-.14-.1.415.415 0 00-.16-.03H244.92a.437.437 0 00-.43.43.437.437 0 00.43.43z" fill="#B1B5BA"/><path d="M288.64 770.19a125.262 125.262 0 01206.469-104.646 125.257 125.257 0 01-4.301 193.636A125.262 125.262 0 01423 885.5a125.182 125.182 0 01-91.064-29.826 125.202 125.202 0 01-43.296-85.484z" fill="#DCDCDC"/><path d="M539.69 704.301l18.09-2.13a3.088 3.088 0 013.18 4.32l-1.96 4.39a6.87 6.87 0 01-3.86 3.64l-23.65 8.8 9.54-20.51" fill="#FC9D9D"/><path opacity=".15" d="M539.69 704.301l18.09-2.13a3.088 3.088 0 013.18 4.32l-1.96 4.39a6.87 6.87 0 01-3.86 3.64l-23.65 8.8" fill="#000"/><path d="M615.08 814.601l-86-47.6a4.133 4.133 0 01-1.55-5.74l66.57-111.74a4.11 4.11 0 015.42-1.55l87.54 45.12a4.121 4.121 0 011.65 5.76l-68.07 114.25a4.14 4.14 0 01-5.56 1.5z" class="change-color-in-svg" fill="#44a7ef"/><path opacity=".5" d="M615.08 814.601l-86-47.6a4.133 4.133 0 01-1.55-5.74l66.57-111.74a4.11 4.11 0 015.42-1.55l87.54 45.12a4.121 4.121 0 011.65 5.76l-68.07 114.25a4.14 4.14 0 01-5.56 1.5z" fill="#F4F4F4"/><path d="M610.73 812.32l-86-47.6a4.134 4.134 0 01-2.098-4.186c.076-.55.263-1.078.548-1.554l66.57-111.74a4.11 4.11 0 015.42-1.55l87.54 45.12a4.116 4.116 0 011.65 5.76l-68.07 114.26a4.15 4.15 0 01-5.56 1.49z" fill="#fff"/><path d="M517.08 726.409l11.73-19.92a12.613 12.613 0 017.14-5.66l20.65-6.46a2.622 2.622 0 013.237 1.516 2.622 2.622 0 01-1.287 3.334l-16.88 8.43-7.69 15a1.744 1.744 0 001.485 2.541c.393.014.779-.107 1.095-.341l7.73-5.7a6.002 6.002 0 018.07.95 1.51 1.51 0 010 1.92l-27.86 33.17-28.6-8.78 21.18-20z" fill="#FC9D9D"/><path opacity=".3" d="M551.55 753.641a.527.527 0 01-.24-.06l-12.63-6.92a.5.5 0 01-.24-.31.467.467 0 01.06-.4l7.59-12.06a.5.5 0 01.66-.17l12.64 6.92a.48.48 0 01.24.31.482.482 0 01-.06.4l-7.57 12.06a.486.486 0 01-.45.23zm-11.92-7.64l11.75 6.44 7.06-11.22-11.76-6.44-7.05 11.22zm23.21-10.28a.53.53 0 01-.24-.06l-12.6-6.92a.487.487 0 01-.24-.31.483.483 0 01.06-.4l7.6-12.06a.5.5 0 01.66-.17l12.63 6.92a.486.486 0 01.24.31.467.467 0 01-.06.4l-7.59 12.06a.484.484 0 01-.46.23zm-11.93-7.6l11.76 6.44 7.05-11.22-11.72-6.44-7.09 11.22z" fill="#61656D"/><path d="M547.34 747.661l-.7-5.66a.6.6 0 01.49-.63l1.49-.18a.6.6 0 01.63.49l.45 3.64 8.79-1.1a.601.601 0 01.63.49l.18 1.49a.592.592 0 01-.49.63l-10.81 1.34a.574.574 0 01-.64-.51m11.41-17.932l-.7-5.66a.6.6 0 01.49-.63l1.49-.18a.6.6 0 01.63.49l.45 3.64 8.79-1.1a.6.6 0 01.63.49l.18 1.49a.591.591 0 01-.49.63l-10.83 1.34a.578.578 0 01-.64-.51" class="change-color-in-svg" fill="#44a7ef"/><path opacity=".3" d="M599.05 777.26l-39.36-21.87a1.069 1.069 0 01-.41-1.45 1.074 1.074 0 011.45-.41l39.36 21.87c.246.139.427.369.503.641.077.272.044.562-.093.809a1.083 1.083 0 01-1.45.41zM583.4 762.7L562.27 751a1.07 1.07 0 01-.41-1.45 1.07 1.07 0 011.45-.41l21.13 11.72a1.072 1.072 0 01.41 1.45 1.05 1.05 0 01-1.058.523 1.054 1.054 0 01-.392-.133zm26.69-4.561l-39.36-21.87a1.069 1.069 0 01-.41-1.45 1.074 1.074 0 011.45-.41l39.36 21.87c.246.139.427.369.503.641.077.271.044.562-.093.809a1.083 1.083 0 01-1.45.41zm-15.65-14.56l-21.13-11.72a1.072 1.072 0 01-.41-1.45c.139-.246.369-.427.641-.503.271-.077.562-.044.809.093l21.13 11.72a1.07 1.07 0 01.41 1.45 1.07 1.07 0 01-1.45.41z" fill="#61656D"/><path d="M634.07 758.32a.445.445 0 01-.25-.07c-2.8-1.64-6.19-1.92-9.17-2.16-2.98-.24-5.47-.45-6.25-2.1-.78-1.65.54-7.47 2.8-16.71 2.83-11.53 6.71-27.33 3-29.33-2.19-1.16-7.63 1.91-11.61 4.15-1.56.88-2.91 1.64-4 2.11h-.1a5.21 5.21 0 01-4.78-.34 5.84 5.84 0 01-2.8-4.45c-.32-3.39.34-8.2 1-12.86.87-6.34 1.85-13.53-.34-14.7-2.49-1.31-9.9 4.9-14.33 8.62-1.6 1.35-3 2.51-3.87 3.1-3.86 2.63-8.82 1.2-9 1.14a.515.515 0 01-.36-.64.517.517 0 01.64-.36s4.72 1.35 8.19-1c.83-.57 2.2-1.72 3.79-3 6.51-5.46 12.59-10.25 15.44-8.73 2.85 1.52 1.9 8.09.86 15.72-.63 4.6-1.28 9.35-1 12.62a4.823 4.823 0 002.31 3.69 4.252 4.252 0 003.86.29h.1c1-.45 2.4-1.24 3.87-2.07 4.42-2.49 9.91-5.59 12.59-4.16 4.42 2.37.76 17.28-2.48 30.45-1.75 7.16-3.57 14.56-2.87 16.05.53 1.12 2.8 1.31 5.43 1.52 2.94.24 6.6.54 9.59 2.3a.501.501 0 01-.25.93l-.01-.01z" fill="#000"/><path d="M601.64 682.9a1.5 1.5 0 10.001-2.999 1.5 1.5 0 00-.001 2.999zm12.08 29.43a1.5 1.5 0 100-3 1.5 1.5 0 000 3zm14.64 45.19a1.5 1.5 0 10-.001-3.001 1.5 1.5 0 00.001 3.001z" class="change-color-in-svg" fill="#44a7ef"/><path d="M660.15 671l-8.2-4.51a12.126 12.126 0 00-1.168-13.418 12.123 12.123 0 00-20.082 1.748l-8.2-4.51a1.998 1.998 0 00-2.73.79l-10 18.29a2.016 2.016 0 00-.174 1.53 1.989 1.989 0 00.964 1.2l37.65 20.69a1.997 1.997 0 002.226-.188c.207-.165.378-.37.504-.602l10.05-18.29a1.994 1.994 0 00.153-1.541 1.998 1.998 0 00-.993-1.189zM645 662.62a4.174 4.174 0 01-4.122 2.139 4.183 4.183 0 01-3.525-5.415 4.176 4.176 0 017.995.095 4.184 4.184 0 01-.348 3.181z" fill="#000"/><path d="M617.5 664.851l33 18.14a1.985 1.985 0 01.964 1.2 1.988 1.988 0 01-.174 1.53l-1.49 2.7a2.015 2.015 0 01-1.2.964 2.01 2.01 0 01-1.53-.174l-33-18.14a2.003 2.003 0 01-.79-2.73l1.49-2.7a2.005 2.005 0 011.2-.965 2.006 2.006 0 011.53.175z" fill="#fff"/><path d="M469.6 758.721l40.17-25.41 17.71 18.32-45.83 58.9-12.05-51.81z" class="change-color-in-svg" fill="#44a7ef"/><path d="M631.7 764.3l-15.28-6.3a2.795 2.795 0 00-2.794.381A2.798 2.798 0 00612.58 761l.62 4.32c.118.818.399 1.605.825 2.314a6.214 6.214 0 001.655 1.816l18.5 13.49-3.3-20.26" fill="#FC9D9D"/><path opacity=".15" d="M631.7 764.3l-15.28-6.3a2.795 2.795 0 00-2.794.381A2.798 2.798 0 00612.58 761l.62 4.32c.118.818.399 1.605.825 2.314a6.214 6.214 0 001.655 1.816l18.5 13.49-3.3-20.26" fill="#000"/><path d="M638.62 783.29l-3.61-8.9A2.002 2.002 0 01635 773a110.375 110.375 0 003-11.25 1.998 1.998 0 00-1.28-2.24c-3.89-1.47-14.34-5.37-15.44-5.3a2.398 2.398 0 00-1.524.626A2.396 2.396 0 00619 756.3c-.63 4.83 8.57 7.64 8.57 7.64L620 775.87a1.58 1.58 0 01-2.66-1.56l2.59-8.32a5.398 5.398 0 00-3.21-6.64 1.367 1.367 0 00-1.65.56l-20.18 33.74 16 21.93 27.32-30.16a2.003 2.003 0 00.41-2.13z" fill="#FC9D9D"/><path d="M609.83 741.44a.419.419 0 00-.22.55l.58 1.33.81-.32-.58-1.33a.414.414 0 00-.243-.249.416.416 0 00-.347.019z" fill="#3F4249"/><path d="M609.83 741.44a.419.419 0 00-.22.55l.58 1.33.81-.32-.58-1.33a.414.414 0 00-.243-.249.416.416 0 00-.347.019z" fill="#000"/><path d="M619.22 754.311l-1.66.72 23.63 54.15 1.29-.56a.41.41 0 00.21-.54l-23.47-53.77zm-2.42 1.039l-4 1.72 23.46 53.77a.41.41 0 00.54.21l3.58-1.55-23.58-54.15z" fill="#3F4249"/><path d="M619.22 754.311l-1.66.72 23.63 54.15 1.29-.56a.41.41 0 00.21-.54l-23.47-53.77zm-2.42 1.039l-4 1.72 23.46 53.77a.41.41 0 00.54.21l3.58-1.55-23.58-54.15z" fill="#000"/><path d="M643.19 814l-3 1.281a.664.664 0 01-.727-.134.65.65 0 01-.143-.217l-1.8-4.149 4.17-1.801 1.8 4.15a.661.661 0 01-.3.87zm-23.97-59.69l-6.37 2.76-1.85-4.23c-.76-1.76-2.34-9.32-.58-10.08 1.76-.76 6.19 5.56 6.95 7.32l1.85 4.23zm12.58 46.13l3.31 7.64-3.89-1.59-.64-1.48-2.67-6.16-8.16-18.85-1.4-3.24.6-.26a1.763 1.763 0 012.206.571 1.76 1.76 0 01-.206 2.269l8.76 20.21 2.09.89z" fill="#3F4249"/><path d="M594.91 793.659l20.18-33.74a1.35 1.35 0 011.65-.56 5.388 5.388 0 013.26 6.64l-2.59 8.32-22.5 19.34zM532 610.73l4.4 29.55a4.181 4.181 0 002.6 3.26l3.42 1.34a5.56 5.56 0 013.51 5.57v.11a5.723 5.723 0 01-4.54 5.2c-2 .4-3.85.81-3.85.81l-3.64 16.13a15.898 15.898 0 01-18.16 12.18l-8.29-1.39-27.58 31.69L453.32 669l14.87-22.17L482.63 602l49.37 8.73z" fill="#FC9D9D"/><path d="M462.11 600.001c5-9.42 11.3-12.61 20.95-11.83a4.317 4.317 0 003.76-2.33c2-3.23 6.9-8.74 17.3-8.07a17.548 17.548 0 0114.59 8.71 5.002 5.002 0 006.2 1.9 14.257 14.257 0 017.19-1.126c2.454.252 4.8 1.136 6.81 2.566 10.74 7.06 5.9 25.7-5.71 27.18l-9.28.77a3.61 3.61 0 00-3.32 3.23 13.127 13.127 0 01-1.44 4.7 13.368 13.368 0 01-13.47 7 2.165 2.165 0 00-2.179 1.293c-.12.276-.182.575-.181.877v10.41a2.822 2.822 0 01-1.6 2.58 2.687 2.687 0 01-2.198-.01 2.67 2.67 0 01-1.452-1.65l-2.16-6.9a6.325 6.325 0 00-5.31-4.39l-2.72-.32c-2.71 3.91-5.22 8.29-7.54 11.68a25.762 25.762 0 01-5.53 6.15c-3.93 2.93-7.09 1.89-9-2.15 0 0-11.82-26.16-5.76-45.4a29.09 29.09 0 012.06-4.92" fill="#21252B"/><path opacity=".15" d="M474.82 652.481l7.67.95c.25.15.53.29.81.44 2.65 1.38 7.06 3.2 10.71 2.26a1.004 1.004 0 00.25-1.836 1 1 0 00-.76-.104 6.665 6.665 0 01-1.85.19l-11.3-8a26.03 26.03 0 01-5.53 6.15" fill="#000"/><path d="M539.803 633.963l-45.82 3.207.162 2.31 45.82-3.207-.162-2.31z" class="change-color-in-svg" fill="#44a7ef"/><path d="M492.16 633.641s-3.24-7-10.45-3c-8.25 4.57-4.75 24 9.93 23.75 7.7-.12 5.73-4.36 3.9-10.14l-3.38-10.61z" fill="#FC9D9D"/><path opacity=".2" d="M481.75 635.75a5.389 5.389 0 014.1-1.46 5.308 5.308 0 013.57 2.38 10.78 10.78 0 011.93 5.2l.29 1.7a.902.902 0 01-1.151 1.047.9.9 0 01-.629-.847l-.29-1.7a10.417 10.417 0 00-1.59-4.33 3.775 3.775 0 00-2.35-1.68 3.684 3.684 0 00-2.75 1.07.893.893 0 01-1.419-.432.9.9 0 01.289-.948" fill="#000"/><path d="M538.7 646.44a1.158 1.158 0 01-.8-1l-2.8-21a1.157 1.157 0 011-1.3 1.143 1.143 0 011.151.57c.075.133.122.279.139.43l2.8 21a1.157 1.157 0 01-1 1.3 1.39 1.39 0 01-.49 0" class="change-color-in-svg" fill="#44a7ef"/><path opacity=".2" d="M529.67 662.571a13.825 13.825 0 006.18 1.62l.41-2.28a12.446 12.446 0 01-7.51-2.77 1.149 1.149 0 00-1.625.095 1.149 1.149 0 00.095 1.625 11.47 11.47 0 002.45 1.71" fill="#000"/><path d="M506.49 730.71l-8.7-9.73.64-12.85-40.37-47.31-10.69 10.25a53.1 53.1 0 00-50.13 33.42s-54.54 145.75-53.72 161.2a129.367 129.367 0 0071.85 20.15s10.43-.57 15.14-1.16c2.33-.29 12.19-2.22 12.79-2.36a129.016 129.016 0 0022.57-7.61l2.59-61.88 50.12-44.68-.12-6.9a47.094 47.094 0 00-11.97-30.54z" class="change-color-in-svg" fill="#44a7ef"/><path opacity=".2" d="M467.44 835.551c-40.64-18.44-80.68-102.66-80.68-102.66l-11.84 34s32.38 71.56 91.29 99l1.23-30.34z" fill="#fff"/><path opacity=".15" d="M496.15 720.919l-35.5-37.82a1.163 1.163 0 01-.313-.825 1.164 1.164 0 01.363-.805 1.165 1.165 0 01.825-.312 1.145 1.145 0 01.805.362l35.5 37.82-.05 1.63a1.34 1.34 0 01-1.21.31l-.42-.36z" fill="#000"/><path opacity=".2" d="M507.42 683.49l-6.1-1.25a1.678 1.678 0 00-2.04 1.807c.035.354.183.688.42.953l3.17 3.74 4.55-5.25z" fill="#000"/><path d="M462.58 800.83l13.92 75.79a27.876 27.876 0 0018.443 17.939 27.878 27.878 0 0025.277-4.799l90.7-74.18-16-22-69.12 36.649-7.75-69.459-55.47 40.06z" class="change-color-in-svg" fill="#44a7ef"/><path opacity=".15" d="M525.8 830.211l1.14 8.83a2.68 2.68 0 004.81 1.25l16.51-22.4-22.46 12.32zm-59.95 44.509l3-73.62a1.5 1.5 0 10-3 0l-14.46 79s5.84-1.94 7.77-2.66c1.69-.61 6.69-2.72 6.69-2.72z" fill="#000"/><path d="M853.264 352.212c2.106-.293 3.68-1.484 3.516-2.661-.163-1.176-2.003-1.891-4.109-1.598-2.106.294-3.681 1.485-3.517 2.661.164 1.176 2.004 1.891 4.11 1.598z" fill="#fff"/><path d="M893.31 296.171c11.951 0 21.64-9.689 21.64-21.64 0-11.952-9.689-21.64-21.64-21.64-11.952 0-21.64 9.688-21.64 21.64 0 11.951 9.688 21.64 21.64 21.64z" fill="#21252B"/><path d="M885.5 268.18a21.516 21.516 0 00-13.34 1.82c0 .21-.11.42-.15.63a21.512 21.512 0 00-.08 7.2 21.609 21.609 0 0124.63 18.06 21.714 21.714 0 006.21-1.94c0-.21.1-.41.14-.61a21.641 21.641 0 00-17.41-25.16z" class="change-color-in-svg" fill="#44a7ef"/><path d="M866.41 369.581c6.727 0 12.181-5.453 12.181-12.18 0-6.727-5.454-12.18-12.181-12.18-6.726 0-12.18 5.453-12.18 12.18 0 6.727 5.454 12.18 12.18 12.18z" fill="#21252B"/><path d="M883.66 319.32l12 40.37a7.499 7.499 0 003.613 4.458 7.49 7.49 0 005.707.592l4.83-1.22s-10.31 18.38-37.18 24.85c-14 3.36-28.58-2.32-28.58-2.32l7.84-4s.57-.68.89-6.66c.128-2.827.024-5.66-.31-8.47-1.66-11.41-6.71-45.28-6.71-45.28l37.9-2.32z" fill="#F59696"/><path d="M863.64 360l2-.39a25.913 25.913 0 0019.946-20.77 25.91 25.91 0 00-.206-10.11l-7.87-35.52a8.614 8.614 0 00-10.34-6.56l-33.26 7.27a11.25 11.25 0 00-8.54 13.4l7.33 33A26.109 26.109 0 00863.64 360z" fill="#F59696"/><path d="M854.85 329.52a2.81 2.81 0 100-5.62 2.81 2.81 0 000 5.62z" fill="#21252B"/><path d="M853.59 327.07a.58.58 0 100-1.16.58.58 0 000 1.16z" fill="#fff"/><path d="M833.73 335.14a2.81 2.81 0 10-.001-5.621 2.81 2.81 0 00.001 5.621z" fill="#21252B"/><path d="M832.43 332.57a.58.58 0 100-1.16.58.58 0 000 1.16z" fill="#fff"/><path opacity=".15" d="M849.05 339.709l3.7-.62a.83.83 0 10-.19-1.65l-3.7.62a1.702 1.702 0 01-1.765-.782 1.72 1.72 0 01-.235-.638 1.896 1.896 0 011.38-2.06.82.82 0 00.555-.309.822.822 0 00.175-.611.837.837 0 00-.309-.555.822.822 0 00-.611-.175 3.417 3.417 0 00-2.73 3.87 2.998 2.998 0 003.73 2.91zm2.33 20.031a28.788 28.788 0 0013.81.08l3-.81a4.01 4.01 0 001.1-.41l.22-.06c.53-.27 1.1-.41 1.75-.71.22-.06.42-.24.65-.3a26.896 26.896 0 008-5.51.756.756 0 011.008-.001.763.763 0 01.122 1.001 29.778 29.778 0 01-10.52 6.8 23.12 23.12 0 01-12 8 24.969 24.969 0 01-5.83.83l-1.31-8.91z" fill="#000"/><path d="M878.88 292.11c-.85-7.73-2.83-2.1-7.28-6.12s-25-.46-25-.46c-3.59 2.37-12.62 6.54-9.64 13.07 11.94 26.12 45 15 45 15l-3.08-21.49z" fill="#21252B"/><path d="M900.63 290.461c-1-11.13-10.82-17-18.34-18.42-4.7-.86-8.48-.89-14.54-.48-56.7 3.81-45.37 43.22-45.37 43.22l21.51-20.22 37.65 17.06s11.76 3.52 9 12.69c-2.39 7.89-10.34 9.16-10.34 9.16a35.907 35.907 0 0010.8 10.71s13.43-15.74 9.63-53.72z" fill="#21252B"/><path d="M822.38 314.779c-7.92-26 16.44-25.89 16.44-25.89 2.5 0 .41-.42 1.37 3.65 2.82 12-2.1 18.24-10.3 20.35-2.02.53-7.51 1.89-7.51 1.89z" fill="#21252B"/><path d="M878.39 333.81s12.38-1.23 12.81-13.69c.43-12.46-15-12.12-14.89.44l.72 13.61 1.36-.36z" fill="#F59696"/><path opacity=".15" d="M886.28 314.401a4.807 4.807 0 00-3.83-.32 4.526 4.526 0 00-2.51 2.84 9.209 9.209 0 00-.5 5l.22 1.27c.12.94 1.83 1 1.64-.19l-.13-1.41a8.489 8.489 0 01.36-4.08 3.39 3.39 0 011.64-2 3.47 3.47 0 012.61.26.899.899 0 001.1-.41.913.913 0 00-.6-.96z" fill="#000"/><path d="M880.92 331.309a2.47 2.47 0 100-4.94 2.47 2.47 0 000 4.94z" class="change-color-in-svg" fill="#44a7ef"/><path opacity=".15" d="M880.48 331.191a2.634 2.634 0 001.761-1.093 2.63 2.63 0 00.429-2.027 2.734 2.734 0 00-.71-1.27 2.735 2.735 0 011.44 1.79 2.412 2.412 0 01-.395 1.849 2.421 2.421 0 01-1.605 1.001 2.002 2.002 0 01-1.5-.21c.21-.05.43-.12.58-.04z" fill="#000"/><path d="M876.39 320.89c.37-.57.13-5.34 2.36-7.58l-2-1.74s-2 5.44-1.91 8.93a.863.863 0 00.643.721.859.859 0 00.907-.331z" fill="#21252B"/><path d="M852.53 344.17l1 .9a5.105 5.105 0 004.708.88 5.095 5.095 0 003.362-3.41l.43-1.55c.09-.33-.15-.64-.47-.51l-8.91 3a.392.392 0 00-.275.307.39.39 0 00.155.383z" fill="#fff"/><path d="M689.71 559l16.52 3.27a2.856 2.856 0 002.711-.932 2.855 2.855 0 00.529-2.818l-1.47-4.23a6.402 6.402 0 00-3.29-3.64l-21.16-9.82 7.32 19.59" fill="#FC9D9D"/><path opacity=".15" d="M689.71 559l16.52 3.27a2.856 2.856 0 002.711-.932 2.855 2.855 0 00.529-2.818l-1.47-4.23a6.402 6.402 0 00-3.29-3.64l-21.16-9.82 7.32 19.59" fill="#000"/><path d="M679 541.349l5.37 8.18c.261.399.377.876.33 1.35a110.85 110.85 0 00-.73 11.83 2.083 2.083 0 001.73 2c4.18.7 15.4 2.52 16.48 2.24a2.406 2.406 0 001.8-2.51c-.33-4.95-10.08-5.94-10.08-5.94l5.17-13.41a1.61 1.61 0 013 1l-.94 8.83a5.512 5.512 0 004.52 6 1.393 1.393 0 001.54-.89l11.67-35.41-20-13-19.86 27.52a2.05 2.05 0 000 2.21z" fill="#FC9D9D"/><path d="M716.09 577.47a.447.447 0 00.18-.277.432.432 0 00-.07-.323l-.84-1.21-.71.49.84 1.21a.438.438 0 00.6.11z" fill="#3F4249"/><path d="M716.09 577.47a.447.447 0 00.18-.277.432.432 0 00-.07-.323l-.84-1.21-.71.49.84 1.21a.438.438 0 00.6.11z" fill="#000"/><path d="M704.16 566.47l1.52-1.05L671.34 516l-1.17.81a.419.419 0 00-.11.58l34.1 49.08zm2.21-1.531l3.62-2.5-34.1-49.08a.422.422 0 00-.58-.11l-3.31 2.26 34.37 49.43z" fill="#3F4249"/><path d="M704.16 566.47l1.52-1.05L671.34 516l-1.17.81a.419.419 0 00-.11.58l34.1 49.08zm2.21-1.531l3.62-2.5-34.1-49.08a.422.422 0 00-.58-.11l-3.31 2.26 34.37 49.43z" fill="#000"/><path d="M668.38 511.61l2.69-1.86a.658.658 0 01.506-.112.66.66 0 01.434.282l2.62 3.79-3.8 2.63-2.62-3.79a.68.68 0 01.17-.94zm35.78 54.861l5.82-4 2.67 3.87c1.11 1.61 4.19 8.85 2.58 10-1.61 1.11-7.29-4.33-8.4-5.93l-2.67-3.94zm-21.71-43.602l-4.82-7 4.2.82.93 1.35 3.89 5.63 11.88 17.2 2.05 3-.55.38a1.801 1.801 0 01-2.5-.46 1.82 1.82 0 010-2l-12.75-18.46-2.33-.46z" fill="#3F4249"/><path d="M718.85 524.641l-11.67 35.41a1.387 1.387 0 01-1.54.89 5.501 5.501 0 01-4.52-6l.94-8.83 16.79-21.47z" fill="#FC9D9D"/><path d="M843.09 433.57l-70.5 30.3-53.73 60.78-20-13 53.09-74a36.31 36.31 0 0113-11.22L844 386l-.91 47.57z" class="change-color-in-svg" fill="#44a7ef"/><path opacity=".15" d="M820.16 413.381s4.07 15.17 4.05 28.3l-8.1 3.48a71.935 71.935 0 003.15-11.22 79.349 79.349 0 00.9-20.56z" fill="#000"/><path d="M722.3 490.16a1.48 1.48 0 10-1.19-1.72 1.44 1.44 0 00.229 1.114 1.44 1.44 0 00.961.606zm27.15-30.08a1.479 1.479 0 10-1.19-1.72 1.448 1.448 0 001.19 1.72zm27.32-27.99a1.48 1.48 0 10-1.19-1.72 1.452 1.452 0 00.647 1.515c.165.104.35.174.543.205zm63.31-24.461a1.479 1.479 0 10-1.19-1.72 1.452 1.452 0 001.19 1.72zm-95.22 77.67a1.48 1.48 0 10-1.19-1.72 1.452 1.452 0 00.647 1.515c.165.104.35.174.543.205zm59.85-44.08a1.48 1.48 0 10-1.19-1.72 1.452 1.452 0 001.19 1.72zm25.29-13.5a1.48 1.48 0 10-1.19-1.72 1.452 1.452 0 001.19 1.72zm-29-5.289a1.477 1.477 0 001.484-2.298 1.475 1.475 0 00-1.53-.604 1.474 1.474 0 00-1.144 1.182 1.452 1.452 0 001.19 1.72zm-77.18 88.25a1.48 1.48 0 10-1.19-1.72 1.452 1.452 0 00.647 1.515c.165.104.35.174.543.205zm45.83-55.98a1.477 1.477 0 001.746-1.48 1.476 1.476 0 00-.936-1.353 1.486 1.486 0 00-1.608.348 1.47 1.47 0 00-.392.765 1.452 1.452 0 00.228 1.113 1.443 1.443 0 00.962.607z" fill="#F3F3F3"/><path d="M823.05 332a11.307 11.307 0 0011.058 9.234 11.304 11.304 0 009.026-4.416 11.301 11.301 0 001.949-9.857 11.31 11.31 0 00-2.453-4.541 9.854 9.854 0 015.46-1.33c-.18 1.241-.18 2.5 0 3.74a11.312 11.312 0 0015.307 8.45 11.313 11.313 0 00-6.237-21.63 11.21 11.21 0 00-8.79 7.9 10.389 10.389 0 00-6.8 1.69A11.35 11.35 0 00823.05 332zm26.34-7.39a9.79 9.79 0 1111.4 7.85 9.9 9.9 0 01-11.4-7.84v-.01zm-24.85 7.09a9.79 9.79 0 110 .01v-.01z" fill="#fff"/><path opacity=".15" d="M509 733.82s9 14.53 9.4 29.33l9.07-11.48-17.71-18.33-.76.48z" fill="#000"/><path d="M1066.6 746.251l-227 146.3a10.998 10.998 0 002.48 19.68l227 75.65c1.65.551 3.42.702 5.14.439 1.72-.263 3.36-.932 4.77-1.952a10.9 10.9 0 003.36-3.913c.8-1.552 1.21-3.271 1.21-5.014v-221.94c0-1.977-.53-3.918-1.54-5.618a11.045 11.045 0 00-4.19-4.044 11.024 11.024 0 00-5.67-1.336c-1.98.073-3.9.676-5.56 1.748z" fill="#DCDCDC"/><path d="M920.88 603.86h-4.08a.5.5 0 110-1h4a.517.517 0 01.53.5.466.466 0 01-.269.456.491.491 0 01-.181.044zm-8.09 0h-4a.5.5 0 110-1h4c.133 0 .26.053.354.146a.504.504 0 010 .708.504.504 0 01-.354.146zm-8 0h-4a.5.5 0 110-1h4c.133 0 .26.053.354.146a.504.504 0 010 .708.504.504 0 01-.354.146zm-8 0h-4a.5.5 0 110-1h4c.133 0 .26.053.354.146a.504.504 0 010 .708.504.504 0 01-.354.146zm-8 0h-4a.5.5 0 110-1h4c.133 0 .26.053.354.146a.504.504 0 010 .708.504.504 0 01-.354.146zm-8 0h-.14a7.762 7.762 0 01-3.95-1.08.513.513 0 01-.149-.129.513.513 0 01-.099-.374.511.511 0 01.198-.333.511.511 0 01.375-.092c.066.01.129.033.185.068 1.042.616 2.23.94 3.44.94h.14c.133 0 .26.053.354.146a.504.504 0 010 .708.504.504 0 01-.354.146zm44-1.12a.496.496 0 01-.478-.359.502.502 0 01.208-.561 6.735 6.735 0 002.46-2.75.502.502 0 01.924.057.504.504 0 01-.024.383 7.752 7.752 0 01-2.83 3.15.418.418 0 01-.36.08h.1zM874.1 600a.495.495 0 01-.44-.27 7.716 7.716 0 01-.87-3.56v-.59a.504.504 0 01.54-.46.5.5 0 01.46.54v.51c0 1.079.261 2.143.76 3.1a.485.485 0 01.036.379.483.483 0 01-.246.291.527.527 0 01-.24.06zm54.25-4h-.1a.513.513 0 01-.4-.59l.8-3.94a.513.513 0 01.217-.324.513.513 0 01.707.141.513.513 0 01.076.383l-.8 3.93a.487.487 0 01-.5.32v.08zm-54.3-3.79H874a.471.471 0 01-.32-.206.468.468 0 01-.07-.374l.8-3.94a.498.498 0 01.212-.321.498.498 0 01.558.007.487.487 0 01.211.319.492.492 0 01-.001.195l-.8 3.93a.5.5 0 01-.54.31v.08zm55.89-4.21h-.1a.498.498 0 01-.321-.212.498.498 0 01-.069-.378l.8-3.93a.471.471 0 01.206-.32.468.468 0 01.374-.07.503.503 0 01.4.59l-.8 3.93a.5.5 0 01-.49.39zm-54.3-3.78h-.1a.502.502 0 01-.39-.59l.8-3.93a.51.51 0 01.211-.324.504.504 0 01.379-.076.51.51 0 01.39.59l-.8 3.94a.492.492 0 01-.49.43v-.04zm55.89-4.09h-.1a.51.51 0 01-.39-.59l.8-3.94a.502.502 0 01.59-.39.51.51 0 01.39.59l-.8 3.94a.492.492 0 01-.49.43v-.04zm-54.29-3.78h-.1a.502.502 0 01-.39-.59l.79-3.94a.51.51 0 01.59-.39.494.494 0 01.317.214.495.495 0 01.073.376l-.79 3.94a.51.51 0 01-.49.43v-.04zm55.89-4.09H933a.502.502 0 01-.39-.59l.79-3.94a.51.51 0 01.59-.39.494.494 0 01.317.214.492.492 0 01.073.376l-.79 3.94a.509.509 0 01-.46.43v-.04zm-54.3-3.78h-.1a.51.51 0 01-.39-.59l.8-3.94a.498.498 0 01.212-.321.498.498 0 01.558.007.487.487 0 01.211.319.492.492 0 01-.001.195l-.8 3.93a.514.514 0 01-.164.31.516.516 0 01-.326.13v-.04zm55.89-4.1h-.1a.498.498 0 01-.321-.212.498.498 0 01-.069-.378l.8-3.93a.498.498 0 01.212-.321.498.498 0 01.558.007.487.487 0 01.211.319.492.492 0 01-.001.195l-.8 3.93a.502.502 0 01-.49.43v-.04zm-54.29-3.78h-.1a.51.51 0 01-.324-.211.504.504 0 01-.076-.379l.8-3.93a.502.502 0 01.772-.317.498.498 0 01.208.517l-.79 3.93a.502.502 0 01-.49.43v-.04zm55.83-4.1a.5.5 0 01-.46-.54v-.48c0-1.09-.264-2.164-.77-3.13a.505.505 0 01.236-.621.502.502 0 01.644.161 7.59 7.59 0 01.89 3.59c.01.187.01.373 0 .56a.512.512 0 01-.16.369.51.51 0 01-.38.131v-.04zm-54-3.7a.54.54 0 01-.22-.05.509.509 0 01-.23-.67 7.637 7.637 0 012.84-3.15.498.498 0 01.749.537.506.506 0 01-.219.313 6.596 6.596 0 00-2.47 2.74.516.516 0 01-.46.32l.01-.04zm50.46-3.05a.453.453 0 01-.25-.07 6.7 6.7 0 00-3.42-.93h-.17a.504.504 0 01-.354-.146.504.504 0 010-.708.504.504 0 01.354-.146h.12a7.67 7.67 0 013.92 1.07.501.501 0 01-.25.93h.05zm-7.85-1h-4a.504.504 0 01-.354-.146.504.504 0 010-.708.504.504 0 01.354-.146h4c.133 0 .26.053.354.146a.504.504 0 010 .708.504.504 0 01-.354.146zm-8 0h-4a.504.504 0 01-.354-.146.504.504 0 010-.708.504.504 0 01.354-.146h4c.133 0 .26.053.354.146a.504.504 0 010 .708.504.504 0 01-.354.146zm-8 0h-4a.504.504 0 01-.354-.146.504.504 0 010-.708.504.504 0 01.354-.146h4c.133 0 .26.053.354.146a.504.504 0 010 .708.504.504 0 01-.354.146zm-8 0h-4a.504.504 0 01-.354-.146.504.504 0 010-.708.504.504 0 01.354-.146h4c.133 0 .26.053.354.146a.504.504 0 010 .708.504.504 0 01-.354.146zm-8 0h-4a.527.527 0 01-.364-.142.517.517 0 01-.122-.549.494.494 0 01.456-.309h4c.133 0 .26.053.354.146a.504.504 0 010 .708.504.504 0 01-.354.146h.03zm7.57 141.53a.5.5 0 110-1h4a.525.525 0 01.53.5.49.49 0 01-.134.353.482.482 0 01-.346.147v-.5.5h-4.05zm-4 0h-4a.5.5 0 110-1h4a.498.498 0 01.5.5.5.5 0 01-.5.5zm-8 0h-4a.5.5 0 110-1h4a.498.498 0 01.5.5.5.5 0 01-.5.5zm-8 0h-4a.5.5 0 110-1h4a.498.498 0 01.5.5.5.5 0 01-.5.5zm-8 0h-4a.5.5 0 110-1h4a.498.498 0 01.5.5.5.5 0 01-.5.5zm-8 0h-.14a7.784 7.784 0 01-3.95-1.08.485.485 0 01-.236-.306.503.503 0 01.364-.614.522.522 0 01.382.06 6.749 6.749 0 003.44.94h.14a.498.498 0 01.5.5.5.5 0 01-.5.5zm44-1.12a.496.496 0 01-.479-.359.504.504 0 01.209-.561 6.735 6.735 0 002.46-2.75.5.5 0 01.9.44 7.832 7.832 0 01-2.83 3.16.467.467 0 01-.38.07h.12zm-50.58-2.78a.5.5 0 01-.44-.27 7.737 7.737 0 01-.87-3.56v-.59a.476.476 0 01.342-.443.491.491 0 01.198-.017.49.49 0 01.342.175.507.507 0 01.118.365c-.01.17-.01.341 0 .51 0 1.08.26 2.143.76 3.1a.497.497 0 01-.21.67.526.526 0 01-.36.06h.12zm54.24-4h-.1a.506.506 0 01-.39-.59l.8-3.94a.507.507 0 01.6-.4.512.512 0 01.4.6l-.8 3.94a.48.48 0 01-.231.304.488.488 0 01-.379.046l.1.04zm-54.29-3.79h-.1a.481.481 0 01-.394-.393.484.484 0 01.004-.197l.68-4a.498.498 0 01.212-.32.483.483 0 01.378-.07.504.504 0 01.39.59l-.8 3.93a.504.504 0 01-.49.42l.12.04zm55.89-4.08h-.1a.485.485 0 01-.317-.214.497.497 0 01-.073-.376l.79-3.94a.508.508 0 01.924-.182.508.508 0 01.076.382l-.79 3.93a.514.514 0 01-.43.375.483.483 0 01-.2-.015l.12.04zm-54.3-3.79h-.1a.485.485 0 01-.317-.214.497.497 0 01-.073-.376l.8-3.94a.504.504 0 01.59-.39.514.514 0 01.39.59l-.8 3.94a.48.48 0 01-.231.304.488.488 0 01-.379.046l.12.04zm55.89-4.09h-.1a.485.485 0 01-.317-.214.497.497 0 01-.073-.376l.8-3.93a.507.507 0 01.6-.4.512.512 0 01.4.6l-.8 3.93a.501.501 0 01-.63.35l.12.04zM861 662.85h-.1a.485.485 0 01-.317-.214.497.497 0 01-.073-.376l.79-3.94a.508.508 0 01.911-.178.498.498 0 01.069.378l-.79 3.94a.513.513 0 01-.61.35l.12.04zm55.89-4.09h-.1a.485.485 0 01-.317-.214.497.497 0 01-.073-.376l.79-3.94a.508.508 0 01.77-.314.504.504 0 01.21.514l-.79 3.94a.503.503 0 01-.61.35l.12.04zm-54.3-3.79h-.1a.485.485 0 01-.317-.214.497.497 0 01-.073-.376l.8-3.93a.498.498 0 01.212-.32.483.483 0 01.378-.07.504.504 0 01.39.59l-.8 3.93a.503.503 0 01-.61.35l.12.04zm55.89-4.08h-.1a.485.485 0 01-.317-.214.497.497 0 01-.073-.376l.8-3.94a.504.504 0 01.77-.314.504.504 0 01.21.514l-.8 3.94a.513.513 0 01-.61.35l.12.04zm-54.29-3.79H864a.481.481 0 01-.394-.393.484.484 0 01.004-.197l.79-3.94a.52.52 0 01.59-.39.504.504 0 01.39.59l-.79 3.94a.502.502 0 01-.52.35l.12.04zm55.71-4.1a.477.477 0 01-.342-.168.488.488 0 01-.118-.362v-.49a6.678 6.678 0 00-.77-3.12.494.494 0 01-.036-.383.5.5 0 01.802-.239.506.506 0 01.124.152c.578 1.109.88 2.34.88 3.59.01.187.01.374 0 .56a.496.496 0 01-.54.46zm-54-3.7a.414.414 0 01-.22-.06.5.5 0 01-.23-.67 7.684 7.684 0 012.84-3.14.48.48 0 01.558.015.51.51 0 01-.028.835 6.765 6.765 0 00-2.48 2.74.5.5 0 01-.45.24l.01.04zm50.46-3a.44.44 0 01-.25-.07 6.71 6.71 0 00-3.42-.93h-.16a.5.5 0 110-1h.16a7.718 7.718 0 013.93 1.07.5.5 0 01.17.68.504.504 0 01-.44.16l.01.09zm-7.85-1h-4a.5.5 0 110-1h4a.498.498 0 01.5.5.5.5 0 01-.5.5zm-8 0h-4a.5.5 0 110-1h4a.498.498 0 01.5.5.5.5 0 01-.5.5zm-8 0h-4a.5.5 0 110-1h4a.498.498 0 01.5.5.5.5 0 01-.5.5zm-8 0h-4a.5.5 0 110-1h4a.498.498 0 01.5.5.5.5 0 01-.5.5zm-8 0h-4a.5.5 0 01-.51-.5.51.51 0 01.353-.474.54.54 0 01.207-.026h3.94a.498.498 0 01.5.5.5.5 0 01-.5.5h.01z" fill="#61656D"/><path d="M956.39 604.45l-40 13.43a3.127 3.127 0 01-3.94-2l-13.43-40a3.128 3.128 0 012-3.94l40-13.43a3.13 3.13 0 013.94 2l13.43 40a3.172 3.172 0 01-2 3.94z" class="change-color-in-svg" fill="#44a7ef"/><path d="M956.39 604.45l-40 13.43a3.127 3.127 0 01-3.94-2l-13.43-40a3.128 3.128 0 012-3.94l40-13.43a3.13 3.13 0 013.94 2l13.43 40a3.172 3.172 0 01-2 3.94z" class="change-color-in-svg" fill="#44a7ef"/><path d="M962.29 607.91L913.8 624.2a3.789 3.789 0 01-4.78-2.38l-16.29-48.49a3.795 3.795 0 01.205-2.88 3.795 3.795 0 012.175-1.9l48.49-16.29a3.79 3.79 0 014.78 2.38l16.29 48.49a3.851 3.851 0 01-2.38 4.78z" fill="#fff"/><path d="M956.39 604.45l-40 13.43a3.127 3.127 0 01-3.94-2l-13.43-40a3.128 3.128 0 012-3.94l40-13.43a3.13 3.13 0 013.94 2l13.43 40a3.172 3.172 0 01-2 3.94z" class="change-color-in-svg" fill="#44a7ef"/><path opacity=".8" d="M925.999 580.74a4.293 4.293 0 002.917-3.772 4.295 4.295 0 00-2.37-4.136 4.291 4.291 0 00-5.977 5.208 4.298 4.298 0 005.43 2.7zM912.49 616l-3.7-11 11.63-16.76a1.758 1.758 0 012.08-.63l7 2.91 8-12.21a1.765 1.765 0 012.14-.65l12.74 5.3 6 17.75a3.128 3.128 0 01-2 3.94L916.45 618a3.272 3.272 0 01-3.96-2z" fill="#fff"/><path d="M898.84 717.519l7.43-79 5.53-18.63c.27-.69 3.26-9.24 4.44-13.48a2.879 2.879 0 00-1.38-3.31 2.888 2.888 0 00-3.83 1l-2.94 4.56a2.35 2.35 0 01-3.78-.87l-6.3-19.5-1.74.31a3.456 3.456 0 00-2.88 3.35l-.07 1.5a2.416 2.416 0 01-1.44 1.67l-1.11.41c-1.6.68-2.28 2.58-2.35 4.33l.06 1.62a1.849 1.849 0 01-1.44 1.8 3.192 3.192 0 00-2.87 3.47l-.14 3.13-.12.13a4.925 4.925 0 00-2.18 5.44l6.16 26.25-20.6 77a15.994 15.994 0 001.15 11.3l37.09 74.08 37.9-29.41-44.59-57.15z" fill="#FB9C9C"/><path d="M1015.56 867.08l32.39 38.42 26.65-29.43-33.39-56.41-47.54-13.27-31.64-7.96-41.53-53.18-32.08 24.65 39.27 78.29 5.13 94.27 121.31 40.44-13.34-85.89-25.23-29.93z" class="change-color-in-svg" fill="#44a7ef"/><path d="M1008.1 751.08l4.46 36.59c.19 1.44.84 2.781 1.84 3.831a6.891 6.891 0 003.75 2.009l3.17 11.34s-43.05-2-44.91-2.87l-7.29-1.78c2.59-1 5.1-5.86 5.17-8.54l.71-44.06 33.1 3.48z" fill="#F59696"/><path d="M972.89 784.621l1.67.5a22.663 22.663 0 0028-15.61l8.68-30.65a7.73 7.73 0 00.24-2.95 7.589 7.589 0 00-.92-2.815 7.524 7.524 0 00-4.56-3.585l-28.66-8.21a9.82 9.82 0 00-10.395 3.363 9.838 9.838 0 00-1.745 3.417l-8.06 28.49a22.898 22.898 0 0015.73 28" fill="#F59696"/><path d="M959.42 749a42.92 42.92 0 00-5.28 5.66c-1.64 2.39 3.09 3.61 3.09 3.61l2.19-9.27z" fill="#F59696"/><path opacity=".15" d="M1013.35 767.83h-3.48l3.69 7.36-.21-7.36zm-30.73 18.08s-4.87.41-8.26-.9l-.07 6.3 8.33-5.4z" fill="#000"/><path opacity=".2" d="M956.51 765.249a10.937 10.937 0 007.8-3 .51.51 0 00-.71-.73 10.44 10.44 0 01-7.18 2.72l.09 1.01z" fill="#000"/><path d="M988.41 749.601s7.591 20.83-4.409 34.14c-6.73 7.42-47.34 63.66 40.539 79.8a78.11 78.11 0 0023.48.86c20.93-2.56 31.32-12.55 31.77-22.21 1.53-24.06-31.07-32.75-32.94-54.51-1.15-13.42 6.51-68.39-30.28-81.32-34.739-12.22-55 7.24-54.64 14.28.36 7.04-.93 16.94 26.48 28.96z" fill="#000"/><path d="M986.31 762.859s9.78.4 11.49-9.27c1.71-9.67-10.32-11.08-11.65-1.28l-.65 10.69.81-.14z" fill="#F59696"/><path d="M986.63 750.98l.3-1.39-26.37-8.44-.3 1.4 26.37 8.43z" fill="#fff"/><path d="M958.85 749.29a.724.724 0 00.57-.51l3.58-12.56a.699.699 0 00-.059-.54.693.693 0 00-.431-.33.72.72 0 00-.88.49l-3.56 12.56a.7.7 0 00.062.542.7.7 0 00.428.338.85.85 0 00.31 0" fill="#fff"/><path d="M987.17 749.001a20.703 20.703 0 00-1.16 5.8 1.208 1.208 0 01-1.3 1.1 1.221 1.221 0 01-1.1-1.28l.62-8.56 2.94 2.94zm8.4-.532a3.001 3.001 0 00-4.77 0 6.682 6.682 0 00-1.59 3l-.32 1a.559.559 0 001.08.26l.32-1a6.481 6.481 0 011.31-2.52 1.88 1.88 0 013.15 0 .542.542 0 00.39.162.548.548 0 00.39-.162.533.533 0 000-.78" fill="#000"/><path d="M991.71 759a1.93 1.93 0 10-3.832.468 1.93 1.93 0 003.832-.468" class="change-color-in-svg" fill="#44a7ef"/><path opacity=".15" d="M989.14 760.94a2.109 2.109 0 002.06-2.2 2.292 2.292 0 00-.41-1.07 2.14 2.14 0 01.93 1.55 1.917 1.917 0 01-.52 1.409 1.894 1.894 0 01-1.38.591 1.618 1.618 0 01-1.15-.33c.19 0 .37 0 .47.06m1.32 1.261s-1.78.45-2.38.54c-.6.09-2.58.2-2.58.2s2.49 3.37 5 4.07c-.04-.02.1-3.47-.04-4.81z" fill="#000"/><path d="M1174 832.089c.32-.317.52-.743.55-1.196a1.89 1.89 0 00-.4-1.254 1.656 1.656 0 00-2.3-.37l-10.24 8.09s7.64-7.72 11-11c.39-.397.62-.928.63-1.486a2.217 2.217 0 00-.56-1.514 1.924 1.924 0 00-2.52-.15l-11.5 9.5s5.79-7.05 8.31-10.09a1.793 1.793 0 00.42-1.306 1.954 1.954 0 00-.2-.67 1.812 1.812 0 00-.44-.544c-.35-.283-.8-.424-1.25-.396-.46.027-.88.222-1.2.546l-14.62 15.14c-.37.52-1.34.37-.74-.59.9-1.439 1.67-2.955 2.3-4.53.74-2.15.52-4.08-1.56-5.12a.614.614 0 00-.39.036.584.584 0 00-.28.264l-6.68 8.31a35.477 35.477 0 00-3.64 6.83l-2.6 6.46-2.08 5.83-46.61 42.46-12.78-19.21-26.65 29.43 17.1 22.51a16.983 16.983 0 005.76 4.84 17.045 17.045 0 007.27 1.896c2.54.084 5.06-.4 7.39-1.414a17.085 17.085 0 006.06-4.452l59.6-68.61 22.33-22.48c.22-.252.36-.57.38-.905a1.53 1.53 0 00-.23-.955c-.2-.268-.49-.454-.82-.522a1.366 1.366 0 00-.96.152l-6.46 5.12s5.61-5.98 8.61-8.65z" fill="#FB9C9C"/><path opacity=".15" d="M927.69 848.18l8.81 13.37 4.87 83.77-8.55-2.86-5.13-94.28zM962 798.429l-11.73-2.17-57.77-75.32 9.5-86.22s12.95-24.74 12.9-31.61l.53.44a2.679 2.679 0 01.85 2.87l-10 32.11-7.43 79 63.15 80.9zm78.79 98.58l-4.92-36.32 16.37 40.07-4.29 4.74-7.16-8.49z" fill="#000"/><path opacity=".6" d="M959.82 941.541a1.13 1.13 0 01-1.05 1.05h-7.23a1.133 1.133 0 01-1-1.05 1.128 1.128 0 011-1h7.23c.65-.05 1.23.46 1.05 1zm11.4-90.292a1.13 1.13 0 01-1.05 1h-7.23a1.128 1.128 0 01-1.05-1 1.13 1.13 0 011.05-1h7.23c.66-.05 1.18.47 1.05 1zm-19.32 16.42a1.132 1.132 0 01-1 1.05h-7.23a1.132 1.132 0 01-1-1.05 1.126 1.126 0 011-1h7.23c.6-.05 1.1.47 1 1zm64.33 7.461c-.03.264-.15.508-.34.691-.2.183-.45.292-.71.309H1008a1.167 1.167 0 01-.71-.309 1.136 1.136 0 01-.34-.691c.03-.263.15-.508.34-.69.2-.183.45-.293.71-.31h7.23c.6-.05 1.13.47 1 1zm15.61 33.95c-.03.256-.14.494-.32.676a1.15 1.15 0 01-.68.324h-7.23a1.15 1.15 0 01-.68-.324c-.18-.182-.29-.42-.32-.676a1.13 1.13 0 011-1.05h7.23c.6-.03 1.16.53 1 1.05zm-29.22 44.65c-.03.255-.14.494-.32.675-.19.182-.42.297-.68.325h-7.23a1.13 1.13 0 01-1.05-1 1.13 1.13 0 011.05-1.05h7.23c.6 0 1.13.53 1 1.05zm-42.8-142.459a1.133 1.133 0 01-1.05 1.05h-7.23a1.133 1.133 0 01-1-1.05 1.128 1.128 0 011-1h7.23c.65-.05 1.23.47 1.05 1zm-43.16-16.9a1.13 1.13 0 01-1 1h-7.23a1.135 1.135 0 01-1-1 1.128 1.128 0 011-1h7.23c.61-.05 1.13.47 1 1zm17.46 24.24a1.131 1.131 0 01-1 1h-7.23a1.135 1.135 0 01-1.05-1 1.13 1.13 0 011.05-1.05h7.23c.6 0 1.13.53 1 1.05zm-6.86-44.471a1.128 1.128 0 01-1 1.05H919a1.13 1.13 0 01-1.05-1.05 1.133 1.133 0 011.05-1h7.23c.64-.05 1.16.48 1.03 1zm70.26 141.2a1.148 1.148 0 01-1.38-.56l-2.81-6.66a1.15 1.15 0 01.56-1.38 1.145 1.145 0 011.38.56l2.81 6.66a.996.996 0 01-.205 1.16 1.014 1.014 0 01-.355.22zm-10.88-51.139a1.128 1.128 0 01.43-1.43l6.36-3.43a1.133 1.133 0 011.43.43 1.133 1.133 0 01-.43 1.43l-6.36 3.43a1.011 1.011 0 01-.812.106 1.004 1.004 0 01-.618-.536zm-12.32 27.449a1.128 1.128 0 01.43-1.43l6.36-3.43a1.133 1.133 0 011.429.43 1.126 1.126 0 01-.429 1.43l-6.36 3.43a1.001 1.001 0 01-1.43-.43zm-71.51-112.871a1.117 1.117 0 01-1-1.12l.46-7.22a1.117 1.117 0 011.12-1 1.123 1.123 0 011 1.12l-.46 7.22c-.05.67-.6 1.16-1.12 1zm40.32 58.602a1.133 1.133 0 01.43-1.43l6.36-3.43a1.128 1.128 0 011.43.43 1.128 1.128 0 01-.43 1.43l-6.36 3.43a1.01 1.01 0 01-.811.105 1 1 0 01-.619-.535zm78.29 124.359a1.15 1.15 0 01-.05-.796c.07-.263.25-.489.48-.634l6.36-3.43c.25-.114.53-.134.8-.055.26.079.48.252.63.485.11.25.13.533.05.796-.07.263-.25.489-.48.634l-6.36 3.43a.989.989 0 01-.81.106c-.14-.041-.26-.11-.37-.202-.1-.092-.19-.206-.25-.334zm-39.06-33.529a1.128 1.128 0 01-.32 1.45l-6.09 3.9a1.127 1.127 0 01-1.45-.32 1.133 1.133 0 01.32-1.45l6.09-3.9a1.007 1.007 0 01.797-.162 1.004 1.004 0 01.653.482zm-27.7-13.212a1.138 1.138 0 01-1.46-.31l-4-6.06a1.14 1.14 0 01.31-1.46 1.14 1.14 0 011.46.31l4 6.06a1.014 1.014 0 01.172.8 1.014 1.014 0 01-.482.66zm-21.03-116.718a1.142 1.142 0 01-1.46-.31l-3.95-6.06a1.143 1.143 0 01.31-1.46 1.138 1.138 0 011.46.31l4 6.06a1 1 0 01-.36 1.46zm123.56 80.718a1.141 1.141 0 01-1.46-.31l-4-6.06c-.13-.24-.17-.519-.12-.787.06-.269.21-.507.43-.673.24-.132.52-.174.79-.117.27.057.5.209.67.427l4 6.06c.08.114.14.244.17.382.03.137.03.28 0 .418a.995.995 0 01-.48.66zm-36.84 61.34a1.141 1.141 0 01-1.46-.31l-3.95-6.06c-.13-.24-.17-.52-.12-.788.06-.268.21-.506.43-.672.24-.132.52-.174.79-.117.27.057.5.209.67.427l3.95 6.06c.08.114.14.244.17.382.03.137.03.28 0 .418-.03.137-.09.268-.17.381a.986.986 0 01-.31.279z" fill="#000"/><path d="M1047 651.62h89.28a3.203 3.203 0 013.2 3.2v35.26a3.165 3.165 0 01-.94 2.263 3.18 3.18 0 01-2.26.937h-70.63L1047 707.36a2.015 2.015 0 01-2.04.146c-.32-.16-.59-.404-.78-.707a1.92 1.92 0 01-.32-1.009v-51a3.203 3.203 0 013.2-3.2" class="change-color-in-svg" fill="#44a7ef"/><path d="M1107.17 672.001a6.697 6.697 0 004.14 6.19 6.69 6.69 0 003.87.381 6.706 6.706 0 003.43-1.834 6.754 6.754 0 001.83-3.43c.26-1.3.13-2.647-.38-3.871a6.736 6.736 0 00-2.47-3.007 6.678 6.678 0 00-3.72-1.129c-1.78 0-3.48.706-4.74 1.962a6.727 6.727 0 00-1.96 4.738zm-21.26 0a6.697 6.697 0 004.14 6.19 6.69 6.69 0 003.87.381 6.706 6.706 0 003.43-1.834 6.754 6.754 0 001.83-3.43c.26-1.3.13-2.647-.38-3.871a6.736 6.736 0 00-2.47-3.007 6.678 6.678 0 00-3.72-1.129c-1.78 0-3.48.706-4.74 1.962a6.727 6.727 0 00-1.96 4.738zm-21.27 0a6.697 6.697 0 004.14 6.19 6.69 6.69 0 003.87.381 6.706 6.706 0 003.43-1.834 6.754 6.754 0 001.83-3.43c.26-1.3.13-2.647-.38-3.871a6.702 6.702 0 00-10.93-2.174 6.727 6.727 0 00-1.96 4.738M550.03 471.609c25.864 0 46.83-20.966 46.83-46.83 0-25.863-20.966-46.83-46.83-46.83-25.863 0-46.83 20.967-46.83 46.83 0 25.864 20.967 46.83 46.83 46.83z" fill="#fff"/><path d="M569.63 446h-39.2a2.901 2.901 0 01-2.89-2.89v-39.2a2.902 2.902 0 012.89-2.89h39.2a2.9 2.9 0 012.89 2.89v39.2a2.937 2.937 0 01-2.89 2.89z" class="change-color-in-svg" fill="#44a7ef"/><path d="M569.63 446h-39.2a2.901 2.901 0 01-2.89-2.89v-39.2a2.902 2.902 0 012.89-2.89h39.2a2.9 2.9 0 012.89 2.89v39.2a2.937 2.937 0 01-2.89 2.89z" class="change-color-in-svg" fill="#44a7ef"/><path d="M569.63 446h-39.2a2.901 2.901 0 01-2.89-2.89v-39.2a2.902 2.902 0 012.89-2.89h39.2a2.9 2.9 0 012.89 2.89v39.2a2.937 2.937 0 01-2.89 2.89z" fill="#DCDCDC"/><path d="M549.86 416.07a3.996 3.996 0 003.695-2.469 4 4 0 10-3.695 2.469zm-22.32 27.06v-10.81L542.75 421a1.646 1.646 0 012 .06l5.26 4.63 10.7-8.38a1.658 1.658 0 012.08.06l9.66 8.44v17.4a2.902 2.902 0 01-2.89 2.89h-39.12a3.001 3.001 0 01-2.9-2.97z" fill="#84888F"/><path d="M980.2 327.25a25.42 25.42 0 1125.42-25.42c0 3.339-.66 6.645-1.93 9.73a25.43 25.43 0 01-13.76 13.758 25.418 25.418 0 01-9.73 1.932z" class="change-color-in-svg" fill="#44a7ef"/><path d="M972.24 305a2.636 2.636 0 001.92-.75l8.19 4.77c0 .17-.08.33-.08.5a3.09 3.09 0 006.18 0 2.993 2.993 0 00-1.893-2.88 3.002 3.002 0 00-1.197-.21 2.658 2.658 0 00-1.92.75l-8.19-4.77c0-.17.08-.33.08-.5a1.087 1.087 0 00-.08-.5l8.19-4.77a3 3 0 001.92.75 3.086 3.086 0 003.09-3.09 2.993 2.993 0 00-1.893-2.88 3.002 3.002 0 00-1.197-.21 3.094 3.094 0 00-3.09 3.09 1.11 1.11 0 00.08.5l-8.19 4.77a3.001 3.001 0 00-1.92-.75 3.094 3.094 0 00-3.09 3.09 3.09 3.09 0 003.09 3.09z" fill="#fff"/><path d="M959.85 367.27l43.9 64.46a17.543 17.543 0 012.85 7.225c.39 2.591.21 5.237-.55 7.747a17.66 17.66 0 01-3.83 6.754 17.618 17.618 0 01-6.37 4.444L943 478l-10.33-16.75 38.88-20.69-30.34-33.66-31.45-43.39 26.07-5.77a23.041 23.041 0 0124.02 9.53z" class="change-color-in-svg" fill="#44a7ef"/><path d="M844 386a52.315 52.315 0 0037.13-.31c19.83-7.82 28.63-22.22 28.63-22.22l6.68-1.48s-14 22.24-36.77 28.74c-26.11 7.44-41-2-41-2L844 386z" fill="#000"/><path d="M897.45 471.81l35.21-10.55L943 478s-11.65 4.76-15.91 6.24c-7.23 2.52-14-5.89-14-5.89l-15.64-6.54z" fill="#FA9B9B"/><path d="M895.71 474.75c-.91.41-.82.61-1.8 3l-7.6 18.58a2.379 2.379 0 001.22 3.06 2.39 2.39 0 003.13-1.08l8.18-15.56-3.5 13.82a2.325 2.325 0 001.378 2.732c.346.14.721.194 1.092.158a2.367 2.367 0 002-1.49l5.79-16.27-4.44 12.3a2.132 2.132 0 001.146 2.679c.328.144.687.203 1.044.171a2.128 2.128 0 001.77-1.13l7.59-14.39-5.11 9.8a1.86 1.86 0 001.33 2.73 1.996 1.996 0 001.77-.59l6.95-7.88 5.36-5.72-27.3-4.92z" fill="#FA9B9B"/><path opacity=".15" d="M913.44 481.3a.542.542 0 00-.73.22l-4.1 7.71-1 1.94a1.824 1.824 0 00.15 2l5.92-11.17a.568.568 0 00-.24-.7zm-6.94.7a.538.538 0 00-.001-.426.53.53 0 00-.999.086l-2 5.69 2-5.71-2.34 6.61-2.12 6.14a2.168 2.168 0 00.5 1.77.38.38 0 00.06-.11l4.9-14.05z" fill="#000"/><path d="M894.7 475.8l1.36-2.79a2.325 2.325 0 012.51-1.27l23.07 4.2a2.324 2.324 0 011.756 1.447 2.32 2.32 0 01-.326 2.253l-.07.09-28.3-3.93z" fill="#FA9B9B"/><path opacity=".15" d="M942.99 477.999l28.85-10.97 6.25 19.02h-5.12l-4.66-14.35-25.32 6.3zm-10.32-16.749l38.87-20.69-34.68-39.66.92-.73 39.32 42.28-39.01 19.24-1.99.99-1.96.96-1.47-2.39z" fill="#000"/><path opacity=".15" d="M932.67 461.25L943 478l-15.43 6.08a9.168 9.168 0 01-7-.11l-1.13-.49 5.18-.45 14.93-6.22-9.27-14.81 2.39-.75z" fill="#000"/><path d="M948.82 465.1a1.48 1.48 0 10-1.19-1.72 1.452 1.452 0 00.647 1.515c.165.104.35.174.543.205zm2.96-23.881a1.476 1.476 0 001.509-.653c.159-.246.241-.534.237-.827a1.477 1.477 0 00-1.793-1.422 1.474 1.474 0 00-1.143 1.182 1.452 1.452 0 00.647 1.515c.165.104.35.174.543.205zm17.65-50.34a1.48 1.48 0 10-1.19-1.72c-.039.192-.039.389.001.58a1.452 1.452 0 001.189 1.14zm0 27.5a1.48 1.48 0 10-1.19-1.72c-.039.192-.039.389.001.58a1.452 1.452 0 001.189 1.14zm13.47 18.932a1.475 1.475 0 001.746-1.48 1.48 1.48 0 00-2.936-.24 1.452 1.452 0 00.647 1.515c.165.104.35.174.543.205zm-1.48 20.099a1.48 1.48 0 10-1.19-1.72 1.457 1.457 0 00.229 1.114c.111.161.253.297.419.401.165.105.349.174.542.205zM965 465.1a1.477 1.477 0 001.484-2.298 1.482 1.482 0 00-2.281-.187c-.204.211-.34.477-.393.765a1.452 1.452 0 001.19 1.72zm17.9-48.199c.288.052.585.018.854-.098a1.483 1.483 0 00.629-2.2 1.486 1.486 0 00-.673-.535 1.486 1.486 0 00-1.608.348c-.204.21-.34.477-.392.765a1.452 1.452 0 00.647 1.515c.165.104.35.174.543.205zm-13.47 37.218a1.48 1.48 0 10-1.19-1.72 1.44 1.44 0 00.229 1.114 1.44 1.44 0 00.961.606zm26.91-12.9a1.48 1.48 0 10-1.19-1.72 1.455 1.455 0 00.647 1.515c.166.104.35.174.543.205zm-47.52-39.6a1.48 1.48 0 10-1.19-1.72 1.457 1.457 0 00.228 1.114 1.443 1.443 0 00.962.606zm0-28.378a1.482 1.482 0 00.81-2.833 1.486 1.486 0 00-1.608.348 1.47 1.47 0 00-.392.765 1.452 1.452 0 00.228 1.113 1.443 1.443 0 00.962.607zm7.28 107.939a1.477 1.477 0 001.483-2.298 1.476 1.476 0 00-2.281-.187c-.203.211-.34.477-.392.765a1.453 1.453 0 00.647 1.515c.165.104.35.174.543.205z" fill="#F3F3F3"/><path d="M634.46 901.14H604a2.997 2.997 0 01-3.05-2.87v-31.46a2.999 2.999 0 013.05-2.87h30.48a2.998 2.998 0 013 2.87v31.46a3 3 0 01-3.02 2.87z" class="change-color-in-svg" fill="#44a7ef"/><path d="M615.87 889.931l-6.26-6.12a.92.92 0 010-1.23l1.61-1.64a.929.929 0 011.23 0l4 3.94 9.48-9.74a.929.929 0 011.23 0l1.64 1.61a.918.918 0 010 1.23l-11.71 12a.872.872 0 01-.625.26.88.88 0 01-.625-.26m622.39-333.341H1158c-.62 0-1.23-.121-1.8-.357a4.83 4.83 0 01-1.52-1.017 4.66 4.66 0 01-1.01-1.521 4.614 4.614 0 01-.36-1.795v-80.23a4.718 4.718 0 011.36-3.336c.44-.438.96-.787 1.53-1.024.57-.238 1.18-.36 1.8-.36h80.23a4.683 4.683 0 014.69 4.69V552a4.668 4.668 0 01-1.39 3.284 4.705 4.705 0 01-3.3 1.356z" fill="#fff"/><path d="M1195.1 538.871a8.723 8.723 0 01-6.16-2.557 8.702 8.702 0 01-2.56-6.163v-33.61a11.735 11.735 0 0111.73-11.73c1.54 0 3.07.303 4.49.893a11.722 11.722 0 016.35 6.355c.59 1.424.89 2.95.89 4.492v26.78c0 .214-.04.426-.12.623-.09.198-.21.378-.36.529-.15.152-.33.272-.53.353a1.597 1.597 0 01-1.24 0c-.2-.081-.38-.201-.53-.353a1.809 1.809 0 01-.36-.529 1.656 1.656 0 01-.12-.623v-26.78a8.6 8.6 0 00-.64-3.247 8.494 8.494 0 00-4.59-4.591 8.503 8.503 0 00-6.49.003 8.499 8.499 0 00-4.59 4.59 8.59 8.59 0 00-.64 3.245v33.61a5.46 5.46 0 001.68 3.715 5.468 5.468 0 009.25-3.715v-25.94a2.772 2.772 0 00-2.76-2.77c-.73.002-1.44.295-1.96.814a2.803 2.803 0 00-.81 1.956v18.53c0 .432-.17.846-.48 1.152-.3.306-.72.478-1.15.478-.43 0-.85-.172-1.15-.478-.31-.306-.48-.72-.48-1.152v-18.53c0-1.592.63-3.118 1.76-4.243a5.988 5.988 0 014.24-1.757c1.59 0 3.12.632 4.24 1.757a5.982 5.982 0 011.76 4.243v25.93a8.773 8.773 0 01-2.54 6.142 8.763 8.763 0 01-6.13 2.578z" fill="#868A91"/><path d="M932.67 461.251l3.19-1.7 10.71 16.99-3.58 1.46-10.32-16.75zM698.91 511.63l19.94 13.01 2.81-3.17-20.57-12.89-2.18 3.05z" fill="#000"/></svg>